G04 #@! TF.FileFunction,Legend,Bot*
%FSLAX46Y46*%
G04 Gerber Fmt 4.6, Leading zero omitted, Abs format (unit mm)*
G04 Created by KiCad (PCBNEW 4.0.7) date Tue Sep 26 02:04:38 2017*
%MOMM*%
%LPD*%
G01*
G04 APERTURE LIST*
%ADD10C,0.100000*%
%ADD11C,0.200000*%
%ADD12C,0.300000*%
%ADD13C,0.010000*%
G04 APERTURE END LIST*
D10*
D11*
X145594282Y-126082857D02*
X146279997Y-126082857D01*
X145937139Y-126082857D02*
X145937139Y-124882857D01*
X146051425Y-125054286D01*
X146165711Y-125168571D01*
X146279997Y-125225714D01*
X145079997Y-125625714D02*
X144165711Y-125625714D01*
X143651426Y-124997143D02*
X143594283Y-124940000D01*
X143479997Y-124882857D01*
X143194283Y-124882857D01*
X143079997Y-124940000D01*
X143022854Y-124997143D01*
X142965711Y-125111429D01*
X142965711Y-125225714D01*
X143022854Y-125397143D01*
X143708568Y-126082857D01*
X142965711Y-126082857D01*
X141594283Y-124997143D02*
X141537140Y-124940000D01*
X141422854Y-124882857D01*
X141137140Y-124882857D01*
X141022854Y-124940000D01*
X140965711Y-124997143D01*
X140908568Y-125111429D01*
X140908568Y-125225714D01*
X140965711Y-125397143D01*
X141651425Y-126082857D01*
X140908568Y-126082857D01*
X140394283Y-125625714D02*
X139479997Y-125625714D01*
X139022854Y-124882857D02*
X138279997Y-124882857D01*
X138679997Y-125340000D01*
X138508569Y-125340000D01*
X138394283Y-125397143D01*
X138337140Y-125454286D01*
X138279997Y-125568571D01*
X138279997Y-125854286D01*
X138337140Y-125968571D01*
X138394283Y-126025714D01*
X138508569Y-126082857D01*
X138851426Y-126082857D01*
X138965712Y-126025714D01*
X139022854Y-125968571D01*
X156851429Y-126882857D02*
X156851429Y-127740000D01*
X156908571Y-127911429D01*
X157022857Y-128025714D01*
X157194286Y-128082857D01*
X157308571Y-128082857D01*
X156280000Y-128082857D02*
X156280000Y-126882857D01*
X155822857Y-126882857D01*
X155708571Y-126940000D01*
X155651428Y-126997143D01*
X155594285Y-127111429D01*
X155594285Y-127282857D01*
X155651428Y-127397143D01*
X155708571Y-127454286D01*
X155822857Y-127511429D01*
X156280000Y-127511429D01*
X154451428Y-128082857D02*
X155137143Y-128082857D01*
X154794285Y-128082857D02*
X154794285Y-126882857D01*
X154908571Y-127054286D01*
X155022857Y-127168571D01*
X155137143Y-127225714D01*
X153937143Y-127968571D02*
X153880000Y-128025714D01*
X153937143Y-128082857D01*
X153994286Y-128025714D01*
X153937143Y-127968571D01*
X153937143Y-128082857D01*
X153937143Y-127340000D02*
X153880000Y-127397143D01*
X153937143Y-127454286D01*
X153994286Y-127397143D01*
X153937143Y-127340000D01*
X153937143Y-127454286D01*
X152451428Y-128082857D02*
X152451428Y-126882857D01*
X152165713Y-126882857D01*
X151994285Y-126940000D01*
X151879999Y-127054286D01*
X151822856Y-127168571D01*
X151765713Y-127397143D01*
X151765713Y-127568571D01*
X151822856Y-127797143D01*
X151879999Y-127911429D01*
X151994285Y-128025714D01*
X152165713Y-128082857D01*
X152451428Y-128082857D01*
X151308571Y-127740000D02*
X150737142Y-127740000D01*
X151422856Y-128082857D02*
X151022856Y-126882857D01*
X150622856Y-128082857D01*
X149994285Y-126882857D02*
X149880000Y-126882857D01*
X149765714Y-126940000D01*
X149708571Y-126997143D01*
X149651428Y-127111429D01*
X149594285Y-127340000D01*
X149594285Y-127625714D01*
X149651428Y-127854286D01*
X149708571Y-127968571D01*
X149765714Y-128025714D01*
X149880000Y-128082857D01*
X149994285Y-128082857D01*
X150108571Y-128025714D01*
X150165714Y-127968571D01*
X150222857Y-127854286D01*
X150280000Y-127625714D01*
X150280000Y-127340000D01*
X150222857Y-127111429D01*
X150165714Y-126997143D01*
X150108571Y-126940000D01*
X149994285Y-126882857D01*
X146337142Y-128082857D02*
X146337142Y-126882857D01*
X145879999Y-126882857D01*
X145765713Y-126940000D01*
X145708570Y-126997143D01*
X145651427Y-127111429D01*
X145651427Y-127282857D01*
X145708570Y-127397143D01*
X145765713Y-127454286D01*
X145879999Y-127511429D01*
X146337142Y-127511429D01*
X144451427Y-127968571D02*
X144508570Y-128025714D01*
X144679999Y-128082857D01*
X144794285Y-128082857D01*
X144965713Y-128025714D01*
X145079999Y-127911429D01*
X145137142Y-127797143D01*
X145194285Y-127568571D01*
X145194285Y-127397143D01*
X145137142Y-127168571D01*
X145079999Y-127054286D01*
X144965713Y-126940000D01*
X144794285Y-126882857D01*
X144679999Y-126882857D01*
X144508570Y-126940000D01*
X144451427Y-126997143D01*
X143708570Y-126882857D02*
X143594285Y-126882857D01*
X143479999Y-126940000D01*
X143422856Y-126997143D01*
X143365713Y-127111429D01*
X143308570Y-127340000D01*
X143308570Y-127625714D01*
X143365713Y-127854286D01*
X143422856Y-127968571D01*
X143479999Y-128025714D01*
X143594285Y-128082857D01*
X143708570Y-128082857D01*
X143822856Y-128025714D01*
X143879999Y-127968571D01*
X143937142Y-127854286D01*
X143994285Y-127625714D01*
X143994285Y-127340000D01*
X143937142Y-127111429D01*
X143879999Y-126997143D01*
X143822856Y-126940000D01*
X143708570Y-126882857D01*
X140965713Y-128082857D02*
X140965713Y-126882857D01*
X140508570Y-126882857D01*
X140394284Y-126940000D01*
X140337141Y-126997143D01*
X140279998Y-127111429D01*
X140279998Y-127282857D01*
X140337141Y-127397143D01*
X140394284Y-127454286D01*
X140508570Y-127511429D01*
X140965713Y-127511429D01*
X139079998Y-127968571D02*
X139137141Y-128025714D01*
X139308570Y-128082857D01*
X139422856Y-128082857D01*
X139594284Y-128025714D01*
X139708570Y-127911429D01*
X139765713Y-127797143D01*
X139822856Y-127568571D01*
X139822856Y-127397143D01*
X139765713Y-127168571D01*
X139708570Y-127054286D01*
X139594284Y-126940000D01*
X139422856Y-126882857D01*
X139308570Y-126882857D01*
X139137141Y-126940000D01*
X139079998Y-126997143D01*
X138051427Y-127282857D02*
X138051427Y-128082857D01*
X138337141Y-126825714D02*
X138622856Y-127682857D01*
X137879998Y-127682857D01*
X156851429Y-128882857D02*
X156851429Y-129740000D01*
X156908571Y-129911429D01*
X157022857Y-130025714D01*
X157194286Y-130082857D01*
X157308571Y-130082857D01*
X156280000Y-130082857D02*
X156280000Y-128882857D01*
X155822857Y-128882857D01*
X155708571Y-128940000D01*
X155651428Y-128997143D01*
X155594285Y-129111429D01*
X155594285Y-129282857D01*
X155651428Y-129397143D01*
X155708571Y-129454286D01*
X155822857Y-129511429D01*
X156280000Y-129511429D01*
X155137143Y-128997143D02*
X155080000Y-128940000D01*
X154965714Y-128882857D01*
X154680000Y-128882857D01*
X154565714Y-128940000D01*
X154508571Y-128997143D01*
X154451428Y-129111429D01*
X154451428Y-129225714D01*
X154508571Y-129397143D01*
X155194285Y-130082857D01*
X154451428Y-130082857D01*
X153937143Y-129968571D02*
X153880000Y-130025714D01*
X153937143Y-130082857D01*
X153994286Y-130025714D01*
X153937143Y-129968571D01*
X153937143Y-130082857D01*
X153937143Y-129340000D02*
X153880000Y-129397143D01*
X153937143Y-129454286D01*
X153994286Y-129397143D01*
X153937143Y-129340000D01*
X153937143Y-129454286D01*
X152451428Y-130082857D02*
X152451428Y-128882857D01*
X152165713Y-128882857D01*
X151994285Y-128940000D01*
X151879999Y-129054286D01*
X151822856Y-129168571D01*
X151765713Y-129397143D01*
X151765713Y-129568571D01*
X151822856Y-129797143D01*
X151879999Y-129911429D01*
X151994285Y-130025714D01*
X152165713Y-130082857D01*
X152451428Y-130082857D01*
X150565713Y-129968571D02*
X150622856Y-130025714D01*
X150794285Y-130082857D01*
X150908571Y-130082857D01*
X151079999Y-130025714D01*
X151194285Y-129911429D01*
X151251428Y-129797143D01*
X151308571Y-129568571D01*
X151308571Y-129397143D01*
X151251428Y-129168571D01*
X151194285Y-129054286D01*
X151079999Y-128940000D01*
X150908571Y-128882857D01*
X150794285Y-128882857D01*
X150622856Y-128940000D01*
X150565713Y-128997143D01*
X150108571Y-130025714D02*
X149937142Y-130082857D01*
X149651428Y-130082857D01*
X149537142Y-130025714D01*
X149479999Y-129968571D01*
X149422856Y-129854286D01*
X149422856Y-129740000D01*
X149479999Y-129625714D01*
X149537142Y-129568571D01*
X149651428Y-129511429D01*
X149879999Y-129454286D01*
X149994285Y-129397143D01*
X150051428Y-129340000D01*
X150108571Y-129225714D01*
X150108571Y-129111429D01*
X150051428Y-128997143D01*
X149994285Y-128940000D01*
X149879999Y-128882857D01*
X149594285Y-128882857D01*
X149422856Y-128940000D01*
X148279999Y-130082857D02*
X148965714Y-130082857D01*
X148622856Y-130082857D02*
X148622856Y-128882857D01*
X148737142Y-129054286D01*
X148851428Y-129168571D01*
X148965714Y-129225714D01*
X145937142Y-130082857D02*
X145937142Y-128882857D01*
X145479999Y-128882857D01*
X145365713Y-128940000D01*
X145308570Y-128997143D01*
X145251427Y-129111429D01*
X145251427Y-129282857D01*
X145308570Y-129397143D01*
X145365713Y-129454286D01*
X145479999Y-129511429D01*
X145937142Y-129511429D01*
X144051427Y-129968571D02*
X144108570Y-130025714D01*
X144279999Y-130082857D01*
X144394285Y-130082857D01*
X144565713Y-130025714D01*
X144679999Y-129911429D01*
X144737142Y-129797143D01*
X144794285Y-129568571D01*
X144794285Y-129397143D01*
X144737142Y-129168571D01*
X144679999Y-129054286D01*
X144565713Y-128940000D01*
X144394285Y-128882857D01*
X144279999Y-128882857D01*
X144108570Y-128940000D01*
X144051427Y-128997143D01*
X143022856Y-129282857D02*
X143022856Y-130082857D01*
X143308570Y-128825714D02*
X143594285Y-129682857D01*
X142851427Y-129682857D01*
X140565713Y-130082857D02*
X140565713Y-128882857D01*
X140108570Y-128882857D01*
X139994284Y-128940000D01*
X139937141Y-128997143D01*
X139879998Y-129111429D01*
X139879998Y-129282857D01*
X139937141Y-129397143D01*
X139994284Y-129454286D01*
X140108570Y-129511429D01*
X140565713Y-129511429D01*
X138679998Y-129968571D02*
X138737141Y-130025714D01*
X138908570Y-130082857D01*
X139022856Y-130082857D01*
X139194284Y-130025714D01*
X139308570Y-129911429D01*
X139365713Y-129797143D01*
X139422856Y-129568571D01*
X139422856Y-129397143D01*
X139365713Y-129168571D01*
X139308570Y-129054286D01*
X139194284Y-128940000D01*
X139022856Y-128882857D01*
X138908570Y-128882857D01*
X138737141Y-128940000D01*
X138679998Y-128997143D01*
X137937141Y-128882857D02*
X137822856Y-128882857D01*
X137708570Y-128940000D01*
X137651427Y-128997143D01*
X137594284Y-129111429D01*
X137537141Y-129340000D01*
X137537141Y-129625714D01*
X137594284Y-129854286D01*
X137651427Y-129968571D01*
X137708570Y-130025714D01*
X137822856Y-130082857D01*
X137937141Y-130082857D01*
X138051427Y-130025714D01*
X138108570Y-129968571D01*
X138165713Y-129854286D01*
X138222856Y-129625714D01*
X138222856Y-129340000D01*
X138165713Y-129111429D01*
X138108570Y-128997143D01*
X138051427Y-128940000D01*
X137937141Y-128882857D01*
X156851429Y-130882857D02*
X156851429Y-131740000D01*
X156908571Y-131911429D01*
X157022857Y-132025714D01*
X157194286Y-132082857D01*
X157308571Y-132082857D01*
X156280000Y-132082857D02*
X156280000Y-130882857D01*
X155822857Y-130882857D01*
X155708571Y-130940000D01*
X155651428Y-130997143D01*
X155594285Y-131111429D01*
X155594285Y-131282857D01*
X155651428Y-131397143D01*
X155708571Y-131454286D01*
X155822857Y-131511429D01*
X156280000Y-131511429D01*
X155194285Y-130882857D02*
X154451428Y-130882857D01*
X154851428Y-131340000D01*
X154680000Y-131340000D01*
X154565714Y-131397143D01*
X154508571Y-131454286D01*
X154451428Y-131568571D01*
X154451428Y-131854286D01*
X154508571Y-131968571D01*
X154565714Y-132025714D01*
X154680000Y-132082857D01*
X155022857Y-132082857D01*
X155137143Y-132025714D01*
X155194285Y-131968571D01*
X153937143Y-131968571D02*
X153880000Y-132025714D01*
X153937143Y-132082857D01*
X153994286Y-132025714D01*
X153937143Y-131968571D01*
X153937143Y-132082857D01*
X153937143Y-131340000D02*
X153880000Y-131397143D01*
X153937143Y-131454286D01*
X153994286Y-131397143D01*
X153937143Y-131340000D01*
X153937143Y-131454286D01*
X152451428Y-132082857D02*
X152451428Y-130882857D01*
X152165713Y-130882857D01*
X151994285Y-130940000D01*
X151879999Y-131054286D01*
X151822856Y-131168571D01*
X151765713Y-131397143D01*
X151765713Y-131568571D01*
X151822856Y-131797143D01*
X151879999Y-131911429D01*
X151994285Y-132025714D01*
X152165713Y-132082857D01*
X152451428Y-132082857D01*
X151308571Y-131740000D02*
X150737142Y-131740000D01*
X151422856Y-132082857D02*
X151022856Y-130882857D01*
X150622856Y-132082857D01*
X149594285Y-132082857D02*
X150280000Y-132082857D01*
X149937142Y-132082857D02*
X149937142Y-130882857D01*
X150051428Y-131054286D01*
X150165714Y-131168571D01*
X150280000Y-131225714D01*
X146337142Y-132082857D02*
X146337142Y-130882857D01*
X145879999Y-130882857D01*
X145765713Y-130940000D01*
X145708570Y-130997143D01*
X145651427Y-131111429D01*
X145651427Y-131282857D01*
X145708570Y-131397143D01*
X145765713Y-131454286D01*
X145879999Y-131511429D01*
X146337142Y-131511429D01*
X144451427Y-131968571D02*
X144508570Y-132025714D01*
X144679999Y-132082857D01*
X144794285Y-132082857D01*
X144965713Y-132025714D01*
X145079999Y-131911429D01*
X145137142Y-131797143D01*
X145194285Y-131568571D01*
X145194285Y-131397143D01*
X145137142Y-131168571D01*
X145079999Y-131054286D01*
X144965713Y-130940000D01*
X144794285Y-130882857D01*
X144679999Y-130882857D01*
X144508570Y-130940000D01*
X144451427Y-130997143D01*
X143308570Y-132082857D02*
X143994285Y-132082857D01*
X143651427Y-132082857D02*
X143651427Y-130882857D01*
X143765713Y-131054286D01*
X143879999Y-131168571D01*
X143994285Y-131225714D01*
X140965713Y-132082857D02*
X140965713Y-130882857D01*
X140508570Y-130882857D01*
X140394284Y-130940000D01*
X140337141Y-130997143D01*
X140279998Y-131111429D01*
X140279998Y-131282857D01*
X140337141Y-131397143D01*
X140394284Y-131454286D01*
X140508570Y-131511429D01*
X140965713Y-131511429D01*
X139079998Y-131968571D02*
X139137141Y-132025714D01*
X139308570Y-132082857D01*
X139422856Y-132082857D01*
X139594284Y-132025714D01*
X139708570Y-131911429D01*
X139765713Y-131797143D01*
X139822856Y-131568571D01*
X139822856Y-131397143D01*
X139765713Y-131168571D01*
X139708570Y-131054286D01*
X139594284Y-130940000D01*
X139422856Y-130882857D01*
X139308570Y-130882857D01*
X139137141Y-130940000D01*
X139079998Y-130997143D01*
X138051427Y-130882857D02*
X138279998Y-130882857D01*
X138394284Y-130940000D01*
X138451427Y-130997143D01*
X138565713Y-131168571D01*
X138622856Y-131397143D01*
X138622856Y-131854286D01*
X138565713Y-131968571D01*
X138508570Y-132025714D01*
X138394284Y-132082857D01*
X138165713Y-132082857D01*
X138051427Y-132025714D01*
X137994284Y-131968571D01*
X137937141Y-131854286D01*
X137937141Y-131568571D01*
X137994284Y-131454286D01*
X138051427Y-131397143D01*
X138165713Y-131340000D01*
X138394284Y-131340000D01*
X138508570Y-131397143D01*
X138565713Y-131454286D01*
X138622856Y-131568571D01*
X156851429Y-132882857D02*
X156851429Y-133740000D01*
X156908571Y-133911429D01*
X157022857Y-134025714D01*
X157194286Y-134082857D01*
X157308571Y-134082857D01*
X156280000Y-134082857D02*
X156280000Y-132882857D01*
X155822857Y-132882857D01*
X155708571Y-132940000D01*
X155651428Y-132997143D01*
X155594285Y-133111429D01*
X155594285Y-133282857D01*
X155651428Y-133397143D01*
X155708571Y-133454286D01*
X155822857Y-133511429D01*
X156280000Y-133511429D01*
X154565714Y-133282857D02*
X154565714Y-134082857D01*
X154851428Y-132825714D02*
X155137143Y-133682857D01*
X154394285Y-133682857D01*
X153937143Y-133968571D02*
X153880000Y-134025714D01*
X153937143Y-134082857D01*
X153994286Y-134025714D01*
X153937143Y-133968571D01*
X153937143Y-134082857D01*
X153937143Y-133340000D02*
X153880000Y-133397143D01*
X153937143Y-133454286D01*
X153994286Y-133397143D01*
X153937143Y-133340000D01*
X153937143Y-133454286D01*
X152451428Y-134082857D02*
X152451428Y-132882857D01*
X152165713Y-132882857D01*
X151994285Y-132940000D01*
X151879999Y-133054286D01*
X151822856Y-133168571D01*
X151765713Y-133397143D01*
X151765713Y-133568571D01*
X151822856Y-133797143D01*
X151879999Y-133911429D01*
X151994285Y-134025714D01*
X152165713Y-134082857D01*
X152451428Y-134082857D01*
X151251428Y-134082857D02*
X151251428Y-132882857D01*
X150451427Y-132882857D02*
X150222856Y-132882857D01*
X150108570Y-132940000D01*
X149994284Y-133054286D01*
X149937142Y-133282857D01*
X149937142Y-133682857D01*
X149994284Y-133911429D01*
X150108570Y-134025714D01*
X150222856Y-134082857D01*
X150451427Y-134082857D01*
X150565713Y-134025714D01*
X150679999Y-133911429D01*
X150737142Y-133682857D01*
X150737142Y-133282857D01*
X150679999Y-133054286D01*
X150565713Y-132940000D01*
X150451427Y-132882857D01*
X148737141Y-134082857D02*
X149137141Y-133511429D01*
X149422856Y-134082857D02*
X149422856Y-132882857D01*
X148965713Y-132882857D01*
X148851427Y-132940000D01*
X148794284Y-132997143D01*
X148737141Y-133111429D01*
X148737141Y-133282857D01*
X148794284Y-133397143D01*
X148851427Y-133454286D01*
X148965713Y-133511429D01*
X149422856Y-133511429D01*
X146394284Y-134082857D02*
X146394284Y-132882857D01*
X145937141Y-132882857D01*
X145822855Y-132940000D01*
X145765712Y-132997143D01*
X145708569Y-133111429D01*
X145708569Y-133282857D01*
X145765712Y-133397143D01*
X145822855Y-133454286D01*
X145937141Y-133511429D01*
X146394284Y-133511429D01*
X144508569Y-133968571D02*
X144565712Y-134025714D01*
X144737141Y-134082857D01*
X144851427Y-134082857D01*
X145022855Y-134025714D01*
X145137141Y-133911429D01*
X145194284Y-133797143D01*
X145251427Y-133568571D01*
X145251427Y-133397143D01*
X145194284Y-133168571D01*
X145137141Y-133054286D01*
X145022855Y-132940000D01*
X144851427Y-132882857D01*
X144737141Y-132882857D01*
X144565712Y-132940000D01*
X144508569Y-132997143D01*
X143479998Y-132882857D02*
X143708569Y-132882857D01*
X143822855Y-132940000D01*
X143879998Y-132997143D01*
X143994284Y-133168571D01*
X144051427Y-133397143D01*
X144051427Y-133854286D01*
X143994284Y-133968571D01*
X143937141Y-134025714D01*
X143822855Y-134082857D01*
X143594284Y-134082857D01*
X143479998Y-134025714D01*
X143422855Y-133968571D01*
X143365712Y-133854286D01*
X143365712Y-133568571D01*
X143422855Y-133454286D01*
X143479998Y-133397143D01*
X143594284Y-133340000D01*
X143822855Y-133340000D01*
X143937141Y-133397143D01*
X143994284Y-133454286D01*
X144051427Y-133568571D01*
X141022855Y-134082857D02*
X141022855Y-132882857D01*
X140565712Y-132882857D01*
X140451426Y-132940000D01*
X140394283Y-132997143D01*
X140337140Y-133111429D01*
X140337140Y-133282857D01*
X140394283Y-133397143D01*
X140451426Y-133454286D01*
X140565712Y-133511429D01*
X141022855Y-133511429D01*
X139137140Y-133968571D02*
X139194283Y-134025714D01*
X139365712Y-134082857D01*
X139479998Y-134082857D01*
X139651426Y-134025714D01*
X139765712Y-133911429D01*
X139822855Y-133797143D01*
X139879998Y-133568571D01*
X139879998Y-133397143D01*
X139822855Y-133168571D01*
X139765712Y-133054286D01*
X139651426Y-132940000D01*
X139479998Y-132882857D01*
X139365712Y-132882857D01*
X139194283Y-132940000D01*
X139137140Y-132997143D01*
X137994283Y-134082857D02*
X138679998Y-134082857D01*
X138337140Y-134082857D02*
X138337140Y-132882857D01*
X138451426Y-133054286D01*
X138565712Y-133168571D01*
X138679998Y-133225714D01*
D12*
X158197142Y-159341429D02*
X158125713Y-159270000D01*
X157982856Y-159198571D01*
X157625713Y-159198571D01*
X157482856Y-159270000D01*
X157411427Y-159341429D01*
X157339999Y-159484286D01*
X157339999Y-159627143D01*
X157411427Y-159841429D01*
X158268570Y-160698571D01*
X157339999Y-160698571D01*
X156411428Y-159198571D02*
X156268571Y-159198571D01*
X156125714Y-159270000D01*
X156054285Y-159341429D01*
X155982856Y-159484286D01*
X155911428Y-159770000D01*
X155911428Y-160127143D01*
X155982856Y-160412857D01*
X156054285Y-160555714D01*
X156125714Y-160627143D01*
X156268571Y-160698571D01*
X156411428Y-160698571D01*
X156554285Y-160627143D01*
X156625714Y-160555714D01*
X156697142Y-160412857D01*
X156768571Y-160127143D01*
X156768571Y-159770000D01*
X156697142Y-159484286D01*
X156625714Y-159341429D01*
X156554285Y-159270000D01*
X156411428Y-159198571D01*
X154482857Y-160698571D02*
X155340000Y-160698571D01*
X154911428Y-160698571D02*
X154911428Y-159198571D01*
X155054285Y-159412857D01*
X155197143Y-159555714D01*
X155340000Y-159627143D01*
X153982857Y-159198571D02*
X152982857Y-159198571D01*
X153625714Y-160698571D01*
X151268572Y-159912857D02*
X150768572Y-159912857D01*
X150554286Y-160698571D02*
X151268572Y-160698571D01*
X151268572Y-159198571D01*
X150554286Y-159198571D01*
X149268572Y-160698571D02*
X149268572Y-159198571D01*
X149268572Y-160627143D02*
X149411429Y-160698571D01*
X149697143Y-160698571D01*
X149840001Y-160627143D01*
X149911429Y-160555714D01*
X149982858Y-160412857D01*
X149982858Y-159984286D01*
X149911429Y-159841429D01*
X149840001Y-159770000D01*
X149697143Y-159698571D01*
X149411429Y-159698571D01*
X149268572Y-159770000D01*
X146911429Y-159912857D02*
X146697143Y-159984286D01*
X146625715Y-160055714D01*
X146554286Y-160198571D01*
X146554286Y-160412857D01*
X146625715Y-160555714D01*
X146697143Y-160627143D01*
X146840001Y-160698571D01*
X147411429Y-160698571D01*
X147411429Y-159198571D01*
X146911429Y-159198571D01*
X146768572Y-159270000D01*
X146697143Y-159341429D01*
X146625715Y-159484286D01*
X146625715Y-159627143D01*
X146697143Y-159770000D01*
X146768572Y-159841429D01*
X146911429Y-159912857D01*
X147411429Y-159912857D01*
X145911429Y-160698571D02*
X145911429Y-159698571D01*
X145911429Y-159984286D02*
X145840001Y-159841429D01*
X145768572Y-159770000D01*
X145625715Y-159698571D01*
X145482858Y-159698571D01*
X144982858Y-160698571D02*
X144982858Y-159698571D01*
X144982858Y-159198571D02*
X145054287Y-159270000D01*
X144982858Y-159341429D01*
X144911430Y-159270000D01*
X144982858Y-159198571D01*
X144982858Y-159341429D01*
X144268572Y-159698571D02*
X144268572Y-160698571D01*
X144268572Y-159841429D02*
X144197144Y-159770000D01*
X144054286Y-159698571D01*
X143840001Y-159698571D01*
X143697144Y-159770000D01*
X143625715Y-159912857D01*
X143625715Y-160698571D01*
X142268572Y-160698571D02*
X142268572Y-159198571D01*
X142268572Y-160627143D02*
X142411429Y-160698571D01*
X142697143Y-160698571D01*
X142840001Y-160627143D01*
X142911429Y-160555714D01*
X142982858Y-160412857D01*
X142982858Y-159984286D01*
X142911429Y-159841429D01*
X142840001Y-159770000D01*
X142697143Y-159698571D01*
X142411429Y-159698571D01*
X142268572Y-159770000D01*
X141340000Y-160698571D02*
X141482858Y-160627143D01*
X141554286Y-160484286D01*
X141554286Y-159198571D01*
X140197144Y-160627143D02*
X140340001Y-160698571D01*
X140625715Y-160698571D01*
X140768572Y-160627143D01*
X140840001Y-160484286D01*
X140840001Y-159912857D01*
X140768572Y-159770000D01*
X140625715Y-159698571D01*
X140340001Y-159698571D01*
X140197144Y-159770000D01*
X140125715Y-159912857D01*
X140125715Y-160055714D01*
X140840001Y-160198571D01*
X139625715Y-159698571D02*
X139268572Y-160698571D01*
X138911430Y-159698571D02*
X139268572Y-160698571D01*
X139411430Y-161055714D01*
X139482858Y-161127143D01*
X139625715Y-161198571D01*
D13*
G36*
X83568100Y-125781903D02*
X83456550Y-125837522D01*
X83358092Y-125939931D01*
X83330977Y-125977864D01*
X83301438Y-126027500D01*
X83282272Y-126081412D01*
X83271307Y-126153364D01*
X83266371Y-126257122D01*
X83265287Y-126394101D01*
X83270182Y-126581815D01*
X83287196Y-126722758D01*
X83319823Y-126827908D01*
X83371558Y-126908243D01*
X83445896Y-126974741D01*
X83451358Y-126978678D01*
X83524620Y-127018953D01*
X83612840Y-127038880D01*
X83725038Y-127043793D01*
X83907433Y-127043793D01*
X83907509Y-127220857D01*
X83909207Y-127319470D01*
X83919550Y-127377314D01*
X83946578Y-127412006D01*
X83998332Y-127441164D01*
X84010761Y-127447121D01*
X84068923Y-127475039D01*
X84113956Y-127492672D01*
X84147441Y-127494194D01*
X84170962Y-127473781D01*
X84186100Y-127425607D01*
X84194437Y-127343846D01*
X84197556Y-127222672D01*
X84197040Y-127056260D01*
X84194471Y-126838785D01*
X84193668Y-126773736D01*
X84190778Y-126549502D01*
X84188188Y-126402821D01*
X83907586Y-126402821D01*
X83906009Y-126527326D01*
X83899000Y-126608787D01*
X83883142Y-126662515D01*
X83855019Y-126703823D01*
X83835925Y-126723971D01*
X83757865Y-126782921D01*
X83688753Y-126787720D01*
X83617440Y-126739038D01*
X83615632Y-126737241D01*
X83586617Y-126699618D01*
X83568967Y-126648484D01*
X83560064Y-126569738D01*
X83557291Y-126449276D01*
X83557241Y-126422588D01*
X83563942Y-126256583D01*
X83585752Y-126141505D01*
X83625235Y-126071254D01*
X83684956Y-126039729D01*
X83719472Y-126036552D01*
X83801389Y-126051460D01*
X83857579Y-126100548D01*
X83891402Y-126190362D01*
X83906220Y-126327445D01*
X83907586Y-126402821D01*
X84188188Y-126402821D01*
X84187713Y-126375952D01*
X84183753Y-126245382D01*
X84178174Y-126150087D01*
X84170254Y-126082364D01*
X84159269Y-126034507D01*
X84144499Y-125998813D01*
X84125218Y-125967578D01*
X84116951Y-125955824D01*
X84007288Y-125844797D01*
X83868635Y-125781847D01*
X83708246Y-125764297D01*
X83568100Y-125781903D01*
X83568100Y-125781903D01*
G37*
X83568100Y-125781903D02*
X83456550Y-125837522D01*
X83358092Y-125939931D01*
X83330977Y-125977864D01*
X83301438Y-126027500D01*
X83282272Y-126081412D01*
X83271307Y-126153364D01*
X83266371Y-126257122D01*
X83265287Y-126394101D01*
X83270182Y-126581815D01*
X83287196Y-126722758D01*
X83319823Y-126827908D01*
X83371558Y-126908243D01*
X83445896Y-126974741D01*
X83451358Y-126978678D01*
X83524620Y-127018953D01*
X83612840Y-127038880D01*
X83725038Y-127043793D01*
X83907433Y-127043793D01*
X83907509Y-127220857D01*
X83909207Y-127319470D01*
X83919550Y-127377314D01*
X83946578Y-127412006D01*
X83998332Y-127441164D01*
X84010761Y-127447121D01*
X84068923Y-127475039D01*
X84113956Y-127492672D01*
X84147441Y-127494194D01*
X84170962Y-127473781D01*
X84186100Y-127425607D01*
X84194437Y-127343846D01*
X84197556Y-127222672D01*
X84197040Y-127056260D01*
X84194471Y-126838785D01*
X84193668Y-126773736D01*
X84190778Y-126549502D01*
X84188188Y-126402821D01*
X83907586Y-126402821D01*
X83906009Y-126527326D01*
X83899000Y-126608787D01*
X83883142Y-126662515D01*
X83855019Y-126703823D01*
X83835925Y-126723971D01*
X83757865Y-126782921D01*
X83688753Y-126787720D01*
X83617440Y-126739038D01*
X83615632Y-126737241D01*
X83586617Y-126699618D01*
X83568967Y-126648484D01*
X83560064Y-126569738D01*
X83557291Y-126449276D01*
X83557241Y-126422588D01*
X83563942Y-126256583D01*
X83585752Y-126141505D01*
X83625235Y-126071254D01*
X83684956Y-126039729D01*
X83719472Y-126036552D01*
X83801389Y-126051460D01*
X83857579Y-126100548D01*
X83891402Y-126190362D01*
X83906220Y-126327445D01*
X83907586Y-126402821D01*
X84188188Y-126402821D01*
X84187713Y-126375952D01*
X84183753Y-126245382D01*
X84178174Y-126150087D01*
X84170254Y-126082364D01*
X84159269Y-126034507D01*
X84144499Y-125998813D01*
X84125218Y-125967578D01*
X84116951Y-125955824D01*
X84007288Y-125844797D01*
X83868635Y-125781847D01*
X83708246Y-125764297D01*
X83568100Y-125781903D01*
G36*
X81322571Y-125797719D02*
X81228877Y-125851914D01*
X81163736Y-125905707D01*
X81116093Y-125962066D01*
X81083272Y-126030987D01*
X81062594Y-126122468D01*
X81051380Y-126246506D01*
X81046951Y-126413098D01*
X81046437Y-126532851D01*
X81046437Y-126973659D01*
X81170517Y-127029283D01*
X81294598Y-127084907D01*
X81309195Y-126602095D01*
X81315227Y-126421779D01*
X81321555Y-126290901D01*
X81329394Y-126200511D01*
X81339963Y-126141664D01*
X81354477Y-126105413D01*
X81374152Y-126082810D01*
X81380465Y-126077917D01*
X81476112Y-126039706D01*
X81572793Y-126054827D01*
X81630345Y-126094943D01*
X81653755Y-126123370D01*
X81669961Y-126160672D01*
X81680259Y-126217223D01*
X81685951Y-126303394D01*
X81688336Y-126429558D01*
X81688736Y-126561042D01*
X81688814Y-126725999D01*
X81691639Y-126842761D01*
X81701093Y-126921510D01*
X81721060Y-126972431D01*
X81755424Y-127005706D01*
X81808068Y-127031520D01*
X81878383Y-127058344D01*
X81955180Y-127087542D01*
X81946038Y-126569346D01*
X81942357Y-126382539D01*
X81938050Y-126244490D01*
X81931877Y-126145568D01*
X81922598Y-126076145D01*
X81908973Y-126026590D01*
X81889761Y-125987273D01*
X81866598Y-125952584D01*
X81754848Y-125841770D01*
X81618487Y-125777689D01*
X81470175Y-125762339D01*
X81322571Y-125797719D01*
X81322571Y-125797719D01*
G37*
X81322571Y-125797719D02*
X81228877Y-125851914D01*
X81163736Y-125905707D01*
X81116093Y-125962066D01*
X81083272Y-126030987D01*
X81062594Y-126122468D01*
X81051380Y-126246506D01*
X81046951Y-126413098D01*
X81046437Y-126532851D01*
X81046437Y-126973659D01*
X81170517Y-127029283D01*
X81294598Y-127084907D01*
X81309195Y-126602095D01*
X81315227Y-126421779D01*
X81321555Y-126290901D01*
X81329394Y-126200511D01*
X81339963Y-126141664D01*
X81354477Y-126105413D01*
X81374152Y-126082810D01*
X81380465Y-126077917D01*
X81476112Y-126039706D01*
X81572793Y-126054827D01*
X81630345Y-126094943D01*
X81653755Y-126123370D01*
X81669961Y-126160672D01*
X81680259Y-126217223D01*
X81685951Y-126303394D01*
X81688336Y-126429558D01*
X81688736Y-126561042D01*
X81688814Y-126725999D01*
X81691639Y-126842761D01*
X81701093Y-126921510D01*
X81721060Y-126972431D01*
X81755424Y-127005706D01*
X81808068Y-127031520D01*
X81878383Y-127058344D01*
X81955180Y-127087542D01*
X81946038Y-126569346D01*
X81942357Y-126382539D01*
X81938050Y-126244490D01*
X81931877Y-126145568D01*
X81922598Y-126076145D01*
X81908973Y-126026590D01*
X81889761Y-125987273D01*
X81866598Y-125952584D01*
X81754848Y-125841770D01*
X81618487Y-125777689D01*
X81470175Y-125762339D01*
X81322571Y-125797719D01*
G36*
X84691779Y-125786015D02*
X84554939Y-125857968D01*
X84453949Y-125973766D01*
X84418075Y-126048213D01*
X84390161Y-126159992D01*
X84375871Y-126301227D01*
X84374516Y-126455371D01*
X84385405Y-126605879D01*
X84407847Y-126736205D01*
X84441150Y-126829803D01*
X84451385Y-126845922D01*
X84572618Y-126966249D01*
X84716613Y-127038317D01*
X84872861Y-127059408D01*
X85030852Y-127026802D01*
X85074820Y-127007253D01*
X85160444Y-126947012D01*
X85235592Y-126867135D01*
X85242694Y-126857004D01*
X85271561Y-126808181D01*
X85290643Y-126755990D01*
X85301916Y-126687285D01*
X85307355Y-126588918D01*
X85308938Y-126447744D01*
X85308965Y-126416092D01*
X85308893Y-126406019D01*
X85017011Y-126406019D01*
X85015313Y-126539256D01*
X85008628Y-126627674D01*
X84994575Y-126684785D01*
X84970771Y-126724102D01*
X84958621Y-126737241D01*
X84888764Y-126787172D01*
X84820941Y-126784895D01*
X84752365Y-126741584D01*
X84711465Y-126695346D01*
X84687242Y-126627857D01*
X84673639Y-126521433D01*
X84672706Y-126509020D01*
X84670384Y-126316147D01*
X84694650Y-126172900D01*
X84745176Y-126080160D01*
X84821632Y-126038807D01*
X84848924Y-126036552D01*
X84920589Y-126047893D01*
X84969610Y-126087184D01*
X84999582Y-126162326D01*
X85014101Y-126281222D01*
X85017011Y-126406019D01*
X85308893Y-126406019D01*
X85307878Y-126265659D01*
X85303312Y-126160549D01*
X85293312Y-126087714D01*
X85275921Y-126034108D01*
X85249184Y-125986681D01*
X85243276Y-125977864D01*
X85143968Y-125859007D01*
X85035758Y-125790008D01*
X84904019Y-125762619D01*
X84859283Y-125761281D01*
X84691779Y-125786015D01*
X84691779Y-125786015D01*
G37*
X84691779Y-125786015D02*
X84554939Y-125857968D01*
X84453949Y-125973766D01*
X84418075Y-126048213D01*
X84390161Y-126159992D01*
X84375871Y-126301227D01*
X84374516Y-126455371D01*
X84385405Y-126605879D01*
X84407847Y-126736205D01*
X84441150Y-126829803D01*
X84451385Y-126845922D01*
X84572618Y-126966249D01*
X84716613Y-127038317D01*
X84872861Y-127059408D01*
X85030852Y-127026802D01*
X85074820Y-127007253D01*
X85160444Y-126947012D01*
X85235592Y-126867135D01*
X85242694Y-126857004D01*
X85271561Y-126808181D01*
X85290643Y-126755990D01*
X85301916Y-126687285D01*
X85307355Y-126588918D01*
X85308938Y-126447744D01*
X85308965Y-126416092D01*
X85308893Y-126406019D01*
X85017011Y-126406019D01*
X85015313Y-126539256D01*
X85008628Y-126627674D01*
X84994575Y-126684785D01*
X84970771Y-126724102D01*
X84958621Y-126737241D01*
X84888764Y-126787172D01*
X84820941Y-126784895D01*
X84752365Y-126741584D01*
X84711465Y-126695346D01*
X84687242Y-126627857D01*
X84673639Y-126521433D01*
X84672706Y-126509020D01*
X84670384Y-126316147D01*
X84694650Y-126172900D01*
X84745176Y-126080160D01*
X84821632Y-126038807D01*
X84848924Y-126036552D01*
X84920589Y-126047893D01*
X84969610Y-126087184D01*
X84999582Y-126162326D01*
X85014101Y-126281222D01*
X85017011Y-126406019D01*
X85308893Y-126406019D01*
X85307878Y-126265659D01*
X85303312Y-126160549D01*
X85293312Y-126087714D01*
X85275921Y-126034108D01*
X85249184Y-125986681D01*
X85243276Y-125977864D01*
X85143968Y-125859007D01*
X85035758Y-125790008D01*
X84904019Y-125762619D01*
X84859283Y-125761281D01*
X84691779Y-125786015D01*
G36*
X82424448Y-125804676D02*
X82309342Y-125882111D01*
X82220389Y-125993949D01*
X82167251Y-126136265D01*
X82156503Y-126241015D01*
X82157724Y-126284726D01*
X82167944Y-126318194D01*
X82196039Y-126348179D01*
X82250884Y-126381440D01*
X82341355Y-126424738D01*
X82476328Y-126484833D01*
X82477011Y-126485134D01*
X82601249Y-126542037D01*
X82703127Y-126592565D01*
X82772233Y-126631280D01*
X82798154Y-126652740D01*
X82798161Y-126652913D01*
X82775315Y-126699644D01*
X82721891Y-126751154D01*
X82660558Y-126788261D01*
X82629485Y-126795632D01*
X82544711Y-126770138D01*
X82471707Y-126706291D01*
X82436087Y-126636094D01*
X82401820Y-126584343D01*
X82334697Y-126525409D01*
X82255792Y-126474496D01*
X82186179Y-126446809D01*
X82171623Y-126445287D01*
X82155237Y-126470321D01*
X82154250Y-126534311D01*
X82166292Y-126620593D01*
X82188993Y-126712501D01*
X82219986Y-126793369D01*
X82221552Y-126796509D01*
X82314819Y-126926734D01*
X82435696Y-127015311D01*
X82572973Y-127058786D01*
X82715440Y-127053706D01*
X82851888Y-126996616D01*
X82857955Y-126992602D01*
X82965290Y-126895326D01*
X83035868Y-126768409D01*
X83074926Y-126601526D01*
X83080168Y-126554639D01*
X83089452Y-126333329D01*
X83078322Y-126230124D01*
X82798161Y-126230124D01*
X82794521Y-126294503D01*
X82774611Y-126313291D01*
X82724974Y-126299235D01*
X82646733Y-126266009D01*
X82559274Y-126224359D01*
X82557101Y-126223256D01*
X82482970Y-126184265D01*
X82453219Y-126158244D01*
X82460555Y-126130965D01*
X82491447Y-126095121D01*
X82570040Y-126043251D01*
X82654677Y-126039439D01*
X82730597Y-126077189D01*
X82783035Y-126150001D01*
X82798161Y-126230124D01*
X83078322Y-126230124D01*
X83070356Y-126156261D01*
X83021366Y-126015829D01*
X82953164Y-125917447D01*
X82830065Y-125818030D01*
X82694472Y-125768711D01*
X82556045Y-125765568D01*
X82424448Y-125804676D01*
X82424448Y-125804676D01*
G37*
X82424448Y-125804676D02*
X82309342Y-125882111D01*
X82220389Y-125993949D01*
X82167251Y-126136265D01*
X82156503Y-126241015D01*
X82157724Y-126284726D01*
X82167944Y-126318194D01*
X82196039Y-126348179D01*
X82250884Y-126381440D01*
X82341355Y-126424738D01*
X82476328Y-126484833D01*
X82477011Y-126485134D01*
X82601249Y-126542037D01*
X82703127Y-126592565D01*
X82772233Y-126631280D01*
X82798154Y-126652740D01*
X82798161Y-126652913D01*
X82775315Y-126699644D01*
X82721891Y-126751154D01*
X82660558Y-126788261D01*
X82629485Y-126795632D01*
X82544711Y-126770138D01*
X82471707Y-126706291D01*
X82436087Y-126636094D01*
X82401820Y-126584343D01*
X82334697Y-126525409D01*
X82255792Y-126474496D01*
X82186179Y-126446809D01*
X82171623Y-126445287D01*
X82155237Y-126470321D01*
X82154250Y-126534311D01*
X82166292Y-126620593D01*
X82188993Y-126712501D01*
X82219986Y-126793369D01*
X82221552Y-126796509D01*
X82314819Y-126926734D01*
X82435696Y-127015311D01*
X82572973Y-127058786D01*
X82715440Y-127053706D01*
X82851888Y-126996616D01*
X82857955Y-126992602D01*
X82965290Y-126895326D01*
X83035868Y-126768409D01*
X83074926Y-126601526D01*
X83080168Y-126554639D01*
X83089452Y-126333329D01*
X83078322Y-126230124D01*
X82798161Y-126230124D01*
X82794521Y-126294503D01*
X82774611Y-126313291D01*
X82724974Y-126299235D01*
X82646733Y-126266009D01*
X82559274Y-126224359D01*
X82557101Y-126223256D01*
X82482970Y-126184265D01*
X82453219Y-126158244D01*
X82460555Y-126130965D01*
X82491447Y-126095121D01*
X82570040Y-126043251D01*
X82654677Y-126039439D01*
X82730597Y-126077189D01*
X82783035Y-126150001D01*
X82798161Y-126230124D01*
X83078322Y-126230124D01*
X83070356Y-126156261D01*
X83021366Y-126015829D01*
X82953164Y-125917447D01*
X82830065Y-125818030D01*
X82694472Y-125768711D01*
X82556045Y-125765568D01*
X82424448Y-125804676D01*
G36*
X79995402Y-125643857D02*
X79986846Y-125763188D01*
X79977019Y-125833506D01*
X79963401Y-125864179D01*
X79943473Y-125864571D01*
X79937011Y-125860910D01*
X79851060Y-125834398D01*
X79739255Y-125835946D01*
X79625586Y-125863199D01*
X79554490Y-125898455D01*
X79481595Y-125954778D01*
X79428307Y-126018519D01*
X79391725Y-126099510D01*
X79368950Y-126207586D01*
X79357081Y-126352580D01*
X79353218Y-126544326D01*
X79353149Y-126581109D01*
X79353103Y-126994288D01*
X79445046Y-127026339D01*
X79510348Y-127048144D01*
X79546176Y-127058297D01*
X79547230Y-127058391D01*
X79550758Y-127030860D01*
X79553761Y-126954923D01*
X79556010Y-126840565D01*
X79557276Y-126697769D01*
X79557471Y-126610951D01*
X79557877Y-126439773D01*
X79559968Y-126317088D01*
X79565053Y-126233000D01*
X79574440Y-126177614D01*
X79589439Y-126141032D01*
X79611358Y-126113359D01*
X79625043Y-126100032D01*
X79719051Y-126046328D01*
X79821636Y-126042307D01*
X79914710Y-126087725D01*
X79931922Y-126104123D01*
X79957168Y-126134957D01*
X79974680Y-126171531D01*
X79985858Y-126224415D01*
X79992104Y-126304177D01*
X79994818Y-126421385D01*
X79995402Y-126582991D01*
X79995402Y-126994288D01*
X80087345Y-127026339D01*
X80152647Y-127048144D01*
X80188475Y-127058297D01*
X80189529Y-127058391D01*
X80192225Y-127030448D01*
X80194655Y-126951630D01*
X80196722Y-126829453D01*
X80198329Y-126671432D01*
X80199377Y-126485083D01*
X80199769Y-126277920D01*
X80199770Y-126268706D01*
X80199770Y-125479020D01*
X80104885Y-125438997D01*
X80010000Y-125398973D01*
X79995402Y-125643857D01*
X79995402Y-125643857D01*
G37*
X79995402Y-125643857D02*
X79986846Y-125763188D01*
X79977019Y-125833506D01*
X79963401Y-125864179D01*
X79943473Y-125864571D01*
X79937011Y-125860910D01*
X79851060Y-125834398D01*
X79739255Y-125835946D01*
X79625586Y-125863199D01*
X79554490Y-125898455D01*
X79481595Y-125954778D01*
X79428307Y-126018519D01*
X79391725Y-126099510D01*
X79368950Y-126207586D01*
X79357081Y-126352580D01*
X79353218Y-126544326D01*
X79353149Y-126581109D01*
X79353103Y-126994288D01*
X79445046Y-127026339D01*
X79510348Y-127048144D01*
X79546176Y-127058297D01*
X79547230Y-127058391D01*
X79550758Y-127030860D01*
X79553761Y-126954923D01*
X79556010Y-126840565D01*
X79557276Y-126697769D01*
X79557471Y-126610951D01*
X79557877Y-126439773D01*
X79559968Y-126317088D01*
X79565053Y-126233000D01*
X79574440Y-126177614D01*
X79589439Y-126141032D01*
X79611358Y-126113359D01*
X79625043Y-126100032D01*
X79719051Y-126046328D01*
X79821636Y-126042307D01*
X79914710Y-126087725D01*
X79931922Y-126104123D01*
X79957168Y-126134957D01*
X79974680Y-126171531D01*
X79985858Y-126224415D01*
X79992104Y-126304177D01*
X79994818Y-126421385D01*
X79995402Y-126582991D01*
X79995402Y-126994288D01*
X80087345Y-127026339D01*
X80152647Y-127048144D01*
X80188475Y-127058297D01*
X80189529Y-127058391D01*
X80192225Y-127030448D01*
X80194655Y-126951630D01*
X80196722Y-126829453D01*
X80198329Y-126671432D01*
X80199377Y-126485083D01*
X80199769Y-126277920D01*
X80199770Y-126268706D01*
X80199770Y-125479020D01*
X80104885Y-125438997D01*
X80010000Y-125398973D01*
X79995402Y-125643857D01*
G36*
X78660056Y-125844360D02*
X78545657Y-125886842D01*
X78544348Y-125887658D01*
X78473597Y-125939730D01*
X78421364Y-126000584D01*
X78384629Y-126079887D01*
X78360366Y-126187309D01*
X78345555Y-126332517D01*
X78337171Y-126525179D01*
X78336436Y-126552628D01*
X78325880Y-126966521D01*
X78414709Y-127012456D01*
X78478982Y-127043498D01*
X78517790Y-127058206D01*
X78519585Y-127058391D01*
X78526300Y-127031250D01*
X78531635Y-126958041D01*
X78534917Y-126851081D01*
X78535632Y-126764469D01*
X78535649Y-126624162D01*
X78542063Y-126536051D01*
X78564420Y-126494025D01*
X78612268Y-126491975D01*
X78695151Y-126523790D01*
X78820287Y-126582272D01*
X78912303Y-126630845D01*
X78959629Y-126672986D01*
X78973542Y-126718916D01*
X78973563Y-126721189D01*
X78950605Y-126800311D01*
X78882630Y-126843055D01*
X78778602Y-126849246D01*
X78703670Y-126848172D01*
X78664161Y-126869753D01*
X78639522Y-126921591D01*
X78625341Y-126987632D01*
X78645777Y-127025104D01*
X78653472Y-127030467D01*
X78725917Y-127052006D01*
X78827367Y-127055055D01*
X78931843Y-127040778D01*
X79005875Y-127014688D01*
X79108228Y-126927785D01*
X79166409Y-126806816D01*
X79177931Y-126712308D01*
X79169138Y-126627062D01*
X79137320Y-126557476D01*
X79074316Y-126495672D01*
X78971969Y-126433772D01*
X78822118Y-126363897D01*
X78812988Y-126359948D01*
X78678003Y-126297588D01*
X78594706Y-126246446D01*
X78559003Y-126200488D01*
X78566797Y-126153683D01*
X78613993Y-126099998D01*
X78628106Y-126087644D01*
X78722641Y-126039741D01*
X78820594Y-126041758D01*
X78905903Y-126088724D01*
X78962504Y-126175669D01*
X78967763Y-126192734D01*
X79018977Y-126275504D01*
X79083963Y-126315372D01*
X79177931Y-126354882D01*
X79177931Y-126252658D01*
X79149347Y-126104072D01*
X79064505Y-125967784D01*
X79020355Y-125922191D01*
X78919995Y-125863674D01*
X78792365Y-125837184D01*
X78660056Y-125844360D01*
X78660056Y-125844360D01*
G37*
X78660056Y-125844360D02*
X78545657Y-125886842D01*
X78544348Y-125887658D01*
X78473597Y-125939730D01*
X78421364Y-126000584D01*
X78384629Y-126079887D01*
X78360366Y-126187309D01*
X78345555Y-126332517D01*
X78337171Y-126525179D01*
X78336436Y-126552628D01*
X78325880Y-126966521D01*
X78414709Y-127012456D01*
X78478982Y-127043498D01*
X78517790Y-127058206D01*
X78519585Y-127058391D01*
X78526300Y-127031250D01*
X78531635Y-126958041D01*
X78534917Y-126851081D01*
X78535632Y-126764469D01*
X78535649Y-126624162D01*
X78542063Y-126536051D01*
X78564420Y-126494025D01*
X78612268Y-126491975D01*
X78695151Y-126523790D01*
X78820287Y-126582272D01*
X78912303Y-126630845D01*
X78959629Y-126672986D01*
X78973542Y-126718916D01*
X78973563Y-126721189D01*
X78950605Y-126800311D01*
X78882630Y-126843055D01*
X78778602Y-126849246D01*
X78703670Y-126848172D01*
X78664161Y-126869753D01*
X78639522Y-126921591D01*
X78625341Y-126987632D01*
X78645777Y-127025104D01*
X78653472Y-127030467D01*
X78725917Y-127052006D01*
X78827367Y-127055055D01*
X78931843Y-127040778D01*
X79005875Y-127014688D01*
X79108228Y-126927785D01*
X79166409Y-126806816D01*
X79177931Y-126712308D01*
X79169138Y-126627062D01*
X79137320Y-126557476D01*
X79074316Y-126495672D01*
X78971969Y-126433772D01*
X78822118Y-126363897D01*
X78812988Y-126359948D01*
X78678003Y-126297588D01*
X78594706Y-126246446D01*
X78559003Y-126200488D01*
X78566797Y-126153683D01*
X78613993Y-126099998D01*
X78628106Y-126087644D01*
X78722641Y-126039741D01*
X78820594Y-126041758D01*
X78905903Y-126088724D01*
X78962504Y-126175669D01*
X78967763Y-126192734D01*
X79018977Y-126275504D01*
X79083963Y-126315372D01*
X79177931Y-126354882D01*
X79177931Y-126252658D01*
X79149347Y-126104072D01*
X79064505Y-125967784D01*
X79020355Y-125922191D01*
X78919995Y-125863674D01*
X78792365Y-125837184D01*
X78660056Y-125844360D01*
G36*
X77674057Y-125841920D02*
X77541435Y-125890859D01*
X77433990Y-125977419D01*
X77391968Y-126038352D01*
X77346157Y-126150161D01*
X77347109Y-126231006D01*
X77395192Y-126285378D01*
X77412983Y-126294624D01*
X77489796Y-126323450D01*
X77529024Y-126316065D01*
X77542311Y-126267658D01*
X77542988Y-126240920D01*
X77567314Y-126142548D01*
X77630719Y-126073734D01*
X77718846Y-126040498D01*
X77817337Y-126048861D01*
X77897398Y-126092296D01*
X77924439Y-126117072D01*
X77943606Y-126147129D01*
X77956554Y-126192565D01*
X77964936Y-126263476D01*
X77970407Y-126369960D01*
X77974622Y-126522112D01*
X77975713Y-126570287D01*
X77979693Y-126735095D01*
X77984219Y-126851088D01*
X77991005Y-126927833D01*
X78001769Y-126974893D01*
X78018227Y-127001835D01*
X78042094Y-127018223D01*
X78057374Y-127025463D01*
X78122267Y-127050220D01*
X78160466Y-127058391D01*
X78173088Y-127031103D01*
X78180792Y-126948603D01*
X78183620Y-126809941D01*
X78181614Y-126614162D01*
X78180989Y-126583965D01*
X78176579Y-126405349D01*
X78171365Y-126274923D01*
X78163945Y-126182492D01*
X78152918Y-126117858D01*
X78136883Y-126070825D01*
X78114439Y-126031196D01*
X78102698Y-126014215D01*
X78035381Y-125939080D01*
X77960090Y-125880638D01*
X77950872Y-125875536D01*
X77815867Y-125835260D01*
X77674057Y-125841920D01*
X77674057Y-125841920D01*
G37*
X77674057Y-125841920D02*
X77541435Y-125890859D01*
X77433990Y-125977419D01*
X77391968Y-126038352D01*
X77346157Y-126150161D01*
X77347109Y-126231006D01*
X77395192Y-126285378D01*
X77412983Y-126294624D01*
X77489796Y-126323450D01*
X77529024Y-126316065D01*
X77542311Y-126267658D01*
X77542988Y-126240920D01*
X77567314Y-126142548D01*
X77630719Y-126073734D01*
X77718846Y-126040498D01*
X77817337Y-126048861D01*
X77897398Y-126092296D01*
X77924439Y-126117072D01*
X77943606Y-126147129D01*
X77956554Y-126192565D01*
X77964936Y-126263476D01*
X77970407Y-126369960D01*
X77974622Y-126522112D01*
X77975713Y-126570287D01*
X77979693Y-126735095D01*
X77984219Y-126851088D01*
X77991005Y-126927833D01*
X78001769Y-126974893D01*
X78018227Y-127001835D01*
X78042094Y-127018223D01*
X78057374Y-127025463D01*
X78122267Y-127050220D01*
X78160466Y-127058391D01*
X78173088Y-127031103D01*
X78180792Y-126948603D01*
X78183620Y-126809941D01*
X78181614Y-126614162D01*
X78180989Y-126583965D01*
X78176579Y-126405349D01*
X78171365Y-126274923D01*
X78163945Y-126182492D01*
X78152918Y-126117858D01*
X78136883Y-126070825D01*
X78114439Y-126031196D01*
X78102698Y-126014215D01*
X78035381Y-125939080D01*
X77960090Y-125880638D01*
X77950872Y-125875536D01*
X77815867Y-125835260D01*
X77674057Y-125841920D01*
G36*
X76346086Y-126074455D02*
X76346457Y-126292661D01*
X76347892Y-126460519D01*
X76350998Y-126586070D01*
X76356378Y-126677355D01*
X76364638Y-126742415D01*
X76376384Y-126789291D01*
X76392219Y-126826024D01*
X76404210Y-126846991D01*
X76503510Y-126960694D01*
X76629412Y-127031965D01*
X76768709Y-127057538D01*
X76908195Y-127034150D01*
X76991257Y-126992119D01*
X77078455Y-126919411D01*
X77137883Y-126830612D01*
X77173739Y-126714320D01*
X77190219Y-126559135D01*
X77192553Y-126445287D01*
X77192239Y-126437106D01*
X76988276Y-126437106D01*
X76987030Y-126567657D01*
X76981322Y-126654080D01*
X76968196Y-126710618D01*
X76944694Y-126751514D01*
X76916614Y-126782362D01*
X76822312Y-126841905D01*
X76721060Y-126846992D01*
X76625364Y-126797279D01*
X76617916Y-126790543D01*
X76586126Y-126755502D01*
X76566192Y-126713811D01*
X76555400Y-126651762D01*
X76551035Y-126555644D01*
X76550345Y-126449379D01*
X76551841Y-126315880D01*
X76558036Y-126226822D01*
X76571486Y-126168293D01*
X76594749Y-126126382D01*
X76613825Y-126104123D01*
X76702437Y-126047985D01*
X76804492Y-126041235D01*
X76901905Y-126084114D01*
X76920704Y-126100032D01*
X76952707Y-126135382D01*
X76972682Y-126177502D01*
X76983407Y-126240251D01*
X76987661Y-126337487D01*
X76988276Y-126437106D01*
X77192239Y-126437106D01*
X77185496Y-126261947D01*
X77161528Y-126124195D01*
X77116452Y-126020632D01*
X77046072Y-125939856D01*
X76991257Y-125898455D01*
X76891624Y-125853728D01*
X76776145Y-125832967D01*
X76668801Y-125838525D01*
X76608736Y-125860943D01*
X76585165Y-125867323D01*
X76569523Y-125843535D01*
X76558605Y-125779788D01*
X76550345Y-125682687D01*
X76541301Y-125574541D01*
X76528739Y-125509475D01*
X76505881Y-125472268D01*
X76465949Y-125447699D01*
X76440862Y-125436819D01*
X76345977Y-125397072D01*
X76346086Y-126074455D01*
X76346086Y-126074455D01*
G37*
X76346086Y-126074455D02*
X76346457Y-126292661D01*
X76347892Y-126460519D01*
X76350998Y-126586070D01*
X76356378Y-126677355D01*
X76364638Y-126742415D01*
X76376384Y-126789291D01*
X76392219Y-126826024D01*
X76404210Y-126846991D01*
X76503510Y-126960694D01*
X76629412Y-127031965D01*
X76768709Y-127057538D01*
X76908195Y-127034150D01*
X76991257Y-126992119D01*
X77078455Y-126919411D01*
X77137883Y-126830612D01*
X77173739Y-126714320D01*
X77190219Y-126559135D01*
X77192553Y-126445287D01*
X77192239Y-126437106D01*
X76988276Y-126437106D01*
X76987030Y-126567657D01*
X76981322Y-126654080D01*
X76968196Y-126710618D01*
X76944694Y-126751514D01*
X76916614Y-126782362D01*
X76822312Y-126841905D01*
X76721060Y-126846992D01*
X76625364Y-126797279D01*
X76617916Y-126790543D01*
X76586126Y-126755502D01*
X76566192Y-126713811D01*
X76555400Y-126651762D01*
X76551035Y-126555644D01*
X76550345Y-126449379D01*
X76551841Y-126315880D01*
X76558036Y-126226822D01*
X76571486Y-126168293D01*
X76594749Y-126126382D01*
X76613825Y-126104123D01*
X76702437Y-126047985D01*
X76804492Y-126041235D01*
X76901905Y-126084114D01*
X76920704Y-126100032D01*
X76952707Y-126135382D01*
X76972682Y-126177502D01*
X76983407Y-126240251D01*
X76987661Y-126337487D01*
X76988276Y-126437106D01*
X77192239Y-126437106D01*
X77185496Y-126261947D01*
X77161528Y-126124195D01*
X77116452Y-126020632D01*
X77046072Y-125939856D01*
X76991257Y-125898455D01*
X76891624Y-125853728D01*
X76776145Y-125832967D01*
X76668801Y-125838525D01*
X76608736Y-125860943D01*
X76585165Y-125867323D01*
X76569523Y-125843535D01*
X76558605Y-125779788D01*
X76550345Y-125682687D01*
X76541301Y-125574541D01*
X76528739Y-125509475D01*
X76505881Y-125472268D01*
X76465949Y-125447699D01*
X76440862Y-125436819D01*
X76345977Y-125397072D01*
X76346086Y-126074455D01*
G36*
X75159876Y-125859840D02*
X75155421Y-125936653D01*
X75151929Y-126053391D01*
X75149685Y-126200821D01*
X75148965Y-126355455D01*
X75148965Y-126878727D01*
X75241355Y-126971117D01*
X75305022Y-127028047D01*
X75360911Y-127051107D01*
X75437298Y-127049647D01*
X75467620Y-127045934D01*
X75562390Y-127035126D01*
X75640778Y-127028933D01*
X75659885Y-127028361D01*
X75724301Y-127032102D01*
X75816429Y-127041494D01*
X75852150Y-127045934D01*
X75939886Y-127052801D01*
X75998847Y-127037885D01*
X76057310Y-126991835D01*
X76078415Y-126971117D01*
X76170805Y-126878727D01*
X76170805Y-125899947D01*
X76096442Y-125866066D01*
X76032410Y-125840970D01*
X75994948Y-125832184D01*
X75985343Y-125859950D01*
X75976365Y-125937530D01*
X75968614Y-126056348D01*
X75962686Y-126207828D01*
X75959827Y-126335805D01*
X75951839Y-126839425D01*
X75882152Y-126849278D01*
X75818771Y-126842389D01*
X75787714Y-126820083D01*
X75779033Y-126778379D01*
X75771622Y-126689544D01*
X75766069Y-126564834D01*
X75762964Y-126415507D01*
X75762516Y-126338661D01*
X75762069Y-125896287D01*
X75670126Y-125864235D01*
X75605051Y-125842443D01*
X75569653Y-125832281D01*
X75568632Y-125832184D01*
X75565080Y-125859809D01*
X75561177Y-125936411D01*
X75557249Y-126052579D01*
X75553624Y-126198904D01*
X75551092Y-126335805D01*
X75543103Y-126839425D01*
X75367931Y-126839425D01*
X75359893Y-126379965D01*
X75351854Y-125920505D01*
X75266457Y-125876344D01*
X75203407Y-125846019D01*
X75166090Y-125832258D01*
X75165013Y-125832184D01*
X75159876Y-125859840D01*
X75159876Y-125859840D01*
G37*
X75159876Y-125859840D02*
X75155421Y-125936653D01*
X75151929Y-126053391D01*
X75149685Y-126200821D01*
X75148965Y-126355455D01*
X75148965Y-126878727D01*
X75241355Y-126971117D01*
X75305022Y-127028047D01*
X75360911Y-127051107D01*
X75437298Y-127049647D01*
X75467620Y-127045934D01*
X75562390Y-127035126D01*
X75640778Y-127028933D01*
X75659885Y-127028361D01*
X75724301Y-127032102D01*
X75816429Y-127041494D01*
X75852150Y-127045934D01*
X75939886Y-127052801D01*
X75998847Y-127037885D01*
X76057310Y-126991835D01*
X76078415Y-126971117D01*
X76170805Y-126878727D01*
X76170805Y-125899947D01*
X76096442Y-125866066D01*
X76032410Y-125840970D01*
X75994948Y-125832184D01*
X75985343Y-125859950D01*
X75976365Y-125937530D01*
X75968614Y-126056348D01*
X75962686Y-126207828D01*
X75959827Y-126335805D01*
X75951839Y-126839425D01*
X75882152Y-126849278D01*
X75818771Y-126842389D01*
X75787714Y-126820083D01*
X75779033Y-126778379D01*
X75771622Y-126689544D01*
X75766069Y-126564834D01*
X75762964Y-126415507D01*
X75762516Y-126338661D01*
X75762069Y-125896287D01*
X75670126Y-125864235D01*
X75605051Y-125842443D01*
X75569653Y-125832281D01*
X75568632Y-125832184D01*
X75565080Y-125859809D01*
X75561177Y-125936411D01*
X75557249Y-126052579D01*
X75553624Y-126198904D01*
X75551092Y-126335805D01*
X75543103Y-126839425D01*
X75367931Y-126839425D01*
X75359893Y-126379965D01*
X75351854Y-125920505D01*
X75266457Y-125876344D01*
X75203407Y-125846019D01*
X75166090Y-125832258D01*
X75165013Y-125832184D01*
X75159876Y-125859840D01*
G36*
X74425594Y-125855156D02*
X74341531Y-125893393D01*
X74275550Y-125939726D01*
X74227206Y-125991532D01*
X74193828Y-126058363D01*
X74172747Y-126149769D01*
X74161293Y-126275301D01*
X74156797Y-126444508D01*
X74156322Y-126555933D01*
X74156322Y-126990627D01*
X74230684Y-127024509D01*
X74289254Y-127049272D01*
X74318270Y-127058391D01*
X74323821Y-127031257D01*
X74328225Y-126958094D01*
X74330922Y-126851263D01*
X74331494Y-126766437D01*
X74333954Y-126643887D01*
X74340588Y-126546668D01*
X74350274Y-126487134D01*
X74357968Y-126474483D01*
X74409689Y-126487402D01*
X74490883Y-126520539D01*
X74584898Y-126565461D01*
X74675083Y-126613735D01*
X74744785Y-126656928D01*
X74777352Y-126686608D01*
X74777481Y-126686929D01*
X74774680Y-126741857D01*
X74749561Y-126794292D01*
X74705459Y-126836881D01*
X74641091Y-126851126D01*
X74586079Y-126849466D01*
X74508165Y-126848245D01*
X74467268Y-126866498D01*
X74442705Y-126914726D01*
X74439608Y-126923820D01*
X74428960Y-126992598D01*
X74457435Y-127034360D01*
X74531656Y-127054263D01*
X74611832Y-127057944D01*
X74756110Y-127030658D01*
X74830797Y-126991690D01*
X74923037Y-126900148D01*
X74971957Y-126787782D01*
X74976346Y-126669051D01*
X74934999Y-126558411D01*
X74872803Y-126489080D01*
X74810706Y-126450265D01*
X74713105Y-126401125D01*
X74599368Y-126351292D01*
X74580410Y-126343677D01*
X74455479Y-126288545D01*
X74383461Y-126239954D01*
X74360300Y-126191647D01*
X74381936Y-126137370D01*
X74419080Y-126094943D01*
X74506873Y-126042702D01*
X74603470Y-126038784D01*
X74692056Y-126079041D01*
X74755814Y-126159326D01*
X74764183Y-126180040D01*
X74812904Y-126256225D01*
X74884035Y-126312785D01*
X74973793Y-126359201D01*
X74973793Y-126227584D01*
X74968510Y-126147168D01*
X74945858Y-126083786D01*
X74895633Y-126016163D01*
X74847418Y-125964076D01*
X74772446Y-125890322D01*
X74714194Y-125850702D01*
X74651628Y-125834810D01*
X74580807Y-125832184D01*
X74425594Y-125855156D01*
X74425594Y-125855156D01*
G37*
X74425594Y-125855156D02*
X74341531Y-125893393D01*
X74275550Y-125939726D01*
X74227206Y-125991532D01*
X74193828Y-126058363D01*
X74172747Y-126149769D01*
X74161293Y-126275301D01*
X74156797Y-126444508D01*
X74156322Y-126555933D01*
X74156322Y-126990627D01*
X74230684Y-127024509D01*
X74289254Y-127049272D01*
X74318270Y-127058391D01*
X74323821Y-127031257D01*
X74328225Y-126958094D01*
X74330922Y-126851263D01*
X74331494Y-126766437D01*
X74333954Y-126643887D01*
X74340588Y-126546668D01*
X74350274Y-126487134D01*
X74357968Y-126474483D01*
X74409689Y-126487402D01*
X74490883Y-126520539D01*
X74584898Y-126565461D01*
X74675083Y-126613735D01*
X74744785Y-126656928D01*
X74777352Y-126686608D01*
X74777481Y-126686929D01*
X74774680Y-126741857D01*
X74749561Y-126794292D01*
X74705459Y-126836881D01*
X74641091Y-126851126D01*
X74586079Y-126849466D01*
X74508165Y-126848245D01*
X74467268Y-126866498D01*
X74442705Y-126914726D01*
X74439608Y-126923820D01*
X74428960Y-126992598D01*
X74457435Y-127034360D01*
X74531656Y-127054263D01*
X74611832Y-127057944D01*
X74756110Y-127030658D01*
X74830797Y-126991690D01*
X74923037Y-126900148D01*
X74971957Y-126787782D01*
X74976346Y-126669051D01*
X74934999Y-126558411D01*
X74872803Y-126489080D01*
X74810706Y-126450265D01*
X74713105Y-126401125D01*
X74599368Y-126351292D01*
X74580410Y-126343677D01*
X74455479Y-126288545D01*
X74383461Y-126239954D01*
X74360300Y-126191647D01*
X74381936Y-126137370D01*
X74419080Y-126094943D01*
X74506873Y-126042702D01*
X74603470Y-126038784D01*
X74692056Y-126079041D01*
X74755814Y-126159326D01*
X74764183Y-126180040D01*
X74812904Y-126256225D01*
X74884035Y-126312785D01*
X74973793Y-126359201D01*
X74973793Y-126227584D01*
X74968510Y-126147168D01*
X74945858Y-126083786D01*
X74895633Y-126016163D01*
X74847418Y-125964076D01*
X74772446Y-125890322D01*
X74714194Y-125850702D01*
X74651628Y-125834810D01*
X74580807Y-125832184D01*
X74425594Y-125855156D01*
G36*
X73404310Y-125860018D02*
X73369415Y-125875269D01*
X73286123Y-125941235D01*
X73214897Y-126036618D01*
X73170847Y-126138406D01*
X73163678Y-126188587D01*
X73187715Y-126258647D01*
X73240439Y-126295717D01*
X73296969Y-126318164D01*
X73322854Y-126322300D01*
X73335458Y-126292283D01*
X73360346Y-126226961D01*
X73371265Y-126197445D01*
X73432492Y-126095348D01*
X73521139Y-126044423D01*
X73634807Y-126045989D01*
X73643226Y-126047994D01*
X73703912Y-126076767D01*
X73748526Y-126132859D01*
X73778998Y-126223163D01*
X73797256Y-126354571D01*
X73805229Y-126533974D01*
X73805977Y-126629433D01*
X73806348Y-126779913D01*
X73808777Y-126882495D01*
X73815240Y-126947672D01*
X73827712Y-126985938D01*
X73848167Y-127007785D01*
X73878581Y-127023707D01*
X73880339Y-127024509D01*
X73938909Y-127049272D01*
X73967925Y-127058391D01*
X73972384Y-127030822D01*
X73976201Y-126954620D01*
X73979101Y-126839541D01*
X73980809Y-126695341D01*
X73981149Y-126589814D01*
X73979412Y-126385613D01*
X73972618Y-126230697D01*
X73958393Y-126116024D01*
X73934362Y-126032551D01*
X73898152Y-125971236D01*
X73847388Y-125923034D01*
X73797261Y-125889393D01*
X73676725Y-125844619D01*
X73536443Y-125834521D01*
X73404310Y-125860018D01*
X73404310Y-125860018D01*
G37*
X73404310Y-125860018D02*
X73369415Y-125875269D01*
X73286123Y-125941235D01*
X73214897Y-126036618D01*
X73170847Y-126138406D01*
X73163678Y-126188587D01*
X73187715Y-126258647D01*
X73240439Y-126295717D01*
X73296969Y-126318164D01*
X73322854Y-126322300D01*
X73335458Y-126292283D01*
X73360346Y-126226961D01*
X73371265Y-126197445D01*
X73432492Y-126095348D01*
X73521139Y-126044423D01*
X73634807Y-126045989D01*
X73643226Y-126047994D01*
X73703912Y-126076767D01*
X73748526Y-126132859D01*
X73778998Y-126223163D01*
X73797256Y-126354571D01*
X73805229Y-126533974D01*
X73805977Y-126629433D01*
X73806348Y-126779913D01*
X73808777Y-126882495D01*
X73815240Y-126947672D01*
X73827712Y-126985938D01*
X73848167Y-127007785D01*
X73878581Y-127023707D01*
X73880339Y-127024509D01*
X73938909Y-127049272D01*
X73967925Y-127058391D01*
X73972384Y-127030822D01*
X73976201Y-126954620D01*
X73979101Y-126839541D01*
X73980809Y-126695341D01*
X73981149Y-126589814D01*
X73979412Y-126385613D01*
X73972618Y-126230697D01*
X73958393Y-126116024D01*
X73934362Y-126032551D01*
X73898152Y-125971236D01*
X73847388Y-125923034D01*
X73797261Y-125889393D01*
X73676725Y-125844619D01*
X73536443Y-125834521D01*
X73404310Y-125860018D01*
G36*
X72396561Y-125876540D02*
X72281050Y-125952034D01*
X72225336Y-126019617D01*
X72181196Y-126142255D01*
X72177691Y-126239298D01*
X72185632Y-126369056D01*
X72484885Y-126500039D01*
X72630389Y-126566958D01*
X72725463Y-126620790D01*
X72774899Y-126667416D01*
X72783489Y-126712720D01*
X72756028Y-126762582D01*
X72725747Y-126795632D01*
X72637637Y-126848633D01*
X72541804Y-126852347D01*
X72453788Y-126811041D01*
X72389131Y-126728983D01*
X72377567Y-126700008D01*
X72322175Y-126609509D01*
X72258447Y-126570940D01*
X72171034Y-126537946D01*
X72171034Y-126663034D01*
X72178762Y-126748156D01*
X72209034Y-126819938D01*
X72272482Y-126902356D01*
X72281912Y-126913066D01*
X72352487Y-126986391D01*
X72413153Y-127025742D01*
X72489050Y-127043845D01*
X72551970Y-127049774D01*
X72664513Y-127051251D01*
X72744630Y-127032535D01*
X72794610Y-127004747D01*
X72873162Y-126943641D01*
X72927537Y-126877554D01*
X72961948Y-126794441D01*
X72980612Y-126682254D01*
X72987744Y-126528946D01*
X72988313Y-126451136D01*
X72986378Y-126357853D01*
X72810101Y-126357853D01*
X72808056Y-126407896D01*
X72802961Y-126416092D01*
X72769334Y-126404958D01*
X72696970Y-126375493D01*
X72600253Y-126333601D01*
X72580027Y-126324597D01*
X72457797Y-126262442D01*
X72390453Y-126207815D01*
X72375652Y-126156649D01*
X72411053Y-126104876D01*
X72440289Y-126082000D01*
X72545784Y-126036250D01*
X72644524Y-126043808D01*
X72727188Y-126099651D01*
X72784452Y-126198753D01*
X72802812Y-126277414D01*
X72810101Y-126357853D01*
X72986378Y-126357853D01*
X72984541Y-126269351D01*
X72970641Y-126134853D01*
X72943106Y-126036916D01*
X72898428Y-125964811D01*
X72833099Y-125907813D01*
X72804617Y-125889393D01*
X72675237Y-125841422D01*
X72533588Y-125838403D01*
X72396561Y-125876540D01*
X72396561Y-125876540D01*
G37*
X72396561Y-125876540D02*
X72281050Y-125952034D01*
X72225336Y-126019617D01*
X72181196Y-126142255D01*
X72177691Y-126239298D01*
X72185632Y-126369056D01*
X72484885Y-126500039D01*
X72630389Y-126566958D01*
X72725463Y-126620790D01*
X72774899Y-126667416D01*
X72783489Y-126712720D01*
X72756028Y-126762582D01*
X72725747Y-126795632D01*
X72637637Y-126848633D01*
X72541804Y-126852347D01*
X72453788Y-126811041D01*
X72389131Y-126728983D01*
X72377567Y-126700008D01*
X72322175Y-126609509D01*
X72258447Y-126570940D01*
X72171034Y-126537946D01*
X72171034Y-126663034D01*
X72178762Y-126748156D01*
X72209034Y-126819938D01*
X72272482Y-126902356D01*
X72281912Y-126913066D01*
X72352487Y-126986391D01*
X72413153Y-127025742D01*
X72489050Y-127043845D01*
X72551970Y-127049774D01*
X72664513Y-127051251D01*
X72744630Y-127032535D01*
X72794610Y-127004747D01*
X72873162Y-126943641D01*
X72927537Y-126877554D01*
X72961948Y-126794441D01*
X72980612Y-126682254D01*
X72987744Y-126528946D01*
X72988313Y-126451136D01*
X72986378Y-126357853D01*
X72810101Y-126357853D01*
X72808056Y-126407896D01*
X72802961Y-126416092D01*
X72769334Y-126404958D01*
X72696970Y-126375493D01*
X72600253Y-126333601D01*
X72580027Y-126324597D01*
X72457797Y-126262442D01*
X72390453Y-126207815D01*
X72375652Y-126156649D01*
X72411053Y-126104876D01*
X72440289Y-126082000D01*
X72545784Y-126036250D01*
X72644524Y-126043808D01*
X72727188Y-126099651D01*
X72784452Y-126198753D01*
X72802812Y-126277414D01*
X72810101Y-126357853D01*
X72986378Y-126357853D01*
X72984541Y-126269351D01*
X72970641Y-126134853D01*
X72943106Y-126036916D01*
X72898428Y-125964811D01*
X72833099Y-125907813D01*
X72804617Y-125889393D01*
X72675237Y-125841422D01*
X72533588Y-125838403D01*
X72396561Y-125876540D01*
G36*
X78530986Y-116372998D02*
X78372994Y-116373863D01*
X78258653Y-116376205D01*
X78180593Y-116380762D01*
X78131446Y-116388270D01*
X78103841Y-116399466D01*
X78090408Y-116415088D01*
X78083779Y-116435873D01*
X78083135Y-116438563D01*
X78073065Y-116487113D01*
X78054425Y-116582905D01*
X78029155Y-116715743D01*
X77999193Y-116875431D01*
X77966478Y-117051774D01*
X77965336Y-117057967D01*
X77932567Y-117230782D01*
X77901907Y-117383469D01*
X77875336Y-117506871D01*
X77854833Y-117591831D01*
X77842374Y-117629190D01*
X77841780Y-117629852D01*
X77805081Y-117648095D01*
X77729414Y-117678497D01*
X77631122Y-117714493D01*
X77630575Y-117714685D01*
X77506767Y-117761222D01*
X77360804Y-117820504D01*
X77223219Y-117880109D01*
X77216707Y-117883056D01*
X76992610Y-117984765D01*
X76496381Y-117645897D01*
X76344154Y-117542592D01*
X76206259Y-117450237D01*
X76090685Y-117374084D01*
X76005421Y-117319385D01*
X75958456Y-117291393D01*
X75953996Y-117289317D01*
X75919866Y-117298560D01*
X75856119Y-117343156D01*
X75760269Y-117425209D01*
X75629831Y-117546821D01*
X75496672Y-117676205D01*
X75368306Y-117803702D01*
X75253419Y-117920046D01*
X75158927Y-118018052D01*
X75091747Y-118090536D01*
X75058794Y-118130313D01*
X75057568Y-118132361D01*
X75053926Y-118159656D01*
X75067650Y-118204234D01*
X75102131Y-118272112D01*
X75160761Y-118369311D01*
X75246930Y-118501851D01*
X75361800Y-118672476D01*
X75463746Y-118822655D01*
X75554877Y-118957350D01*
X75629927Y-119068740D01*
X75683631Y-119149005D01*
X75710720Y-119190325D01*
X75712426Y-119193130D01*
X75709118Y-119232721D01*
X75684047Y-119309669D01*
X75642202Y-119409432D01*
X75627288Y-119441291D01*
X75562214Y-119583226D01*
X75492788Y-119744273D01*
X75436391Y-119883621D01*
X75395753Y-119987044D01*
X75363474Y-120065642D01*
X75344822Y-120106720D01*
X75342503Y-120109885D01*
X75308197Y-120115128D01*
X75227331Y-120129494D01*
X75110657Y-120150937D01*
X74968925Y-120177413D01*
X74812890Y-120206877D01*
X74653302Y-120237283D01*
X74500915Y-120266588D01*
X74366479Y-120292745D01*
X74260748Y-120313710D01*
X74194474Y-120327439D01*
X74178218Y-120331320D01*
X74161427Y-120340900D01*
X74148751Y-120362536D01*
X74139622Y-120403531D01*
X74133469Y-120471189D01*
X74129720Y-120572812D01*
X74127808Y-120715703D01*
X74127160Y-120907165D01*
X74127126Y-120985645D01*
X74127126Y-121623906D01*
X74280402Y-121654160D01*
X74365678Y-121670564D01*
X74492930Y-121694509D01*
X74646685Y-121723107D01*
X74811466Y-121753467D01*
X74857011Y-121761806D01*
X75009068Y-121791370D01*
X75141532Y-121820442D01*
X75243286Y-121846329D01*
X75303212Y-121866337D01*
X75313195Y-121872301D01*
X75337707Y-121914534D01*
X75372852Y-121996370D01*
X75411827Y-122101683D01*
X75419558Y-122124368D01*
X75470640Y-122265018D01*
X75534046Y-122423714D01*
X75596096Y-122566225D01*
X75596402Y-122566886D01*
X75699733Y-122790440D01*
X75020039Y-123790232D01*
X75456379Y-124227300D01*
X75588351Y-124357381D01*
X75708721Y-124472048D01*
X75810727Y-124565181D01*
X75887609Y-124630658D01*
X75932607Y-124662357D01*
X75939062Y-124664368D01*
X75976960Y-124648529D01*
X76054292Y-124604496D01*
X76162611Y-124537490D01*
X76293468Y-124452734D01*
X76434948Y-124357816D01*
X76578539Y-124260998D01*
X76706565Y-124176751D01*
X76810895Y-124110258D01*
X76883400Y-124066702D01*
X76915842Y-124051264D01*
X76955424Y-124064328D01*
X77030481Y-124098750D01*
X77125532Y-124147380D01*
X77135608Y-124152785D01*
X77263609Y-124216980D01*
X77351382Y-124248463D01*
X77405972Y-124248798D01*
X77434425Y-124219548D01*
X77434590Y-124219138D01*
X77448812Y-124184498D01*
X77482731Y-124102269D01*
X77533716Y-123978814D01*
X77599138Y-123820498D01*
X77676366Y-123633686D01*
X77762771Y-123424742D01*
X77846449Y-123222446D01*
X77938412Y-122999200D01*
X78022850Y-122792392D01*
X78097231Y-122608362D01*
X78159026Y-122453451D01*
X78205703Y-122333996D01*
X78234732Y-122256339D01*
X78243678Y-122227356D01*
X78221244Y-122194110D01*
X78162561Y-122141123D01*
X78084311Y-122082704D01*
X77861466Y-121897952D01*
X77687282Y-121686182D01*
X77563846Y-121451856D01*
X77493246Y-121199434D01*
X77477569Y-120933377D01*
X77488964Y-120810575D01*
X77551050Y-120555793D01*
X77657977Y-120330801D01*
X77803111Y-120137817D01*
X77979822Y-119979061D01*
X78181478Y-119856750D01*
X78401446Y-119773105D01*
X78633094Y-119730344D01*
X78869791Y-119730687D01*
X79104905Y-119776352D01*
X79331804Y-119869559D01*
X79543856Y-120012527D01*
X79632364Y-120093383D01*
X79802111Y-120301007D01*
X79920301Y-120527895D01*
X79987722Y-120767433D01*
X80005160Y-121013007D01*
X79973402Y-121258003D01*
X79893235Y-121495808D01*
X79765445Y-121719807D01*
X79590820Y-121923387D01*
X79395688Y-122082704D01*
X79314409Y-122143602D01*
X79256991Y-122196015D01*
X79236322Y-122227406D01*
X79247144Y-122261639D01*
X79277923Y-122343419D01*
X79326126Y-122466407D01*
X79389222Y-122624263D01*
X79464678Y-122810649D01*
X79549962Y-123019226D01*
X79633781Y-123222496D01*
X79726255Y-123445933D01*
X79811911Y-123652984D01*
X79888118Y-123837286D01*
X79952247Y-123992475D01*
X80001668Y-124112188D01*
X80033752Y-124190061D01*
X80045641Y-124219138D01*
X80073726Y-124248677D01*
X80128051Y-124248591D01*
X80215605Y-124217326D01*
X80343381Y-124153329D01*
X80344392Y-124152785D01*
X80440598Y-124103121D01*
X80518369Y-124066945D01*
X80562223Y-124051408D01*
X80564158Y-124051264D01*
X80597171Y-124067024D01*
X80670054Y-124110850D01*
X80774678Y-124177557D01*
X80902910Y-124261964D01*
X81045052Y-124357816D01*
X81189767Y-124454867D01*
X81320196Y-124539270D01*
X81427890Y-124605801D01*
X81504402Y-124649238D01*
X81540938Y-124664368D01*
X81574582Y-124644482D01*
X81642224Y-124588903D01*
X81737107Y-124503754D01*
X81852470Y-124395153D01*
X81981555Y-124269221D01*
X82023771Y-124227149D01*
X82460261Y-123789931D01*
X82128023Y-123302340D01*
X82027054Y-123152605D01*
X81938438Y-123018220D01*
X81867146Y-122906969D01*
X81818150Y-122826639D01*
X81796422Y-122785014D01*
X81795785Y-122782053D01*
X81807240Y-122742818D01*
X81838051Y-122663895D01*
X81882884Y-122558509D01*
X81914353Y-122487954D01*
X81973192Y-122352876D01*
X82028604Y-122216409D01*
X82071564Y-122101103D01*
X82083234Y-122065977D01*
X82116389Y-121972174D01*
X82148799Y-121899694D01*
X82166601Y-121872301D01*
X82205886Y-121855536D01*
X82291626Y-121831770D01*
X82412697Y-121803697D01*
X82557973Y-121774009D01*
X82622988Y-121761806D01*
X82788087Y-121731468D01*
X82946448Y-121702093D01*
X83082596Y-121676569D01*
X83181057Y-121657785D01*
X83199598Y-121654160D01*
X83352873Y-121623906D01*
X83352873Y-120985645D01*
X83352529Y-120775770D01*
X83351116Y-120616980D01*
X83348064Y-120501973D01*
X83342803Y-120423446D01*
X83334763Y-120374096D01*
X83323373Y-120346619D01*
X83308063Y-120333713D01*
X83301782Y-120331320D01*
X83263896Y-120322833D01*
X83180195Y-120305900D01*
X83061433Y-120282566D01*
X82918361Y-120254875D01*
X82761732Y-120224873D01*
X82602297Y-120194604D01*
X82450809Y-120166115D01*
X82318019Y-120141449D01*
X82214681Y-120122651D01*
X82151545Y-120111767D01*
X82137497Y-120109885D01*
X82124770Y-120084704D01*
X82096600Y-120017622D01*
X82058252Y-119921333D01*
X82043609Y-119883621D01*
X81984548Y-119737921D01*
X81915000Y-119576951D01*
X81852712Y-119441291D01*
X81806879Y-119337561D01*
X81776387Y-119252326D01*
X81766208Y-119200126D01*
X81767831Y-119193130D01*
X81789343Y-119160102D01*
X81838465Y-119086643D01*
X81909923Y-118980577D01*
X81998445Y-118849726D01*
X82098759Y-118701912D01*
X82118594Y-118672734D01*
X82234988Y-118499863D01*
X82320548Y-118368226D01*
X82378684Y-118271761D01*
X82412808Y-118204408D01*
X82426331Y-118160106D01*
X82422664Y-118132794D01*
X82422570Y-118132620D01*
X82393707Y-118096746D01*
X82329867Y-118027391D01*
X82237969Y-117931745D01*
X82124933Y-117816999D01*
X81997679Y-117690341D01*
X81983328Y-117676205D01*
X81822957Y-117520903D01*
X81699195Y-117406870D01*
X81609555Y-117332002D01*
X81551552Y-117294196D01*
X81526004Y-117289317D01*
X81488718Y-117310603D01*
X81411343Y-117359773D01*
X81301867Y-117431575D01*
X81168280Y-117520755D01*
X81018570Y-117622063D01*
X80983618Y-117645897D01*
X80487390Y-117984765D01*
X80263293Y-117883056D01*
X80127011Y-117823783D01*
X79980724Y-117764170D01*
X79854965Y-117716640D01*
X79849425Y-117714685D01*
X79751057Y-117678677D01*
X79675229Y-117648229D01*
X79638282Y-117629905D01*
X79638220Y-117629852D01*
X79626496Y-117596729D01*
X79606568Y-117515267D01*
X79580413Y-117394625D01*
X79550010Y-117243959D01*
X79517337Y-117072428D01*
X79514664Y-117057967D01*
X79481890Y-116881235D01*
X79451802Y-116720810D01*
X79426339Y-116586888D01*
X79407441Y-116489663D01*
X79397047Y-116439332D01*
X79396865Y-116438563D01*
X79390539Y-116417153D01*
X79378239Y-116400988D01*
X79352594Y-116389331D01*
X79306235Y-116381445D01*
X79231792Y-116376593D01*
X79121895Y-116374039D01*
X78969175Y-116373045D01*
X78766262Y-116372874D01*
X78740000Y-116372874D01*
X78530986Y-116372998D01*
X78530986Y-116372998D01*
G37*
X78530986Y-116372998D02*
X78372994Y-116373863D01*
X78258653Y-116376205D01*
X78180593Y-116380762D01*
X78131446Y-116388270D01*
X78103841Y-116399466D01*
X78090408Y-116415088D01*
X78083779Y-116435873D01*
X78083135Y-116438563D01*
X78073065Y-116487113D01*
X78054425Y-116582905D01*
X78029155Y-116715743D01*
X77999193Y-116875431D01*
X77966478Y-117051774D01*
X77965336Y-117057967D01*
X77932567Y-117230782D01*
X77901907Y-117383469D01*
X77875336Y-117506871D01*
X77854833Y-117591831D01*
X77842374Y-117629190D01*
X77841780Y-117629852D01*
X77805081Y-117648095D01*
X77729414Y-117678497D01*
X77631122Y-117714493D01*
X77630575Y-117714685D01*
X77506767Y-117761222D01*
X77360804Y-117820504D01*
X77223219Y-117880109D01*
X77216707Y-117883056D01*
X76992610Y-117984765D01*
X76496381Y-117645897D01*
X76344154Y-117542592D01*
X76206259Y-117450237D01*
X76090685Y-117374084D01*
X76005421Y-117319385D01*
X75958456Y-117291393D01*
X75953996Y-117289317D01*
X75919866Y-117298560D01*
X75856119Y-117343156D01*
X75760269Y-117425209D01*
X75629831Y-117546821D01*
X75496672Y-117676205D01*
X75368306Y-117803702D01*
X75253419Y-117920046D01*
X75158927Y-118018052D01*
X75091747Y-118090536D01*
X75058794Y-118130313D01*
X75057568Y-118132361D01*
X75053926Y-118159656D01*
X75067650Y-118204234D01*
X75102131Y-118272112D01*
X75160761Y-118369311D01*
X75246930Y-118501851D01*
X75361800Y-118672476D01*
X75463746Y-118822655D01*
X75554877Y-118957350D01*
X75629927Y-119068740D01*
X75683631Y-119149005D01*
X75710720Y-119190325D01*
X75712426Y-119193130D01*
X75709118Y-119232721D01*
X75684047Y-119309669D01*
X75642202Y-119409432D01*
X75627288Y-119441291D01*
X75562214Y-119583226D01*
X75492788Y-119744273D01*
X75436391Y-119883621D01*
X75395753Y-119987044D01*
X75363474Y-120065642D01*
X75344822Y-120106720D01*
X75342503Y-120109885D01*
X75308197Y-120115128D01*
X75227331Y-120129494D01*
X75110657Y-120150937D01*
X74968925Y-120177413D01*
X74812890Y-120206877D01*
X74653302Y-120237283D01*
X74500915Y-120266588D01*
X74366479Y-120292745D01*
X74260748Y-120313710D01*
X74194474Y-120327439D01*
X74178218Y-120331320D01*
X74161427Y-120340900D01*
X74148751Y-120362536D01*
X74139622Y-120403531D01*
X74133469Y-120471189D01*
X74129720Y-120572812D01*
X74127808Y-120715703D01*
X74127160Y-120907165D01*
X74127126Y-120985645D01*
X74127126Y-121623906D01*
X74280402Y-121654160D01*
X74365678Y-121670564D01*
X74492930Y-121694509D01*
X74646685Y-121723107D01*
X74811466Y-121753467D01*
X74857011Y-121761806D01*
X75009068Y-121791370D01*
X75141532Y-121820442D01*
X75243286Y-121846329D01*
X75303212Y-121866337D01*
X75313195Y-121872301D01*
X75337707Y-121914534D01*
X75372852Y-121996370D01*
X75411827Y-122101683D01*
X75419558Y-122124368D01*
X75470640Y-122265018D01*
X75534046Y-122423714D01*
X75596096Y-122566225D01*
X75596402Y-122566886D01*
X75699733Y-122790440D01*
X75020039Y-123790232D01*
X75456379Y-124227300D01*
X75588351Y-124357381D01*
X75708721Y-124472048D01*
X75810727Y-124565181D01*
X75887609Y-124630658D01*
X75932607Y-124662357D01*
X75939062Y-124664368D01*
X75976960Y-124648529D01*
X76054292Y-124604496D01*
X76162611Y-124537490D01*
X76293468Y-124452734D01*
X76434948Y-124357816D01*
X76578539Y-124260998D01*
X76706565Y-124176751D01*
X76810895Y-124110258D01*
X76883400Y-124066702D01*
X76915842Y-124051264D01*
X76955424Y-124064328D01*
X77030481Y-124098750D01*
X77125532Y-124147380D01*
X77135608Y-124152785D01*
X77263609Y-124216980D01*
X77351382Y-124248463D01*
X77405972Y-124248798D01*
X77434425Y-124219548D01*
X77434590Y-124219138D01*
X77448812Y-124184498D01*
X77482731Y-124102269D01*
X77533716Y-123978814D01*
X77599138Y-123820498D01*
X77676366Y-123633686D01*
X77762771Y-123424742D01*
X77846449Y-123222446D01*
X77938412Y-122999200D01*
X78022850Y-122792392D01*
X78097231Y-122608362D01*
X78159026Y-122453451D01*
X78205703Y-122333996D01*
X78234732Y-122256339D01*
X78243678Y-122227356D01*
X78221244Y-122194110D01*
X78162561Y-122141123D01*
X78084311Y-122082704D01*
X77861466Y-121897952D01*
X77687282Y-121686182D01*
X77563846Y-121451856D01*
X77493246Y-121199434D01*
X77477569Y-120933377D01*
X77488964Y-120810575D01*
X77551050Y-120555793D01*
X77657977Y-120330801D01*
X77803111Y-120137817D01*
X77979822Y-119979061D01*
X78181478Y-119856750D01*
X78401446Y-119773105D01*
X78633094Y-119730344D01*
X78869791Y-119730687D01*
X79104905Y-119776352D01*
X79331804Y-119869559D01*
X79543856Y-120012527D01*
X79632364Y-120093383D01*
X79802111Y-120301007D01*
X79920301Y-120527895D01*
X79987722Y-120767433D01*
X80005160Y-121013007D01*
X79973402Y-121258003D01*
X79893235Y-121495808D01*
X79765445Y-121719807D01*
X79590820Y-121923387D01*
X79395688Y-122082704D01*
X79314409Y-122143602D01*
X79256991Y-122196015D01*
X79236322Y-122227406D01*
X79247144Y-122261639D01*
X79277923Y-122343419D01*
X79326126Y-122466407D01*
X79389222Y-122624263D01*
X79464678Y-122810649D01*
X79549962Y-123019226D01*
X79633781Y-123222496D01*
X79726255Y-123445933D01*
X79811911Y-123652984D01*
X79888118Y-123837286D01*
X79952247Y-123992475D01*
X80001668Y-124112188D01*
X80033752Y-124190061D01*
X80045641Y-124219138D01*
X80073726Y-124248677D01*
X80128051Y-124248591D01*
X80215605Y-124217326D01*
X80343381Y-124153329D01*
X80344392Y-124152785D01*
X80440598Y-124103121D01*
X80518369Y-124066945D01*
X80562223Y-124051408D01*
X80564158Y-124051264D01*
X80597171Y-124067024D01*
X80670054Y-124110850D01*
X80774678Y-124177557D01*
X80902910Y-124261964D01*
X81045052Y-124357816D01*
X81189767Y-124454867D01*
X81320196Y-124539270D01*
X81427890Y-124605801D01*
X81504402Y-124649238D01*
X81540938Y-124664368D01*
X81574582Y-124644482D01*
X81642224Y-124588903D01*
X81737107Y-124503754D01*
X81852470Y-124395153D01*
X81981555Y-124269221D01*
X82023771Y-124227149D01*
X82460261Y-123789931D01*
X82128023Y-123302340D01*
X82027054Y-123152605D01*
X81938438Y-123018220D01*
X81867146Y-122906969D01*
X81818150Y-122826639D01*
X81796422Y-122785014D01*
X81795785Y-122782053D01*
X81807240Y-122742818D01*
X81838051Y-122663895D01*
X81882884Y-122558509D01*
X81914353Y-122487954D01*
X81973192Y-122352876D01*
X82028604Y-122216409D01*
X82071564Y-122101103D01*
X82083234Y-122065977D01*
X82116389Y-121972174D01*
X82148799Y-121899694D01*
X82166601Y-121872301D01*
X82205886Y-121855536D01*
X82291626Y-121831770D01*
X82412697Y-121803697D01*
X82557973Y-121774009D01*
X82622988Y-121761806D01*
X82788087Y-121731468D01*
X82946448Y-121702093D01*
X83082596Y-121676569D01*
X83181057Y-121657785D01*
X83199598Y-121654160D01*
X83352873Y-121623906D01*
X83352873Y-120985645D01*
X83352529Y-120775770D01*
X83351116Y-120616980D01*
X83348064Y-120501973D01*
X83342803Y-120423446D01*
X83334763Y-120374096D01*
X83323373Y-120346619D01*
X83308063Y-120333713D01*
X83301782Y-120331320D01*
X83263896Y-120322833D01*
X83180195Y-120305900D01*
X83061433Y-120282566D01*
X82918361Y-120254875D01*
X82761732Y-120224873D01*
X82602297Y-120194604D01*
X82450809Y-120166115D01*
X82318019Y-120141449D01*
X82214681Y-120122651D01*
X82151545Y-120111767D01*
X82137497Y-120109885D01*
X82124770Y-120084704D01*
X82096600Y-120017622D01*
X82058252Y-119921333D01*
X82043609Y-119883621D01*
X81984548Y-119737921D01*
X81915000Y-119576951D01*
X81852712Y-119441291D01*
X81806879Y-119337561D01*
X81776387Y-119252326D01*
X81766208Y-119200126D01*
X81767831Y-119193130D01*
X81789343Y-119160102D01*
X81838465Y-119086643D01*
X81909923Y-118980577D01*
X81998445Y-118849726D01*
X82098759Y-118701912D01*
X82118594Y-118672734D01*
X82234988Y-118499863D01*
X82320548Y-118368226D01*
X82378684Y-118271761D01*
X82412808Y-118204408D01*
X82426331Y-118160106D01*
X82422664Y-118132794D01*
X82422570Y-118132620D01*
X82393707Y-118096746D01*
X82329867Y-118027391D01*
X82237969Y-117931745D01*
X82124933Y-117816999D01*
X81997679Y-117690341D01*
X81983328Y-117676205D01*
X81822957Y-117520903D01*
X81699195Y-117406870D01*
X81609555Y-117332002D01*
X81551552Y-117294196D01*
X81526004Y-117289317D01*
X81488718Y-117310603D01*
X81411343Y-117359773D01*
X81301867Y-117431575D01*
X81168280Y-117520755D01*
X81018570Y-117622063D01*
X80983618Y-117645897D01*
X80487390Y-117984765D01*
X80263293Y-117883056D01*
X80127011Y-117823783D01*
X79980724Y-117764170D01*
X79854965Y-117716640D01*
X79849425Y-117714685D01*
X79751057Y-117678677D01*
X79675229Y-117648229D01*
X79638282Y-117629905D01*
X79638220Y-117629852D01*
X79626496Y-117596729D01*
X79606568Y-117515267D01*
X79580413Y-117394625D01*
X79550010Y-117243959D01*
X79517337Y-117072428D01*
X79514664Y-117057967D01*
X79481890Y-116881235D01*
X79451802Y-116720810D01*
X79426339Y-116586888D01*
X79407441Y-116489663D01*
X79397047Y-116439332D01*
X79396865Y-116438563D01*
X79390539Y-116417153D01*
X79378239Y-116400988D01*
X79352594Y-116389331D01*
X79306235Y-116381445D01*
X79231792Y-116376593D01*
X79121895Y-116374039D01*
X78969175Y-116373045D01*
X78766262Y-116372874D01*
X78740000Y-116372874D01*
X78530986Y-116372998D01*
M02*
