G04 #@! TF.FileFunction,Copper,L2,Bot,Signal*
%FSLAX46Y46*%
G04 Gerber Fmt 4.6, Leading zero omitted, Abs format (unit mm)*
G04 Created by KiCad (PCBNEW 4.0.7) date Wed Oct 18 00:41:33 2017*
%MOMM*%
%LPD*%
G01*
G04 APERTURE LIST*
%ADD10C,0.100000*%
%ADD11O,1.510000X3.010000*%
%ADD12R,1.600000X2.400000*%
%ADD13O,1.600000X2.400000*%
%ADD14C,1.600000*%
%ADD15R,2.000000X2.000000*%
%ADD16O,2.000000X2.000000*%
%ADD17R,1.397000X1.397000*%
%ADD18C,1.397000*%
%ADD19O,1.600000X1.600000*%
%ADD20R,1.350000X1.350000*%
%ADD21O,1.350000X1.350000*%
%ADD22R,1.600000X1.600000*%
%ADD23R,1.700000X1.700000*%
%ADD24O,1.700000X1.700000*%
%ADD25R,1.800000X1.800000*%
%ADD26C,1.800000*%
%ADD27C,0.600000*%
%ADD28C,1.270000*%
%ADD29C,0.635000*%
%ADD30C,0.254000*%
%ADD31C,0.500000*%
G04 APERTURE END LIST*
D10*
D11*
X151130000Y-139065000D03*
X153670000Y-139065000D03*
D12*
X98425000Y-156210000D03*
D13*
X113665000Y-148590000D03*
X100965000Y-156210000D03*
X111125000Y-148590000D03*
X103505000Y-156210000D03*
X108585000Y-148590000D03*
X106045000Y-156210000D03*
X106045000Y-148590000D03*
X108585000Y-156210000D03*
X103505000Y-148590000D03*
X111125000Y-156210000D03*
X100965000Y-148590000D03*
X113665000Y-156210000D03*
X98425000Y-148590000D03*
D14*
X120015000Y-154305000D03*
X120015000Y-156805000D03*
D12*
X66675000Y-156210000D03*
D13*
X89535000Y-148590000D03*
X69215000Y-156210000D03*
X86995000Y-148590000D03*
X71755000Y-156210000D03*
X84455000Y-148590000D03*
X74295000Y-156210000D03*
X81915000Y-148590000D03*
X76835000Y-156210000D03*
X79375000Y-148590000D03*
X79375000Y-156210000D03*
X76835000Y-148590000D03*
X81915000Y-156210000D03*
X74295000Y-148590000D03*
X84455000Y-156210000D03*
X71755000Y-148590000D03*
X86995000Y-156210000D03*
X69215000Y-148590000D03*
X89535000Y-156210000D03*
X66675000Y-148590000D03*
D15*
X62000000Y-163000000D03*
D16*
X64540000Y-163000000D03*
X67080000Y-163000000D03*
X69620000Y-163000000D03*
X72160000Y-163000000D03*
X74700000Y-163000000D03*
X77240000Y-163000000D03*
X79780000Y-163000000D03*
X82320000Y-163000000D03*
X84860000Y-163000000D03*
X87400000Y-163000000D03*
X89940000Y-163000000D03*
X92480000Y-163000000D03*
X95020000Y-163000000D03*
X97560000Y-163000000D03*
X100100000Y-163000000D03*
X102640000Y-163000000D03*
X105180000Y-163000000D03*
X107720000Y-163000000D03*
X110260000Y-163000000D03*
X112800000Y-163000000D03*
X115340000Y-163000000D03*
X117880000Y-163000000D03*
X120420000Y-163000000D03*
X122960000Y-163000000D03*
X125500000Y-163000000D03*
X128040000Y-163000000D03*
X130580000Y-163000000D03*
X133120000Y-163000000D03*
X135660000Y-163000000D03*
X138200000Y-163000000D03*
X140740000Y-163000000D03*
X143280000Y-163000000D03*
X145820000Y-163000000D03*
X148360000Y-163000000D03*
X150900000Y-163000000D03*
X153440000Y-163000000D03*
X155980000Y-163000000D03*
X158520000Y-163000000D03*
D17*
X140970000Y-147320000D03*
D18*
X143510000Y-144780000D03*
X140970000Y-144780000D03*
X143510000Y-142240000D03*
X140970000Y-142240000D03*
X143510000Y-139700000D03*
X140970000Y-137160000D03*
X140970000Y-139700000D03*
X138430000Y-137160000D03*
X138430000Y-139700000D03*
X135890000Y-137160000D03*
X135890000Y-139700000D03*
X133350000Y-137160000D03*
X133350000Y-139700000D03*
X130810000Y-137160000D03*
X130810000Y-139700000D03*
X128270000Y-137160000D03*
X125730000Y-139700000D03*
X128270000Y-139700000D03*
X125730000Y-142240000D03*
X128270000Y-142240000D03*
X125730000Y-144780000D03*
X128270000Y-144780000D03*
X125730000Y-147320000D03*
X128270000Y-147320000D03*
X125730000Y-149860000D03*
X128270000Y-149860000D03*
X125730000Y-152400000D03*
X128270000Y-154940000D03*
X128270000Y-152400000D03*
X130810000Y-154940000D03*
X130810000Y-152400000D03*
X133350000Y-154940000D03*
X133350000Y-152400000D03*
X135890000Y-154940000D03*
X135890000Y-152400000D03*
X138430000Y-154940000D03*
X138430000Y-152400000D03*
X140970000Y-154940000D03*
X143510000Y-152400000D03*
X140970000Y-152400000D03*
X143510000Y-149860000D03*
X140970000Y-149860000D03*
X143510000Y-147320000D03*
D14*
X153035000Y-123825000D03*
D19*
X145415000Y-123825000D03*
D20*
X93345000Y-128905000D03*
D21*
X93345000Y-126905000D03*
X95345000Y-128905000D03*
X95345000Y-126905000D03*
X97345000Y-128905000D03*
X97345000Y-126905000D03*
X99345000Y-128905000D03*
X99345000Y-126905000D03*
X101345000Y-128905000D03*
X101345000Y-126905000D03*
X103345000Y-128905000D03*
X103345000Y-126905000D03*
X105345000Y-128905000D03*
X105345000Y-126905000D03*
X107345000Y-128905000D03*
X107345000Y-126905000D03*
X109345000Y-128905000D03*
X109345000Y-126905000D03*
X111345000Y-128905000D03*
X111345000Y-126905000D03*
X113345000Y-128905000D03*
X113345000Y-126905000D03*
X115345000Y-128905000D03*
X115345000Y-126905000D03*
X117345000Y-128905000D03*
X117345000Y-126905000D03*
X119345000Y-128905000D03*
X119345000Y-126905000D03*
X121345000Y-128905000D03*
X121345000Y-126905000D03*
X123345000Y-128905000D03*
X123345000Y-126905000D03*
X125345000Y-128905000D03*
X125345000Y-126905000D03*
X127345000Y-128905000D03*
X127345000Y-126905000D03*
X129345000Y-128905000D03*
X129345000Y-126905000D03*
X131345000Y-128905000D03*
X131345000Y-126905000D03*
X133345000Y-128905000D03*
X133345000Y-126905000D03*
X135345000Y-128905000D03*
X135345000Y-126905000D03*
D22*
X80645000Y-129540000D03*
D19*
X67945000Y-137160000D03*
X78105000Y-129540000D03*
X70485000Y-137160000D03*
X75565000Y-129540000D03*
X73025000Y-137160000D03*
X73025000Y-129540000D03*
X75565000Y-137160000D03*
X70485000Y-129540000D03*
X78105000Y-137160000D03*
X67945000Y-129540000D03*
X80645000Y-137160000D03*
D14*
X62865000Y-151130000D03*
X62865000Y-148630000D03*
X94615000Y-151130000D03*
X94615000Y-148630000D03*
D23*
X111760000Y-140970000D03*
D24*
X111760000Y-138430000D03*
X111760000Y-135890000D03*
D23*
X107950000Y-140970000D03*
D24*
X107950000Y-138430000D03*
X107950000Y-135890000D03*
D23*
X104140000Y-140970000D03*
D24*
X104140000Y-138430000D03*
X104140000Y-135890000D03*
D23*
X100330000Y-140970000D03*
D24*
X100330000Y-138430000D03*
X100330000Y-135890000D03*
D22*
X66675000Y-142875000D03*
D19*
X69215000Y-142875000D03*
X71755000Y-142875000D03*
X74295000Y-142875000D03*
X76835000Y-142875000D03*
X79375000Y-142875000D03*
X81915000Y-142875000D03*
X84455000Y-142875000D03*
D14*
X88265000Y-133985000D03*
D19*
X95885000Y-133985000D03*
D14*
X88265000Y-137795000D03*
D19*
X95885000Y-137795000D03*
D14*
X88265000Y-141605000D03*
D19*
X95885000Y-141605000D03*
D23*
X90170000Y-121920000D03*
D24*
X90170000Y-119380000D03*
X92710000Y-121920000D03*
X92710000Y-119380000D03*
X95250000Y-121920000D03*
X95250000Y-119380000D03*
X97790000Y-121920000D03*
X97790000Y-119380000D03*
X100330000Y-121920000D03*
X100330000Y-119380000D03*
X102870000Y-121920000D03*
X102870000Y-119380000D03*
X105410000Y-121920000D03*
X105410000Y-119380000D03*
X107950000Y-121920000D03*
X107950000Y-119380000D03*
X110490000Y-121920000D03*
X110490000Y-119380000D03*
X113030000Y-121920000D03*
X113030000Y-119380000D03*
X115570000Y-121920000D03*
X115570000Y-119380000D03*
X118110000Y-121920000D03*
X118110000Y-119380000D03*
X120650000Y-121920000D03*
X120650000Y-119380000D03*
X123190000Y-121920000D03*
X123190000Y-119380000D03*
X125730000Y-121920000D03*
X125730000Y-119380000D03*
X128270000Y-121920000D03*
X128270000Y-119380000D03*
X130810000Y-121920000D03*
X130810000Y-119380000D03*
X133350000Y-121920000D03*
X133350000Y-119380000D03*
X135890000Y-121920000D03*
X135890000Y-119380000D03*
X138430000Y-121920000D03*
X138430000Y-119380000D03*
D25*
X147955000Y-118110000D03*
D26*
X150495000Y-118110000D03*
D23*
X152400000Y-152400000D03*
D24*
X152400000Y-149860000D03*
D27*
X138464300Y-158065000D03*
X137545800Y-159936400D03*
X103181100Y-160812000D03*
X104969600Y-159057100D03*
X90021700Y-161255300D03*
X124703255Y-160411745D03*
X105310195Y-161367895D03*
X127311700Y-134412900D03*
X84231800Y-160257700D03*
X132705500Y-149367600D03*
X123798500Y-139572600D03*
X96260500Y-136532400D03*
X129919600Y-131499100D03*
X115575600Y-143998700D03*
X112645457Y-146935457D03*
X112420200Y-153265097D03*
X126497900Y-137126700D03*
X115021300Y-130555100D03*
X123837800Y-130937400D03*
X113291900Y-135301800D03*
X106674500Y-133435000D03*
X114271900Y-129851600D03*
D28*
X66675000Y-148590000D02*
X66675000Y-148990000D01*
X66675000Y-148990000D02*
X68745000Y-151060000D01*
X68745000Y-151060000D02*
X74765000Y-151060000D01*
X74765000Y-151060000D02*
X76835000Y-148990000D01*
X76835000Y-148990000D02*
X76835000Y-148590000D01*
X113665000Y-160655000D02*
X107525000Y-160655000D01*
X120015000Y-154305000D02*
X113665000Y-160655000D01*
X107525000Y-160655000D02*
X105180000Y-163000000D01*
X88265000Y-141605000D02*
X88265000Y-144591762D01*
X88265000Y-144591762D02*
X93815001Y-150141763D01*
X93815001Y-150141763D02*
X93815001Y-150330001D01*
X93815001Y-150330001D02*
X94615000Y-151130000D01*
X80645000Y-129540000D02*
X80645000Y-133985000D01*
X80645000Y-133985000D02*
X88265000Y-141605000D01*
D29*
X66864800Y-148400200D02*
X66675000Y-148590000D01*
X111691900Y-158583100D02*
X107056900Y-158583100D01*
X104952834Y-160623394D02*
X103639999Y-161936229D01*
X103639999Y-161936229D02*
X103639999Y-162000001D01*
X113665000Y-156210000D02*
X113665000Y-156610000D01*
X107056900Y-158583100D02*
X105016606Y-160623394D01*
X105016606Y-160623394D02*
X104952834Y-160623394D01*
X113665000Y-156610000D02*
X111691900Y-158583100D01*
X103639999Y-162000001D02*
X102640000Y-163000000D01*
X153670000Y-139065000D02*
X153670000Y-136925000D01*
X143650000Y-126905000D02*
X136299594Y-126905000D01*
X153670000Y-136925000D02*
X143650000Y-126905000D01*
X136299594Y-126905000D02*
X135345000Y-126905000D01*
X138430000Y-119380000D02*
X140970000Y-121920000D01*
X140970000Y-121920000D02*
X140970000Y-124460000D01*
X140970000Y-124460000D02*
X137790000Y-124460000D01*
X137790000Y-124460000D02*
X135345000Y-126905000D01*
X135345000Y-128905000D02*
X135345000Y-126905000D01*
X120650000Y-119380000D02*
X118110000Y-119380000D01*
X113345000Y-126905000D02*
X111345000Y-128905000D01*
X115570000Y-119380000D02*
X113030000Y-121920000D01*
X134223900Y-125783900D02*
X135345000Y-126905000D01*
X132466100Y-125783900D02*
X134223900Y-125783900D01*
X131345000Y-126905000D02*
X132466100Y-125783900D01*
X88265000Y-133985000D02*
X88265000Y-137795000D01*
X102547100Y-163000000D02*
X95617900Y-156070700D01*
X102640000Y-163000000D02*
X102547100Y-163000000D01*
X95478600Y-156210000D02*
X95617900Y-156070700D01*
X89535000Y-156210000D02*
X95478600Y-156210000D01*
X95892700Y-149907700D02*
X94615000Y-148630000D01*
X95892700Y-155795900D02*
X95892700Y-149907700D01*
X95617900Y-156070700D02*
X95892700Y-155795900D01*
X62865000Y-146685000D02*
X62865000Y-148630000D01*
X66675000Y-142875000D02*
X62865000Y-146685000D01*
D30*
X129329700Y-161710300D02*
X128040000Y-163000000D01*
X130481700Y-161710300D02*
X129329700Y-161710300D01*
X136938900Y-155253100D02*
X130481700Y-161710300D01*
X136938900Y-153891100D02*
X136938900Y-155253100D01*
X138430000Y-152400000D02*
X136938900Y-153891100D01*
X138430000Y-155150000D02*
X130580000Y-163000000D01*
X138430000Y-154940000D02*
X138430000Y-155150000D01*
X133120000Y-162625400D02*
X133120000Y-163000000D01*
X139422600Y-156322800D02*
X133120000Y-162625400D01*
X139422600Y-152037800D02*
X139422600Y-156322800D01*
X138812300Y-151427500D02*
X139422600Y-152037800D01*
X136862500Y-151427500D02*
X138812300Y-151427500D01*
X135890000Y-152400000D02*
X136862500Y-151427500D01*
X135660000Y-160869300D02*
X135660000Y-163000000D01*
X138464300Y-158065000D02*
X135660000Y-160869300D01*
X140216400Y-159936400D02*
X137545800Y-159936400D01*
X143280000Y-163000000D02*
X140216400Y-159936400D01*
X137731501Y-137858499D02*
X138430000Y-137160000D01*
X137160100Y-142901000D02*
X137160100Y-138429900D01*
X131617300Y-148443800D02*
X137160100Y-142901000D01*
X129540100Y-152210400D02*
X131617300Y-150133200D01*
X129540100Y-152496100D02*
X129540100Y-152210400D01*
X104758617Y-160051883D02*
X107146100Y-157664400D01*
X124693587Y-152711087D02*
X125349300Y-153366800D01*
X125349300Y-153366800D02*
X128669400Y-153366800D01*
X131617300Y-150133200D02*
X131617300Y-148443800D01*
X109935998Y-154947812D02*
X112172723Y-152711087D01*
X109935998Y-156765902D02*
X109935998Y-154947812D01*
X128669400Y-153366800D02*
X129540100Y-152496100D01*
X109037500Y-157664400D02*
X109935998Y-156765902D01*
X103181100Y-160812000D02*
X103941217Y-160051883D01*
X103941217Y-160051883D02*
X104758617Y-160051883D01*
X107146100Y-157664400D02*
X109037500Y-157664400D01*
X137160100Y-138429900D02*
X137731501Y-137858499D01*
X112172723Y-152711087D02*
X124693587Y-152711087D01*
X103505000Y-157592500D02*
X103505000Y-156210000D01*
X104969600Y-159057100D02*
X103505000Y-157592500D01*
X84455000Y-157515000D02*
X84455000Y-156210000D01*
X89940000Y-163000000D02*
X84455000Y-157515000D01*
X88423700Y-149701300D02*
X89535000Y-148590000D01*
X88423700Y-158616600D02*
X88423700Y-149701300D01*
X92480000Y-162672900D02*
X88423700Y-158616600D01*
X92480000Y-163000000D02*
X92480000Y-162672900D01*
X85534200Y-156767800D02*
X90021700Y-161255300D01*
X85534200Y-149669200D02*
X85534200Y-156767800D01*
X84455000Y-148590000D02*
X85534200Y-149669200D01*
X84371500Y-161206500D02*
X79375000Y-156210000D01*
X85606500Y-161206500D02*
X84371500Y-161206500D01*
X87400000Y-163000000D02*
X85606500Y-161206500D01*
X76500600Y-158415600D02*
X74295000Y-156210000D01*
X80275600Y-158415600D02*
X76500600Y-158415600D01*
X84860000Y-163000000D02*
X80275600Y-158415600D01*
X79374200Y-160054200D02*
X82320000Y-163000000D01*
X73059200Y-160054200D02*
X79374200Y-160054200D01*
X69215000Y-156210000D02*
X73059200Y-160054200D01*
X124937181Y-159003989D02*
X122960000Y-160981170D01*
X122960000Y-161585787D02*
X122960000Y-163000000D01*
X122960000Y-160981170D02*
X122960000Y-161585787D01*
X128114011Y-159003989D02*
X124937181Y-159003989D01*
X140813800Y-143510000D02*
X134516800Y-149807000D01*
X132080100Y-155037900D02*
X128114011Y-159003989D01*
X134516800Y-152581700D02*
X133159700Y-153938800D01*
X132992900Y-153938800D02*
X132080100Y-154851600D01*
X132080100Y-154851600D02*
X132080100Y-155037900D01*
X133159700Y-153938800D02*
X132992900Y-153938800D01*
X134516800Y-149807000D02*
X134516800Y-152581700D01*
X141079400Y-143510000D02*
X140813800Y-143510000D01*
X141923000Y-142666400D02*
X141079400Y-143510000D01*
X141923000Y-141287000D02*
X141923000Y-142666400D01*
X143510000Y-139700000D02*
X141923000Y-141287000D01*
X129783255Y-160411745D02*
X125127519Y-160411745D01*
X134937100Y-155257900D02*
X129783255Y-160411745D01*
X134937100Y-152004300D02*
X134937100Y-155257900D01*
X135928900Y-151012500D02*
X134937100Y-152004300D01*
X142122500Y-151012500D02*
X135928900Y-151012500D01*
X143510000Y-152400000D02*
X142122500Y-151012500D01*
X125127519Y-160411745D02*
X124703255Y-160411745D01*
X122015500Y-153235900D02*
X119052400Y-153235900D01*
X130821600Y-153748200D02*
X122527800Y-153748200D01*
X107523090Y-159155000D02*
X105610194Y-161067896D01*
X113133300Y-159155000D02*
X107523090Y-159155000D01*
X132080100Y-149115300D02*
X132080100Y-152489700D01*
X138430000Y-142765400D02*
X132080100Y-149115300D01*
X132080100Y-152489700D02*
X130821600Y-153748200D01*
X122527800Y-153748200D02*
X122015500Y-153235900D01*
X119052400Y-153235900D02*
X113133300Y-159155000D01*
X105610194Y-161067896D02*
X105310195Y-161367895D01*
X138430000Y-139700000D02*
X138430000Y-142765400D01*
X95345000Y-133445000D02*
X95345000Y-128905000D01*
X95885000Y-133985000D02*
X95345000Y-133445000D01*
X99695000Y-149239000D02*
X101586022Y-151130022D01*
X95345000Y-126905000D02*
X94384800Y-127865200D01*
X101586022Y-151130022D02*
X111059638Y-151130022D01*
X111059638Y-151130022D02*
X111383628Y-150806032D01*
X124742172Y-142240000D02*
X125730000Y-142240000D01*
X122479000Y-142240000D02*
X124742172Y-142240000D01*
X94384800Y-141604000D02*
X99695000Y-146914200D01*
X111383628Y-150806032D02*
X113912968Y-150806032D01*
X94384800Y-127865200D02*
X94384800Y-141604000D01*
X99695000Y-146914200D02*
X99695000Y-149239000D01*
X113912968Y-150806032D02*
X122479000Y-142240000D01*
X96297300Y-122967300D02*
X95250000Y-121920000D01*
X96297300Y-127857300D02*
X96297300Y-122967300D01*
X97345000Y-128905000D02*
X96297300Y-127857300D01*
X127000000Y-140970000D02*
X128270000Y-142240000D01*
X125648600Y-140970000D02*
X127000000Y-140970000D01*
X124392100Y-139713500D02*
X125648600Y-140970000D01*
X124392100Y-125910500D02*
X124392100Y-139713500D01*
X121754400Y-123272800D02*
X124392100Y-125910500D01*
X121754400Y-121458500D02*
X121754400Y-123272800D01*
X120945900Y-120650000D02*
X121754400Y-121458500D01*
X117791300Y-120650000D02*
X120945900Y-120650000D01*
X117005600Y-119864300D02*
X117791300Y-120650000D01*
X117005600Y-119253000D02*
X117005600Y-119864300D01*
X115991300Y-118238700D02*
X117005600Y-119253000D01*
X96391300Y-118238700D02*
X115991300Y-118238700D01*
X95250000Y-119380000D02*
X96391300Y-118238700D01*
X97790000Y-123889300D02*
X97790000Y-121920000D01*
X100286400Y-126385700D02*
X97790000Y-123889300D01*
X100286400Y-127963600D02*
X100286400Y-126385700D01*
X99345000Y-128905000D02*
X100286400Y-127963600D01*
X120849756Y-144780000D02*
X124742172Y-144780000D01*
X96678700Y-120802700D02*
X89203900Y-120802700D01*
X99454933Y-151511033D02*
X111217457Y-151511033D01*
X124742172Y-144780000D02*
X125730000Y-144780000D01*
X114442713Y-151187043D02*
X120849756Y-144780000D01*
X111217457Y-151511033D02*
X111541447Y-151187043D01*
X89042200Y-129557200D02*
X93272700Y-133787700D01*
X89203900Y-120802700D02*
X89042200Y-120964400D01*
X93272700Y-145328800D02*
X99454933Y-151511033D01*
X89042200Y-120964400D02*
X89042200Y-129557200D01*
X111541447Y-151187043D02*
X114442713Y-151187043D01*
X93272700Y-133787700D02*
X93272700Y-145328800D01*
X96678700Y-124238700D02*
X96678700Y-120802700D01*
X99345000Y-126905000D02*
X96678700Y-124238700D01*
X96678700Y-120491300D02*
X97790000Y-119380000D01*
X96678700Y-120802700D02*
X96678700Y-120491300D01*
X100330000Y-124429300D02*
X100330000Y-121920000D01*
X102286400Y-126385700D02*
X100330000Y-124429300D01*
X102286400Y-127963600D02*
X102286400Y-126385700D01*
X101345000Y-128905000D02*
X102286400Y-127963600D01*
X99218700Y-120491300D02*
X100330000Y-119380000D01*
X99218700Y-124778700D02*
X99218700Y-120491300D01*
X101345000Y-126905000D02*
X99218700Y-124778700D01*
X104288000Y-123338000D02*
X102870000Y-121920000D01*
X104288000Y-127962000D02*
X104288000Y-123338000D01*
X103345000Y-128905000D02*
X104288000Y-127962000D01*
X101758700Y-125318700D02*
X103345000Y-126905000D01*
X101758700Y-120491300D02*
X101758700Y-125318700D01*
X102870000Y-119380000D02*
X101758700Y-120491300D01*
X129658700Y-136759900D02*
X127311700Y-134412900D01*
X129658700Y-145931300D02*
X129658700Y-136759900D01*
X128270000Y-147320000D02*
X129658700Y-145931300D01*
X84070700Y-160257700D02*
X84231800Y-160257700D01*
X80454300Y-156641300D02*
X84070700Y-160257700D01*
X80454300Y-149669300D02*
X80454300Y-156641300D01*
X79375000Y-148590000D02*
X80454300Y-149669300D01*
X71755000Y-145415000D02*
X71755000Y-148590000D01*
X69215000Y-142875000D02*
X71755000Y-145415000D01*
X139497200Y-142575900D02*
X132705500Y-149367600D01*
X139497200Y-138632800D02*
X139497200Y-142575900D01*
X140970000Y-137160000D02*
X139497200Y-138632800D01*
X110901819Y-150749011D02*
X102724011Y-150749011D01*
X113754679Y-150425021D02*
X111225809Y-150425021D01*
X123798500Y-140381200D02*
X113754679Y-150425021D01*
X123798500Y-139572600D02*
X123798500Y-140381200D01*
X111225809Y-150425021D02*
X110901819Y-150749011D01*
X102724011Y-150749011D02*
X100965000Y-148990000D01*
X100965000Y-148990000D02*
X100965000Y-148590000D01*
X114916170Y-152330076D02*
X112014904Y-152330076D01*
X130297300Y-149224700D02*
X128664800Y-150857200D01*
X116389046Y-150857200D02*
X114916170Y-152330076D01*
X128664800Y-150857200D02*
X116389046Y-150857200D01*
X130297300Y-148685500D02*
X130297300Y-149224700D01*
X133350000Y-145632800D02*
X130297300Y-148685500D01*
X108585000Y-155759980D02*
X108585000Y-156210000D01*
X133350000Y-139700000D02*
X133350000Y-145632800D01*
X112014904Y-152330076D02*
X108585000Y-155759980D01*
X129223000Y-140653000D02*
X128968499Y-140398499D01*
X127241900Y-144654100D02*
X127241900Y-144418600D01*
X129223000Y-142687500D02*
X129223000Y-140653000D01*
X102342956Y-151892044D02*
X111375276Y-151892044D01*
X120118586Y-146050000D02*
X125846000Y-146050000D01*
X128968499Y-140398499D02*
X128270000Y-139700000D01*
X128400500Y-143510000D02*
X129223000Y-142687500D01*
X127241900Y-144418600D02*
X128150500Y-143510000D01*
X111699266Y-151568054D02*
X114600532Y-151568054D01*
X111375276Y-151892044D02*
X111699266Y-151568054D01*
X98425000Y-155810000D02*
X102342956Y-151892044D01*
X125846000Y-146050000D02*
X127241900Y-144654100D01*
X114600532Y-151568054D02*
X120118586Y-146050000D01*
X128150500Y-143510000D02*
X128400500Y-143510000D01*
X98425000Y-156210000D02*
X98425000Y-155810000D01*
X90170000Y-125730000D02*
X93345000Y-128905000D01*
X90170000Y-121920000D02*
X90170000Y-125730000D01*
X106286600Y-127963400D02*
X105345000Y-128905000D01*
X106286600Y-122796600D02*
X106286600Y-127963400D01*
X105410000Y-121920000D02*
X106286600Y-122796600D01*
X101823800Y-130969100D02*
X96260500Y-136532400D01*
X101823800Y-130969000D02*
X101823800Y-130969100D01*
X106597200Y-130969000D02*
X101823800Y-130969000D01*
X108280400Y-129285800D02*
X106597200Y-130969000D01*
X108280400Y-127840400D02*
X108280400Y-129285800D01*
X107345000Y-126905000D02*
X108280400Y-127840400D01*
X110345000Y-122065000D02*
X110490000Y-121920000D01*
X110345000Y-127905000D02*
X110345000Y-122065000D01*
X109345000Y-128905000D02*
X110345000Y-127905000D01*
X109345000Y-120525000D02*
X110490000Y-119380000D01*
X109345000Y-126905000D02*
X109345000Y-120525000D01*
X134302800Y-135882300D02*
X129919600Y-131499100D01*
X134302800Y-145219100D02*
X134302800Y-135882300D01*
X130813500Y-148708400D02*
X134302800Y-145219100D01*
X130813500Y-149264300D02*
X130813500Y-148708400D01*
X128839200Y-151238600D02*
X130813500Y-149264300D01*
X126891400Y-151238600D02*
X128839200Y-151238600D01*
X125730000Y-152400000D02*
X126891400Y-151238600D01*
X112645457Y-146935457D02*
X115575600Y-144005314D01*
X115575600Y-144005314D02*
X115575600Y-143998700D01*
X115531600Y-128905000D02*
X115575600Y-128949000D01*
X115575600Y-128949000D02*
X115575600Y-143998700D01*
X111125000Y-154560297D02*
X112420200Y-153265097D01*
X111125000Y-156210000D02*
X111125000Y-154560297D01*
X111125000Y-156210000D02*
X111125000Y-155810000D01*
X116345000Y-128091600D02*
X115531600Y-128905000D01*
X116345000Y-123685000D02*
X116345000Y-128091600D01*
X118110000Y-121920000D02*
X116345000Y-123685000D01*
X115531600Y-128905000D02*
X115345000Y-128905000D01*
X111067990Y-150044011D02*
X112083989Y-150044011D01*
X112083989Y-150044011D02*
X112610990Y-149517010D01*
X109658000Y-150044000D02*
X109982000Y-150368000D01*
X109982000Y-150368000D02*
X110744002Y-150368000D01*
X110744002Y-150368000D02*
X111067990Y-150044011D01*
X109639000Y-150044000D02*
X109658000Y-150044000D01*
X108585000Y-148590000D02*
X108585000Y-148990000D01*
X108585000Y-148990000D02*
X109639000Y-150044000D01*
X112610990Y-149517010D02*
X112610990Y-147753415D01*
X112610990Y-147753415D02*
X117345000Y-143019405D01*
X117345000Y-143019405D02*
X117345000Y-129859594D01*
X117345000Y-129859594D02*
X117345000Y-128905000D01*
X118274400Y-127975600D02*
X117345000Y-128905000D01*
X118274400Y-124295600D02*
X118274400Y-127975600D01*
X120650000Y-121920000D02*
X118274400Y-124295600D01*
X128345000Y-127905000D02*
X127345000Y-128905000D01*
X128345000Y-126557300D02*
X128345000Y-127905000D01*
X132982300Y-121920000D02*
X128345000Y-126557300D01*
X133350000Y-121920000D02*
X132982300Y-121920000D01*
X126497900Y-131572600D02*
X126497900Y-137126700D01*
X127345000Y-130725500D02*
X126497900Y-131572600D01*
X127345000Y-128905000D02*
X127345000Y-130725500D01*
X111587100Y-133989300D02*
X115021300Y-130555100D01*
X104451300Y-133989300D02*
X111587100Y-133989300D01*
X103013700Y-135426900D02*
X104451300Y-133989300D01*
X103013700Y-137303700D02*
X103013700Y-135426900D01*
X104140000Y-138430000D02*
X103013700Y-137303700D01*
X132080000Y-120650000D02*
X133350000Y-119380000D01*
X132080000Y-122239400D02*
X132080000Y-120650000D01*
X127414400Y-126905000D02*
X132080000Y-122239400D01*
X127345000Y-126905000D02*
X127414400Y-126905000D01*
X125730000Y-131801200D02*
X125730000Y-139700000D01*
X126302200Y-131229000D02*
X125730000Y-131801200D01*
X126302200Y-127947800D02*
X126302200Y-131229000D01*
X127345000Y-126905000D02*
X126302200Y-127947800D01*
X111857085Y-151949065D02*
X114758351Y-151949065D01*
X114758351Y-151949065D02*
X118117416Y-148590000D01*
X129345000Y-133418200D02*
X129345000Y-129859594D01*
X131783100Y-145172500D02*
X131783100Y-135856300D01*
X128365600Y-148590000D02*
X131783100Y-145172500D01*
X129345000Y-129859594D02*
X129345000Y-128905000D01*
X111533095Y-152273055D02*
X111857085Y-151949065D01*
X104501945Y-152273055D02*
X111533095Y-152273055D01*
X131783100Y-135856300D02*
X129345000Y-133418200D01*
X118117416Y-148590000D02*
X128365600Y-148590000D01*
X100965000Y-155810000D02*
X104501945Y-152273055D01*
X100965000Y-156210000D02*
X100965000Y-155810000D01*
X129987800Y-126905000D02*
X129345000Y-126905000D01*
X134620000Y-122272800D02*
X129987800Y-126905000D01*
X134620000Y-120650000D02*
X134620000Y-122272800D01*
X135890000Y-119380000D02*
X134620000Y-120650000D01*
X123837800Y-138417200D02*
X113665000Y-148590000D01*
X123837800Y-130937400D02*
X123837800Y-138417200D01*
X110649400Y-134779400D02*
X111760000Y-135890000D01*
X107493600Y-134779400D02*
X110649400Y-134779400D01*
X106832500Y-135440500D02*
X107493600Y-134779400D01*
X106832500Y-139852500D02*
X106832500Y-135440500D01*
X107950000Y-140970000D02*
X106832500Y-139852500D01*
X104916600Y-136666600D02*
X104140000Y-135890000D01*
X105053600Y-136666600D02*
X104916600Y-136666600D01*
X105291500Y-136904500D02*
X105053600Y-136666600D01*
X105291500Y-141935200D02*
X105291500Y-136904500D01*
X105121000Y-142105700D02*
X105291500Y-141935200D01*
X101465700Y-142105700D02*
X105121000Y-142105700D01*
X100330000Y-140970000D02*
X101465700Y-142105700D01*
X112362900Y-134372800D02*
X113291900Y-135301800D01*
X107347400Y-134372800D02*
X112362900Y-134372800D01*
X105053600Y-136666600D02*
X107347400Y-134372800D01*
X70485000Y-139065000D02*
X70485000Y-137160000D01*
X74295000Y-142875000D02*
X70485000Y-139065000D01*
X73173800Y-137308800D02*
X73385800Y-137308800D01*
X73025000Y-137160000D02*
X73173800Y-137308800D01*
X74980200Y-135714400D02*
X73385800Y-137308800D01*
X78204400Y-135714400D02*
X74980200Y-135714400D01*
X79375000Y-136885000D02*
X78204400Y-135714400D01*
X79375000Y-137826700D02*
X79375000Y-136885000D01*
X83185000Y-141636700D02*
X79375000Y-137826700D01*
X83185000Y-144613900D02*
X83185000Y-141636700D01*
X85940600Y-147369500D02*
X83185000Y-144613900D01*
X85940600Y-155155600D02*
X85940600Y-147369500D01*
X86995000Y-156210000D02*
X85940600Y-155155600D01*
X76835000Y-140758000D02*
X76835000Y-142875000D01*
X73385800Y-137308800D02*
X76835000Y-140758000D01*
X79375000Y-140970000D02*
X79375000Y-142875000D01*
X75565000Y-137160000D02*
X79375000Y-140970000D01*
X80835700Y-144335700D02*
X79375000Y-142875000D01*
X80835700Y-155130700D02*
X80835700Y-144335700D01*
X81915000Y-156210000D02*
X80835700Y-155130700D01*
X81915000Y-140970000D02*
X78105000Y-137160000D01*
X81915000Y-142875000D02*
X81915000Y-140970000D01*
X77946200Y-155098800D02*
X76835000Y-156210000D01*
X77946200Y-141097000D02*
X77946200Y-155098800D01*
X74505800Y-137656600D02*
X77946200Y-141097000D01*
X74505800Y-136728100D02*
X74505800Y-137656600D01*
X75138100Y-136095800D02*
X74505800Y-136728100D01*
X77040800Y-136095800D02*
X75138100Y-136095800D01*
X78105000Y-137160000D02*
X77040800Y-136095800D01*
X84455000Y-140970000D02*
X80645000Y-137160000D01*
X84455000Y-142875000D02*
X84455000Y-140970000D01*
D28*
X133345000Y-128905000D02*
X133345000Y-126905000D01*
X137470406Y-133985000D02*
X144025000Y-133985000D01*
X144025000Y-133985000D02*
X149105000Y-139065000D01*
X149105000Y-139065000D02*
X151130000Y-139065000D01*
X133345000Y-128905000D02*
X133345000Y-129859594D01*
X133345000Y-129859594D02*
X137470406Y-133985000D01*
D30*
X107950000Y-136204700D02*
X107950000Y-135890000D01*
X111760000Y-140014700D02*
X107950000Y-136204700D01*
X111760000Y-140970000D02*
X111760000Y-140014700D01*
X109591700Y-147056700D02*
X111125000Y-148590000D01*
X109591700Y-140071700D02*
X109591700Y-147056700D01*
X107950000Y-138430000D02*
X109591700Y-140071700D01*
X100772200Y-136332200D02*
X101568900Y-136332200D01*
X100330000Y-135890000D02*
X100772200Y-136332200D01*
X101568900Y-138398900D02*
X104140000Y-140970000D01*
X101568900Y-136332200D02*
X101568900Y-138398900D01*
X104466100Y-133435000D02*
X106674500Y-133435000D01*
X101568900Y-136332200D02*
X104466100Y-133435000D01*
X99225600Y-139534400D02*
X100330000Y-138430000D01*
X99225600Y-141996500D02*
X99225600Y-139534400D01*
X105819100Y-148590000D02*
X99225600Y-141996500D01*
X106045000Y-148590000D02*
X105819100Y-148590000D01*
X67945000Y-139065000D02*
X67945000Y-137160000D01*
X71755000Y-142875000D02*
X67945000Y-139065000D01*
X114292200Y-127957800D02*
X113345000Y-128905000D01*
X114292200Y-123197800D02*
X114292200Y-127957800D01*
X115570000Y-121920000D02*
X114292200Y-123197800D01*
X102329600Y-131350400D02*
X95885000Y-137795000D01*
X110899600Y-131350400D02*
X102329600Y-131350400D01*
X113345000Y-128905000D02*
X110899600Y-131350400D01*
X98217500Y-139272500D02*
X95885000Y-141605000D01*
X98217500Y-136440700D02*
X98217500Y-139272500D01*
X102486900Y-132171300D02*
X98217500Y-136440700D01*
X111952200Y-132171300D02*
X102486900Y-132171300D01*
X114271900Y-129851600D02*
X111952200Y-132171300D01*
D31*
G36*
X102644000Y-162996000D02*
X102664000Y-162996000D01*
X102664000Y-163004000D01*
X102644000Y-163004000D01*
X102644000Y-163024000D01*
X102636000Y-163024000D01*
X102636000Y-163004000D01*
X102616000Y-163004000D01*
X102616000Y-162996000D01*
X102636000Y-162996000D01*
X102636000Y-162976000D01*
X102644000Y-162976000D01*
X102644000Y-162996000D01*
X102644000Y-162996000D01*
G37*
X102644000Y-162996000D02*
X102664000Y-162996000D01*
X102664000Y-163004000D01*
X102644000Y-163004000D01*
X102644000Y-163024000D01*
X102636000Y-163024000D01*
X102636000Y-163004000D01*
X102616000Y-163004000D01*
X102616000Y-162996000D01*
X102636000Y-162996000D01*
X102636000Y-162976000D01*
X102644000Y-162976000D01*
X102644000Y-162996000D01*
G36*
X155905715Y-115425801D02*
X156776931Y-115688836D01*
X157580468Y-116116084D01*
X158285715Y-116691269D01*
X158865806Y-117392479D01*
X159298652Y-118193012D01*
X159567765Y-119062372D01*
X159667000Y-120006536D01*
X159667000Y-161669668D01*
X159503061Y-161534046D01*
X159201252Y-161370859D01*
X158873495Y-161269401D01*
X158532273Y-161233537D01*
X158190584Y-161264633D01*
X157861442Y-161361505D01*
X157557384Y-161520462D01*
X157289992Y-161735451D01*
X157251110Y-161781788D01*
X157227425Y-161752747D01*
X156963061Y-161534046D01*
X156661252Y-161370859D01*
X156333495Y-161269401D01*
X155992273Y-161233537D01*
X155650584Y-161264633D01*
X155321442Y-161361505D01*
X155017384Y-161520462D01*
X154749992Y-161735451D01*
X154711110Y-161781788D01*
X154687425Y-161752747D01*
X154423061Y-161534046D01*
X154121252Y-161370859D01*
X153793495Y-161269401D01*
X153452273Y-161233537D01*
X153110584Y-161264633D01*
X152781442Y-161361505D01*
X152477384Y-161520462D01*
X152209992Y-161735451D01*
X152171110Y-161781788D01*
X152147425Y-161752747D01*
X151883061Y-161534046D01*
X151581252Y-161370859D01*
X151253495Y-161269401D01*
X150912273Y-161233537D01*
X150570584Y-161264633D01*
X150241442Y-161361505D01*
X149937384Y-161520462D01*
X149669992Y-161735451D01*
X149631110Y-161781788D01*
X149607425Y-161752747D01*
X149343061Y-161534046D01*
X149041252Y-161370859D01*
X148713495Y-161269401D01*
X148372273Y-161233537D01*
X148030584Y-161264633D01*
X147701442Y-161361505D01*
X147397384Y-161520462D01*
X147129992Y-161735451D01*
X147091110Y-161781788D01*
X147067425Y-161752747D01*
X146803061Y-161534046D01*
X146501252Y-161370859D01*
X146173495Y-161269401D01*
X145832273Y-161233537D01*
X145490584Y-161264633D01*
X145161442Y-161361505D01*
X144857384Y-161520462D01*
X144589992Y-161735451D01*
X144551110Y-161781788D01*
X144527425Y-161752747D01*
X144263061Y-161534046D01*
X143961252Y-161370859D01*
X143633495Y-161269401D01*
X143292273Y-161233537D01*
X142950584Y-161264633D01*
X142831315Y-161299736D01*
X140842190Y-159310610D01*
X140778974Y-159258684D01*
X140716396Y-159206175D01*
X140712319Y-159203934D01*
X140708722Y-159200979D01*
X140636692Y-159162357D01*
X140565039Y-159122965D01*
X140560600Y-159121557D01*
X140556501Y-159119359D01*
X140478374Y-159095473D01*
X140400402Y-159070739D01*
X140395774Y-159070220D01*
X140391326Y-159068860D01*
X140310061Y-159060606D01*
X140228757Y-159051486D01*
X140219653Y-159051423D01*
X140219489Y-159051406D01*
X140219336Y-159051420D01*
X140216400Y-159051400D01*
X138847019Y-159051400D01*
X138943636Y-159013925D01*
X139118821Y-158902749D01*
X139269076Y-158759664D01*
X139388677Y-158590119D01*
X139473068Y-158400572D01*
X139519036Y-158198244D01*
X139522345Y-157961258D01*
X139482045Y-157757725D01*
X139411181Y-157585798D01*
X140048389Y-156948590D01*
X140100269Y-156885430D01*
X140152825Y-156822796D01*
X140155068Y-156818715D01*
X140158020Y-156815122D01*
X140196613Y-156743147D01*
X140236035Y-156671439D01*
X140237444Y-156666998D01*
X140239640Y-156662902D01*
X140263517Y-156584806D01*
X140288261Y-156506802D01*
X140288780Y-156502174D01*
X140290140Y-156497726D01*
X140298395Y-156416456D01*
X140307514Y-156335157D01*
X140307577Y-156326054D01*
X140307594Y-156325890D01*
X140307580Y-156325737D01*
X140307600Y-156322800D01*
X140307600Y-156240108D01*
X140517739Y-156331916D01*
X140796710Y-156393252D01*
X141082282Y-156399234D01*
X141363577Y-156349634D01*
X141629880Y-156246341D01*
X141871050Y-156093291D01*
X142077898Y-155896312D01*
X142242547Y-155662907D01*
X142358725Y-155401967D01*
X142422006Y-155123431D01*
X142426562Y-154797183D01*
X142371082Y-154516988D01*
X142262235Y-154252906D01*
X142104168Y-154014995D01*
X141902900Y-153812318D01*
X141689597Y-153668444D01*
X141871050Y-153553291D01*
X142077898Y-153356312D01*
X142242547Y-153122907D01*
X142242752Y-153122447D01*
X142363028Y-153309079D01*
X142561446Y-153514547D01*
X142795994Y-153677562D01*
X143057739Y-153791916D01*
X143336710Y-153853252D01*
X143622282Y-153859234D01*
X143903577Y-153809634D01*
X144169880Y-153706341D01*
X144411050Y-153553291D01*
X144617898Y-153356312D01*
X144782547Y-153122907D01*
X144898725Y-152861967D01*
X144962006Y-152583431D01*
X144966562Y-152257183D01*
X144911082Y-151976988D01*
X144802235Y-151712906D01*
X144644168Y-151474995D01*
X144442900Y-151272318D01*
X144229597Y-151128444D01*
X144411050Y-151013291D01*
X144617898Y-150816312D01*
X144782547Y-150582907D01*
X144898725Y-150321967D01*
X144962006Y-150043431D01*
X144964724Y-149848774D01*
X150784259Y-149848774D01*
X150812702Y-150161309D01*
X150901308Y-150462367D01*
X151046703Y-150740482D01*
X151171828Y-150896107D01*
X151045591Y-150979291D01*
X150906565Y-151142411D01*
X150818488Y-151337805D01*
X150788333Y-151550000D01*
X150788333Y-153250000D01*
X150797959Y-153370709D01*
X150861361Y-153575443D01*
X150979291Y-153754409D01*
X151142411Y-153893435D01*
X151337805Y-153981512D01*
X151550000Y-154011667D01*
X153250000Y-154011667D01*
X153370709Y-154002041D01*
X153575443Y-153938639D01*
X153754409Y-153820709D01*
X153893435Y-153657589D01*
X153981512Y-153462195D01*
X154011667Y-153250000D01*
X154011667Y-151550000D01*
X154002041Y-151429291D01*
X153938639Y-151224557D01*
X153820709Y-151045591D01*
X153657589Y-150906565D01*
X153629443Y-150893878D01*
X153740872Y-150759182D01*
X153890136Y-150483125D01*
X153982937Y-150183333D01*
X154015741Y-149871226D01*
X153987298Y-149558691D01*
X153898692Y-149257633D01*
X153753297Y-148979518D01*
X153556652Y-148734941D01*
X153316247Y-148533217D01*
X153041239Y-148382030D01*
X152742102Y-148287139D01*
X152430231Y-148252157D01*
X152407780Y-148252000D01*
X152392220Y-148252000D01*
X152079891Y-148282624D01*
X151779459Y-148373330D01*
X151502366Y-148520663D01*
X151259168Y-148719010D01*
X151059128Y-148960818D01*
X150909864Y-149236875D01*
X150817063Y-149536667D01*
X150784259Y-149848774D01*
X144964724Y-149848774D01*
X144966562Y-149717183D01*
X144911082Y-149436988D01*
X144802235Y-149172906D01*
X144644168Y-148934995D01*
X144442900Y-148732318D01*
X144229597Y-148588444D01*
X144411050Y-148473291D01*
X144617898Y-148276312D01*
X144782547Y-148042907D01*
X144898725Y-147781967D01*
X144962006Y-147503431D01*
X144966562Y-147177183D01*
X144911082Y-146896988D01*
X144802235Y-146632906D01*
X144644168Y-146394995D01*
X144442900Y-146192318D01*
X144229597Y-146048444D01*
X144411050Y-145933291D01*
X144617898Y-145736312D01*
X144782547Y-145502907D01*
X144898725Y-145241967D01*
X144962006Y-144963431D01*
X144966562Y-144637183D01*
X144911082Y-144356988D01*
X144802235Y-144092906D01*
X144644168Y-143854995D01*
X144442900Y-143652318D01*
X144229597Y-143508444D01*
X144411050Y-143393291D01*
X144617898Y-143196312D01*
X144782547Y-142962907D01*
X144898725Y-142701967D01*
X144962006Y-142423431D01*
X144966562Y-142097183D01*
X144911082Y-141816988D01*
X144802235Y-141552906D01*
X144644168Y-141314995D01*
X144442900Y-141112318D01*
X144229597Y-140968444D01*
X144411050Y-140853291D01*
X144617898Y-140656312D01*
X144782547Y-140422907D01*
X144898725Y-140161967D01*
X144962006Y-139883431D01*
X144966562Y-139557183D01*
X144911082Y-139276988D01*
X144802235Y-139012906D01*
X144644168Y-138774995D01*
X144442900Y-138572318D01*
X144206098Y-138412593D01*
X143942783Y-138301905D01*
X143662982Y-138244470D01*
X143377355Y-138242476D01*
X143096780Y-138295999D01*
X142831944Y-138402999D01*
X142592936Y-138559402D01*
X142388858Y-138759250D01*
X142233429Y-138986248D01*
X142208931Y-138936091D01*
X142149879Y-138847712D01*
X141869442Y-138806215D01*
X140975657Y-139700000D01*
X140989799Y-139714142D01*
X140984142Y-139719799D01*
X140970000Y-139705657D01*
X140955858Y-139719799D01*
X140950201Y-139714142D01*
X140964343Y-139700000D01*
X140950201Y-139685858D01*
X140955858Y-139680201D01*
X140970000Y-139694343D01*
X141863785Y-138800558D01*
X141822288Y-138520121D01*
X141677769Y-138435950D01*
X141871050Y-138313291D01*
X142077898Y-138116312D01*
X142242547Y-137882907D01*
X142358725Y-137621967D01*
X142422006Y-137343431D01*
X142426562Y-137017183D01*
X142371082Y-136736988D01*
X142262235Y-136472906D01*
X142104168Y-136234995D01*
X141902900Y-136032318D01*
X141666098Y-135872593D01*
X141402783Y-135761905D01*
X141122982Y-135704470D01*
X140837355Y-135702476D01*
X140556780Y-135755999D01*
X140291944Y-135862999D01*
X140052936Y-136019402D01*
X139848858Y-136219250D01*
X139699060Y-136438025D01*
X139564168Y-136234995D01*
X139362900Y-136032318D01*
X139126098Y-135872593D01*
X138862783Y-135761905D01*
X138582982Y-135704470D01*
X138297355Y-135702476D01*
X138016780Y-135755999D01*
X137751944Y-135862999D01*
X137512936Y-136019402D01*
X137308858Y-136219250D01*
X137159060Y-136438025D01*
X137024168Y-136234995D01*
X136822900Y-136032318D01*
X136586098Y-135872593D01*
X136322783Y-135761905D01*
X136042982Y-135704470D01*
X135757355Y-135702476D01*
X135476780Y-135755999D01*
X135211944Y-135862999D01*
X135187477Y-135879010D01*
X135179822Y-135800939D01*
X135172698Y-135719504D01*
X135171399Y-135715033D01*
X135170945Y-135710403D01*
X135147325Y-135632169D01*
X135124510Y-135553640D01*
X135122368Y-135549507D01*
X135121023Y-135545053D01*
X135082665Y-135472912D01*
X135045024Y-135400294D01*
X135042118Y-135396654D01*
X135039935Y-135392548D01*
X134988293Y-135329229D01*
X134937266Y-135265309D01*
X134930877Y-135258830D01*
X134930770Y-135258699D01*
X134930649Y-135258599D01*
X134928590Y-135256511D01*
X130955476Y-131283396D01*
X130937345Y-131191825D01*
X130858278Y-130999996D01*
X130743458Y-130827178D01*
X130597258Y-130679953D01*
X130425245Y-130563929D01*
X130233973Y-130483525D01*
X130230000Y-130482709D01*
X130230000Y-130030340D01*
X130346405Y-129936748D01*
X130543677Y-130099945D01*
X130789690Y-130232964D01*
X131056855Y-130315665D01*
X131334996Y-130344899D01*
X131613517Y-130319552D01*
X131881811Y-130240588D01*
X131994139Y-130181865D01*
X132015723Y-130253356D01*
X132051619Y-130376910D01*
X132054990Y-130383413D01*
X132057107Y-130390425D01*
X132117508Y-130504021D01*
X132176732Y-130618276D01*
X132181303Y-130624002D01*
X132184741Y-130630468D01*
X132266059Y-130730174D01*
X132346344Y-130830745D01*
X132356401Y-130840944D01*
X132356568Y-130841149D01*
X132356758Y-130841306D01*
X132360000Y-130844594D01*
X136485406Y-134970000D01*
X136584882Y-135051711D01*
X136683407Y-135134383D01*
X136689823Y-135137910D01*
X136695485Y-135142561D01*
X136808903Y-135203375D01*
X136921645Y-135265356D01*
X136928627Y-135267571D01*
X136935082Y-135271032D01*
X137058087Y-135308638D01*
X137180785Y-135347560D01*
X137188070Y-135348377D01*
X137195069Y-135350517D01*
X137323023Y-135363514D01*
X137450957Y-135377864D01*
X137465279Y-135377964D01*
X137465543Y-135377991D01*
X137465789Y-135377968D01*
X137470406Y-135378000D01*
X143448000Y-135378000D01*
X148120000Y-140050000D01*
X148219454Y-140131692D01*
X148318001Y-140214383D01*
X148324420Y-140217912D01*
X148330080Y-140222561D01*
X148443476Y-140283364D01*
X148556239Y-140345356D01*
X148563221Y-140347571D01*
X148569676Y-140351032D01*
X148692681Y-140388638D01*
X148815379Y-140427560D01*
X148822664Y-140428377D01*
X148829663Y-140430517D01*
X148957617Y-140443514D01*
X149085551Y-140457864D01*
X149099873Y-140457964D01*
X149100137Y-140457991D01*
X149100383Y-140457968D01*
X149105000Y-140458000D01*
X149760667Y-140458000D01*
X149869790Y-140663231D01*
X150056419Y-140892062D01*
X150283941Y-141080284D01*
X150543689Y-141220729D01*
X150825769Y-141308047D01*
X151119437Y-141338913D01*
X151413508Y-141312151D01*
X151696780Y-141228779D01*
X151958463Y-141091974D01*
X152188591Y-140906947D01*
X152378397Y-140680745D01*
X152407006Y-140628705D01*
X152420860Y-140654459D01*
X152608632Y-140882024D01*
X152837192Y-141068584D01*
X153097756Y-141206970D01*
X153380311Y-141291863D01*
X153430616Y-141300840D01*
X153666000Y-141132494D01*
X153666000Y-139069000D01*
X153674000Y-139069000D01*
X153674000Y-141132494D01*
X153909384Y-141300840D01*
X153959689Y-141291863D01*
X154242244Y-141206970D01*
X154502808Y-141068584D01*
X154731368Y-140882024D01*
X154919140Y-140654459D01*
X155058908Y-140394634D01*
X155145301Y-140112534D01*
X155175000Y-139819000D01*
X155175000Y-139069000D01*
X153674000Y-139069000D01*
X153666000Y-139069000D01*
X153646000Y-139069000D01*
X153646000Y-139061000D01*
X153666000Y-139061000D01*
X153666000Y-136997506D01*
X153674000Y-136997506D01*
X153674000Y-139061000D01*
X155175000Y-139061000D01*
X155175000Y-138311000D01*
X155145301Y-138017466D01*
X155058908Y-137735366D01*
X154919140Y-137475541D01*
X154731368Y-137247976D01*
X154502808Y-137061416D01*
X154242244Y-136923030D01*
X153959689Y-136838137D01*
X153909384Y-136829160D01*
X153674000Y-136997506D01*
X153666000Y-136997506D01*
X153430616Y-136829160D01*
X153380311Y-136838137D01*
X153097756Y-136923030D01*
X152837192Y-137061416D01*
X152608632Y-137247976D01*
X152420860Y-137475541D01*
X152407791Y-137499835D01*
X152390210Y-137466769D01*
X152203581Y-137237938D01*
X151976059Y-137049716D01*
X151716311Y-136909271D01*
X151434231Y-136821953D01*
X151140563Y-136791087D01*
X150846492Y-136817849D01*
X150563220Y-136901221D01*
X150301537Y-137038026D01*
X150071409Y-137223053D01*
X149881603Y-137449255D01*
X149759148Y-137672000D01*
X149682000Y-137672000D01*
X145010000Y-133000000D01*
X144910546Y-132918308D01*
X144811999Y-132835617D01*
X144805580Y-132832088D01*
X144799920Y-132827439D01*
X144686524Y-132766636D01*
X144573761Y-132704644D01*
X144566779Y-132702429D01*
X144560324Y-132698968D01*
X144437319Y-132661362D01*
X144314621Y-132622440D01*
X144307336Y-132621623D01*
X144300337Y-132619483D01*
X144172383Y-132606486D01*
X144044449Y-132592136D01*
X144030127Y-132592036D01*
X144029863Y-132592009D01*
X144029617Y-132592032D01*
X144025000Y-132592000D01*
X138047406Y-132592000D01*
X135728242Y-130272836D01*
X135937955Y-130200773D01*
X136179354Y-130060195D01*
X136388690Y-129875224D01*
X136557917Y-129652968D01*
X136680533Y-129401968D01*
X136751825Y-129131869D01*
X136582495Y-128909000D01*
X135349000Y-128909000D01*
X135349000Y-128929000D01*
X135341000Y-128929000D01*
X135341000Y-128909000D01*
X135321000Y-128909000D01*
X135321000Y-128901000D01*
X135341000Y-128901000D01*
X135341000Y-126909000D01*
X135349000Y-126909000D01*
X135349000Y-128901000D01*
X136582495Y-128901000D01*
X136751825Y-128678131D01*
X136680533Y-128408032D01*
X136557917Y-128157032D01*
X136388690Y-127934776D01*
X136354992Y-127905000D01*
X136388690Y-127875224D01*
X136557917Y-127652968D01*
X136680533Y-127401968D01*
X136751825Y-127131869D01*
X136582495Y-126909000D01*
X135349000Y-126909000D01*
X135341000Y-126909000D01*
X135321000Y-126909000D01*
X135321000Y-126901000D01*
X135341000Y-126901000D01*
X135341000Y-125667506D01*
X135349000Y-125667506D01*
X135349000Y-126901000D01*
X136582495Y-126901000D01*
X136751825Y-126678131D01*
X136680533Y-126408032D01*
X136557917Y-126157032D01*
X136388690Y-125934776D01*
X136179354Y-125749805D01*
X135937955Y-125609227D01*
X135673769Y-125518445D01*
X135571869Y-125498176D01*
X135349000Y-125667506D01*
X135341000Y-125667506D01*
X135118131Y-125498176D01*
X135016231Y-125518445D01*
X134752045Y-125609227D01*
X134510646Y-125749805D01*
X134357717Y-125884935D01*
X134146323Y-125710055D01*
X133900310Y-125577036D01*
X133633145Y-125494335D01*
X133355004Y-125465101D01*
X133076483Y-125490448D01*
X132808189Y-125569412D01*
X132560342Y-125698983D01*
X132342382Y-125874227D01*
X132332923Y-125885500D01*
X132293614Y-125850766D01*
X134330256Y-123814123D01*
X143849500Y-123814123D01*
X143877058Y-124116940D01*
X143962910Y-124408637D01*
X144103783Y-124678104D01*
X144294314Y-124915075D01*
X144527243Y-125110527D01*
X144793701Y-125257013D01*
X145083536Y-125348954D01*
X145385709Y-125382848D01*
X145407462Y-125383000D01*
X145422538Y-125383000D01*
X145725155Y-125353328D01*
X146016246Y-125265443D01*
X146284722Y-125122691D01*
X146520358Y-124930511D01*
X146714179Y-124696223D01*
X146858801Y-124428749D01*
X146948716Y-124138279D01*
X146967874Y-123956001D01*
X151474953Y-123956001D01*
X151530108Y-124256521D01*
X151642585Y-124540604D01*
X151808098Y-124797430D01*
X152020344Y-125017217D01*
X152271237Y-125191593D01*
X152551222Y-125313915D01*
X152849634Y-125379525D01*
X153155107Y-125385924D01*
X153456004Y-125332868D01*
X153740866Y-125222377D01*
X153998841Y-125058661D01*
X154220105Y-124847955D01*
X154396227Y-124598285D01*
X154520501Y-124319161D01*
X154588193Y-124021214D01*
X154593066Y-123672230D01*
X154533720Y-123372510D01*
X154417288Y-123090024D01*
X154248205Y-122835534D01*
X154032911Y-122618732D01*
X153779608Y-122447877D01*
X153497942Y-122329475D01*
X153198643Y-122268038D01*
X152893111Y-122265905D01*
X152592984Y-122323158D01*
X152309692Y-122437615D01*
X152054028Y-122604917D01*
X151835728Y-122818692D01*
X151663109Y-123070796D01*
X151542744Y-123351628D01*
X151479219Y-123650491D01*
X151474953Y-123956001D01*
X146967874Y-123956001D01*
X146980500Y-123835877D01*
X146952942Y-123533060D01*
X146867090Y-123241363D01*
X146726217Y-122971896D01*
X146535686Y-122734925D01*
X146302757Y-122539473D01*
X146036299Y-122392987D01*
X145746464Y-122301046D01*
X145444291Y-122267152D01*
X145422538Y-122267000D01*
X145407462Y-122267000D01*
X145104845Y-122296672D01*
X144813754Y-122384557D01*
X144545278Y-122527309D01*
X144309642Y-122719489D01*
X144115821Y-122953777D01*
X143971199Y-123221251D01*
X143881284Y-123511721D01*
X143849500Y-123814123D01*
X134330256Y-123814123D01*
X134932090Y-123212289D01*
X134990818Y-123260872D01*
X135266875Y-123410136D01*
X135566667Y-123502937D01*
X135878774Y-123535741D01*
X136191309Y-123507298D01*
X136492367Y-123418692D01*
X136770482Y-123273297D01*
X137015059Y-123076652D01*
X137160525Y-122903293D01*
X137289010Y-123060832D01*
X137530818Y-123260872D01*
X137806875Y-123410136D01*
X138106667Y-123502937D01*
X138418774Y-123535741D01*
X138731309Y-123507298D01*
X139032367Y-123418692D01*
X139310482Y-123273297D01*
X139555059Y-123076652D01*
X139756783Y-122836247D01*
X139907970Y-122561239D01*
X140002861Y-122262102D01*
X140037843Y-121950231D01*
X140038000Y-121927780D01*
X140038000Y-121912220D01*
X140007376Y-121599891D01*
X139916670Y-121299459D01*
X139769337Y-121022366D01*
X139570990Y-120779168D01*
X139405886Y-120642583D01*
X139602197Y-120469014D01*
X139792130Y-120219405D01*
X139929717Y-119937538D01*
X140009671Y-119634245D01*
X139842495Y-119384000D01*
X138434000Y-119384000D01*
X138434000Y-119404000D01*
X138426000Y-119404000D01*
X138426000Y-119384000D01*
X138406000Y-119384000D01*
X138406000Y-119376000D01*
X138426000Y-119376000D01*
X138426000Y-117967506D01*
X138434000Y-117967506D01*
X138434000Y-119376000D01*
X139842495Y-119376000D01*
X140009671Y-119125755D01*
X139929717Y-118822462D01*
X139792130Y-118540595D01*
X139602197Y-118290986D01*
X139367217Y-118083227D01*
X139096221Y-117925302D01*
X138799622Y-117823280D01*
X138684245Y-117800329D01*
X138434000Y-117967506D01*
X138426000Y-117967506D01*
X138175755Y-117800329D01*
X138060378Y-117823280D01*
X137763779Y-117925302D01*
X137492783Y-118083227D01*
X137257803Y-118290986D01*
X137168726Y-118408050D01*
X137030990Y-118239168D01*
X136789182Y-118039128D01*
X136513125Y-117889864D01*
X136213333Y-117797063D01*
X135901226Y-117764259D01*
X135588691Y-117792702D01*
X135287633Y-117881308D01*
X135009518Y-118026703D01*
X134764941Y-118223348D01*
X134619475Y-118396707D01*
X134490990Y-118239168D01*
X134249182Y-118039128D01*
X133973125Y-117889864D01*
X133673333Y-117797063D01*
X133361226Y-117764259D01*
X133048691Y-117792702D01*
X132747633Y-117881308D01*
X132469518Y-118026703D01*
X132224941Y-118223348D01*
X132079475Y-118396707D01*
X131950990Y-118239168D01*
X131709182Y-118039128D01*
X131433125Y-117889864D01*
X131133333Y-117797063D01*
X130821226Y-117764259D01*
X130508691Y-117792702D01*
X130207633Y-117881308D01*
X129929518Y-118026703D01*
X129684941Y-118223348D01*
X129539475Y-118396707D01*
X129410990Y-118239168D01*
X129169182Y-118039128D01*
X128893125Y-117889864D01*
X128593333Y-117797063D01*
X128281226Y-117764259D01*
X127968691Y-117792702D01*
X127667633Y-117881308D01*
X127389518Y-118026703D01*
X127144941Y-118223348D01*
X126990648Y-118407227D01*
X126902197Y-118290986D01*
X126667217Y-118083227D01*
X126396221Y-117925302D01*
X126099622Y-117823280D01*
X125984245Y-117800329D01*
X125734000Y-117967506D01*
X125734000Y-119376000D01*
X125754000Y-119376000D01*
X125754000Y-119384000D01*
X125734000Y-119384000D01*
X125734000Y-119404000D01*
X125726000Y-119404000D01*
X125726000Y-119384000D01*
X123194000Y-119384000D01*
X123194000Y-119404000D01*
X123186000Y-119404000D01*
X123186000Y-119384000D01*
X120654000Y-119384000D01*
X120654000Y-119404000D01*
X120646000Y-119404000D01*
X120646000Y-119384000D01*
X118114000Y-119384000D01*
X118114000Y-119404000D01*
X118106000Y-119404000D01*
X118106000Y-119384000D01*
X118086000Y-119384000D01*
X118086000Y-119376000D01*
X118106000Y-119376000D01*
X118106000Y-117967506D01*
X118114000Y-117967506D01*
X118114000Y-119376000D01*
X120646000Y-119376000D01*
X120646000Y-117967506D01*
X120654000Y-117967506D01*
X120654000Y-119376000D01*
X123186000Y-119376000D01*
X123186000Y-117967506D01*
X123194000Y-117967506D01*
X123194000Y-119376000D01*
X125726000Y-119376000D01*
X125726000Y-117967506D01*
X125475755Y-117800329D01*
X125360378Y-117823280D01*
X125063779Y-117925302D01*
X124792783Y-118083227D01*
X124557803Y-118290986D01*
X124460000Y-118419518D01*
X124362197Y-118290986D01*
X124127217Y-118083227D01*
X123856221Y-117925302D01*
X123559622Y-117823280D01*
X123444245Y-117800329D01*
X123194000Y-117967506D01*
X123186000Y-117967506D01*
X122935755Y-117800329D01*
X122820378Y-117823280D01*
X122523779Y-117925302D01*
X122252783Y-118083227D01*
X122017803Y-118290986D01*
X121920000Y-118419518D01*
X121822197Y-118290986D01*
X121587217Y-118083227D01*
X121316221Y-117925302D01*
X121019622Y-117823280D01*
X120904245Y-117800329D01*
X120654000Y-117967506D01*
X120646000Y-117967506D01*
X120395755Y-117800329D01*
X120280378Y-117823280D01*
X119983779Y-117925302D01*
X119712783Y-118083227D01*
X119477803Y-118290986D01*
X119380000Y-118419518D01*
X119282197Y-118290986D01*
X119047217Y-118083227D01*
X118776221Y-117925302D01*
X118479622Y-117823280D01*
X118364245Y-117800329D01*
X118114000Y-117967506D01*
X118106000Y-117967506D01*
X117855755Y-117800329D01*
X117740378Y-117823280D01*
X117443779Y-117925302D01*
X117172783Y-118083227D01*
X117127470Y-118123291D01*
X116617090Y-117612910D01*
X116553874Y-117560984D01*
X116491296Y-117508475D01*
X116487219Y-117506234D01*
X116483622Y-117503279D01*
X116411592Y-117464657D01*
X116339939Y-117425265D01*
X116335500Y-117423857D01*
X116331401Y-117421659D01*
X116253274Y-117397773D01*
X116175302Y-117373039D01*
X116170674Y-117372520D01*
X116166226Y-117371160D01*
X116084961Y-117362906D01*
X116003657Y-117353786D01*
X115994553Y-117353723D01*
X115994389Y-117353706D01*
X115994236Y-117353720D01*
X115991300Y-117353700D01*
X96391300Y-117353700D01*
X96309944Y-117361677D01*
X96228504Y-117368802D01*
X96224033Y-117370101D01*
X96219403Y-117370555D01*
X96141169Y-117394175D01*
X96062640Y-117416990D01*
X96058507Y-117419132D01*
X96054053Y-117420477D01*
X95981912Y-117458835D01*
X95909294Y-117496476D01*
X95905654Y-117499382D01*
X95901548Y-117501565D01*
X95838229Y-117553207D01*
X95774309Y-117604234D01*
X95767830Y-117610623D01*
X95767699Y-117610730D01*
X95767599Y-117610851D01*
X95765511Y-117612910D01*
X95579461Y-117798960D01*
X95573333Y-117797063D01*
X95261226Y-117764259D01*
X94948691Y-117792702D01*
X94647633Y-117881308D01*
X94369518Y-118026703D01*
X94124941Y-118223348D01*
X93979475Y-118396707D01*
X93850990Y-118239168D01*
X93609182Y-118039128D01*
X93333125Y-117889864D01*
X93033333Y-117797063D01*
X92721226Y-117764259D01*
X92408691Y-117792702D01*
X92107633Y-117881308D01*
X91829518Y-118026703D01*
X91584941Y-118223348D01*
X91430648Y-118407227D01*
X91342197Y-118290986D01*
X91107217Y-118083227D01*
X90836221Y-117925302D01*
X90539622Y-117823280D01*
X90424245Y-117800329D01*
X90174000Y-117967506D01*
X90174000Y-119376000D01*
X90194000Y-119376000D01*
X90194000Y-119384000D01*
X90174000Y-119384000D01*
X90174000Y-119404000D01*
X90166000Y-119404000D01*
X90166000Y-119384000D01*
X88757505Y-119384000D01*
X88590329Y-119634245D01*
X88670283Y-119937538D01*
X88728597Y-120057002D01*
X88721894Y-120060476D01*
X88718254Y-120063382D01*
X88714148Y-120065565D01*
X88650829Y-120117207D01*
X88586909Y-120168234D01*
X88580430Y-120174623D01*
X88580299Y-120174730D01*
X88580199Y-120174851D01*
X88578110Y-120176911D01*
X88416410Y-120338610D01*
X88364484Y-120401826D01*
X88311975Y-120464404D01*
X88309734Y-120468481D01*
X88306779Y-120472078D01*
X88268157Y-120544108D01*
X88228765Y-120615761D01*
X88227357Y-120620200D01*
X88225159Y-120624299D01*
X88201273Y-120702426D01*
X88176539Y-120780398D01*
X88176020Y-120785026D01*
X88174660Y-120789474D01*
X88166406Y-120870739D01*
X88157286Y-120952043D01*
X88157223Y-120961147D01*
X88157206Y-120961311D01*
X88157220Y-120961464D01*
X88157200Y-120964400D01*
X88157200Y-129557200D01*
X88165177Y-129638556D01*
X88172302Y-129719996D01*
X88173601Y-129724467D01*
X88174055Y-129729097D01*
X88197675Y-129807331D01*
X88220490Y-129885860D01*
X88222632Y-129889993D01*
X88223977Y-129894447D01*
X88262335Y-129966588D01*
X88299976Y-130039206D01*
X88302882Y-130042846D01*
X88305065Y-130046952D01*
X88356707Y-130110271D01*
X88407734Y-130174191D01*
X88414127Y-130180674D01*
X88414230Y-130180801D01*
X88414347Y-130180898D01*
X88416410Y-130182990D01*
X92387700Y-134154279D01*
X92387700Y-145328800D01*
X92395677Y-145410156D01*
X92402802Y-145491596D01*
X92404101Y-145496067D01*
X92404555Y-145500697D01*
X92428175Y-145578931D01*
X92450990Y-145657460D01*
X92453132Y-145661593D01*
X92454477Y-145666047D01*
X92492835Y-145738188D01*
X92530476Y-145810806D01*
X92533382Y-145814446D01*
X92535565Y-145818552D01*
X92587207Y-145881871D01*
X92638234Y-145945791D01*
X92644627Y-145952274D01*
X92644730Y-145952401D01*
X92644847Y-145952498D01*
X92646910Y-145954590D01*
X93931267Y-147238947D01*
X93797800Y-147304107D01*
X93702764Y-147367609D01*
X93649096Y-147658440D01*
X94615000Y-148624343D01*
X94629142Y-148610201D01*
X94634799Y-148615858D01*
X94620657Y-148630000D01*
X95586560Y-149595904D01*
X95877391Y-149542236D01*
X96008884Y-149316563D01*
X98829144Y-152136823D01*
X98892335Y-152188729D01*
X98954937Y-152241258D01*
X98959014Y-152243499D01*
X98962611Y-152246454D01*
X99034641Y-152285076D01*
X99106294Y-152324468D01*
X99110733Y-152325876D01*
X99114832Y-152328074D01*
X99192959Y-152351960D01*
X99270931Y-152376694D01*
X99275559Y-152377213D01*
X99280007Y-152378573D01*
X99361317Y-152386832D01*
X99442576Y-152395947D01*
X99451670Y-152396010D01*
X99451844Y-152396028D01*
X99452007Y-152396013D01*
X99454933Y-152396033D01*
X100587388Y-152396033D01*
X98735087Y-154248333D01*
X97625000Y-154248333D01*
X97504291Y-154257959D01*
X97299557Y-154321361D01*
X97120591Y-154439291D01*
X96981565Y-154602411D01*
X96893488Y-154797805D01*
X96863333Y-155010000D01*
X96863333Y-157410000D01*
X96872959Y-157530709D01*
X96936361Y-157735443D01*
X97054291Y-157914409D01*
X97217411Y-158053435D01*
X97412805Y-158141512D01*
X97625000Y-158171667D01*
X99225000Y-158171667D01*
X99345709Y-158162041D01*
X99550443Y-158098639D01*
X99729409Y-157980709D01*
X99868435Y-157817589D01*
X99898935Y-157749927D01*
X100093777Y-157911115D01*
X100361251Y-158055737D01*
X100651721Y-158145652D01*
X100954123Y-158177436D01*
X101256940Y-158149878D01*
X101548637Y-158064026D01*
X101818104Y-157923153D01*
X102055075Y-157732622D01*
X102236070Y-157516922D01*
X102399489Y-157717294D01*
X102633777Y-157911115D01*
X102694258Y-157943817D01*
X102725135Y-158001888D01*
X102762776Y-158074506D01*
X102765682Y-158078146D01*
X102767865Y-158082252D01*
X102819507Y-158145571D01*
X102870534Y-158209491D01*
X102876927Y-158215974D01*
X102877030Y-158216101D01*
X102877147Y-158216198D01*
X102879210Y-158218290D01*
X103837718Y-159176797D01*
X103778421Y-159181985D01*
X103773950Y-159183284D01*
X103769320Y-159183738D01*
X103691132Y-159207344D01*
X103612557Y-159230172D01*
X103608420Y-159232317D01*
X103603970Y-159233660D01*
X103531864Y-159271999D01*
X103459211Y-159309659D01*
X103455571Y-159312565D01*
X103451465Y-159314748D01*
X103388177Y-159366365D01*
X103324226Y-159417416D01*
X103317745Y-159423807D01*
X103317616Y-159423913D01*
X103317517Y-159424033D01*
X103315428Y-159426093D01*
X102965521Y-159776000D01*
X102880937Y-159792135D01*
X102688561Y-159869860D01*
X102514946Y-159983471D01*
X102366704Y-160128640D01*
X102249482Y-160299839D01*
X102167745Y-160490545D01*
X102124606Y-160693495D01*
X102121710Y-160900960D01*
X102159164Y-161105035D01*
X102235339Y-161297429D01*
X101910980Y-161409078D01*
X101614614Y-161581872D01*
X101378441Y-161790777D01*
X101347425Y-161752747D01*
X101083061Y-161534046D01*
X100781252Y-161370859D01*
X100453495Y-161269401D01*
X100112273Y-161233537D01*
X99770584Y-161264633D01*
X99441442Y-161361505D01*
X99137384Y-161520462D01*
X98869992Y-161735451D01*
X98831110Y-161781788D01*
X98807425Y-161752747D01*
X98543061Y-161534046D01*
X98241252Y-161370859D01*
X97913495Y-161269401D01*
X97572273Y-161233537D01*
X97230584Y-161264633D01*
X96901442Y-161361505D01*
X96597384Y-161520462D01*
X96329992Y-161735451D01*
X96291110Y-161781788D01*
X96267425Y-161752747D01*
X96003061Y-161534046D01*
X95701252Y-161370859D01*
X95373495Y-161269401D01*
X95032273Y-161233537D01*
X94690584Y-161264633D01*
X94361442Y-161361505D01*
X94057384Y-161520462D01*
X93789992Y-161735451D01*
X93751110Y-161781788D01*
X93727425Y-161752747D01*
X93463061Y-161534046D01*
X93161252Y-161370859D01*
X92833495Y-161269401D01*
X92492273Y-161233537D01*
X92308904Y-161250225D01*
X89308700Y-158250020D01*
X89308700Y-158126358D01*
X89531000Y-157972494D01*
X89531000Y-156214000D01*
X89539000Y-156214000D01*
X89539000Y-157972494D01*
X89781423Y-158140286D01*
X89833467Y-158130998D01*
X90124464Y-158043544D01*
X90392808Y-157901000D01*
X90628187Y-157708844D01*
X90821556Y-157474460D01*
X90965483Y-157206855D01*
X91054437Y-156916313D01*
X91085000Y-156614000D01*
X91085000Y-156214000D01*
X89539000Y-156214000D01*
X89531000Y-156214000D01*
X89511000Y-156214000D01*
X89511000Y-156206000D01*
X89531000Y-156206000D01*
X89531000Y-154447506D01*
X89539000Y-154447506D01*
X89539000Y-156206000D01*
X91085000Y-156206000D01*
X91085000Y-155806000D01*
X91054437Y-155503687D01*
X90965483Y-155213145D01*
X90821556Y-154945540D01*
X90628187Y-154711156D01*
X90392808Y-154519000D01*
X90124464Y-154376456D01*
X89833467Y-154289002D01*
X89781423Y-154279714D01*
X89539000Y-154447506D01*
X89531000Y-154447506D01*
X89308700Y-154293642D01*
X89308700Y-150534794D01*
X89524123Y-150557436D01*
X89826940Y-150529878D01*
X90118637Y-150444026D01*
X90388104Y-150303153D01*
X90625075Y-150112622D01*
X90820527Y-149879693D01*
X90967013Y-149613235D01*
X91051172Y-149347934D01*
X92509771Y-150806533D01*
X92521620Y-150847317D01*
X92524991Y-150853820D01*
X92527108Y-150860832D01*
X92587509Y-150974428D01*
X92646733Y-151088683D01*
X92651304Y-151094409D01*
X92654742Y-151100875D01*
X92736060Y-151200581D01*
X92816345Y-151301152D01*
X92826402Y-151311351D01*
X92826569Y-151311556D01*
X92826759Y-151311713D01*
X92830001Y-151315001D01*
X93132122Y-151617122D01*
X93222585Y-151845604D01*
X93388098Y-152102430D01*
X93600344Y-152322217D01*
X93851237Y-152496593D01*
X94131222Y-152618915D01*
X94429634Y-152684525D01*
X94735107Y-152690924D01*
X95036004Y-152637868D01*
X95320866Y-152527377D01*
X95578841Y-152363661D01*
X95800105Y-152152955D01*
X95976227Y-151903285D01*
X96100501Y-151624161D01*
X96168193Y-151326214D01*
X96173066Y-150977230D01*
X96113720Y-150677510D01*
X95997288Y-150395024D01*
X95828205Y-150140534D01*
X95612911Y-149923732D01*
X95531576Y-149868871D01*
X95580904Y-149601560D01*
X94615000Y-148635657D01*
X94600858Y-148649799D01*
X94595201Y-148644142D01*
X94609343Y-148630000D01*
X93643440Y-147664096D01*
X93359694Y-147716456D01*
X89658000Y-144014762D01*
X89658000Y-142306922D01*
X89750501Y-142099161D01*
X89818193Y-141801214D01*
X89823066Y-141452230D01*
X89763720Y-141152510D01*
X89647288Y-140870024D01*
X89478205Y-140615534D01*
X89262911Y-140398732D01*
X89009608Y-140227877D01*
X88747839Y-140117839D01*
X87945906Y-139315906D01*
X88207850Y-139351452D01*
X88512597Y-139332695D01*
X88807829Y-139254845D01*
X89082200Y-139120893D01*
X89177236Y-139057391D01*
X89230904Y-138766560D01*
X88265000Y-137800657D01*
X88250858Y-137814799D01*
X88245201Y-137809142D01*
X88259343Y-137795000D01*
X88270657Y-137795000D01*
X89236560Y-138760904D01*
X89527391Y-138707236D01*
X89681104Y-138443428D01*
X89780396Y-138154700D01*
X89821452Y-137852150D01*
X89802695Y-137547403D01*
X89724845Y-137252171D01*
X89590893Y-136977800D01*
X89527391Y-136882764D01*
X89236560Y-136829096D01*
X88270657Y-137795000D01*
X88259343Y-137795000D01*
X87293440Y-136829096D01*
X87002609Y-136882764D01*
X86848896Y-137146572D01*
X86749604Y-137435300D01*
X86708548Y-137737850D01*
X86727305Y-138042597D01*
X86746897Y-138116897D01*
X85453440Y-136823440D01*
X87299096Y-136823440D01*
X88265000Y-137789343D01*
X89230904Y-136823440D01*
X89177236Y-136532609D01*
X88913428Y-136378896D01*
X88624700Y-136279604D01*
X88322150Y-136238548D01*
X88017403Y-136257305D01*
X87722171Y-136335155D01*
X87447800Y-136469107D01*
X87352764Y-136532609D01*
X87299096Y-136823440D01*
X85453440Y-136823440D01*
X83586560Y-134956560D01*
X87299096Y-134956560D01*
X87352764Y-135247391D01*
X87616572Y-135401104D01*
X87905300Y-135500396D01*
X88207850Y-135541452D01*
X88512597Y-135522695D01*
X88807829Y-135444845D01*
X89082200Y-135310893D01*
X89177236Y-135247391D01*
X89230904Y-134956560D01*
X88265000Y-133990657D01*
X87299096Y-134956560D01*
X83586560Y-134956560D01*
X82557850Y-133927850D01*
X86708548Y-133927850D01*
X86727305Y-134232597D01*
X86805155Y-134527829D01*
X86939107Y-134802200D01*
X87002609Y-134897236D01*
X87293440Y-134950904D01*
X88259343Y-133985000D01*
X88270657Y-133985000D01*
X89236560Y-134950904D01*
X89527391Y-134897236D01*
X89681104Y-134633428D01*
X89780396Y-134344700D01*
X89821452Y-134042150D01*
X89802695Y-133737403D01*
X89724845Y-133442171D01*
X89590893Y-133167800D01*
X89527391Y-133072764D01*
X89236560Y-133019096D01*
X88270657Y-133985000D01*
X88259343Y-133985000D01*
X87293440Y-133019096D01*
X87002609Y-133072764D01*
X86848896Y-133336572D01*
X86749604Y-133625300D01*
X86708548Y-133927850D01*
X82557850Y-133927850D01*
X82038000Y-133408000D01*
X82038000Y-133013440D01*
X87299096Y-133013440D01*
X88265000Y-133979343D01*
X89230904Y-133013440D01*
X89177236Y-132722609D01*
X88913428Y-132568896D01*
X88624700Y-132469604D01*
X88322150Y-132428548D01*
X88017403Y-132447305D01*
X87722171Y-132525155D01*
X87447800Y-132659107D01*
X87352764Y-132722609D01*
X87299096Y-133013440D01*
X82038000Y-133013440D01*
X82038000Y-130806765D01*
X82088435Y-130747589D01*
X82176512Y-130552195D01*
X82206667Y-130340000D01*
X82206667Y-128740000D01*
X82197041Y-128619291D01*
X82133639Y-128414557D01*
X82015709Y-128235591D01*
X81852589Y-128096565D01*
X81657195Y-128008488D01*
X81445000Y-127978333D01*
X79845000Y-127978333D01*
X79724291Y-127987959D01*
X79519557Y-128051361D01*
X79340591Y-128169291D01*
X79201565Y-128332411D01*
X79170429Y-128401483D01*
X78976223Y-128240821D01*
X78708749Y-128096199D01*
X78418279Y-128006284D01*
X78115877Y-127974500D01*
X77813060Y-128002058D01*
X77521363Y-128087910D01*
X77251896Y-128228783D01*
X77014925Y-128419314D01*
X76833930Y-128635014D01*
X76670511Y-128434642D01*
X76436223Y-128240821D01*
X76168749Y-128096199D01*
X75878279Y-128006284D01*
X75575877Y-127974500D01*
X75273060Y-128002058D01*
X74981363Y-128087910D01*
X74711896Y-128228783D01*
X74474925Y-128419314D01*
X74293930Y-128635014D01*
X74130511Y-128434642D01*
X73896223Y-128240821D01*
X73628749Y-128096199D01*
X73338279Y-128006284D01*
X73035877Y-127974500D01*
X72733060Y-128002058D01*
X72441363Y-128087910D01*
X72171896Y-128228783D01*
X71934925Y-128419314D01*
X71753930Y-128635014D01*
X71590511Y-128434642D01*
X71356223Y-128240821D01*
X71088749Y-128096199D01*
X70798279Y-128006284D01*
X70495877Y-127974500D01*
X70193060Y-128002058D01*
X69901363Y-128087910D01*
X69631896Y-128228783D01*
X69394925Y-128419314D01*
X69213930Y-128635014D01*
X69050511Y-128434642D01*
X68816223Y-128240821D01*
X68548749Y-128096199D01*
X68258279Y-128006284D01*
X67955877Y-127974500D01*
X67653060Y-128002058D01*
X67361363Y-128087910D01*
X67091896Y-128228783D01*
X66854925Y-128419314D01*
X66659473Y-128652243D01*
X66512987Y-128918701D01*
X66421046Y-129208536D01*
X66387152Y-129510709D01*
X66387000Y-129532462D01*
X66387000Y-129547538D01*
X66416672Y-129850155D01*
X66504557Y-130141246D01*
X66647309Y-130409722D01*
X66839489Y-130645358D01*
X67073777Y-130839179D01*
X67341251Y-130983801D01*
X67631721Y-131073716D01*
X67934123Y-131105500D01*
X68236940Y-131077942D01*
X68528637Y-130992090D01*
X68798104Y-130851217D01*
X69035075Y-130660686D01*
X69216070Y-130444986D01*
X69379489Y-130645358D01*
X69613777Y-130839179D01*
X69881251Y-130983801D01*
X70171721Y-131073716D01*
X70474123Y-131105500D01*
X70776940Y-131077942D01*
X71068637Y-130992090D01*
X71338104Y-130851217D01*
X71575075Y-130660686D01*
X71756070Y-130444986D01*
X71919489Y-130645358D01*
X72153777Y-130839179D01*
X72421251Y-130983801D01*
X72711721Y-131073716D01*
X73014123Y-131105500D01*
X73316940Y-131077942D01*
X73608637Y-130992090D01*
X73878104Y-130851217D01*
X74115075Y-130660686D01*
X74296070Y-130444986D01*
X74459489Y-130645358D01*
X74693777Y-130839179D01*
X74961251Y-130983801D01*
X75251721Y-131073716D01*
X75554123Y-131105500D01*
X75856940Y-131077942D01*
X76148637Y-130992090D01*
X76418104Y-130851217D01*
X76655075Y-130660686D01*
X76836070Y-130444986D01*
X76999489Y-130645358D01*
X77233777Y-130839179D01*
X77501251Y-130983801D01*
X77791721Y-131073716D01*
X78094123Y-131105500D01*
X78396940Y-131077942D01*
X78688637Y-130992090D01*
X78958104Y-130851217D01*
X79167720Y-130682680D01*
X79252000Y-130810581D01*
X79252000Y-133985000D01*
X79264561Y-134113104D01*
X79275771Y-134241244D01*
X79277814Y-134248276D01*
X79278529Y-134255568D01*
X79315723Y-134378762D01*
X79351619Y-134502316D01*
X79354990Y-134508819D01*
X79357107Y-134515831D01*
X79417508Y-134629427D01*
X79476732Y-134743682D01*
X79481303Y-134749408D01*
X79484741Y-134755874D01*
X79566059Y-134855580D01*
X79646344Y-134956151D01*
X79656401Y-134966350D01*
X79656568Y-134966555D01*
X79656758Y-134966712D01*
X79660000Y-134970000D01*
X80321382Y-135631382D01*
X80061363Y-135707910D01*
X79791896Y-135848783D01*
X79680183Y-135938603D01*
X78830190Y-135088610D01*
X78766974Y-135036684D01*
X78704396Y-134984175D01*
X78700319Y-134981934D01*
X78696722Y-134978979D01*
X78624692Y-134940357D01*
X78553039Y-134900965D01*
X78548600Y-134899557D01*
X78544501Y-134897359D01*
X78466374Y-134873473D01*
X78388402Y-134848739D01*
X78383774Y-134848220D01*
X78379326Y-134846860D01*
X78298061Y-134838606D01*
X78216757Y-134829486D01*
X78207653Y-134829423D01*
X78207489Y-134829406D01*
X78207336Y-134829420D01*
X78204400Y-134829400D01*
X74980200Y-134829400D01*
X74898849Y-134837377D01*
X74817403Y-134844502D01*
X74812931Y-134845801D01*
X74808303Y-134846255D01*
X74730081Y-134869872D01*
X74651540Y-134892690D01*
X74647407Y-134894832D01*
X74642953Y-134896177D01*
X74570812Y-134934535D01*
X74498194Y-134972176D01*
X74494554Y-134975082D01*
X74490448Y-134977265D01*
X74427129Y-135028907D01*
X74363209Y-135079934D01*
X74356730Y-135086323D01*
X74356599Y-135086430D01*
X74356499Y-135086551D01*
X74354410Y-135088611D01*
X73692404Y-135750617D01*
X73628749Y-135716199D01*
X73338279Y-135626284D01*
X73035877Y-135594500D01*
X72733060Y-135622058D01*
X72441363Y-135707910D01*
X72171896Y-135848783D01*
X71934925Y-136039314D01*
X71753930Y-136255014D01*
X71590511Y-136054642D01*
X71356223Y-135860821D01*
X71088749Y-135716199D01*
X70798279Y-135626284D01*
X70495877Y-135594500D01*
X70193060Y-135622058D01*
X69901363Y-135707910D01*
X69631896Y-135848783D01*
X69394925Y-136039314D01*
X69213930Y-136255014D01*
X69050511Y-136054642D01*
X68816223Y-135860821D01*
X68548749Y-135716199D01*
X68258279Y-135626284D01*
X67955877Y-135594500D01*
X67653060Y-135622058D01*
X67361363Y-135707910D01*
X67091896Y-135848783D01*
X66854925Y-136039314D01*
X66659473Y-136272243D01*
X66512987Y-136538701D01*
X66421046Y-136828536D01*
X66387152Y-137130709D01*
X66387000Y-137152462D01*
X66387000Y-137167538D01*
X66416672Y-137470155D01*
X66504557Y-137761246D01*
X66647309Y-138029722D01*
X66839489Y-138265358D01*
X67060000Y-138447782D01*
X67060000Y-139065000D01*
X67067977Y-139146356D01*
X67075102Y-139227796D01*
X67076401Y-139232267D01*
X67076855Y-139236897D01*
X67100475Y-139315131D01*
X67123290Y-139393660D01*
X67125432Y-139397793D01*
X67126777Y-139402247D01*
X67165135Y-139474388D01*
X67202776Y-139547006D01*
X67205682Y-139550646D01*
X67207865Y-139554752D01*
X67259507Y-139618071D01*
X67310534Y-139681991D01*
X67316927Y-139688474D01*
X67317030Y-139688601D01*
X67317147Y-139688698D01*
X67319210Y-139690790D01*
X68968820Y-141340399D01*
X68904845Y-141346672D01*
X68613754Y-141434557D01*
X68345278Y-141577309D01*
X68147469Y-141738638D01*
X68139642Y-141719742D01*
X68057563Y-141596903D01*
X67953098Y-141492437D01*
X67830259Y-141410359D01*
X67693767Y-141353822D01*
X67548869Y-141325000D01*
X66866500Y-141325000D01*
X66679000Y-141512500D01*
X66679000Y-142871000D01*
X66699000Y-142871000D01*
X66699000Y-142879000D01*
X66679000Y-142879000D01*
X66679000Y-144237500D01*
X66866500Y-144425000D01*
X67548869Y-144425000D01*
X67693767Y-144396178D01*
X67830259Y-144339641D01*
X67953098Y-144257563D01*
X68057563Y-144153097D01*
X68139642Y-144030258D01*
X68147987Y-144010112D01*
X68327243Y-144160527D01*
X68593701Y-144307013D01*
X68883536Y-144398954D01*
X69185709Y-144432848D01*
X69207462Y-144433000D01*
X69222538Y-144433000D01*
X69494731Y-144406311D01*
X70870000Y-145781579D01*
X70870000Y-146902492D01*
X70664925Y-147067378D01*
X70483930Y-147283078D01*
X70320511Y-147082706D01*
X70086223Y-146888885D01*
X69818749Y-146744263D01*
X69528279Y-146654348D01*
X69225877Y-146622564D01*
X68923060Y-146650122D01*
X68631363Y-146735974D01*
X68361896Y-146876847D01*
X68124925Y-147067378D01*
X67943930Y-147283078D01*
X67780511Y-147082706D01*
X67546223Y-146888885D01*
X67278749Y-146744263D01*
X66988279Y-146654348D01*
X66685877Y-146622564D01*
X66383060Y-146650122D01*
X66091363Y-146735974D01*
X65821896Y-146876847D01*
X65584925Y-147067378D01*
X65389473Y-147300307D01*
X65242987Y-147566765D01*
X65151046Y-147856600D01*
X65117152Y-148158773D01*
X65117000Y-148180526D01*
X65117000Y-148999474D01*
X65146672Y-149302091D01*
X65234557Y-149593182D01*
X65377309Y-149861658D01*
X65569489Y-150097294D01*
X65803777Y-150291115D01*
X66071251Y-150435737D01*
X66186373Y-150471373D01*
X67760000Y-152045000D01*
X67859454Y-152126692D01*
X67958001Y-152209383D01*
X67964420Y-152212912D01*
X67970080Y-152217561D01*
X68083476Y-152278364D01*
X68196239Y-152340356D01*
X68203221Y-152342571D01*
X68209676Y-152346032D01*
X68332681Y-152383638D01*
X68455379Y-152422560D01*
X68462664Y-152423377D01*
X68469663Y-152425517D01*
X68597617Y-152438514D01*
X68725551Y-152452864D01*
X68739873Y-152452964D01*
X68740137Y-152452991D01*
X68740383Y-152452968D01*
X68745000Y-152453000D01*
X74765000Y-152453000D01*
X74893104Y-152440439D01*
X75021244Y-152429229D01*
X75028276Y-152427186D01*
X75035568Y-152426471D01*
X75158762Y-152389277D01*
X75282316Y-152353381D01*
X75288819Y-152350010D01*
X75295831Y-152347893D01*
X75409427Y-152287492D01*
X75523682Y-152228268D01*
X75529408Y-152223697D01*
X75535874Y-152220259D01*
X75635580Y-152138941D01*
X75736151Y-152058656D01*
X75746350Y-152048599D01*
X75746555Y-152048432D01*
X75746712Y-152048242D01*
X75750000Y-152045000D01*
X77061200Y-150733800D01*
X77061200Y-154265196D01*
X76845877Y-154242564D01*
X76543060Y-154270122D01*
X76251363Y-154355974D01*
X75981896Y-154496847D01*
X75744925Y-154687378D01*
X75563930Y-154903078D01*
X75400511Y-154702706D01*
X75166223Y-154508885D01*
X74898749Y-154364263D01*
X74608279Y-154274348D01*
X74305877Y-154242564D01*
X74003060Y-154270122D01*
X73711363Y-154355974D01*
X73441896Y-154496847D01*
X73204925Y-154687378D01*
X73023930Y-154903078D01*
X72860511Y-154702706D01*
X72626223Y-154508885D01*
X72358749Y-154364263D01*
X72068279Y-154274348D01*
X71765877Y-154242564D01*
X71463060Y-154270122D01*
X71171363Y-154355974D01*
X70901896Y-154496847D01*
X70664925Y-154687378D01*
X70483930Y-154903078D01*
X70320511Y-154702706D01*
X70086223Y-154508885D01*
X69818749Y-154364263D01*
X69528279Y-154274348D01*
X69225877Y-154242564D01*
X68923060Y-154270122D01*
X68631363Y-154355974D01*
X68361896Y-154496847D01*
X68151446Y-154666054D01*
X68045709Y-154505591D01*
X67882589Y-154366565D01*
X67687195Y-154278488D01*
X67475000Y-154248333D01*
X65875000Y-154248333D01*
X65754291Y-154257959D01*
X65549557Y-154321361D01*
X65370591Y-154439291D01*
X65231565Y-154602411D01*
X65143488Y-154797805D01*
X65113333Y-155010000D01*
X65113333Y-157410000D01*
X65122959Y-157530709D01*
X65186361Y-157735443D01*
X65304291Y-157914409D01*
X65467411Y-158053435D01*
X65662805Y-158141512D01*
X65875000Y-158171667D01*
X67475000Y-158171667D01*
X67595709Y-158162041D01*
X67800443Y-158098639D01*
X67979409Y-157980709D01*
X68118435Y-157817589D01*
X68148935Y-157749927D01*
X68343777Y-157911115D01*
X68611251Y-158055737D01*
X68901721Y-158145652D01*
X69204123Y-158177436D01*
X69506940Y-158149878D01*
X69798637Y-158064026D01*
X69810989Y-158057569D01*
X72433411Y-160679990D01*
X72496602Y-160731896D01*
X72559204Y-160784425D01*
X72563281Y-160786666D01*
X72566878Y-160789621D01*
X72638908Y-160828243D01*
X72710561Y-160867635D01*
X72715000Y-160869043D01*
X72719099Y-160871241D01*
X72797226Y-160895127D01*
X72875198Y-160919861D01*
X72879826Y-160920380D01*
X72884274Y-160921740D01*
X72965539Y-160929994D01*
X73046843Y-160939114D01*
X73055947Y-160939177D01*
X73056111Y-160939194D01*
X73056264Y-160939180D01*
X73059200Y-160939200D01*
X79007620Y-160939200D01*
X79359779Y-161291359D01*
X79121442Y-161361505D01*
X78817384Y-161520462D01*
X78549992Y-161735451D01*
X78511110Y-161781788D01*
X78487425Y-161752747D01*
X78223061Y-161534046D01*
X77921252Y-161370859D01*
X77593495Y-161269401D01*
X77252273Y-161233537D01*
X76910584Y-161264633D01*
X76581442Y-161361505D01*
X76277384Y-161520462D01*
X76009992Y-161735451D01*
X75971110Y-161781788D01*
X75947425Y-161752747D01*
X75683061Y-161534046D01*
X75381252Y-161370859D01*
X75053495Y-161269401D01*
X74712273Y-161233537D01*
X74370584Y-161264633D01*
X74041442Y-161361505D01*
X73737384Y-161520462D01*
X73469992Y-161735451D01*
X73431110Y-161781788D01*
X73407425Y-161752747D01*
X73143061Y-161534046D01*
X72841252Y-161370859D01*
X72513495Y-161269401D01*
X72172273Y-161233537D01*
X71830584Y-161264633D01*
X71501442Y-161361505D01*
X71197384Y-161520462D01*
X70929992Y-161735451D01*
X70891110Y-161781788D01*
X70867425Y-161752747D01*
X70603061Y-161534046D01*
X70301252Y-161370859D01*
X69973495Y-161269401D01*
X69632273Y-161233537D01*
X69290584Y-161264633D01*
X68961442Y-161361505D01*
X68657384Y-161520462D01*
X68389992Y-161735451D01*
X68351110Y-161781788D01*
X68327425Y-161752747D01*
X68063061Y-161534046D01*
X67761252Y-161370859D01*
X67433495Y-161269401D01*
X67092273Y-161233537D01*
X66750584Y-161264633D01*
X66421442Y-161361505D01*
X66117384Y-161520462D01*
X65849992Y-161735451D01*
X65811110Y-161781788D01*
X65787425Y-161752747D01*
X65523061Y-161534046D01*
X65221252Y-161370859D01*
X64893495Y-161269401D01*
X64552273Y-161233537D01*
X64210584Y-161264633D01*
X63881442Y-161361505D01*
X63584609Y-161516685D01*
X63570709Y-161495591D01*
X63407589Y-161356565D01*
X63212195Y-161268488D01*
X63000000Y-161238333D01*
X61333000Y-161238333D01*
X61333000Y-151413819D01*
X61360108Y-151561521D01*
X61472585Y-151845604D01*
X61638098Y-152102430D01*
X61850344Y-152322217D01*
X62101237Y-152496593D01*
X62381222Y-152618915D01*
X62679634Y-152684525D01*
X62985107Y-152690924D01*
X63286004Y-152637868D01*
X63570866Y-152527377D01*
X63828841Y-152363661D01*
X64050105Y-152152955D01*
X64226227Y-151903285D01*
X64350501Y-151624161D01*
X64418193Y-151326214D01*
X64423066Y-150977230D01*
X64363720Y-150677510D01*
X64247288Y-150395024D01*
X64078205Y-150140534D01*
X63862911Y-149923732D01*
X63781576Y-149868871D01*
X63830904Y-149601560D01*
X62865000Y-148635657D01*
X61899096Y-149601560D01*
X61948244Y-149867895D01*
X61884028Y-149909917D01*
X61665728Y-150123692D01*
X61493109Y-150375796D01*
X61372744Y-150656628D01*
X61333000Y-150843610D01*
X61333000Y-148899194D01*
X61405155Y-149172829D01*
X61539107Y-149447200D01*
X61602609Y-149542236D01*
X61893440Y-149595904D01*
X62859343Y-148630000D01*
X62870657Y-148630000D01*
X63836560Y-149595904D01*
X64127391Y-149542236D01*
X64281104Y-149278428D01*
X64380396Y-148989700D01*
X64421452Y-148687150D01*
X64402695Y-148382403D01*
X64324845Y-148087171D01*
X64190893Y-147812800D01*
X64127391Y-147717764D01*
X63836560Y-147664096D01*
X62870657Y-148630000D01*
X62859343Y-148630000D01*
X61893440Y-147664096D01*
X61602609Y-147717764D01*
X61448896Y-147981572D01*
X61349604Y-148270300D01*
X61333000Y-148392658D01*
X61333000Y-147658440D01*
X61899096Y-147658440D01*
X62865000Y-148624343D01*
X63830904Y-147658440D01*
X63777236Y-147367609D01*
X63513428Y-147213896D01*
X63224700Y-147114604D01*
X62922150Y-147073548D01*
X62617403Y-147092305D01*
X62322171Y-147170155D01*
X62047800Y-147304107D01*
X61952764Y-147367609D01*
X61899096Y-147658440D01*
X61333000Y-147658440D01*
X61333000Y-143066500D01*
X65125000Y-143066500D01*
X65125000Y-143748868D01*
X65153822Y-143893767D01*
X65210358Y-144030258D01*
X65292437Y-144153097D01*
X65396902Y-144257563D01*
X65519741Y-144339641D01*
X65656233Y-144396178D01*
X65801131Y-144425000D01*
X66483500Y-144425000D01*
X66671000Y-144237500D01*
X66671000Y-142879000D01*
X65312500Y-142879000D01*
X65125000Y-143066500D01*
X61333000Y-143066500D01*
X61333000Y-142001132D01*
X65125000Y-142001132D01*
X65125000Y-142683500D01*
X65312500Y-142871000D01*
X66671000Y-142871000D01*
X66671000Y-141512500D01*
X66483500Y-141325000D01*
X65801131Y-141325000D01*
X65656233Y-141353822D01*
X65519741Y-141410359D01*
X65396902Y-141492437D01*
X65292437Y-141596903D01*
X65210358Y-141719742D01*
X65153822Y-141856233D01*
X65125000Y-142001132D01*
X61333000Y-142001132D01*
X61333000Y-129845040D01*
X72052285Y-119125755D01*
X88590329Y-119125755D01*
X88757505Y-119376000D01*
X90166000Y-119376000D01*
X90166000Y-117967506D01*
X89915755Y-117800329D01*
X89800378Y-117823280D01*
X89503779Y-117925302D01*
X89232783Y-118083227D01*
X88997803Y-118290986D01*
X88807870Y-118540595D01*
X88670283Y-118822462D01*
X88590329Y-119125755D01*
X72052285Y-119125755D01*
X73968040Y-117210000D01*
X146293333Y-117210000D01*
X146293333Y-119010000D01*
X146302959Y-119130709D01*
X146366361Y-119335443D01*
X146484291Y-119514409D01*
X146647411Y-119653435D01*
X146842805Y-119741512D01*
X147055000Y-119771667D01*
X148855000Y-119771667D01*
X148975709Y-119762041D01*
X149180443Y-119698639D01*
X149359409Y-119580709D01*
X149488272Y-119429514D01*
X149682215Y-119564307D01*
X149980171Y-119694481D01*
X150297736Y-119764302D01*
X150622816Y-119771112D01*
X150943026Y-119714650D01*
X151246172Y-119597068D01*
X151520706Y-119422843D01*
X151756170Y-119198613D01*
X151943598Y-118932918D01*
X152075848Y-118635878D01*
X152147885Y-118318808D01*
X152153071Y-117947425D01*
X152089915Y-117628467D01*
X151966010Y-117327850D01*
X151786075Y-117057025D01*
X151556962Y-116826308D01*
X151287400Y-116644486D01*
X150987656Y-116518485D01*
X150669147Y-116453105D01*
X150344004Y-116450835D01*
X150024613Y-116511762D01*
X149723139Y-116633565D01*
X149482159Y-116791258D01*
X149425709Y-116705591D01*
X149262589Y-116566565D01*
X149067195Y-116478488D01*
X148855000Y-116448333D01*
X147055000Y-116448333D01*
X146934291Y-116457959D01*
X146729557Y-116521361D01*
X146550591Y-116639291D01*
X146411565Y-116802411D01*
X146323488Y-116997805D01*
X146293333Y-117210000D01*
X73968040Y-117210000D01*
X75845040Y-115333000D01*
X154959263Y-115333000D01*
X155905715Y-115425801D01*
X155905715Y-115425801D01*
G37*
X155905715Y-115425801D02*
X156776931Y-115688836D01*
X157580468Y-116116084D01*
X158285715Y-116691269D01*
X158865806Y-117392479D01*
X159298652Y-118193012D01*
X159567765Y-119062372D01*
X159667000Y-120006536D01*
X159667000Y-161669668D01*
X159503061Y-161534046D01*
X159201252Y-161370859D01*
X158873495Y-161269401D01*
X158532273Y-161233537D01*
X158190584Y-161264633D01*
X157861442Y-161361505D01*
X157557384Y-161520462D01*
X157289992Y-161735451D01*
X157251110Y-161781788D01*
X157227425Y-161752747D01*
X156963061Y-161534046D01*
X156661252Y-161370859D01*
X156333495Y-161269401D01*
X155992273Y-161233537D01*
X155650584Y-161264633D01*
X155321442Y-161361505D01*
X155017384Y-161520462D01*
X154749992Y-161735451D01*
X154711110Y-161781788D01*
X154687425Y-161752747D01*
X154423061Y-161534046D01*
X154121252Y-161370859D01*
X153793495Y-161269401D01*
X153452273Y-161233537D01*
X153110584Y-161264633D01*
X152781442Y-161361505D01*
X152477384Y-161520462D01*
X152209992Y-161735451D01*
X152171110Y-161781788D01*
X152147425Y-161752747D01*
X151883061Y-161534046D01*
X151581252Y-161370859D01*
X151253495Y-161269401D01*
X150912273Y-161233537D01*
X150570584Y-161264633D01*
X150241442Y-161361505D01*
X149937384Y-161520462D01*
X149669992Y-161735451D01*
X149631110Y-161781788D01*
X149607425Y-161752747D01*
X149343061Y-161534046D01*
X149041252Y-161370859D01*
X148713495Y-161269401D01*
X148372273Y-161233537D01*
X148030584Y-161264633D01*
X147701442Y-161361505D01*
X147397384Y-161520462D01*
X147129992Y-161735451D01*
X147091110Y-161781788D01*
X147067425Y-161752747D01*
X146803061Y-161534046D01*
X146501252Y-161370859D01*
X146173495Y-161269401D01*
X145832273Y-161233537D01*
X145490584Y-161264633D01*
X145161442Y-161361505D01*
X144857384Y-161520462D01*
X144589992Y-161735451D01*
X144551110Y-161781788D01*
X144527425Y-161752747D01*
X144263061Y-161534046D01*
X143961252Y-161370859D01*
X143633495Y-161269401D01*
X143292273Y-161233537D01*
X142950584Y-161264633D01*
X142831315Y-161299736D01*
X140842190Y-159310610D01*
X140778974Y-159258684D01*
X140716396Y-159206175D01*
X140712319Y-159203934D01*
X140708722Y-159200979D01*
X140636692Y-159162357D01*
X140565039Y-159122965D01*
X140560600Y-159121557D01*
X140556501Y-159119359D01*
X140478374Y-159095473D01*
X140400402Y-159070739D01*
X140395774Y-159070220D01*
X140391326Y-159068860D01*
X140310061Y-159060606D01*
X140228757Y-159051486D01*
X140219653Y-159051423D01*
X140219489Y-159051406D01*
X140219336Y-159051420D01*
X140216400Y-159051400D01*
X138847019Y-159051400D01*
X138943636Y-159013925D01*
X139118821Y-158902749D01*
X139269076Y-158759664D01*
X139388677Y-158590119D01*
X139473068Y-158400572D01*
X139519036Y-158198244D01*
X139522345Y-157961258D01*
X139482045Y-157757725D01*
X139411181Y-157585798D01*
X140048389Y-156948590D01*
X140100269Y-156885430D01*
X140152825Y-156822796D01*
X140155068Y-156818715D01*
X140158020Y-156815122D01*
X140196613Y-156743147D01*
X140236035Y-156671439D01*
X140237444Y-156666998D01*
X140239640Y-156662902D01*
X140263517Y-156584806D01*
X140288261Y-156506802D01*
X140288780Y-156502174D01*
X140290140Y-156497726D01*
X140298395Y-156416456D01*
X140307514Y-156335157D01*
X140307577Y-156326054D01*
X140307594Y-156325890D01*
X140307580Y-156325737D01*
X140307600Y-156322800D01*
X140307600Y-156240108D01*
X140517739Y-156331916D01*
X140796710Y-156393252D01*
X141082282Y-156399234D01*
X141363577Y-156349634D01*
X141629880Y-156246341D01*
X141871050Y-156093291D01*
X142077898Y-155896312D01*
X142242547Y-155662907D01*
X142358725Y-155401967D01*
X142422006Y-155123431D01*
X142426562Y-154797183D01*
X142371082Y-154516988D01*
X142262235Y-154252906D01*
X142104168Y-154014995D01*
X141902900Y-153812318D01*
X141689597Y-153668444D01*
X141871050Y-153553291D01*
X142077898Y-153356312D01*
X142242547Y-153122907D01*
X142242752Y-153122447D01*
X142363028Y-153309079D01*
X142561446Y-153514547D01*
X142795994Y-153677562D01*
X143057739Y-153791916D01*
X143336710Y-153853252D01*
X143622282Y-153859234D01*
X143903577Y-153809634D01*
X144169880Y-153706341D01*
X144411050Y-153553291D01*
X144617898Y-153356312D01*
X144782547Y-153122907D01*
X144898725Y-152861967D01*
X144962006Y-152583431D01*
X144966562Y-152257183D01*
X144911082Y-151976988D01*
X144802235Y-151712906D01*
X144644168Y-151474995D01*
X144442900Y-151272318D01*
X144229597Y-151128444D01*
X144411050Y-151013291D01*
X144617898Y-150816312D01*
X144782547Y-150582907D01*
X144898725Y-150321967D01*
X144962006Y-150043431D01*
X144964724Y-149848774D01*
X150784259Y-149848774D01*
X150812702Y-150161309D01*
X150901308Y-150462367D01*
X151046703Y-150740482D01*
X151171828Y-150896107D01*
X151045591Y-150979291D01*
X150906565Y-151142411D01*
X150818488Y-151337805D01*
X150788333Y-151550000D01*
X150788333Y-153250000D01*
X150797959Y-153370709D01*
X150861361Y-153575443D01*
X150979291Y-153754409D01*
X151142411Y-153893435D01*
X151337805Y-153981512D01*
X151550000Y-154011667D01*
X153250000Y-154011667D01*
X153370709Y-154002041D01*
X153575443Y-153938639D01*
X153754409Y-153820709D01*
X153893435Y-153657589D01*
X153981512Y-153462195D01*
X154011667Y-153250000D01*
X154011667Y-151550000D01*
X154002041Y-151429291D01*
X153938639Y-151224557D01*
X153820709Y-151045591D01*
X153657589Y-150906565D01*
X153629443Y-150893878D01*
X153740872Y-150759182D01*
X153890136Y-150483125D01*
X153982937Y-150183333D01*
X154015741Y-149871226D01*
X153987298Y-149558691D01*
X153898692Y-149257633D01*
X153753297Y-148979518D01*
X153556652Y-148734941D01*
X153316247Y-148533217D01*
X153041239Y-148382030D01*
X152742102Y-148287139D01*
X152430231Y-148252157D01*
X152407780Y-148252000D01*
X152392220Y-148252000D01*
X152079891Y-148282624D01*
X151779459Y-148373330D01*
X151502366Y-148520663D01*
X151259168Y-148719010D01*
X151059128Y-148960818D01*
X150909864Y-149236875D01*
X150817063Y-149536667D01*
X150784259Y-149848774D01*
X144964724Y-149848774D01*
X144966562Y-149717183D01*
X144911082Y-149436988D01*
X144802235Y-149172906D01*
X144644168Y-148934995D01*
X144442900Y-148732318D01*
X144229597Y-148588444D01*
X144411050Y-148473291D01*
X144617898Y-148276312D01*
X144782547Y-148042907D01*
X144898725Y-147781967D01*
X144962006Y-147503431D01*
X144966562Y-147177183D01*
X144911082Y-146896988D01*
X144802235Y-146632906D01*
X144644168Y-146394995D01*
X144442900Y-146192318D01*
X144229597Y-146048444D01*
X144411050Y-145933291D01*
X144617898Y-145736312D01*
X144782547Y-145502907D01*
X144898725Y-145241967D01*
X144962006Y-144963431D01*
X144966562Y-144637183D01*
X144911082Y-144356988D01*
X144802235Y-144092906D01*
X144644168Y-143854995D01*
X144442900Y-143652318D01*
X144229597Y-143508444D01*
X144411050Y-143393291D01*
X144617898Y-143196312D01*
X144782547Y-142962907D01*
X144898725Y-142701967D01*
X144962006Y-142423431D01*
X144966562Y-142097183D01*
X144911082Y-141816988D01*
X144802235Y-141552906D01*
X144644168Y-141314995D01*
X144442900Y-141112318D01*
X144229597Y-140968444D01*
X144411050Y-140853291D01*
X144617898Y-140656312D01*
X144782547Y-140422907D01*
X144898725Y-140161967D01*
X144962006Y-139883431D01*
X144966562Y-139557183D01*
X144911082Y-139276988D01*
X144802235Y-139012906D01*
X144644168Y-138774995D01*
X144442900Y-138572318D01*
X144206098Y-138412593D01*
X143942783Y-138301905D01*
X143662982Y-138244470D01*
X143377355Y-138242476D01*
X143096780Y-138295999D01*
X142831944Y-138402999D01*
X142592936Y-138559402D01*
X142388858Y-138759250D01*
X142233429Y-138986248D01*
X142208931Y-138936091D01*
X142149879Y-138847712D01*
X141869442Y-138806215D01*
X140975657Y-139700000D01*
X140989799Y-139714142D01*
X140984142Y-139719799D01*
X140970000Y-139705657D01*
X140955858Y-139719799D01*
X140950201Y-139714142D01*
X140964343Y-139700000D01*
X140950201Y-139685858D01*
X140955858Y-139680201D01*
X140970000Y-139694343D01*
X141863785Y-138800558D01*
X141822288Y-138520121D01*
X141677769Y-138435950D01*
X141871050Y-138313291D01*
X142077898Y-138116312D01*
X142242547Y-137882907D01*
X142358725Y-137621967D01*
X142422006Y-137343431D01*
X142426562Y-137017183D01*
X142371082Y-136736988D01*
X142262235Y-136472906D01*
X142104168Y-136234995D01*
X141902900Y-136032318D01*
X141666098Y-135872593D01*
X141402783Y-135761905D01*
X141122982Y-135704470D01*
X140837355Y-135702476D01*
X140556780Y-135755999D01*
X140291944Y-135862999D01*
X140052936Y-136019402D01*
X139848858Y-136219250D01*
X139699060Y-136438025D01*
X139564168Y-136234995D01*
X139362900Y-136032318D01*
X139126098Y-135872593D01*
X138862783Y-135761905D01*
X138582982Y-135704470D01*
X138297355Y-135702476D01*
X138016780Y-135755999D01*
X137751944Y-135862999D01*
X137512936Y-136019402D01*
X137308858Y-136219250D01*
X137159060Y-136438025D01*
X137024168Y-136234995D01*
X136822900Y-136032318D01*
X136586098Y-135872593D01*
X136322783Y-135761905D01*
X136042982Y-135704470D01*
X135757355Y-135702476D01*
X135476780Y-135755999D01*
X135211944Y-135862999D01*
X135187477Y-135879010D01*
X135179822Y-135800939D01*
X135172698Y-135719504D01*
X135171399Y-135715033D01*
X135170945Y-135710403D01*
X135147325Y-135632169D01*
X135124510Y-135553640D01*
X135122368Y-135549507D01*
X135121023Y-135545053D01*
X135082665Y-135472912D01*
X135045024Y-135400294D01*
X135042118Y-135396654D01*
X135039935Y-135392548D01*
X134988293Y-135329229D01*
X134937266Y-135265309D01*
X134930877Y-135258830D01*
X134930770Y-135258699D01*
X134930649Y-135258599D01*
X134928590Y-135256511D01*
X130955476Y-131283396D01*
X130937345Y-131191825D01*
X130858278Y-130999996D01*
X130743458Y-130827178D01*
X130597258Y-130679953D01*
X130425245Y-130563929D01*
X130233973Y-130483525D01*
X130230000Y-130482709D01*
X130230000Y-130030340D01*
X130346405Y-129936748D01*
X130543677Y-130099945D01*
X130789690Y-130232964D01*
X131056855Y-130315665D01*
X131334996Y-130344899D01*
X131613517Y-130319552D01*
X131881811Y-130240588D01*
X131994139Y-130181865D01*
X132015723Y-130253356D01*
X132051619Y-130376910D01*
X132054990Y-130383413D01*
X132057107Y-130390425D01*
X132117508Y-130504021D01*
X132176732Y-130618276D01*
X132181303Y-130624002D01*
X132184741Y-130630468D01*
X132266059Y-130730174D01*
X132346344Y-130830745D01*
X132356401Y-130840944D01*
X132356568Y-130841149D01*
X132356758Y-130841306D01*
X132360000Y-130844594D01*
X136485406Y-134970000D01*
X136584882Y-135051711D01*
X136683407Y-135134383D01*
X136689823Y-135137910D01*
X136695485Y-135142561D01*
X136808903Y-135203375D01*
X136921645Y-135265356D01*
X136928627Y-135267571D01*
X136935082Y-135271032D01*
X137058087Y-135308638D01*
X137180785Y-135347560D01*
X137188070Y-135348377D01*
X137195069Y-135350517D01*
X137323023Y-135363514D01*
X137450957Y-135377864D01*
X137465279Y-135377964D01*
X137465543Y-135377991D01*
X137465789Y-135377968D01*
X137470406Y-135378000D01*
X143448000Y-135378000D01*
X148120000Y-140050000D01*
X148219454Y-140131692D01*
X148318001Y-140214383D01*
X148324420Y-140217912D01*
X148330080Y-140222561D01*
X148443476Y-140283364D01*
X148556239Y-140345356D01*
X148563221Y-140347571D01*
X148569676Y-140351032D01*
X148692681Y-140388638D01*
X148815379Y-140427560D01*
X148822664Y-140428377D01*
X148829663Y-140430517D01*
X148957617Y-140443514D01*
X149085551Y-140457864D01*
X149099873Y-140457964D01*
X149100137Y-140457991D01*
X149100383Y-140457968D01*
X149105000Y-140458000D01*
X149760667Y-140458000D01*
X149869790Y-140663231D01*
X150056419Y-140892062D01*
X150283941Y-141080284D01*
X150543689Y-141220729D01*
X150825769Y-141308047D01*
X151119437Y-141338913D01*
X151413508Y-141312151D01*
X151696780Y-141228779D01*
X151958463Y-141091974D01*
X152188591Y-140906947D01*
X152378397Y-140680745D01*
X152407006Y-140628705D01*
X152420860Y-140654459D01*
X152608632Y-140882024D01*
X152837192Y-141068584D01*
X153097756Y-141206970D01*
X153380311Y-141291863D01*
X153430616Y-141300840D01*
X153666000Y-141132494D01*
X153666000Y-139069000D01*
X153674000Y-139069000D01*
X153674000Y-141132494D01*
X153909384Y-141300840D01*
X153959689Y-141291863D01*
X154242244Y-141206970D01*
X154502808Y-141068584D01*
X154731368Y-140882024D01*
X154919140Y-140654459D01*
X155058908Y-140394634D01*
X155145301Y-140112534D01*
X155175000Y-139819000D01*
X155175000Y-139069000D01*
X153674000Y-139069000D01*
X153666000Y-139069000D01*
X153646000Y-139069000D01*
X153646000Y-139061000D01*
X153666000Y-139061000D01*
X153666000Y-136997506D01*
X153674000Y-136997506D01*
X153674000Y-139061000D01*
X155175000Y-139061000D01*
X155175000Y-138311000D01*
X155145301Y-138017466D01*
X155058908Y-137735366D01*
X154919140Y-137475541D01*
X154731368Y-137247976D01*
X154502808Y-137061416D01*
X154242244Y-136923030D01*
X153959689Y-136838137D01*
X153909384Y-136829160D01*
X153674000Y-136997506D01*
X153666000Y-136997506D01*
X153430616Y-136829160D01*
X153380311Y-136838137D01*
X153097756Y-136923030D01*
X152837192Y-137061416D01*
X152608632Y-137247976D01*
X152420860Y-137475541D01*
X152407791Y-137499835D01*
X152390210Y-137466769D01*
X152203581Y-137237938D01*
X151976059Y-137049716D01*
X151716311Y-136909271D01*
X151434231Y-136821953D01*
X151140563Y-136791087D01*
X150846492Y-136817849D01*
X150563220Y-136901221D01*
X150301537Y-137038026D01*
X150071409Y-137223053D01*
X149881603Y-137449255D01*
X149759148Y-137672000D01*
X149682000Y-137672000D01*
X145010000Y-133000000D01*
X144910546Y-132918308D01*
X144811999Y-132835617D01*
X144805580Y-132832088D01*
X144799920Y-132827439D01*
X144686524Y-132766636D01*
X144573761Y-132704644D01*
X144566779Y-132702429D01*
X144560324Y-132698968D01*
X144437319Y-132661362D01*
X144314621Y-132622440D01*
X144307336Y-132621623D01*
X144300337Y-132619483D01*
X144172383Y-132606486D01*
X144044449Y-132592136D01*
X144030127Y-132592036D01*
X144029863Y-132592009D01*
X144029617Y-132592032D01*
X144025000Y-132592000D01*
X138047406Y-132592000D01*
X135728242Y-130272836D01*
X135937955Y-130200773D01*
X136179354Y-130060195D01*
X136388690Y-129875224D01*
X136557917Y-129652968D01*
X136680533Y-129401968D01*
X136751825Y-129131869D01*
X136582495Y-128909000D01*
X135349000Y-128909000D01*
X135349000Y-128929000D01*
X135341000Y-128929000D01*
X135341000Y-128909000D01*
X135321000Y-128909000D01*
X135321000Y-128901000D01*
X135341000Y-128901000D01*
X135341000Y-126909000D01*
X135349000Y-126909000D01*
X135349000Y-128901000D01*
X136582495Y-128901000D01*
X136751825Y-128678131D01*
X136680533Y-128408032D01*
X136557917Y-128157032D01*
X136388690Y-127934776D01*
X136354992Y-127905000D01*
X136388690Y-127875224D01*
X136557917Y-127652968D01*
X136680533Y-127401968D01*
X136751825Y-127131869D01*
X136582495Y-126909000D01*
X135349000Y-126909000D01*
X135341000Y-126909000D01*
X135321000Y-126909000D01*
X135321000Y-126901000D01*
X135341000Y-126901000D01*
X135341000Y-125667506D01*
X135349000Y-125667506D01*
X135349000Y-126901000D01*
X136582495Y-126901000D01*
X136751825Y-126678131D01*
X136680533Y-126408032D01*
X136557917Y-126157032D01*
X136388690Y-125934776D01*
X136179354Y-125749805D01*
X135937955Y-125609227D01*
X135673769Y-125518445D01*
X135571869Y-125498176D01*
X135349000Y-125667506D01*
X135341000Y-125667506D01*
X135118131Y-125498176D01*
X135016231Y-125518445D01*
X134752045Y-125609227D01*
X134510646Y-125749805D01*
X134357717Y-125884935D01*
X134146323Y-125710055D01*
X133900310Y-125577036D01*
X133633145Y-125494335D01*
X133355004Y-125465101D01*
X133076483Y-125490448D01*
X132808189Y-125569412D01*
X132560342Y-125698983D01*
X132342382Y-125874227D01*
X132332923Y-125885500D01*
X132293614Y-125850766D01*
X134330256Y-123814123D01*
X143849500Y-123814123D01*
X143877058Y-124116940D01*
X143962910Y-124408637D01*
X144103783Y-124678104D01*
X144294314Y-124915075D01*
X144527243Y-125110527D01*
X144793701Y-125257013D01*
X145083536Y-125348954D01*
X145385709Y-125382848D01*
X145407462Y-125383000D01*
X145422538Y-125383000D01*
X145725155Y-125353328D01*
X146016246Y-125265443D01*
X146284722Y-125122691D01*
X146520358Y-124930511D01*
X146714179Y-124696223D01*
X146858801Y-124428749D01*
X146948716Y-124138279D01*
X146967874Y-123956001D01*
X151474953Y-123956001D01*
X151530108Y-124256521D01*
X151642585Y-124540604D01*
X151808098Y-124797430D01*
X152020344Y-125017217D01*
X152271237Y-125191593D01*
X152551222Y-125313915D01*
X152849634Y-125379525D01*
X153155107Y-125385924D01*
X153456004Y-125332868D01*
X153740866Y-125222377D01*
X153998841Y-125058661D01*
X154220105Y-124847955D01*
X154396227Y-124598285D01*
X154520501Y-124319161D01*
X154588193Y-124021214D01*
X154593066Y-123672230D01*
X154533720Y-123372510D01*
X154417288Y-123090024D01*
X154248205Y-122835534D01*
X154032911Y-122618732D01*
X153779608Y-122447877D01*
X153497942Y-122329475D01*
X153198643Y-122268038D01*
X152893111Y-122265905D01*
X152592984Y-122323158D01*
X152309692Y-122437615D01*
X152054028Y-122604917D01*
X151835728Y-122818692D01*
X151663109Y-123070796D01*
X151542744Y-123351628D01*
X151479219Y-123650491D01*
X151474953Y-123956001D01*
X146967874Y-123956001D01*
X146980500Y-123835877D01*
X146952942Y-123533060D01*
X146867090Y-123241363D01*
X146726217Y-122971896D01*
X146535686Y-122734925D01*
X146302757Y-122539473D01*
X146036299Y-122392987D01*
X145746464Y-122301046D01*
X145444291Y-122267152D01*
X145422538Y-122267000D01*
X145407462Y-122267000D01*
X145104845Y-122296672D01*
X144813754Y-122384557D01*
X144545278Y-122527309D01*
X144309642Y-122719489D01*
X144115821Y-122953777D01*
X143971199Y-123221251D01*
X143881284Y-123511721D01*
X143849500Y-123814123D01*
X134330256Y-123814123D01*
X134932090Y-123212289D01*
X134990818Y-123260872D01*
X135266875Y-123410136D01*
X135566667Y-123502937D01*
X135878774Y-123535741D01*
X136191309Y-123507298D01*
X136492367Y-123418692D01*
X136770482Y-123273297D01*
X137015059Y-123076652D01*
X137160525Y-122903293D01*
X137289010Y-123060832D01*
X137530818Y-123260872D01*
X137806875Y-123410136D01*
X138106667Y-123502937D01*
X138418774Y-123535741D01*
X138731309Y-123507298D01*
X139032367Y-123418692D01*
X139310482Y-123273297D01*
X139555059Y-123076652D01*
X139756783Y-122836247D01*
X139907970Y-122561239D01*
X140002861Y-122262102D01*
X140037843Y-121950231D01*
X140038000Y-121927780D01*
X140038000Y-121912220D01*
X140007376Y-121599891D01*
X139916670Y-121299459D01*
X139769337Y-121022366D01*
X139570990Y-120779168D01*
X139405886Y-120642583D01*
X139602197Y-120469014D01*
X139792130Y-120219405D01*
X139929717Y-119937538D01*
X140009671Y-119634245D01*
X139842495Y-119384000D01*
X138434000Y-119384000D01*
X138434000Y-119404000D01*
X138426000Y-119404000D01*
X138426000Y-119384000D01*
X138406000Y-119384000D01*
X138406000Y-119376000D01*
X138426000Y-119376000D01*
X138426000Y-117967506D01*
X138434000Y-117967506D01*
X138434000Y-119376000D01*
X139842495Y-119376000D01*
X140009671Y-119125755D01*
X139929717Y-118822462D01*
X139792130Y-118540595D01*
X139602197Y-118290986D01*
X139367217Y-118083227D01*
X139096221Y-117925302D01*
X138799622Y-117823280D01*
X138684245Y-117800329D01*
X138434000Y-117967506D01*
X138426000Y-117967506D01*
X138175755Y-117800329D01*
X138060378Y-117823280D01*
X137763779Y-117925302D01*
X137492783Y-118083227D01*
X137257803Y-118290986D01*
X137168726Y-118408050D01*
X137030990Y-118239168D01*
X136789182Y-118039128D01*
X136513125Y-117889864D01*
X136213333Y-117797063D01*
X135901226Y-117764259D01*
X135588691Y-117792702D01*
X135287633Y-117881308D01*
X135009518Y-118026703D01*
X134764941Y-118223348D01*
X134619475Y-118396707D01*
X134490990Y-118239168D01*
X134249182Y-118039128D01*
X133973125Y-117889864D01*
X133673333Y-117797063D01*
X133361226Y-117764259D01*
X133048691Y-117792702D01*
X132747633Y-117881308D01*
X132469518Y-118026703D01*
X132224941Y-118223348D01*
X132079475Y-118396707D01*
X131950990Y-118239168D01*
X131709182Y-118039128D01*
X131433125Y-117889864D01*
X131133333Y-117797063D01*
X130821226Y-117764259D01*
X130508691Y-117792702D01*
X130207633Y-117881308D01*
X129929518Y-118026703D01*
X129684941Y-118223348D01*
X129539475Y-118396707D01*
X129410990Y-118239168D01*
X129169182Y-118039128D01*
X128893125Y-117889864D01*
X128593333Y-117797063D01*
X128281226Y-117764259D01*
X127968691Y-117792702D01*
X127667633Y-117881308D01*
X127389518Y-118026703D01*
X127144941Y-118223348D01*
X126990648Y-118407227D01*
X126902197Y-118290986D01*
X126667217Y-118083227D01*
X126396221Y-117925302D01*
X126099622Y-117823280D01*
X125984245Y-117800329D01*
X125734000Y-117967506D01*
X125734000Y-119376000D01*
X125754000Y-119376000D01*
X125754000Y-119384000D01*
X125734000Y-119384000D01*
X125734000Y-119404000D01*
X125726000Y-119404000D01*
X125726000Y-119384000D01*
X123194000Y-119384000D01*
X123194000Y-119404000D01*
X123186000Y-119404000D01*
X123186000Y-119384000D01*
X120654000Y-119384000D01*
X120654000Y-119404000D01*
X120646000Y-119404000D01*
X120646000Y-119384000D01*
X118114000Y-119384000D01*
X118114000Y-119404000D01*
X118106000Y-119404000D01*
X118106000Y-119384000D01*
X118086000Y-119384000D01*
X118086000Y-119376000D01*
X118106000Y-119376000D01*
X118106000Y-117967506D01*
X118114000Y-117967506D01*
X118114000Y-119376000D01*
X120646000Y-119376000D01*
X120646000Y-117967506D01*
X120654000Y-117967506D01*
X120654000Y-119376000D01*
X123186000Y-119376000D01*
X123186000Y-117967506D01*
X123194000Y-117967506D01*
X123194000Y-119376000D01*
X125726000Y-119376000D01*
X125726000Y-117967506D01*
X125475755Y-117800329D01*
X125360378Y-117823280D01*
X125063779Y-117925302D01*
X124792783Y-118083227D01*
X124557803Y-118290986D01*
X124460000Y-118419518D01*
X124362197Y-118290986D01*
X124127217Y-118083227D01*
X123856221Y-117925302D01*
X123559622Y-117823280D01*
X123444245Y-117800329D01*
X123194000Y-117967506D01*
X123186000Y-117967506D01*
X122935755Y-117800329D01*
X122820378Y-117823280D01*
X122523779Y-117925302D01*
X122252783Y-118083227D01*
X122017803Y-118290986D01*
X121920000Y-118419518D01*
X121822197Y-118290986D01*
X121587217Y-118083227D01*
X121316221Y-117925302D01*
X121019622Y-117823280D01*
X120904245Y-117800329D01*
X120654000Y-117967506D01*
X120646000Y-117967506D01*
X120395755Y-117800329D01*
X120280378Y-117823280D01*
X119983779Y-117925302D01*
X119712783Y-118083227D01*
X119477803Y-118290986D01*
X119380000Y-118419518D01*
X119282197Y-118290986D01*
X119047217Y-118083227D01*
X118776221Y-117925302D01*
X118479622Y-117823280D01*
X118364245Y-117800329D01*
X118114000Y-117967506D01*
X118106000Y-117967506D01*
X117855755Y-117800329D01*
X117740378Y-117823280D01*
X117443779Y-117925302D01*
X117172783Y-118083227D01*
X117127470Y-118123291D01*
X116617090Y-117612910D01*
X116553874Y-117560984D01*
X116491296Y-117508475D01*
X116487219Y-117506234D01*
X116483622Y-117503279D01*
X116411592Y-117464657D01*
X116339939Y-117425265D01*
X116335500Y-117423857D01*
X116331401Y-117421659D01*
X116253274Y-117397773D01*
X116175302Y-117373039D01*
X116170674Y-117372520D01*
X116166226Y-117371160D01*
X116084961Y-117362906D01*
X116003657Y-117353786D01*
X115994553Y-117353723D01*
X115994389Y-117353706D01*
X115994236Y-117353720D01*
X115991300Y-117353700D01*
X96391300Y-117353700D01*
X96309944Y-117361677D01*
X96228504Y-117368802D01*
X96224033Y-117370101D01*
X96219403Y-117370555D01*
X96141169Y-117394175D01*
X96062640Y-117416990D01*
X96058507Y-117419132D01*
X96054053Y-117420477D01*
X95981912Y-117458835D01*
X95909294Y-117496476D01*
X95905654Y-117499382D01*
X95901548Y-117501565D01*
X95838229Y-117553207D01*
X95774309Y-117604234D01*
X95767830Y-117610623D01*
X95767699Y-117610730D01*
X95767599Y-117610851D01*
X95765511Y-117612910D01*
X95579461Y-117798960D01*
X95573333Y-117797063D01*
X95261226Y-117764259D01*
X94948691Y-117792702D01*
X94647633Y-117881308D01*
X94369518Y-118026703D01*
X94124941Y-118223348D01*
X93979475Y-118396707D01*
X93850990Y-118239168D01*
X93609182Y-118039128D01*
X93333125Y-117889864D01*
X93033333Y-117797063D01*
X92721226Y-117764259D01*
X92408691Y-117792702D01*
X92107633Y-117881308D01*
X91829518Y-118026703D01*
X91584941Y-118223348D01*
X91430648Y-118407227D01*
X91342197Y-118290986D01*
X91107217Y-118083227D01*
X90836221Y-117925302D01*
X90539622Y-117823280D01*
X90424245Y-117800329D01*
X90174000Y-117967506D01*
X90174000Y-119376000D01*
X90194000Y-119376000D01*
X90194000Y-119384000D01*
X90174000Y-119384000D01*
X90174000Y-119404000D01*
X90166000Y-119404000D01*
X90166000Y-119384000D01*
X88757505Y-119384000D01*
X88590329Y-119634245D01*
X88670283Y-119937538D01*
X88728597Y-120057002D01*
X88721894Y-120060476D01*
X88718254Y-120063382D01*
X88714148Y-120065565D01*
X88650829Y-120117207D01*
X88586909Y-120168234D01*
X88580430Y-120174623D01*
X88580299Y-120174730D01*
X88580199Y-120174851D01*
X88578110Y-120176911D01*
X88416410Y-120338610D01*
X88364484Y-120401826D01*
X88311975Y-120464404D01*
X88309734Y-120468481D01*
X88306779Y-120472078D01*
X88268157Y-120544108D01*
X88228765Y-120615761D01*
X88227357Y-120620200D01*
X88225159Y-120624299D01*
X88201273Y-120702426D01*
X88176539Y-120780398D01*
X88176020Y-120785026D01*
X88174660Y-120789474D01*
X88166406Y-120870739D01*
X88157286Y-120952043D01*
X88157223Y-120961147D01*
X88157206Y-120961311D01*
X88157220Y-120961464D01*
X88157200Y-120964400D01*
X88157200Y-129557200D01*
X88165177Y-129638556D01*
X88172302Y-129719996D01*
X88173601Y-129724467D01*
X88174055Y-129729097D01*
X88197675Y-129807331D01*
X88220490Y-129885860D01*
X88222632Y-129889993D01*
X88223977Y-129894447D01*
X88262335Y-129966588D01*
X88299976Y-130039206D01*
X88302882Y-130042846D01*
X88305065Y-130046952D01*
X88356707Y-130110271D01*
X88407734Y-130174191D01*
X88414127Y-130180674D01*
X88414230Y-130180801D01*
X88414347Y-130180898D01*
X88416410Y-130182990D01*
X92387700Y-134154279D01*
X92387700Y-145328800D01*
X92395677Y-145410156D01*
X92402802Y-145491596D01*
X92404101Y-145496067D01*
X92404555Y-145500697D01*
X92428175Y-145578931D01*
X92450990Y-145657460D01*
X92453132Y-145661593D01*
X92454477Y-145666047D01*
X92492835Y-145738188D01*
X92530476Y-145810806D01*
X92533382Y-145814446D01*
X92535565Y-145818552D01*
X92587207Y-145881871D01*
X92638234Y-145945791D01*
X92644627Y-145952274D01*
X92644730Y-145952401D01*
X92644847Y-145952498D01*
X92646910Y-145954590D01*
X93931267Y-147238947D01*
X93797800Y-147304107D01*
X93702764Y-147367609D01*
X93649096Y-147658440D01*
X94615000Y-148624343D01*
X94629142Y-148610201D01*
X94634799Y-148615858D01*
X94620657Y-148630000D01*
X95586560Y-149595904D01*
X95877391Y-149542236D01*
X96008884Y-149316563D01*
X98829144Y-152136823D01*
X98892335Y-152188729D01*
X98954937Y-152241258D01*
X98959014Y-152243499D01*
X98962611Y-152246454D01*
X99034641Y-152285076D01*
X99106294Y-152324468D01*
X99110733Y-152325876D01*
X99114832Y-152328074D01*
X99192959Y-152351960D01*
X99270931Y-152376694D01*
X99275559Y-152377213D01*
X99280007Y-152378573D01*
X99361317Y-152386832D01*
X99442576Y-152395947D01*
X99451670Y-152396010D01*
X99451844Y-152396028D01*
X99452007Y-152396013D01*
X99454933Y-152396033D01*
X100587388Y-152396033D01*
X98735087Y-154248333D01*
X97625000Y-154248333D01*
X97504291Y-154257959D01*
X97299557Y-154321361D01*
X97120591Y-154439291D01*
X96981565Y-154602411D01*
X96893488Y-154797805D01*
X96863333Y-155010000D01*
X96863333Y-157410000D01*
X96872959Y-157530709D01*
X96936361Y-157735443D01*
X97054291Y-157914409D01*
X97217411Y-158053435D01*
X97412805Y-158141512D01*
X97625000Y-158171667D01*
X99225000Y-158171667D01*
X99345709Y-158162041D01*
X99550443Y-158098639D01*
X99729409Y-157980709D01*
X99868435Y-157817589D01*
X99898935Y-157749927D01*
X100093777Y-157911115D01*
X100361251Y-158055737D01*
X100651721Y-158145652D01*
X100954123Y-158177436D01*
X101256940Y-158149878D01*
X101548637Y-158064026D01*
X101818104Y-157923153D01*
X102055075Y-157732622D01*
X102236070Y-157516922D01*
X102399489Y-157717294D01*
X102633777Y-157911115D01*
X102694258Y-157943817D01*
X102725135Y-158001888D01*
X102762776Y-158074506D01*
X102765682Y-158078146D01*
X102767865Y-158082252D01*
X102819507Y-158145571D01*
X102870534Y-158209491D01*
X102876927Y-158215974D01*
X102877030Y-158216101D01*
X102877147Y-158216198D01*
X102879210Y-158218290D01*
X103837718Y-159176797D01*
X103778421Y-159181985D01*
X103773950Y-159183284D01*
X103769320Y-159183738D01*
X103691132Y-159207344D01*
X103612557Y-159230172D01*
X103608420Y-159232317D01*
X103603970Y-159233660D01*
X103531864Y-159271999D01*
X103459211Y-159309659D01*
X103455571Y-159312565D01*
X103451465Y-159314748D01*
X103388177Y-159366365D01*
X103324226Y-159417416D01*
X103317745Y-159423807D01*
X103317616Y-159423913D01*
X103317517Y-159424033D01*
X103315428Y-159426093D01*
X102965521Y-159776000D01*
X102880937Y-159792135D01*
X102688561Y-159869860D01*
X102514946Y-159983471D01*
X102366704Y-160128640D01*
X102249482Y-160299839D01*
X102167745Y-160490545D01*
X102124606Y-160693495D01*
X102121710Y-160900960D01*
X102159164Y-161105035D01*
X102235339Y-161297429D01*
X101910980Y-161409078D01*
X101614614Y-161581872D01*
X101378441Y-161790777D01*
X101347425Y-161752747D01*
X101083061Y-161534046D01*
X100781252Y-161370859D01*
X100453495Y-161269401D01*
X100112273Y-161233537D01*
X99770584Y-161264633D01*
X99441442Y-161361505D01*
X99137384Y-161520462D01*
X98869992Y-161735451D01*
X98831110Y-161781788D01*
X98807425Y-161752747D01*
X98543061Y-161534046D01*
X98241252Y-161370859D01*
X97913495Y-161269401D01*
X97572273Y-161233537D01*
X97230584Y-161264633D01*
X96901442Y-161361505D01*
X96597384Y-161520462D01*
X96329992Y-161735451D01*
X96291110Y-161781788D01*
X96267425Y-161752747D01*
X96003061Y-161534046D01*
X95701252Y-161370859D01*
X95373495Y-161269401D01*
X95032273Y-161233537D01*
X94690584Y-161264633D01*
X94361442Y-161361505D01*
X94057384Y-161520462D01*
X93789992Y-161735451D01*
X93751110Y-161781788D01*
X93727425Y-161752747D01*
X93463061Y-161534046D01*
X93161252Y-161370859D01*
X92833495Y-161269401D01*
X92492273Y-161233537D01*
X92308904Y-161250225D01*
X89308700Y-158250020D01*
X89308700Y-158126358D01*
X89531000Y-157972494D01*
X89531000Y-156214000D01*
X89539000Y-156214000D01*
X89539000Y-157972494D01*
X89781423Y-158140286D01*
X89833467Y-158130998D01*
X90124464Y-158043544D01*
X90392808Y-157901000D01*
X90628187Y-157708844D01*
X90821556Y-157474460D01*
X90965483Y-157206855D01*
X91054437Y-156916313D01*
X91085000Y-156614000D01*
X91085000Y-156214000D01*
X89539000Y-156214000D01*
X89531000Y-156214000D01*
X89511000Y-156214000D01*
X89511000Y-156206000D01*
X89531000Y-156206000D01*
X89531000Y-154447506D01*
X89539000Y-154447506D01*
X89539000Y-156206000D01*
X91085000Y-156206000D01*
X91085000Y-155806000D01*
X91054437Y-155503687D01*
X90965483Y-155213145D01*
X90821556Y-154945540D01*
X90628187Y-154711156D01*
X90392808Y-154519000D01*
X90124464Y-154376456D01*
X89833467Y-154289002D01*
X89781423Y-154279714D01*
X89539000Y-154447506D01*
X89531000Y-154447506D01*
X89308700Y-154293642D01*
X89308700Y-150534794D01*
X89524123Y-150557436D01*
X89826940Y-150529878D01*
X90118637Y-150444026D01*
X90388104Y-150303153D01*
X90625075Y-150112622D01*
X90820527Y-149879693D01*
X90967013Y-149613235D01*
X91051172Y-149347934D01*
X92509771Y-150806533D01*
X92521620Y-150847317D01*
X92524991Y-150853820D01*
X92527108Y-150860832D01*
X92587509Y-150974428D01*
X92646733Y-151088683D01*
X92651304Y-151094409D01*
X92654742Y-151100875D01*
X92736060Y-151200581D01*
X92816345Y-151301152D01*
X92826402Y-151311351D01*
X92826569Y-151311556D01*
X92826759Y-151311713D01*
X92830001Y-151315001D01*
X93132122Y-151617122D01*
X93222585Y-151845604D01*
X93388098Y-152102430D01*
X93600344Y-152322217D01*
X93851237Y-152496593D01*
X94131222Y-152618915D01*
X94429634Y-152684525D01*
X94735107Y-152690924D01*
X95036004Y-152637868D01*
X95320866Y-152527377D01*
X95578841Y-152363661D01*
X95800105Y-152152955D01*
X95976227Y-151903285D01*
X96100501Y-151624161D01*
X96168193Y-151326214D01*
X96173066Y-150977230D01*
X96113720Y-150677510D01*
X95997288Y-150395024D01*
X95828205Y-150140534D01*
X95612911Y-149923732D01*
X95531576Y-149868871D01*
X95580904Y-149601560D01*
X94615000Y-148635657D01*
X94600858Y-148649799D01*
X94595201Y-148644142D01*
X94609343Y-148630000D01*
X93643440Y-147664096D01*
X93359694Y-147716456D01*
X89658000Y-144014762D01*
X89658000Y-142306922D01*
X89750501Y-142099161D01*
X89818193Y-141801214D01*
X89823066Y-141452230D01*
X89763720Y-141152510D01*
X89647288Y-140870024D01*
X89478205Y-140615534D01*
X89262911Y-140398732D01*
X89009608Y-140227877D01*
X88747839Y-140117839D01*
X87945906Y-139315906D01*
X88207850Y-139351452D01*
X88512597Y-139332695D01*
X88807829Y-139254845D01*
X89082200Y-139120893D01*
X89177236Y-139057391D01*
X89230904Y-138766560D01*
X88265000Y-137800657D01*
X88250858Y-137814799D01*
X88245201Y-137809142D01*
X88259343Y-137795000D01*
X88270657Y-137795000D01*
X89236560Y-138760904D01*
X89527391Y-138707236D01*
X89681104Y-138443428D01*
X89780396Y-138154700D01*
X89821452Y-137852150D01*
X89802695Y-137547403D01*
X89724845Y-137252171D01*
X89590893Y-136977800D01*
X89527391Y-136882764D01*
X89236560Y-136829096D01*
X88270657Y-137795000D01*
X88259343Y-137795000D01*
X87293440Y-136829096D01*
X87002609Y-136882764D01*
X86848896Y-137146572D01*
X86749604Y-137435300D01*
X86708548Y-137737850D01*
X86727305Y-138042597D01*
X86746897Y-138116897D01*
X85453440Y-136823440D01*
X87299096Y-136823440D01*
X88265000Y-137789343D01*
X89230904Y-136823440D01*
X89177236Y-136532609D01*
X88913428Y-136378896D01*
X88624700Y-136279604D01*
X88322150Y-136238548D01*
X88017403Y-136257305D01*
X87722171Y-136335155D01*
X87447800Y-136469107D01*
X87352764Y-136532609D01*
X87299096Y-136823440D01*
X85453440Y-136823440D01*
X83586560Y-134956560D01*
X87299096Y-134956560D01*
X87352764Y-135247391D01*
X87616572Y-135401104D01*
X87905300Y-135500396D01*
X88207850Y-135541452D01*
X88512597Y-135522695D01*
X88807829Y-135444845D01*
X89082200Y-135310893D01*
X89177236Y-135247391D01*
X89230904Y-134956560D01*
X88265000Y-133990657D01*
X87299096Y-134956560D01*
X83586560Y-134956560D01*
X82557850Y-133927850D01*
X86708548Y-133927850D01*
X86727305Y-134232597D01*
X86805155Y-134527829D01*
X86939107Y-134802200D01*
X87002609Y-134897236D01*
X87293440Y-134950904D01*
X88259343Y-133985000D01*
X88270657Y-133985000D01*
X89236560Y-134950904D01*
X89527391Y-134897236D01*
X89681104Y-134633428D01*
X89780396Y-134344700D01*
X89821452Y-134042150D01*
X89802695Y-133737403D01*
X89724845Y-133442171D01*
X89590893Y-133167800D01*
X89527391Y-133072764D01*
X89236560Y-133019096D01*
X88270657Y-133985000D01*
X88259343Y-133985000D01*
X87293440Y-133019096D01*
X87002609Y-133072764D01*
X86848896Y-133336572D01*
X86749604Y-133625300D01*
X86708548Y-133927850D01*
X82557850Y-133927850D01*
X82038000Y-133408000D01*
X82038000Y-133013440D01*
X87299096Y-133013440D01*
X88265000Y-133979343D01*
X89230904Y-133013440D01*
X89177236Y-132722609D01*
X88913428Y-132568896D01*
X88624700Y-132469604D01*
X88322150Y-132428548D01*
X88017403Y-132447305D01*
X87722171Y-132525155D01*
X87447800Y-132659107D01*
X87352764Y-132722609D01*
X87299096Y-133013440D01*
X82038000Y-133013440D01*
X82038000Y-130806765D01*
X82088435Y-130747589D01*
X82176512Y-130552195D01*
X82206667Y-130340000D01*
X82206667Y-128740000D01*
X82197041Y-128619291D01*
X82133639Y-128414557D01*
X82015709Y-128235591D01*
X81852589Y-128096565D01*
X81657195Y-128008488D01*
X81445000Y-127978333D01*
X79845000Y-127978333D01*
X79724291Y-127987959D01*
X79519557Y-128051361D01*
X79340591Y-128169291D01*
X79201565Y-128332411D01*
X79170429Y-128401483D01*
X78976223Y-128240821D01*
X78708749Y-128096199D01*
X78418279Y-128006284D01*
X78115877Y-127974500D01*
X77813060Y-128002058D01*
X77521363Y-128087910D01*
X77251896Y-128228783D01*
X77014925Y-128419314D01*
X76833930Y-128635014D01*
X76670511Y-128434642D01*
X76436223Y-128240821D01*
X76168749Y-128096199D01*
X75878279Y-128006284D01*
X75575877Y-127974500D01*
X75273060Y-128002058D01*
X74981363Y-128087910D01*
X74711896Y-128228783D01*
X74474925Y-128419314D01*
X74293930Y-128635014D01*
X74130511Y-128434642D01*
X73896223Y-128240821D01*
X73628749Y-128096199D01*
X73338279Y-128006284D01*
X73035877Y-127974500D01*
X72733060Y-128002058D01*
X72441363Y-128087910D01*
X72171896Y-128228783D01*
X71934925Y-128419314D01*
X71753930Y-128635014D01*
X71590511Y-128434642D01*
X71356223Y-128240821D01*
X71088749Y-128096199D01*
X70798279Y-128006284D01*
X70495877Y-127974500D01*
X70193060Y-128002058D01*
X69901363Y-128087910D01*
X69631896Y-128228783D01*
X69394925Y-128419314D01*
X69213930Y-128635014D01*
X69050511Y-128434642D01*
X68816223Y-128240821D01*
X68548749Y-128096199D01*
X68258279Y-128006284D01*
X67955877Y-127974500D01*
X67653060Y-128002058D01*
X67361363Y-128087910D01*
X67091896Y-128228783D01*
X66854925Y-128419314D01*
X66659473Y-128652243D01*
X66512987Y-128918701D01*
X66421046Y-129208536D01*
X66387152Y-129510709D01*
X66387000Y-129532462D01*
X66387000Y-129547538D01*
X66416672Y-129850155D01*
X66504557Y-130141246D01*
X66647309Y-130409722D01*
X66839489Y-130645358D01*
X67073777Y-130839179D01*
X67341251Y-130983801D01*
X67631721Y-131073716D01*
X67934123Y-131105500D01*
X68236940Y-131077942D01*
X68528637Y-130992090D01*
X68798104Y-130851217D01*
X69035075Y-130660686D01*
X69216070Y-130444986D01*
X69379489Y-130645358D01*
X69613777Y-130839179D01*
X69881251Y-130983801D01*
X70171721Y-131073716D01*
X70474123Y-131105500D01*
X70776940Y-131077942D01*
X71068637Y-130992090D01*
X71338104Y-130851217D01*
X71575075Y-130660686D01*
X71756070Y-130444986D01*
X71919489Y-130645358D01*
X72153777Y-130839179D01*
X72421251Y-130983801D01*
X72711721Y-131073716D01*
X73014123Y-131105500D01*
X73316940Y-131077942D01*
X73608637Y-130992090D01*
X73878104Y-130851217D01*
X74115075Y-130660686D01*
X74296070Y-130444986D01*
X74459489Y-130645358D01*
X74693777Y-130839179D01*
X74961251Y-130983801D01*
X75251721Y-131073716D01*
X75554123Y-131105500D01*
X75856940Y-131077942D01*
X76148637Y-130992090D01*
X76418104Y-130851217D01*
X76655075Y-130660686D01*
X76836070Y-130444986D01*
X76999489Y-130645358D01*
X77233777Y-130839179D01*
X77501251Y-130983801D01*
X77791721Y-131073716D01*
X78094123Y-131105500D01*
X78396940Y-131077942D01*
X78688637Y-130992090D01*
X78958104Y-130851217D01*
X79167720Y-130682680D01*
X79252000Y-130810581D01*
X79252000Y-133985000D01*
X79264561Y-134113104D01*
X79275771Y-134241244D01*
X79277814Y-134248276D01*
X79278529Y-134255568D01*
X79315723Y-134378762D01*
X79351619Y-134502316D01*
X79354990Y-134508819D01*
X79357107Y-134515831D01*
X79417508Y-134629427D01*
X79476732Y-134743682D01*
X79481303Y-134749408D01*
X79484741Y-134755874D01*
X79566059Y-134855580D01*
X79646344Y-134956151D01*
X79656401Y-134966350D01*
X79656568Y-134966555D01*
X79656758Y-134966712D01*
X79660000Y-134970000D01*
X80321382Y-135631382D01*
X80061363Y-135707910D01*
X79791896Y-135848783D01*
X79680183Y-135938603D01*
X78830190Y-135088610D01*
X78766974Y-135036684D01*
X78704396Y-134984175D01*
X78700319Y-134981934D01*
X78696722Y-134978979D01*
X78624692Y-134940357D01*
X78553039Y-134900965D01*
X78548600Y-134899557D01*
X78544501Y-134897359D01*
X78466374Y-134873473D01*
X78388402Y-134848739D01*
X78383774Y-134848220D01*
X78379326Y-134846860D01*
X78298061Y-134838606D01*
X78216757Y-134829486D01*
X78207653Y-134829423D01*
X78207489Y-134829406D01*
X78207336Y-134829420D01*
X78204400Y-134829400D01*
X74980200Y-134829400D01*
X74898849Y-134837377D01*
X74817403Y-134844502D01*
X74812931Y-134845801D01*
X74808303Y-134846255D01*
X74730081Y-134869872D01*
X74651540Y-134892690D01*
X74647407Y-134894832D01*
X74642953Y-134896177D01*
X74570812Y-134934535D01*
X74498194Y-134972176D01*
X74494554Y-134975082D01*
X74490448Y-134977265D01*
X74427129Y-135028907D01*
X74363209Y-135079934D01*
X74356730Y-135086323D01*
X74356599Y-135086430D01*
X74356499Y-135086551D01*
X74354410Y-135088611D01*
X73692404Y-135750617D01*
X73628749Y-135716199D01*
X73338279Y-135626284D01*
X73035877Y-135594500D01*
X72733060Y-135622058D01*
X72441363Y-135707910D01*
X72171896Y-135848783D01*
X71934925Y-136039314D01*
X71753930Y-136255014D01*
X71590511Y-136054642D01*
X71356223Y-135860821D01*
X71088749Y-135716199D01*
X70798279Y-135626284D01*
X70495877Y-135594500D01*
X70193060Y-135622058D01*
X69901363Y-135707910D01*
X69631896Y-135848783D01*
X69394925Y-136039314D01*
X69213930Y-136255014D01*
X69050511Y-136054642D01*
X68816223Y-135860821D01*
X68548749Y-135716199D01*
X68258279Y-135626284D01*
X67955877Y-135594500D01*
X67653060Y-135622058D01*
X67361363Y-135707910D01*
X67091896Y-135848783D01*
X66854925Y-136039314D01*
X66659473Y-136272243D01*
X66512987Y-136538701D01*
X66421046Y-136828536D01*
X66387152Y-137130709D01*
X66387000Y-137152462D01*
X66387000Y-137167538D01*
X66416672Y-137470155D01*
X66504557Y-137761246D01*
X66647309Y-138029722D01*
X66839489Y-138265358D01*
X67060000Y-138447782D01*
X67060000Y-139065000D01*
X67067977Y-139146356D01*
X67075102Y-139227796D01*
X67076401Y-139232267D01*
X67076855Y-139236897D01*
X67100475Y-139315131D01*
X67123290Y-139393660D01*
X67125432Y-139397793D01*
X67126777Y-139402247D01*
X67165135Y-139474388D01*
X67202776Y-139547006D01*
X67205682Y-139550646D01*
X67207865Y-139554752D01*
X67259507Y-139618071D01*
X67310534Y-139681991D01*
X67316927Y-139688474D01*
X67317030Y-139688601D01*
X67317147Y-139688698D01*
X67319210Y-139690790D01*
X68968820Y-141340399D01*
X68904845Y-141346672D01*
X68613754Y-141434557D01*
X68345278Y-141577309D01*
X68147469Y-141738638D01*
X68139642Y-141719742D01*
X68057563Y-141596903D01*
X67953098Y-141492437D01*
X67830259Y-141410359D01*
X67693767Y-141353822D01*
X67548869Y-141325000D01*
X66866500Y-141325000D01*
X66679000Y-141512500D01*
X66679000Y-142871000D01*
X66699000Y-142871000D01*
X66699000Y-142879000D01*
X66679000Y-142879000D01*
X66679000Y-144237500D01*
X66866500Y-144425000D01*
X67548869Y-144425000D01*
X67693767Y-144396178D01*
X67830259Y-144339641D01*
X67953098Y-144257563D01*
X68057563Y-144153097D01*
X68139642Y-144030258D01*
X68147987Y-144010112D01*
X68327243Y-144160527D01*
X68593701Y-144307013D01*
X68883536Y-144398954D01*
X69185709Y-144432848D01*
X69207462Y-144433000D01*
X69222538Y-144433000D01*
X69494731Y-144406311D01*
X70870000Y-145781579D01*
X70870000Y-146902492D01*
X70664925Y-147067378D01*
X70483930Y-147283078D01*
X70320511Y-147082706D01*
X70086223Y-146888885D01*
X69818749Y-146744263D01*
X69528279Y-146654348D01*
X69225877Y-146622564D01*
X68923060Y-146650122D01*
X68631363Y-146735974D01*
X68361896Y-146876847D01*
X68124925Y-147067378D01*
X67943930Y-147283078D01*
X67780511Y-147082706D01*
X67546223Y-146888885D01*
X67278749Y-146744263D01*
X66988279Y-146654348D01*
X66685877Y-146622564D01*
X66383060Y-146650122D01*
X66091363Y-146735974D01*
X65821896Y-146876847D01*
X65584925Y-147067378D01*
X65389473Y-147300307D01*
X65242987Y-147566765D01*
X65151046Y-147856600D01*
X65117152Y-148158773D01*
X65117000Y-148180526D01*
X65117000Y-148999474D01*
X65146672Y-149302091D01*
X65234557Y-149593182D01*
X65377309Y-149861658D01*
X65569489Y-150097294D01*
X65803777Y-150291115D01*
X66071251Y-150435737D01*
X66186373Y-150471373D01*
X67760000Y-152045000D01*
X67859454Y-152126692D01*
X67958001Y-152209383D01*
X67964420Y-152212912D01*
X67970080Y-152217561D01*
X68083476Y-152278364D01*
X68196239Y-152340356D01*
X68203221Y-152342571D01*
X68209676Y-152346032D01*
X68332681Y-152383638D01*
X68455379Y-152422560D01*
X68462664Y-152423377D01*
X68469663Y-152425517D01*
X68597617Y-152438514D01*
X68725551Y-152452864D01*
X68739873Y-152452964D01*
X68740137Y-152452991D01*
X68740383Y-152452968D01*
X68745000Y-152453000D01*
X74765000Y-152453000D01*
X74893104Y-152440439D01*
X75021244Y-152429229D01*
X75028276Y-152427186D01*
X75035568Y-152426471D01*
X75158762Y-152389277D01*
X75282316Y-152353381D01*
X75288819Y-152350010D01*
X75295831Y-152347893D01*
X75409427Y-152287492D01*
X75523682Y-152228268D01*
X75529408Y-152223697D01*
X75535874Y-152220259D01*
X75635580Y-152138941D01*
X75736151Y-152058656D01*
X75746350Y-152048599D01*
X75746555Y-152048432D01*
X75746712Y-152048242D01*
X75750000Y-152045000D01*
X77061200Y-150733800D01*
X77061200Y-154265196D01*
X76845877Y-154242564D01*
X76543060Y-154270122D01*
X76251363Y-154355974D01*
X75981896Y-154496847D01*
X75744925Y-154687378D01*
X75563930Y-154903078D01*
X75400511Y-154702706D01*
X75166223Y-154508885D01*
X74898749Y-154364263D01*
X74608279Y-154274348D01*
X74305877Y-154242564D01*
X74003060Y-154270122D01*
X73711363Y-154355974D01*
X73441896Y-154496847D01*
X73204925Y-154687378D01*
X73023930Y-154903078D01*
X72860511Y-154702706D01*
X72626223Y-154508885D01*
X72358749Y-154364263D01*
X72068279Y-154274348D01*
X71765877Y-154242564D01*
X71463060Y-154270122D01*
X71171363Y-154355974D01*
X70901896Y-154496847D01*
X70664925Y-154687378D01*
X70483930Y-154903078D01*
X70320511Y-154702706D01*
X70086223Y-154508885D01*
X69818749Y-154364263D01*
X69528279Y-154274348D01*
X69225877Y-154242564D01*
X68923060Y-154270122D01*
X68631363Y-154355974D01*
X68361896Y-154496847D01*
X68151446Y-154666054D01*
X68045709Y-154505591D01*
X67882589Y-154366565D01*
X67687195Y-154278488D01*
X67475000Y-154248333D01*
X65875000Y-154248333D01*
X65754291Y-154257959D01*
X65549557Y-154321361D01*
X65370591Y-154439291D01*
X65231565Y-154602411D01*
X65143488Y-154797805D01*
X65113333Y-155010000D01*
X65113333Y-157410000D01*
X65122959Y-157530709D01*
X65186361Y-157735443D01*
X65304291Y-157914409D01*
X65467411Y-158053435D01*
X65662805Y-158141512D01*
X65875000Y-158171667D01*
X67475000Y-158171667D01*
X67595709Y-158162041D01*
X67800443Y-158098639D01*
X67979409Y-157980709D01*
X68118435Y-157817589D01*
X68148935Y-157749927D01*
X68343777Y-157911115D01*
X68611251Y-158055737D01*
X68901721Y-158145652D01*
X69204123Y-158177436D01*
X69506940Y-158149878D01*
X69798637Y-158064026D01*
X69810989Y-158057569D01*
X72433411Y-160679990D01*
X72496602Y-160731896D01*
X72559204Y-160784425D01*
X72563281Y-160786666D01*
X72566878Y-160789621D01*
X72638908Y-160828243D01*
X72710561Y-160867635D01*
X72715000Y-160869043D01*
X72719099Y-160871241D01*
X72797226Y-160895127D01*
X72875198Y-160919861D01*
X72879826Y-160920380D01*
X72884274Y-160921740D01*
X72965539Y-160929994D01*
X73046843Y-160939114D01*
X73055947Y-160939177D01*
X73056111Y-160939194D01*
X73056264Y-160939180D01*
X73059200Y-160939200D01*
X79007620Y-160939200D01*
X79359779Y-161291359D01*
X79121442Y-161361505D01*
X78817384Y-161520462D01*
X78549992Y-161735451D01*
X78511110Y-161781788D01*
X78487425Y-161752747D01*
X78223061Y-161534046D01*
X77921252Y-161370859D01*
X77593495Y-161269401D01*
X77252273Y-161233537D01*
X76910584Y-161264633D01*
X76581442Y-161361505D01*
X76277384Y-161520462D01*
X76009992Y-161735451D01*
X75971110Y-161781788D01*
X75947425Y-161752747D01*
X75683061Y-161534046D01*
X75381252Y-161370859D01*
X75053495Y-161269401D01*
X74712273Y-161233537D01*
X74370584Y-161264633D01*
X74041442Y-161361505D01*
X73737384Y-161520462D01*
X73469992Y-161735451D01*
X73431110Y-161781788D01*
X73407425Y-161752747D01*
X73143061Y-161534046D01*
X72841252Y-161370859D01*
X72513495Y-161269401D01*
X72172273Y-161233537D01*
X71830584Y-161264633D01*
X71501442Y-161361505D01*
X71197384Y-161520462D01*
X70929992Y-161735451D01*
X70891110Y-161781788D01*
X70867425Y-161752747D01*
X70603061Y-161534046D01*
X70301252Y-161370859D01*
X69973495Y-161269401D01*
X69632273Y-161233537D01*
X69290584Y-161264633D01*
X68961442Y-161361505D01*
X68657384Y-161520462D01*
X68389992Y-161735451D01*
X68351110Y-161781788D01*
X68327425Y-161752747D01*
X68063061Y-161534046D01*
X67761252Y-161370859D01*
X67433495Y-161269401D01*
X67092273Y-161233537D01*
X66750584Y-161264633D01*
X66421442Y-161361505D01*
X66117384Y-161520462D01*
X65849992Y-161735451D01*
X65811110Y-161781788D01*
X65787425Y-161752747D01*
X65523061Y-161534046D01*
X65221252Y-161370859D01*
X64893495Y-161269401D01*
X64552273Y-161233537D01*
X64210584Y-161264633D01*
X63881442Y-161361505D01*
X63584609Y-161516685D01*
X63570709Y-161495591D01*
X63407589Y-161356565D01*
X63212195Y-161268488D01*
X63000000Y-161238333D01*
X61333000Y-161238333D01*
X61333000Y-151413819D01*
X61360108Y-151561521D01*
X61472585Y-151845604D01*
X61638098Y-152102430D01*
X61850344Y-152322217D01*
X62101237Y-152496593D01*
X62381222Y-152618915D01*
X62679634Y-152684525D01*
X62985107Y-152690924D01*
X63286004Y-152637868D01*
X63570866Y-152527377D01*
X63828841Y-152363661D01*
X64050105Y-152152955D01*
X64226227Y-151903285D01*
X64350501Y-151624161D01*
X64418193Y-151326214D01*
X64423066Y-150977230D01*
X64363720Y-150677510D01*
X64247288Y-150395024D01*
X64078205Y-150140534D01*
X63862911Y-149923732D01*
X63781576Y-149868871D01*
X63830904Y-149601560D01*
X62865000Y-148635657D01*
X61899096Y-149601560D01*
X61948244Y-149867895D01*
X61884028Y-149909917D01*
X61665728Y-150123692D01*
X61493109Y-150375796D01*
X61372744Y-150656628D01*
X61333000Y-150843610D01*
X61333000Y-148899194D01*
X61405155Y-149172829D01*
X61539107Y-149447200D01*
X61602609Y-149542236D01*
X61893440Y-149595904D01*
X62859343Y-148630000D01*
X62870657Y-148630000D01*
X63836560Y-149595904D01*
X64127391Y-149542236D01*
X64281104Y-149278428D01*
X64380396Y-148989700D01*
X64421452Y-148687150D01*
X64402695Y-148382403D01*
X64324845Y-148087171D01*
X64190893Y-147812800D01*
X64127391Y-147717764D01*
X63836560Y-147664096D01*
X62870657Y-148630000D01*
X62859343Y-148630000D01*
X61893440Y-147664096D01*
X61602609Y-147717764D01*
X61448896Y-147981572D01*
X61349604Y-148270300D01*
X61333000Y-148392658D01*
X61333000Y-147658440D01*
X61899096Y-147658440D01*
X62865000Y-148624343D01*
X63830904Y-147658440D01*
X63777236Y-147367609D01*
X63513428Y-147213896D01*
X63224700Y-147114604D01*
X62922150Y-147073548D01*
X62617403Y-147092305D01*
X62322171Y-147170155D01*
X62047800Y-147304107D01*
X61952764Y-147367609D01*
X61899096Y-147658440D01*
X61333000Y-147658440D01*
X61333000Y-143066500D01*
X65125000Y-143066500D01*
X65125000Y-143748868D01*
X65153822Y-143893767D01*
X65210358Y-144030258D01*
X65292437Y-144153097D01*
X65396902Y-144257563D01*
X65519741Y-144339641D01*
X65656233Y-144396178D01*
X65801131Y-144425000D01*
X66483500Y-144425000D01*
X66671000Y-144237500D01*
X66671000Y-142879000D01*
X65312500Y-142879000D01*
X65125000Y-143066500D01*
X61333000Y-143066500D01*
X61333000Y-142001132D01*
X65125000Y-142001132D01*
X65125000Y-142683500D01*
X65312500Y-142871000D01*
X66671000Y-142871000D01*
X66671000Y-141512500D01*
X66483500Y-141325000D01*
X65801131Y-141325000D01*
X65656233Y-141353822D01*
X65519741Y-141410359D01*
X65396902Y-141492437D01*
X65292437Y-141596903D01*
X65210358Y-141719742D01*
X65153822Y-141856233D01*
X65125000Y-142001132D01*
X61333000Y-142001132D01*
X61333000Y-129845040D01*
X72052285Y-119125755D01*
X88590329Y-119125755D01*
X88757505Y-119376000D01*
X90166000Y-119376000D01*
X90166000Y-117967506D01*
X89915755Y-117800329D01*
X89800378Y-117823280D01*
X89503779Y-117925302D01*
X89232783Y-118083227D01*
X88997803Y-118290986D01*
X88807870Y-118540595D01*
X88670283Y-118822462D01*
X88590329Y-119125755D01*
X72052285Y-119125755D01*
X73968040Y-117210000D01*
X146293333Y-117210000D01*
X146293333Y-119010000D01*
X146302959Y-119130709D01*
X146366361Y-119335443D01*
X146484291Y-119514409D01*
X146647411Y-119653435D01*
X146842805Y-119741512D01*
X147055000Y-119771667D01*
X148855000Y-119771667D01*
X148975709Y-119762041D01*
X149180443Y-119698639D01*
X149359409Y-119580709D01*
X149488272Y-119429514D01*
X149682215Y-119564307D01*
X149980171Y-119694481D01*
X150297736Y-119764302D01*
X150622816Y-119771112D01*
X150943026Y-119714650D01*
X151246172Y-119597068D01*
X151520706Y-119422843D01*
X151756170Y-119198613D01*
X151943598Y-118932918D01*
X152075848Y-118635878D01*
X152147885Y-118318808D01*
X152153071Y-117947425D01*
X152089915Y-117628467D01*
X151966010Y-117327850D01*
X151786075Y-117057025D01*
X151556962Y-116826308D01*
X151287400Y-116644486D01*
X150987656Y-116518485D01*
X150669147Y-116453105D01*
X150344004Y-116450835D01*
X150024613Y-116511762D01*
X149723139Y-116633565D01*
X149482159Y-116791258D01*
X149425709Y-116705591D01*
X149262589Y-116566565D01*
X149067195Y-116478488D01*
X148855000Y-116448333D01*
X147055000Y-116448333D01*
X146934291Y-116457959D01*
X146729557Y-116521361D01*
X146550591Y-116639291D01*
X146411565Y-116802411D01*
X146323488Y-116997805D01*
X146293333Y-117210000D01*
X73968040Y-117210000D01*
X75845040Y-115333000D01*
X154959263Y-115333000D01*
X155905715Y-115425801D01*
G36*
X121902011Y-154373990D02*
X121965180Y-154425877D01*
X122027804Y-154478425D01*
X122031884Y-154480668D01*
X122035479Y-154483621D01*
X122107487Y-154522232D01*
X122179161Y-154561635D01*
X122183600Y-154563043D01*
X122187699Y-154565241D01*
X122265826Y-154589127D01*
X122343798Y-154613861D01*
X122348426Y-154614380D01*
X122352874Y-154615740D01*
X122434184Y-154623999D01*
X122515443Y-154633114D01*
X122524537Y-154633177D01*
X122524711Y-154633195D01*
X122524874Y-154633180D01*
X122527800Y-154633200D01*
X126846110Y-154633200D01*
X126815574Y-154776860D01*
X126811586Y-155062466D01*
X126863148Y-155343408D01*
X126968297Y-155608984D01*
X127123028Y-155849079D01*
X127321446Y-156054547D01*
X127555994Y-156217562D01*
X127817739Y-156331916D01*
X128096710Y-156393252D01*
X128382282Y-156399234D01*
X128663577Y-156349634D01*
X128929880Y-156246341D01*
X129171050Y-156093291D01*
X129377898Y-155896312D01*
X129542547Y-155662907D01*
X129542752Y-155662447D01*
X129663028Y-155849079D01*
X129837092Y-156029328D01*
X127747431Y-158118989D01*
X124937181Y-158118989D01*
X124855780Y-158126971D01*
X124774384Y-158134092D01*
X124769917Y-158135390D01*
X124765284Y-158135844D01*
X124687033Y-158159469D01*
X124608520Y-158182279D01*
X124604386Y-158184422D01*
X124599934Y-158185766D01*
X124527811Y-158224114D01*
X124455175Y-158261765D01*
X124451535Y-158264671D01*
X124447429Y-158266854D01*
X124384110Y-158318496D01*
X124320190Y-158369523D01*
X124313711Y-158375912D01*
X124313580Y-158376019D01*
X124313480Y-158376140D01*
X124311391Y-158378200D01*
X122334210Y-160355380D01*
X122282284Y-160418596D01*
X122229775Y-160481174D01*
X122227534Y-160485251D01*
X122224579Y-160488848D01*
X122185957Y-160560878D01*
X122146565Y-160632531D01*
X122145157Y-160636970D01*
X122142959Y-160641069D01*
X122119073Y-160719196D01*
X122094339Y-160797168D01*
X122093820Y-160801796D01*
X122092460Y-160806244D01*
X122084206Y-160887509D01*
X122075086Y-160968813D01*
X122075023Y-160977917D01*
X122075006Y-160978081D01*
X122075020Y-160978234D01*
X122075000Y-160981170D01*
X122075000Y-161479886D01*
X121997384Y-161520462D01*
X121729992Y-161735451D01*
X121691110Y-161781788D01*
X121667425Y-161752747D01*
X121403061Y-161534046D01*
X121101252Y-161370859D01*
X120773495Y-161269401D01*
X120432273Y-161233537D01*
X120090584Y-161264633D01*
X119761442Y-161361505D01*
X119457384Y-161520462D01*
X119189992Y-161735451D01*
X119151110Y-161781788D01*
X119127425Y-161752747D01*
X118863061Y-161534046D01*
X118561252Y-161370859D01*
X118233495Y-161269401D01*
X117892273Y-161233537D01*
X117550584Y-161264633D01*
X117221442Y-161361505D01*
X116917384Y-161520462D01*
X116649992Y-161735451D01*
X116611110Y-161781788D01*
X116587425Y-161752747D01*
X116323061Y-161534046D01*
X116021252Y-161370859D01*
X115693495Y-161269401D01*
X115352273Y-161233537D01*
X115026847Y-161263153D01*
X118513440Y-157776560D01*
X119049096Y-157776560D01*
X119102764Y-158067391D01*
X119366572Y-158221104D01*
X119655300Y-158320396D01*
X119957850Y-158361452D01*
X120262597Y-158342695D01*
X120557829Y-158264845D01*
X120832200Y-158130893D01*
X120927236Y-158067391D01*
X120980904Y-157776560D01*
X120015000Y-156810657D01*
X119049096Y-157776560D01*
X118513440Y-157776560D01*
X118682117Y-157607883D01*
X118689107Y-157622200D01*
X118752609Y-157717236D01*
X119043440Y-157770904D01*
X120009343Y-156805000D01*
X120020657Y-156805000D01*
X120986560Y-157770904D01*
X121277391Y-157717236D01*
X121431104Y-157453428D01*
X121530396Y-157164700D01*
X121571452Y-156862150D01*
X121552695Y-156557403D01*
X121474845Y-156262171D01*
X121340893Y-155987800D01*
X121277391Y-155892764D01*
X120986560Y-155839096D01*
X120020657Y-156805000D01*
X120009343Y-156805000D01*
X119995201Y-156790858D01*
X120000858Y-156785201D01*
X120015000Y-156799343D01*
X120980904Y-155833440D01*
X120931994Y-155568391D01*
X120978841Y-155538661D01*
X121200105Y-155327955D01*
X121376227Y-155078285D01*
X121500501Y-154799161D01*
X121568193Y-154501214D01*
X121573066Y-154152230D01*
X121566863Y-154120900D01*
X121648921Y-154120900D01*
X121902011Y-154373990D01*
X121902011Y-154373990D01*
G37*
X121902011Y-154373990D02*
X121965180Y-154425877D01*
X122027804Y-154478425D01*
X122031884Y-154480668D01*
X122035479Y-154483621D01*
X122107487Y-154522232D01*
X122179161Y-154561635D01*
X122183600Y-154563043D01*
X122187699Y-154565241D01*
X122265826Y-154589127D01*
X122343798Y-154613861D01*
X122348426Y-154614380D01*
X122352874Y-154615740D01*
X122434184Y-154623999D01*
X122515443Y-154633114D01*
X122524537Y-154633177D01*
X122524711Y-154633195D01*
X122524874Y-154633180D01*
X122527800Y-154633200D01*
X126846110Y-154633200D01*
X126815574Y-154776860D01*
X126811586Y-155062466D01*
X126863148Y-155343408D01*
X126968297Y-155608984D01*
X127123028Y-155849079D01*
X127321446Y-156054547D01*
X127555994Y-156217562D01*
X127817739Y-156331916D01*
X128096710Y-156393252D01*
X128382282Y-156399234D01*
X128663577Y-156349634D01*
X128929880Y-156246341D01*
X129171050Y-156093291D01*
X129377898Y-155896312D01*
X129542547Y-155662907D01*
X129542752Y-155662447D01*
X129663028Y-155849079D01*
X129837092Y-156029328D01*
X127747431Y-158118989D01*
X124937181Y-158118989D01*
X124855780Y-158126971D01*
X124774384Y-158134092D01*
X124769917Y-158135390D01*
X124765284Y-158135844D01*
X124687033Y-158159469D01*
X124608520Y-158182279D01*
X124604386Y-158184422D01*
X124599934Y-158185766D01*
X124527811Y-158224114D01*
X124455175Y-158261765D01*
X124451535Y-158264671D01*
X124447429Y-158266854D01*
X124384110Y-158318496D01*
X124320190Y-158369523D01*
X124313711Y-158375912D01*
X124313580Y-158376019D01*
X124313480Y-158376140D01*
X124311391Y-158378200D01*
X122334210Y-160355380D01*
X122282284Y-160418596D01*
X122229775Y-160481174D01*
X122227534Y-160485251D01*
X122224579Y-160488848D01*
X122185957Y-160560878D01*
X122146565Y-160632531D01*
X122145157Y-160636970D01*
X122142959Y-160641069D01*
X122119073Y-160719196D01*
X122094339Y-160797168D01*
X122093820Y-160801796D01*
X122092460Y-160806244D01*
X122084206Y-160887509D01*
X122075086Y-160968813D01*
X122075023Y-160977917D01*
X122075006Y-160978081D01*
X122075020Y-160978234D01*
X122075000Y-160981170D01*
X122075000Y-161479886D01*
X121997384Y-161520462D01*
X121729992Y-161735451D01*
X121691110Y-161781788D01*
X121667425Y-161752747D01*
X121403061Y-161534046D01*
X121101252Y-161370859D01*
X120773495Y-161269401D01*
X120432273Y-161233537D01*
X120090584Y-161264633D01*
X119761442Y-161361505D01*
X119457384Y-161520462D01*
X119189992Y-161735451D01*
X119151110Y-161781788D01*
X119127425Y-161752747D01*
X118863061Y-161534046D01*
X118561252Y-161370859D01*
X118233495Y-161269401D01*
X117892273Y-161233537D01*
X117550584Y-161264633D01*
X117221442Y-161361505D01*
X116917384Y-161520462D01*
X116649992Y-161735451D01*
X116611110Y-161781788D01*
X116587425Y-161752747D01*
X116323061Y-161534046D01*
X116021252Y-161370859D01*
X115693495Y-161269401D01*
X115352273Y-161233537D01*
X115026847Y-161263153D01*
X118513440Y-157776560D01*
X119049096Y-157776560D01*
X119102764Y-158067391D01*
X119366572Y-158221104D01*
X119655300Y-158320396D01*
X119957850Y-158361452D01*
X120262597Y-158342695D01*
X120557829Y-158264845D01*
X120832200Y-158130893D01*
X120927236Y-158067391D01*
X120980904Y-157776560D01*
X120015000Y-156810657D01*
X119049096Y-157776560D01*
X118513440Y-157776560D01*
X118682117Y-157607883D01*
X118689107Y-157622200D01*
X118752609Y-157717236D01*
X119043440Y-157770904D01*
X120009343Y-156805000D01*
X120020657Y-156805000D01*
X120986560Y-157770904D01*
X121277391Y-157717236D01*
X121431104Y-157453428D01*
X121530396Y-157164700D01*
X121571452Y-156862150D01*
X121552695Y-156557403D01*
X121474845Y-156262171D01*
X121340893Y-155987800D01*
X121277391Y-155892764D01*
X120986560Y-155839096D01*
X120020657Y-156805000D01*
X120009343Y-156805000D01*
X119995201Y-156790858D01*
X120000858Y-156785201D01*
X120015000Y-156799343D01*
X120980904Y-155833440D01*
X120931994Y-155568391D01*
X120978841Y-155538661D01*
X121200105Y-155327955D01*
X121376227Y-155078285D01*
X121500501Y-154799161D01*
X121568193Y-154501214D01*
X121573066Y-154152230D01*
X121566863Y-154120900D01*
X121648921Y-154120900D01*
X121902011Y-154373990D01*
G36*
X115215000Y-155821720D02*
X115215000Y-155806000D01*
X115184437Y-155503687D01*
X115095483Y-155213145D01*
X114951556Y-154945540D01*
X114758187Y-154711156D01*
X114522808Y-154519000D01*
X114254464Y-154376456D01*
X113963467Y-154289002D01*
X113911423Y-154279714D01*
X113669000Y-154447506D01*
X113669000Y-156206000D01*
X113689000Y-156206000D01*
X113689000Y-156214000D01*
X113669000Y-156214000D01*
X113669000Y-156234000D01*
X113661000Y-156234000D01*
X113661000Y-156214000D01*
X113641000Y-156214000D01*
X113641000Y-156206000D01*
X113661000Y-156206000D01*
X113661000Y-154447506D01*
X113418577Y-154279714D01*
X113366533Y-154289002D01*
X113075536Y-154376456D01*
X112807192Y-154519000D01*
X112571813Y-154711156D01*
X112403647Y-154914991D01*
X112232155Y-154704722D01*
X112635349Y-154301527D01*
X112706094Y-154289053D01*
X112899536Y-154214022D01*
X113074721Y-154102846D01*
X113224976Y-153959761D01*
X113344577Y-153790216D01*
X113428968Y-153600669D01*
X113430009Y-153596087D01*
X117440634Y-153596087D01*
X115215000Y-155821720D01*
X115215000Y-155821720D01*
G37*
X115215000Y-155821720D02*
X115215000Y-155806000D01*
X115184437Y-155503687D01*
X115095483Y-155213145D01*
X114951556Y-154945540D01*
X114758187Y-154711156D01*
X114522808Y-154519000D01*
X114254464Y-154376456D01*
X113963467Y-154289002D01*
X113911423Y-154279714D01*
X113669000Y-154447506D01*
X113669000Y-156206000D01*
X113689000Y-156206000D01*
X113689000Y-156214000D01*
X113669000Y-156214000D01*
X113669000Y-156234000D01*
X113661000Y-156234000D01*
X113661000Y-156214000D01*
X113641000Y-156214000D01*
X113641000Y-156206000D01*
X113661000Y-156206000D01*
X113661000Y-154447506D01*
X113418577Y-154279714D01*
X113366533Y-154289002D01*
X113075536Y-154376456D01*
X112807192Y-154519000D01*
X112571813Y-154711156D01*
X112403647Y-154914991D01*
X112232155Y-154704722D01*
X112635349Y-154301527D01*
X112706094Y-154289053D01*
X112899536Y-154214022D01*
X113074721Y-154102846D01*
X113224976Y-153959761D01*
X113344577Y-153790216D01*
X113428968Y-153600669D01*
X113430009Y-153596087D01*
X117440634Y-153596087D01*
X115215000Y-155821720D01*
G36*
X111349000Y-128901000D02*
X111369000Y-128901000D01*
X111369000Y-128909000D01*
X111349000Y-128909000D01*
X111349000Y-128929000D01*
X111341000Y-128929000D01*
X111341000Y-128909000D01*
X111321000Y-128909000D01*
X111321000Y-128901000D01*
X111341000Y-128901000D01*
X111341000Y-128881000D01*
X111349000Y-128881000D01*
X111349000Y-128901000D01*
X111349000Y-128901000D01*
G37*
X111349000Y-128901000D02*
X111369000Y-128901000D01*
X111369000Y-128909000D01*
X111349000Y-128909000D01*
X111349000Y-128929000D01*
X111341000Y-128929000D01*
X111341000Y-128909000D01*
X111321000Y-128909000D01*
X111321000Y-128901000D01*
X111341000Y-128901000D01*
X111341000Y-128881000D01*
X111349000Y-128881000D01*
X111349000Y-128901000D01*
G36*
X131349000Y-126901000D02*
X131369000Y-126901000D01*
X131369000Y-126909000D01*
X131349000Y-126909000D01*
X131349000Y-126929000D01*
X131341000Y-126929000D01*
X131341000Y-126909000D01*
X131321000Y-126909000D01*
X131321000Y-126901000D01*
X131341000Y-126901000D01*
X131341000Y-126881000D01*
X131349000Y-126881000D01*
X131349000Y-126901000D01*
X131349000Y-126901000D01*
G37*
X131349000Y-126901000D02*
X131369000Y-126901000D01*
X131369000Y-126909000D01*
X131349000Y-126909000D01*
X131349000Y-126929000D01*
X131341000Y-126929000D01*
X131341000Y-126909000D01*
X131321000Y-126909000D01*
X131321000Y-126901000D01*
X131341000Y-126901000D01*
X131341000Y-126881000D01*
X131349000Y-126881000D01*
X131349000Y-126901000D01*
G36*
X113034000Y-121916000D02*
X113054000Y-121916000D01*
X113054000Y-121924000D01*
X113034000Y-121924000D01*
X113034000Y-121944000D01*
X113026000Y-121944000D01*
X113026000Y-121924000D01*
X113006000Y-121924000D01*
X113006000Y-121916000D01*
X113026000Y-121916000D01*
X113026000Y-121896000D01*
X113034000Y-121896000D01*
X113034000Y-121916000D01*
X113034000Y-121916000D01*
G37*
X113034000Y-121916000D02*
X113054000Y-121916000D01*
X113054000Y-121924000D01*
X113034000Y-121924000D01*
X113034000Y-121944000D01*
X113026000Y-121944000D01*
X113026000Y-121924000D01*
X113006000Y-121924000D01*
X113006000Y-121916000D01*
X113026000Y-121916000D01*
X113026000Y-121896000D01*
X113034000Y-121896000D01*
X113034000Y-121916000D01*
G36*
X115574000Y-119376000D02*
X115594000Y-119376000D01*
X115594000Y-119384000D01*
X115574000Y-119384000D01*
X115574000Y-119404000D01*
X115566000Y-119404000D01*
X115566000Y-119384000D01*
X115546000Y-119384000D01*
X115546000Y-119376000D01*
X115566000Y-119376000D01*
X115566000Y-119356000D01*
X115574000Y-119356000D01*
X115574000Y-119376000D01*
X115574000Y-119376000D01*
G37*
X115574000Y-119376000D02*
X115594000Y-119376000D01*
X115594000Y-119384000D01*
X115574000Y-119384000D01*
X115574000Y-119404000D01*
X115566000Y-119404000D01*
X115566000Y-119384000D01*
X115546000Y-119384000D01*
X115546000Y-119376000D01*
X115566000Y-119376000D01*
X115566000Y-119356000D01*
X115574000Y-119356000D01*
X115574000Y-119376000D01*
M02*
