%TF.GenerationSoftware,KiCad,Pcbnew,(6.0.6)*%
%TF.CreationDate,2022-07-25T23:07:27+01:00*%
%TF.ProjectId,rc2014-82c55-ide,72633230-3134-42d3-9832-6335352d6964,3-pre*%
%TF.SameCoordinates,Original*%
%TF.FileFunction,Legend,Top*%
%TF.FilePolarity,Positive*%
%FSLAX46Y46*%
G04 Gerber Fmt 4.6, Leading zero omitted, Abs format (unit mm)*
G04 Created by KiCad (PCBNEW (6.0.6)) date 2022-07-25 23:07:27*
%MOMM*%
%LPD*%
G01*
G04 APERTURE LIST*
%ADD10C,0.200000*%
%ADD11C,0.300000*%
%ADD12C,0.150000*%
%ADD13C,0.120000*%
G04 APERTURE END LIST*
D10*
X67104523Y-139152380D02*
X67199761Y-139152380D01*
X67295000Y-139200000D01*
X67342619Y-139247619D01*
X67390238Y-139342857D01*
X67437857Y-139533333D01*
X67437857Y-139771428D01*
X67390238Y-139961904D01*
X67342619Y-140057142D01*
X67295000Y-140104761D01*
X67199761Y-140152380D01*
X67104523Y-140152380D01*
X67009285Y-140104761D01*
X66961666Y-140057142D01*
X66914047Y-139961904D01*
X66866428Y-139771428D01*
X66866428Y-139533333D01*
X66914047Y-139342857D01*
X66961666Y-139247619D01*
X67009285Y-139200000D01*
X67104523Y-139152380D01*
X68295000Y-139485714D02*
X68295000Y-140152380D01*
X68056904Y-139104761D02*
X67818809Y-139819047D01*
X68437857Y-139819047D01*
X69771190Y-139152380D02*
X69866428Y-139152380D01*
X69961666Y-139200000D01*
X70009285Y-139247619D01*
X70056904Y-139342857D01*
X70104523Y-139533333D01*
X70104523Y-139771428D01*
X70056904Y-139961904D01*
X70009285Y-140057142D01*
X69961666Y-140104761D01*
X69866428Y-140152380D01*
X69771190Y-140152380D01*
X69675952Y-140104761D01*
X69628333Y-140057142D01*
X69580714Y-139961904D01*
X69533095Y-139771428D01*
X69533095Y-139533333D01*
X69580714Y-139342857D01*
X69628333Y-139247619D01*
X69675952Y-139200000D01*
X69771190Y-139152380D01*
X70675952Y-139580952D02*
X70580714Y-139533333D01*
X70533095Y-139485714D01*
X70485476Y-139390476D01*
X70485476Y-139342857D01*
X70533095Y-139247619D01*
X70580714Y-139200000D01*
X70675952Y-139152380D01*
X70866428Y-139152380D01*
X70961666Y-139200000D01*
X71009285Y-139247619D01*
X71056904Y-139342857D01*
X71056904Y-139390476D01*
X71009285Y-139485714D01*
X70961666Y-139533333D01*
X70866428Y-139580952D01*
X70675952Y-139580952D01*
X70580714Y-139628571D01*
X70533095Y-139676190D01*
X70485476Y-139771428D01*
X70485476Y-139961904D01*
X70533095Y-140057142D01*
X70580714Y-140104761D01*
X70675952Y-140152380D01*
X70866428Y-140152380D01*
X70961666Y-140104761D01*
X71009285Y-140057142D01*
X71056904Y-139961904D01*
X71056904Y-139771428D01*
X71009285Y-139676190D01*
X70961666Y-139628571D01*
X70866428Y-139580952D01*
X72771190Y-140152380D02*
X72199761Y-140152380D01*
X72485476Y-140152380D02*
X72485476Y-139152380D01*
X72390238Y-139295238D01*
X72295000Y-139390476D01*
X72199761Y-139438095D01*
X73390238Y-139152380D02*
X73485476Y-139152380D01*
X73580714Y-139200000D01*
X73628333Y-139247619D01*
X73675952Y-139342857D01*
X73723571Y-139533333D01*
X73723571Y-139771428D01*
X73675952Y-139961904D01*
X73628333Y-140057142D01*
X73580714Y-140104761D01*
X73485476Y-140152380D01*
X73390238Y-140152380D01*
X73295000Y-140104761D01*
X73247380Y-140057142D01*
X73199761Y-139961904D01*
X73152142Y-139771428D01*
X73152142Y-139533333D01*
X73199761Y-139342857D01*
X73247380Y-139247619D01*
X73295000Y-139200000D01*
X73390238Y-139152380D01*
X74866428Y-139247619D02*
X74914047Y-139200000D01*
X75009285Y-139152380D01*
X75247380Y-139152380D01*
X75342619Y-139200000D01*
X75390238Y-139247619D01*
X75437857Y-139342857D01*
X75437857Y-139438095D01*
X75390238Y-139580952D01*
X74818809Y-140152380D01*
X75437857Y-140152380D01*
X76056904Y-139152380D02*
X76152142Y-139152380D01*
X76247380Y-139200000D01*
X76295000Y-139247619D01*
X76342619Y-139342857D01*
X76390238Y-139533333D01*
X76390238Y-139771428D01*
X76342619Y-139961904D01*
X76295000Y-140057142D01*
X76247380Y-140104761D01*
X76152142Y-140152380D01*
X76056904Y-140152380D01*
X75961666Y-140104761D01*
X75914047Y-140057142D01*
X75866428Y-139961904D01*
X75818809Y-139771428D01*
X75818809Y-139533333D01*
X75866428Y-139342857D01*
X75914047Y-139247619D01*
X75961666Y-139200000D01*
X76056904Y-139152380D01*
X78009285Y-139485714D02*
X78009285Y-140152380D01*
X77771190Y-139104761D02*
X77533095Y-139819047D01*
X78152142Y-139819047D01*
X78723571Y-139152380D02*
X78818809Y-139152380D01*
X78914047Y-139200000D01*
X78961666Y-139247619D01*
X79009285Y-139342857D01*
X79056904Y-139533333D01*
X79056904Y-139771428D01*
X79009285Y-139961904D01*
X78961666Y-140057142D01*
X78914047Y-140104761D01*
X78818809Y-140152380D01*
X78723571Y-140152380D01*
X78628333Y-140104761D01*
X78580714Y-140057142D01*
X78533095Y-139961904D01*
X78485476Y-139771428D01*
X78485476Y-139533333D01*
X78533095Y-139342857D01*
X78580714Y-139247619D01*
X78628333Y-139200000D01*
X78723571Y-139152380D01*
X80390238Y-139580952D02*
X80295000Y-139533333D01*
X80247380Y-139485714D01*
X80199761Y-139390476D01*
X80199761Y-139342857D01*
X80247380Y-139247619D01*
X80295000Y-139200000D01*
X80390238Y-139152380D01*
X80580714Y-139152380D01*
X80675952Y-139200000D01*
X80723571Y-139247619D01*
X80771190Y-139342857D01*
X80771190Y-139390476D01*
X80723571Y-139485714D01*
X80675952Y-139533333D01*
X80580714Y-139580952D01*
X80390238Y-139580952D01*
X80295000Y-139628571D01*
X80247380Y-139676190D01*
X80199761Y-139771428D01*
X80199761Y-139961904D01*
X80247380Y-140057142D01*
X80295000Y-140104761D01*
X80390238Y-140152380D01*
X80580714Y-140152380D01*
X80675952Y-140104761D01*
X80723571Y-140057142D01*
X80771190Y-139961904D01*
X80771190Y-139771428D01*
X80723571Y-139676190D01*
X80675952Y-139628571D01*
X80580714Y-139580952D01*
X81390238Y-139152380D02*
X81485476Y-139152380D01*
X81580714Y-139200000D01*
X81628333Y-139247619D01*
X81675952Y-139342857D01*
X81723571Y-139533333D01*
X81723571Y-139771428D01*
X81675952Y-139961904D01*
X81628333Y-140057142D01*
X81580714Y-140104761D01*
X81485476Y-140152380D01*
X81390238Y-140152380D01*
X81295000Y-140104761D01*
X81247380Y-140057142D01*
X81199761Y-139961904D01*
X81152142Y-139771428D01*
X81152142Y-139533333D01*
X81199761Y-139342857D01*
X81247380Y-139247619D01*
X81295000Y-139200000D01*
X81390238Y-139152380D01*
X147104285Y-139277714D02*
X148018571Y-139277714D01*
X147561428Y-139734857D02*
X147561428Y-138820571D01*
X149161428Y-138534857D02*
X148590000Y-138534857D01*
X148532857Y-139106285D01*
X148590000Y-139049142D01*
X148704285Y-138992000D01*
X148990000Y-138992000D01*
X149104285Y-139049142D01*
X149161428Y-139106285D01*
X149218571Y-139220571D01*
X149218571Y-139506285D01*
X149161428Y-139620571D01*
X149104285Y-139677714D01*
X148990000Y-139734857D01*
X148704285Y-139734857D01*
X148590000Y-139677714D01*
X148532857Y-139620571D01*
X149618571Y-138934857D02*
X149904285Y-139734857D01*
X150190000Y-138934857D01*
X157073714Y-138465000D02*
X156959428Y-138407857D01*
X156788000Y-138407857D01*
X156616571Y-138465000D01*
X156502285Y-138579285D01*
X156445142Y-138693571D01*
X156388000Y-138922142D01*
X156388000Y-139093571D01*
X156445142Y-139322142D01*
X156502285Y-139436428D01*
X156616571Y-139550714D01*
X156788000Y-139607857D01*
X156902285Y-139607857D01*
X157073714Y-139550714D01*
X157130857Y-139493571D01*
X157130857Y-139093571D01*
X156902285Y-139093571D01*
X157645142Y-139607857D02*
X157645142Y-138407857D01*
X158330857Y-139607857D01*
X158330857Y-138407857D01*
X158902285Y-139607857D02*
X158902285Y-138407857D01*
X159188000Y-138407857D01*
X159359428Y-138465000D01*
X159473714Y-138579285D01*
X159530857Y-138693571D01*
X159588000Y-138922142D01*
X159588000Y-139093571D01*
X159530857Y-139322142D01*
X159473714Y-139436428D01*
X159359428Y-139550714D01*
X159188000Y-139607857D01*
X158902285Y-139607857D01*
X146835028Y-154232057D02*
X146835028Y-155203485D01*
X146892171Y-155317771D01*
X146949314Y-155374914D01*
X147063600Y-155432057D01*
X147292171Y-155432057D01*
X147406457Y-155374914D01*
X147463600Y-155317771D01*
X147520742Y-155203485D01*
X147520742Y-154232057D01*
X148035028Y-155374914D02*
X148149314Y-155432057D01*
X148377885Y-155432057D01*
X148492171Y-155374914D01*
X148549314Y-155260628D01*
X148549314Y-155203485D01*
X148492171Y-155089200D01*
X148377885Y-155032057D01*
X148206457Y-155032057D01*
X148092171Y-154974914D01*
X148035028Y-154860628D01*
X148035028Y-154803485D01*
X148092171Y-154689200D01*
X148206457Y-154632057D01*
X148377885Y-154632057D01*
X148492171Y-154689200D01*
X149520742Y-155374914D02*
X149406457Y-155432057D01*
X149177885Y-155432057D01*
X149063600Y-155374914D01*
X149006457Y-155260628D01*
X149006457Y-154803485D01*
X149063600Y-154689200D01*
X149177885Y-154632057D01*
X149406457Y-154632057D01*
X149520742Y-154689200D01*
X149577885Y-154803485D01*
X149577885Y-154917771D01*
X149006457Y-155032057D01*
X151006457Y-155432057D02*
X151006457Y-154232057D01*
X151006457Y-154689200D02*
X151120742Y-154632057D01*
X151349314Y-154632057D01*
X151463600Y-154689200D01*
X151520742Y-154746342D01*
X151577885Y-154860628D01*
X151577885Y-155203485D01*
X151520742Y-155317771D01*
X151463600Y-155374914D01*
X151349314Y-155432057D01*
X151120742Y-155432057D01*
X151006457Y-155374914D01*
X152606457Y-154632057D02*
X152606457Y-155432057D01*
X152092171Y-154632057D02*
X152092171Y-155260628D01*
X152149314Y-155374914D01*
X152263600Y-155432057D01*
X152435028Y-155432057D01*
X152549314Y-155374914D01*
X152606457Y-155317771D01*
X153120742Y-155374914D02*
X153235028Y-155432057D01*
X153463600Y-155432057D01*
X153577885Y-155374914D01*
X153635028Y-155260628D01*
X153635028Y-155203485D01*
X153577885Y-155089200D01*
X153463600Y-155032057D01*
X153292171Y-155032057D01*
X153177885Y-154974914D01*
X153120742Y-154860628D01*
X153120742Y-154803485D01*
X153177885Y-154689200D01*
X153292171Y-154632057D01*
X153463600Y-154632057D01*
X153577885Y-154689200D01*
X155063600Y-154632057D02*
X155063600Y-155832057D01*
X155063600Y-154689200D02*
X155177885Y-154632057D01*
X155406457Y-154632057D01*
X155520742Y-154689200D01*
X155577885Y-154746342D01*
X155635028Y-154860628D01*
X155635028Y-155203485D01*
X155577885Y-155317771D01*
X155520742Y-155374914D01*
X155406457Y-155432057D01*
X155177885Y-155432057D01*
X155063600Y-155374914D01*
X156320742Y-155432057D02*
X156206457Y-155374914D01*
X156149314Y-155317771D01*
X156092171Y-155203485D01*
X156092171Y-154860628D01*
X156149314Y-154746342D01*
X156206457Y-154689200D01*
X156320742Y-154632057D01*
X156492171Y-154632057D01*
X156606457Y-154689200D01*
X156663600Y-154746342D01*
X156720742Y-154860628D01*
X156720742Y-155203485D01*
X156663600Y-155317771D01*
X156606457Y-155374914D01*
X156492171Y-155432057D01*
X156320742Y-155432057D01*
X157120742Y-154632057D02*
X157349314Y-155432057D01*
X157577885Y-154860628D01*
X157806457Y-155432057D01*
X158035028Y-154632057D01*
X158949314Y-155374914D02*
X158835028Y-155432057D01*
X158606457Y-155432057D01*
X158492171Y-155374914D01*
X158435028Y-155260628D01*
X158435028Y-154803485D01*
X158492171Y-154689200D01*
X158606457Y-154632057D01*
X158835028Y-154632057D01*
X158949314Y-154689200D01*
X159006457Y-154803485D01*
X159006457Y-154917771D01*
X158435028Y-155032057D01*
X159520742Y-155432057D02*
X159520742Y-154632057D01*
X159520742Y-154860628D02*
X159577885Y-154746342D01*
X159635028Y-154689200D01*
X159749314Y-154632057D01*
X159863600Y-154632057D01*
D11*
X65100000Y-160698571D02*
X64600000Y-159984285D01*
X64242857Y-160698571D02*
X64242857Y-159198571D01*
X64814285Y-159198571D01*
X64957142Y-159270000D01*
X65028571Y-159341428D01*
X65100000Y-159484285D01*
X65100000Y-159698571D01*
X65028571Y-159841428D01*
X64957142Y-159912857D01*
X64814285Y-159984285D01*
X64242857Y-159984285D01*
X66314285Y-160627142D02*
X66171428Y-160698571D01*
X65885714Y-160698571D01*
X65742857Y-160627142D01*
X65671428Y-160484285D01*
X65671428Y-159912857D01*
X65742857Y-159770000D01*
X65885714Y-159698571D01*
X66171428Y-159698571D01*
X66314285Y-159770000D01*
X66385714Y-159912857D01*
X66385714Y-160055714D01*
X65671428Y-160198571D01*
X66885714Y-159698571D02*
X67242857Y-160698571D01*
X67600000Y-159698571D01*
X69171428Y-159198571D02*
X70100000Y-159198571D01*
X69600000Y-159770000D01*
X69814285Y-159770000D01*
X69957142Y-159841428D01*
X70028571Y-159912857D01*
X70100000Y-160055714D01*
X70100000Y-160412857D01*
X70028571Y-160555714D01*
X69957142Y-160627142D01*
X69814285Y-160698571D01*
X69385714Y-160698571D01*
X69242857Y-160627142D01*
X69171428Y-160555714D01*
X70742857Y-160127142D02*
X71885714Y-160127142D01*
X72600000Y-159698571D02*
X72600000Y-161198571D01*
X72600000Y-159770000D02*
X72742857Y-159698571D01*
X73028571Y-159698571D01*
X73171428Y-159770000D01*
X73242857Y-159841428D01*
X73314285Y-159984285D01*
X73314285Y-160412857D01*
X73242857Y-160555714D01*
X73171428Y-160627142D01*
X73028571Y-160698571D01*
X72742857Y-160698571D01*
X72600000Y-160627142D01*
X73957142Y-160698571D02*
X73957142Y-159698571D01*
X73957142Y-159984285D02*
X74028571Y-159841428D01*
X74100000Y-159770000D01*
X74242857Y-159698571D01*
X74385714Y-159698571D01*
X75457142Y-160627142D02*
X75314285Y-160698571D01*
X75028571Y-160698571D01*
X74885714Y-160627142D01*
X74814285Y-160484285D01*
X74814285Y-159912857D01*
X74885714Y-159770000D01*
X75028571Y-159698571D01*
X75314285Y-159698571D01*
X75457142Y-159770000D01*
X75528571Y-159912857D01*
X75528571Y-160055714D01*
X74814285Y-160198571D01*
D10*
X114224285Y-140642857D02*
X114510000Y-140642857D01*
X114510000Y-138928571D01*
X114224285Y-138928571D01*
X116052857Y-140242857D02*
X116052857Y-139042857D01*
X116338571Y-139042857D01*
X116510000Y-139100000D01*
X116624285Y-139214285D01*
X116681428Y-139328571D01*
X116738571Y-139557142D01*
X116738571Y-139728571D01*
X116681428Y-139957142D01*
X116624285Y-140071428D01*
X116510000Y-140185714D01*
X116338571Y-140242857D01*
X116052857Y-140242857D01*
X117710000Y-140185714D02*
X117595714Y-140242857D01*
X117367142Y-140242857D01*
X117252857Y-140185714D01*
X117195714Y-140071428D01*
X117195714Y-139614285D01*
X117252857Y-139500000D01*
X117367142Y-139442857D01*
X117595714Y-139442857D01*
X117710000Y-139500000D01*
X117767142Y-139614285D01*
X117767142Y-139728571D01*
X117195714Y-139842857D01*
X118110000Y-139442857D02*
X118567142Y-139442857D01*
X118281428Y-140242857D02*
X118281428Y-139214285D01*
X118338571Y-139100000D01*
X118452857Y-139042857D01*
X118567142Y-139042857D01*
X119481428Y-140242857D02*
X119481428Y-139614285D01*
X119424285Y-139500000D01*
X119310000Y-139442857D01*
X119081428Y-139442857D01*
X118967142Y-139500000D01*
X119481428Y-140185714D02*
X119367142Y-140242857D01*
X119081428Y-140242857D01*
X118967142Y-140185714D01*
X118910000Y-140071428D01*
X118910000Y-139957142D01*
X118967142Y-139842857D01*
X119081428Y-139785714D01*
X119367142Y-139785714D01*
X119481428Y-139728571D01*
X120567142Y-139442857D02*
X120567142Y-140242857D01*
X120052857Y-139442857D02*
X120052857Y-140071428D01*
X120110000Y-140185714D01*
X120224285Y-140242857D01*
X120395714Y-140242857D01*
X120510000Y-140185714D01*
X120567142Y-140128571D01*
X121310000Y-140242857D02*
X121195714Y-140185714D01*
X121138571Y-140071428D01*
X121138571Y-139042857D01*
X121595714Y-139442857D02*
X122052857Y-139442857D01*
X121767142Y-139042857D02*
X121767142Y-140071428D01*
X121824285Y-140185714D01*
X121938571Y-140242857D01*
X122052857Y-140242857D01*
D11*
X111191428Y-159698571D02*
X111191428Y-160912857D01*
X111120000Y-161055714D01*
X111048571Y-161127142D01*
X110905714Y-161198571D01*
X110691428Y-161198571D01*
X110548571Y-161127142D01*
X111191428Y-160627142D02*
X111048571Y-160698571D01*
X110762857Y-160698571D01*
X110620000Y-160627142D01*
X110548571Y-160555714D01*
X110477142Y-160412857D01*
X110477142Y-159984285D01*
X110548571Y-159841428D01*
X110620000Y-159770000D01*
X110762857Y-159698571D01*
X111048571Y-159698571D01*
X111191428Y-159770000D01*
X111905714Y-160698571D02*
X111905714Y-159698571D01*
X111905714Y-159198571D02*
X111834285Y-159270000D01*
X111905714Y-159341428D01*
X111977142Y-159270000D01*
X111905714Y-159198571D01*
X111905714Y-159341428D01*
X112405714Y-159698571D02*
X112977142Y-159698571D01*
X112620000Y-159198571D02*
X112620000Y-160484285D01*
X112691428Y-160627142D01*
X112834285Y-160698571D01*
X112977142Y-160698571D01*
X113477142Y-160698571D02*
X113477142Y-159198571D01*
X114120000Y-160698571D02*
X114120000Y-159912857D01*
X114048571Y-159770000D01*
X113905714Y-159698571D01*
X113691428Y-159698571D01*
X113548571Y-159770000D01*
X113477142Y-159841428D01*
X115477142Y-159698571D02*
X115477142Y-160698571D01*
X114834285Y-159698571D02*
X114834285Y-160484285D01*
X114905714Y-160627142D01*
X115048571Y-160698571D01*
X115262857Y-160698571D01*
X115405714Y-160627142D01*
X115477142Y-160555714D01*
X116191428Y-160698571D02*
X116191428Y-159198571D01*
X116191428Y-159770000D02*
X116334285Y-159698571D01*
X116620000Y-159698571D01*
X116762857Y-159770000D01*
X116834285Y-159841428D01*
X116905714Y-159984285D01*
X116905714Y-160412857D01*
X116834285Y-160555714D01*
X116762857Y-160627142D01*
X116620000Y-160698571D01*
X116334285Y-160698571D01*
X116191428Y-160627142D01*
X117548571Y-160555714D02*
X117620000Y-160627142D01*
X117548571Y-160698571D01*
X117477142Y-160627142D01*
X117548571Y-160555714D01*
X117548571Y-160698571D01*
X118905714Y-160627142D02*
X118762857Y-160698571D01*
X118477142Y-160698571D01*
X118334285Y-160627142D01*
X118262857Y-160555714D01*
X118191428Y-160412857D01*
X118191428Y-159984285D01*
X118262857Y-159841428D01*
X118334285Y-159770000D01*
X118477142Y-159698571D01*
X118762857Y-159698571D01*
X118905714Y-159770000D01*
X119762857Y-160698571D02*
X119620000Y-160627142D01*
X119548571Y-160555714D01*
X119477142Y-160412857D01*
X119477142Y-159984285D01*
X119548571Y-159841428D01*
X119620000Y-159770000D01*
X119762857Y-159698571D01*
X119977142Y-159698571D01*
X120120000Y-159770000D01*
X120191428Y-159841428D01*
X120262857Y-159984285D01*
X120262857Y-160412857D01*
X120191428Y-160555714D01*
X120120000Y-160627142D01*
X119977142Y-160698571D01*
X119762857Y-160698571D01*
X120905714Y-160698571D02*
X120905714Y-159698571D01*
X120905714Y-159841428D02*
X120977142Y-159770000D01*
X121120000Y-159698571D01*
X121334285Y-159698571D01*
X121477142Y-159770000D01*
X121548571Y-159912857D01*
X121548571Y-160698571D01*
X121548571Y-159912857D02*
X121620000Y-159770000D01*
X121762857Y-159698571D01*
X121977142Y-159698571D01*
X122120000Y-159770000D01*
X122191428Y-159912857D01*
X122191428Y-160698571D01*
X123977142Y-159127142D02*
X122691428Y-161055714D01*
X125048571Y-160627142D02*
X124905714Y-160698571D01*
X124620000Y-160698571D01*
X124477142Y-160627142D01*
X124405714Y-160484285D01*
X124405714Y-159912857D01*
X124477142Y-159770000D01*
X124620000Y-159698571D01*
X124905714Y-159698571D01*
X125048571Y-159770000D01*
X125120000Y-159912857D01*
X125120000Y-160055714D01*
X124405714Y-160198571D01*
X125977142Y-160698571D02*
X125834285Y-160627142D01*
X125762857Y-160484285D01*
X125762857Y-159198571D01*
X127120000Y-160627142D02*
X126977142Y-160698571D01*
X126691428Y-160698571D01*
X126548571Y-160627142D01*
X126477142Y-160484285D01*
X126477142Y-159912857D01*
X126548571Y-159770000D01*
X126691428Y-159698571D01*
X126977142Y-159698571D01*
X127120000Y-159770000D01*
X127191428Y-159912857D01*
X127191428Y-160055714D01*
X126477142Y-160198571D01*
X128477142Y-160627142D02*
X128334285Y-160698571D01*
X128048571Y-160698571D01*
X127905714Y-160627142D01*
X127834285Y-160555714D01*
X127762857Y-160412857D01*
X127762857Y-159984285D01*
X127834285Y-159841428D01*
X127905714Y-159770000D01*
X128048571Y-159698571D01*
X128334285Y-159698571D01*
X128477142Y-159770000D01*
X128905714Y-159698571D02*
X129477142Y-159698571D01*
X129120000Y-159198571D02*
X129120000Y-160484285D01*
X129191428Y-160627142D01*
X129334285Y-160698571D01*
X129477142Y-160698571D01*
X129977142Y-160698571D02*
X129977142Y-159698571D01*
X129977142Y-159984285D02*
X130048571Y-159841428D01*
X130120000Y-159770000D01*
X130262857Y-159698571D01*
X130405714Y-159698571D01*
X130905714Y-160698571D02*
X130905714Y-159698571D01*
X130905714Y-159198571D02*
X130834285Y-159270000D01*
X130905714Y-159341428D01*
X130977142Y-159270000D01*
X130905714Y-159198571D01*
X130905714Y-159341428D01*
X131405714Y-159698571D02*
X131977142Y-159698571D01*
X131620000Y-160698571D02*
X131620000Y-159412857D01*
X131691428Y-159270000D01*
X131834285Y-159198571D01*
X131977142Y-159198571D01*
X132477142Y-160698571D02*
X132477142Y-159698571D01*
X132477142Y-159198571D02*
X132405714Y-159270000D01*
X132477142Y-159341428D01*
X132548571Y-159270000D01*
X132477142Y-159198571D01*
X132477142Y-159341428D01*
X133762857Y-160627142D02*
X133620000Y-160698571D01*
X133334285Y-160698571D01*
X133191428Y-160627142D01*
X133120000Y-160484285D01*
X133120000Y-159912857D01*
X133191428Y-159770000D01*
X133334285Y-159698571D01*
X133620000Y-159698571D01*
X133762857Y-159770000D01*
X133834285Y-159912857D01*
X133834285Y-160055714D01*
X133120000Y-160198571D01*
X135120000Y-160698571D02*
X135120000Y-159198571D01*
X135120000Y-160627142D02*
X134977142Y-160698571D01*
X134691428Y-160698571D01*
X134548571Y-160627142D01*
X134477142Y-160555714D01*
X134405714Y-160412857D01*
X134405714Y-159984285D01*
X134477142Y-159841428D01*
X134548571Y-159770000D01*
X134691428Y-159698571D01*
X134977142Y-159698571D01*
X135120000Y-159770000D01*
X136905714Y-159127142D02*
X135620000Y-161055714D01*
X137405714Y-160698571D02*
X137405714Y-159698571D01*
X137405714Y-159984285D02*
X137477142Y-159841428D01*
X137548571Y-159770000D01*
X137691428Y-159698571D01*
X137834285Y-159698571D01*
X138977142Y-160627142D02*
X138834285Y-160698571D01*
X138548571Y-160698571D01*
X138405714Y-160627142D01*
X138334285Y-160555714D01*
X138262857Y-160412857D01*
X138262857Y-159984285D01*
X138334285Y-159841428D01*
X138405714Y-159770000D01*
X138548571Y-159698571D01*
X138834285Y-159698571D01*
X138977142Y-159770000D01*
X139548571Y-159341428D02*
X139620000Y-159270000D01*
X139762857Y-159198571D01*
X140120000Y-159198571D01*
X140262857Y-159270000D01*
X140334285Y-159341428D01*
X140405714Y-159484285D01*
X140405714Y-159627142D01*
X140334285Y-159841428D01*
X139477142Y-160698571D01*
X140405714Y-160698571D01*
X141334285Y-159198571D02*
X141477142Y-159198571D01*
X141620000Y-159270000D01*
X141691428Y-159341428D01*
X141762857Y-159484285D01*
X141834285Y-159770000D01*
X141834285Y-160127142D01*
X141762857Y-160412857D01*
X141691428Y-160555714D01*
X141620000Y-160627142D01*
X141477142Y-160698571D01*
X141334285Y-160698571D01*
X141191428Y-160627142D01*
X141120000Y-160555714D01*
X141048571Y-160412857D01*
X140977142Y-160127142D01*
X140977142Y-159770000D01*
X141048571Y-159484285D01*
X141120000Y-159341428D01*
X141191428Y-159270000D01*
X141334285Y-159198571D01*
X143262857Y-160698571D02*
X142405714Y-160698571D01*
X142834285Y-160698571D02*
X142834285Y-159198571D01*
X142691428Y-159412857D01*
X142548571Y-159555714D01*
X142405714Y-159627142D01*
X144548571Y-159698571D02*
X144548571Y-160698571D01*
X144191428Y-159127142D02*
X143834285Y-160198571D01*
X144762857Y-160198571D01*
X145334285Y-160127142D02*
X146477142Y-160127142D01*
X147405714Y-159841428D02*
X147262857Y-159770000D01*
X147191428Y-159698571D01*
X147120000Y-159555714D01*
X147120000Y-159484285D01*
X147191428Y-159341428D01*
X147262857Y-159270000D01*
X147405714Y-159198571D01*
X147691428Y-159198571D01*
X147834285Y-159270000D01*
X147905714Y-159341428D01*
X147977142Y-159484285D01*
X147977142Y-159555714D01*
X147905714Y-159698571D01*
X147834285Y-159770000D01*
X147691428Y-159841428D01*
X147405714Y-159841428D01*
X147262857Y-159912857D01*
X147191428Y-159984285D01*
X147120000Y-160127142D01*
X147120000Y-160412857D01*
X147191428Y-160555714D01*
X147262857Y-160627142D01*
X147405714Y-160698571D01*
X147691428Y-160698571D01*
X147834285Y-160627142D01*
X147905714Y-160555714D01*
X147977142Y-160412857D01*
X147977142Y-160127142D01*
X147905714Y-159984285D01*
X147834285Y-159912857D01*
X147691428Y-159841428D01*
X148548571Y-159341428D02*
X148620000Y-159270000D01*
X148762857Y-159198571D01*
X149120000Y-159198571D01*
X149262857Y-159270000D01*
X149334285Y-159341428D01*
X149405714Y-159484285D01*
X149405714Y-159627142D01*
X149334285Y-159841428D01*
X148477142Y-160698571D01*
X149405714Y-160698571D01*
X150691428Y-160627142D02*
X150548571Y-160698571D01*
X150262857Y-160698571D01*
X150120000Y-160627142D01*
X150048571Y-160555714D01*
X149977142Y-160412857D01*
X149977142Y-159984285D01*
X150048571Y-159841428D01*
X150120000Y-159770000D01*
X150262857Y-159698571D01*
X150548571Y-159698571D01*
X150691428Y-159770000D01*
X152048571Y-159198571D02*
X151334285Y-159198571D01*
X151262857Y-159912857D01*
X151334285Y-159841428D01*
X151477142Y-159770000D01*
X151834285Y-159770000D01*
X151977142Y-159841428D01*
X152048571Y-159912857D01*
X152120000Y-160055714D01*
X152120000Y-160412857D01*
X152048571Y-160555714D01*
X151977142Y-160627142D01*
X151834285Y-160698571D01*
X151477142Y-160698571D01*
X151334285Y-160627142D01*
X151262857Y-160555714D01*
X153477142Y-159198571D02*
X152762857Y-159198571D01*
X152691428Y-159912857D01*
X152762857Y-159841428D01*
X152905714Y-159770000D01*
X153262857Y-159770000D01*
X153405714Y-159841428D01*
X153477142Y-159912857D01*
X153548571Y-160055714D01*
X153548571Y-160412857D01*
X153477142Y-160555714D01*
X153405714Y-160627142D01*
X153262857Y-160698571D01*
X152905714Y-160698571D01*
X152762857Y-160627142D01*
X152691428Y-160555714D01*
X154191428Y-160127142D02*
X155334285Y-160127142D01*
X156048571Y-160698571D02*
X156048571Y-159698571D01*
X156048571Y-159198571D02*
X155977142Y-159270000D01*
X156048571Y-159341428D01*
X156120000Y-159270000D01*
X156048571Y-159198571D01*
X156048571Y-159341428D01*
X157405714Y-160698571D02*
X157405714Y-159198571D01*
X157405714Y-160627142D02*
X157262857Y-160698571D01*
X156977142Y-160698571D01*
X156834285Y-160627142D01*
X156762857Y-160555714D01*
X156691428Y-160412857D01*
X156691428Y-159984285D01*
X156762857Y-159841428D01*
X156834285Y-159770000D01*
X156977142Y-159698571D01*
X157262857Y-159698571D01*
X157405714Y-159770000D01*
X158691428Y-160627142D02*
X158548571Y-160698571D01*
X158262857Y-160698571D01*
X158120000Y-160627142D01*
X158048571Y-160484285D01*
X158048571Y-159912857D01*
X158120000Y-159770000D01*
X158262857Y-159698571D01*
X158548571Y-159698571D01*
X158691428Y-159770000D01*
X158762857Y-159912857D01*
X158762857Y-160055714D01*
X158048571Y-160198571D01*
D10*
X67279142Y-127166666D02*
X67755333Y-127166666D01*
X67183904Y-127452380D02*
X67517238Y-126452380D01*
X67850571Y-127452380D01*
X68136285Y-126547619D02*
X68183904Y-126500000D01*
X68279142Y-126452380D01*
X68517238Y-126452380D01*
X68612476Y-126500000D01*
X68660095Y-126547619D01*
X68707714Y-126642857D01*
X68707714Y-126738095D01*
X68660095Y-126880952D01*
X68088666Y-127452380D01*
X68707714Y-127452380D01*
X69850571Y-127166666D02*
X70326761Y-127166666D01*
X69755333Y-127452380D02*
X70088666Y-126452380D01*
X70422000Y-127452380D01*
X70660095Y-126452380D02*
X71279142Y-126452380D01*
X70945809Y-126833333D01*
X71088666Y-126833333D01*
X71183904Y-126880952D01*
X71231523Y-126928571D01*
X71279142Y-127023809D01*
X71279142Y-127261904D01*
X71231523Y-127357142D01*
X71183904Y-127404761D01*
X71088666Y-127452380D01*
X70802952Y-127452380D01*
X70707714Y-127404761D01*
X70660095Y-127357142D01*
X72422000Y-127166666D02*
X72898190Y-127166666D01*
X72326761Y-127452380D02*
X72660095Y-126452380D01*
X72993428Y-127452380D01*
X73755333Y-126785714D02*
X73755333Y-127452380D01*
X73517238Y-126404761D02*
X73279142Y-127119047D01*
X73898190Y-127119047D01*
X74993428Y-127166666D02*
X75469619Y-127166666D01*
X74898190Y-127452380D02*
X75231523Y-126452380D01*
X75564857Y-127452380D01*
X76374380Y-126452380D02*
X75898190Y-126452380D01*
X75850571Y-126928571D01*
X75898190Y-126880952D01*
X75993428Y-126833333D01*
X76231523Y-126833333D01*
X76326761Y-126880952D01*
X76374380Y-126928571D01*
X76422000Y-127023809D01*
X76422000Y-127261904D01*
X76374380Y-127357142D01*
X76326761Y-127404761D01*
X76231523Y-127452380D01*
X75993428Y-127452380D01*
X75898190Y-127404761D01*
X75850571Y-127357142D01*
X77564857Y-127166666D02*
X78041047Y-127166666D01*
X77469619Y-127452380D02*
X77802952Y-126452380D01*
X78136285Y-127452380D01*
X78898190Y-126452380D02*
X78707714Y-126452380D01*
X78612476Y-126500000D01*
X78564857Y-126547619D01*
X78469619Y-126690476D01*
X78422000Y-126880952D01*
X78422000Y-127261904D01*
X78469619Y-127357142D01*
X78517238Y-127404761D01*
X78612476Y-127452380D01*
X78802952Y-127452380D01*
X78898190Y-127404761D01*
X78945809Y-127357142D01*
X78993428Y-127261904D01*
X78993428Y-127023809D01*
X78945809Y-126928571D01*
X78898190Y-126880952D01*
X78802952Y-126833333D01*
X78612476Y-126833333D01*
X78517238Y-126880952D01*
X78469619Y-126928571D01*
X78422000Y-127023809D01*
X80136285Y-127166666D02*
X80612476Y-127166666D01*
X80041047Y-127452380D02*
X80374380Y-126452380D01*
X80707714Y-127452380D01*
X80945809Y-126452380D02*
X81612476Y-126452380D01*
X81183904Y-127452380D01*
X149282571Y-143728285D02*
X149682571Y-143728285D01*
X149854000Y-144356857D02*
X149282571Y-144356857D01*
X149282571Y-143156857D01*
X149854000Y-143156857D01*
X150254000Y-144356857D02*
X150882571Y-143556857D01*
X150254000Y-143556857D02*
X150882571Y-144356857D01*
X151168285Y-143556857D02*
X151625428Y-143556857D01*
X151339714Y-143156857D02*
X151339714Y-144185428D01*
X151396857Y-144299714D01*
X151511142Y-144356857D01*
X151625428Y-144356857D01*
X152482571Y-144299714D02*
X152368285Y-144356857D01*
X152139714Y-144356857D01*
X152025428Y-144299714D01*
X151968285Y-144185428D01*
X151968285Y-143728285D01*
X152025428Y-143614000D01*
X152139714Y-143556857D01*
X152368285Y-143556857D01*
X152482571Y-143614000D01*
X152539714Y-143728285D01*
X152539714Y-143842571D01*
X151968285Y-143956857D01*
X153054000Y-144356857D02*
X153054000Y-143556857D01*
X153054000Y-143785428D02*
X153111142Y-143671142D01*
X153168285Y-143614000D01*
X153282571Y-143556857D01*
X153396857Y-143556857D01*
X153796857Y-143556857D02*
X153796857Y-144356857D01*
X153796857Y-143671142D02*
X153854000Y-143614000D01*
X153968285Y-143556857D01*
X154139714Y-143556857D01*
X154254000Y-143614000D01*
X154311142Y-143728285D01*
X154311142Y-144356857D01*
X155396857Y-144356857D02*
X155396857Y-143728285D01*
X155339714Y-143614000D01*
X155225428Y-143556857D01*
X154996857Y-143556857D01*
X154882571Y-143614000D01*
X155396857Y-144299714D02*
X155282571Y-144356857D01*
X154996857Y-144356857D01*
X154882571Y-144299714D01*
X154825428Y-144185428D01*
X154825428Y-144071142D01*
X154882571Y-143956857D01*
X154996857Y-143899714D01*
X155282571Y-143899714D01*
X155396857Y-143842571D01*
X156139714Y-144356857D02*
X156025428Y-144299714D01*
X155968285Y-144185428D01*
X155968285Y-143156857D01*
X150282571Y-146288857D02*
X150282571Y-145088857D01*
X150739714Y-145088857D01*
X150854000Y-145146000D01*
X150911142Y-145203142D01*
X150968285Y-145317428D01*
X150968285Y-145488857D01*
X150911142Y-145603142D01*
X150854000Y-145660285D01*
X150739714Y-145717428D01*
X150282571Y-145717428D01*
X151654000Y-146288857D02*
X151539714Y-146231714D01*
X151482571Y-146174571D01*
X151425428Y-146060285D01*
X151425428Y-145717428D01*
X151482571Y-145603142D01*
X151539714Y-145546000D01*
X151654000Y-145488857D01*
X151825428Y-145488857D01*
X151939714Y-145546000D01*
X151996857Y-145603142D01*
X152054000Y-145717428D01*
X152054000Y-146060285D01*
X151996857Y-146174571D01*
X151939714Y-146231714D01*
X151825428Y-146288857D01*
X151654000Y-146288857D01*
X152454000Y-145488857D02*
X152682571Y-146288857D01*
X152911142Y-145717428D01*
X153139714Y-146288857D01*
X153368285Y-145488857D01*
X154282571Y-146231714D02*
X154168285Y-146288857D01*
X153939714Y-146288857D01*
X153825428Y-146231714D01*
X153768285Y-146117428D01*
X153768285Y-145660285D01*
X153825428Y-145546000D01*
X153939714Y-145488857D01*
X154168285Y-145488857D01*
X154282571Y-145546000D01*
X154339714Y-145660285D01*
X154339714Y-145774571D01*
X153768285Y-145888857D01*
X154854000Y-146288857D02*
X154854000Y-145488857D01*
X154854000Y-145717428D02*
X154911142Y-145603142D01*
X154968285Y-145546000D01*
X155082571Y-145488857D01*
X155196857Y-145488857D01*
D11*
X76105142Y-120629071D02*
X75605142Y-119914785D01*
X75248000Y-120629071D02*
X75248000Y-119129071D01*
X75819428Y-119129071D01*
X75962285Y-119200500D01*
X76033714Y-119271928D01*
X76105142Y-119414785D01*
X76105142Y-119629071D01*
X76033714Y-119771928D01*
X75962285Y-119843357D01*
X75819428Y-119914785D01*
X75248000Y-119914785D01*
X77605142Y-120486214D02*
X77533714Y-120557642D01*
X77319428Y-120629071D01*
X77176571Y-120629071D01*
X76962285Y-120557642D01*
X76819428Y-120414785D01*
X76748000Y-120271928D01*
X76676571Y-119986214D01*
X76676571Y-119771928D01*
X76748000Y-119486214D01*
X76819428Y-119343357D01*
X76962285Y-119200500D01*
X77176571Y-119129071D01*
X77319428Y-119129071D01*
X77533714Y-119200500D01*
X77605142Y-119271928D01*
X78176571Y-119271928D02*
X78248000Y-119200500D01*
X78390857Y-119129071D01*
X78748000Y-119129071D01*
X78890857Y-119200500D01*
X78962285Y-119271928D01*
X79033714Y-119414785D01*
X79033714Y-119557642D01*
X78962285Y-119771928D01*
X78105142Y-120629071D01*
X79033714Y-120629071D01*
X79962285Y-119129071D02*
X80105142Y-119129071D01*
X80248000Y-119200500D01*
X80319428Y-119271928D01*
X80390857Y-119414785D01*
X80462285Y-119700500D01*
X80462285Y-120057642D01*
X80390857Y-120343357D01*
X80319428Y-120486214D01*
X80248000Y-120557642D01*
X80105142Y-120629071D01*
X79962285Y-120629071D01*
X79819428Y-120557642D01*
X79748000Y-120486214D01*
X79676571Y-120343357D01*
X79605142Y-120057642D01*
X79605142Y-119700500D01*
X79676571Y-119414785D01*
X79748000Y-119271928D01*
X79819428Y-119200500D01*
X79962285Y-119129071D01*
X81890857Y-120629071D02*
X81033714Y-120629071D01*
X81462285Y-120629071D02*
X81462285Y-119129071D01*
X81319428Y-119343357D01*
X81176571Y-119486214D01*
X81033714Y-119557642D01*
X83176571Y-119629071D02*
X83176571Y-120629071D01*
X82819428Y-119057642D02*
X82462285Y-120129071D01*
X83390857Y-120129071D01*
X72998000Y-123044071D02*
X72998000Y-121544071D01*
X73712285Y-123044071D02*
X73712285Y-121544071D01*
X74069428Y-121544071D01*
X74283714Y-121615500D01*
X74426571Y-121758357D01*
X74498000Y-121901214D01*
X74569428Y-122186928D01*
X74569428Y-122401214D01*
X74498000Y-122686928D01*
X74426571Y-122829785D01*
X74283714Y-122972642D01*
X74069428Y-123044071D01*
X73712285Y-123044071D01*
X75212285Y-122258357D02*
X75712285Y-122258357D01*
X75926571Y-123044071D02*
X75212285Y-123044071D01*
X75212285Y-121544071D01*
X75926571Y-121544071D01*
X78355142Y-123044071D02*
X78355142Y-122258357D01*
X78283714Y-122115500D01*
X78140857Y-122044071D01*
X77855142Y-122044071D01*
X77712285Y-122115500D01*
X78355142Y-122972642D02*
X78212285Y-123044071D01*
X77855142Y-123044071D01*
X77712285Y-122972642D01*
X77640857Y-122829785D01*
X77640857Y-122686928D01*
X77712285Y-122544071D01*
X77855142Y-122472642D01*
X78212285Y-122472642D01*
X78355142Y-122401214D01*
X79712285Y-123044071D02*
X79712285Y-121544071D01*
X79712285Y-122972642D02*
X79569428Y-123044071D01*
X79283714Y-123044071D01*
X79140857Y-122972642D01*
X79069428Y-122901214D01*
X78998000Y-122758357D01*
X78998000Y-122329785D01*
X79069428Y-122186928D01*
X79140857Y-122115500D01*
X79283714Y-122044071D01*
X79569428Y-122044071D01*
X79712285Y-122115500D01*
X81069428Y-123044071D02*
X81069428Y-122258357D01*
X80998000Y-122115500D01*
X80855142Y-122044071D01*
X80569428Y-122044071D01*
X80426571Y-122115500D01*
X81069428Y-122972642D02*
X80926571Y-123044071D01*
X80569428Y-123044071D01*
X80426571Y-122972642D01*
X80355142Y-122829785D01*
X80355142Y-122686928D01*
X80426571Y-122544071D01*
X80569428Y-122472642D01*
X80926571Y-122472642D01*
X81069428Y-122401214D01*
X81783714Y-122044071D02*
X81783714Y-123544071D01*
X81783714Y-122115500D02*
X81926571Y-122044071D01*
X82212285Y-122044071D01*
X82355142Y-122115500D01*
X82426571Y-122186928D01*
X82498000Y-122329785D01*
X82498000Y-122758357D01*
X82426571Y-122901214D01*
X82355142Y-122972642D01*
X82212285Y-123044071D01*
X81926571Y-123044071D01*
X81783714Y-122972642D01*
X82926571Y-122044071D02*
X83498000Y-122044071D01*
X83140857Y-121544071D02*
X83140857Y-122829785D01*
X83212285Y-122972642D01*
X83355142Y-123044071D01*
X83498000Y-123044071D01*
X84569428Y-122972642D02*
X84426571Y-123044071D01*
X84140857Y-123044071D01*
X83998000Y-122972642D01*
X83926571Y-122829785D01*
X83926571Y-122258357D01*
X83998000Y-122115500D01*
X84140857Y-122044071D01*
X84426571Y-122044071D01*
X84569428Y-122115500D01*
X84640857Y-122258357D01*
X84640857Y-122401214D01*
X83926571Y-122544071D01*
X85283714Y-123044071D02*
X85283714Y-122044071D01*
X85283714Y-122329785D02*
X85355142Y-122186928D01*
X85426571Y-122115500D01*
X85569428Y-122044071D01*
X85712285Y-122044071D01*
D10*
X152540000Y-118310000D02*
X153111428Y-118310000D01*
X152425714Y-118652857D02*
X152825714Y-117452857D01*
X153225714Y-118652857D01*
X154140000Y-118595714D02*
X154025714Y-118652857D01*
X153797142Y-118652857D01*
X153682857Y-118595714D01*
X153625714Y-118538571D01*
X153568571Y-118424285D01*
X153568571Y-118081428D01*
X153625714Y-117967142D01*
X153682857Y-117910000D01*
X153797142Y-117852857D01*
X154025714Y-117852857D01*
X154140000Y-117910000D01*
X154482857Y-117852857D02*
X154940000Y-117852857D01*
X154654285Y-117452857D02*
X154654285Y-118481428D01*
X154711428Y-118595714D01*
X154825714Y-118652857D01*
X154940000Y-118652857D01*
X155340000Y-118652857D02*
X155340000Y-117852857D01*
X155340000Y-117452857D02*
X155282857Y-117510000D01*
X155340000Y-117567142D01*
X155397142Y-117510000D01*
X155340000Y-117452857D01*
X155340000Y-117567142D01*
X155797142Y-117852857D02*
X156082857Y-118652857D01*
X156368571Y-117852857D01*
X157282857Y-118595714D02*
X157168571Y-118652857D01*
X156940000Y-118652857D01*
X156825714Y-118595714D01*
X156768571Y-118481428D01*
X156768571Y-118024285D01*
X156825714Y-117910000D01*
X156940000Y-117852857D01*
X157168571Y-117852857D01*
X157282857Y-117910000D01*
X157340000Y-118024285D01*
X157340000Y-118138571D01*
X156768571Y-118252857D01*
D12*
%TO.C,P1*%
X61261904Y-160912380D02*
X61261904Y-159912380D01*
X61642857Y-159912380D01*
X61738095Y-159960000D01*
X61785714Y-160007619D01*
X61833333Y-160102857D01*
X61833333Y-160245714D01*
X61785714Y-160340952D01*
X61738095Y-160388571D01*
X61642857Y-160436190D01*
X61261904Y-160436190D01*
X62785714Y-160912380D02*
X62214285Y-160912380D01*
X62500000Y-160912380D02*
X62500000Y-159912380D01*
X62404761Y-160055238D01*
X62309523Y-160150476D01*
X62214285Y-160198095D01*
%TO.C,U1*%
X133223095Y-145502380D02*
X133223095Y-146311904D01*
X133270714Y-146407142D01*
X133318333Y-146454761D01*
X133413571Y-146502380D01*
X133604047Y-146502380D01*
X133699285Y-146454761D01*
X133746904Y-146407142D01*
X133794523Y-146311904D01*
X133794523Y-145502380D01*
X134794523Y-146502380D02*
X134223095Y-146502380D01*
X134508809Y-146502380D02*
X134508809Y-145502380D01*
X134413571Y-145645238D01*
X134318333Y-145740476D01*
X134223095Y-145788095D01*
%TO.C,R1*%
X149058333Y-124277380D02*
X148725000Y-123801190D01*
X148486904Y-124277380D02*
X148486904Y-123277380D01*
X148867857Y-123277380D01*
X148963095Y-123325000D01*
X149010714Y-123372619D01*
X149058333Y-123467857D01*
X149058333Y-123610714D01*
X149010714Y-123705952D01*
X148963095Y-123753571D01*
X148867857Y-123801190D01*
X148486904Y-123801190D01*
X150010714Y-124277380D02*
X149439285Y-124277380D01*
X149725000Y-124277380D02*
X149725000Y-123277380D01*
X149629761Y-123420238D01*
X149534523Y-123515476D01*
X149439285Y-123563095D01*
%TO.C,U2*%
X62738095Y-156297380D02*
X62738095Y-157106904D01*
X62785714Y-157202142D01*
X62833333Y-157249761D01*
X62928571Y-157297380D01*
X63119047Y-157297380D01*
X63214285Y-157249761D01*
X63261904Y-157202142D01*
X63309523Y-157106904D01*
X63309523Y-156297380D01*
X63738095Y-156392619D02*
X63785714Y-156345000D01*
X63880952Y-156297380D01*
X64119047Y-156297380D01*
X64214285Y-156345000D01*
X64261904Y-156392619D01*
X64309523Y-156487857D01*
X64309523Y-156583095D01*
X64261904Y-156725952D01*
X63690476Y-157297380D01*
X64309523Y-157297380D01*
%TO.C,U3*%
X94488095Y-156297380D02*
X94488095Y-157106904D01*
X94535714Y-157202142D01*
X94583333Y-157249761D01*
X94678571Y-157297380D01*
X94869047Y-157297380D01*
X94964285Y-157249761D01*
X95011904Y-157202142D01*
X95059523Y-157106904D01*
X95059523Y-156297380D01*
X95440476Y-156297380D02*
X96059523Y-156297380D01*
X95726190Y-156678333D01*
X95869047Y-156678333D01*
X95964285Y-156725952D01*
X96011904Y-156773571D01*
X96059523Y-156868809D01*
X96059523Y-157106904D01*
X96011904Y-157202142D01*
X95964285Y-157249761D01*
X95869047Y-157297380D01*
X95583333Y-157297380D01*
X95488095Y-157249761D01*
X95440476Y-157202142D01*
%TO.C,J3*%
X90471666Y-127357380D02*
X90471666Y-128071666D01*
X90424047Y-128214523D01*
X90328809Y-128309761D01*
X90185952Y-128357380D01*
X90090714Y-128357380D01*
X90852619Y-127357380D02*
X91471666Y-127357380D01*
X91138333Y-127738333D01*
X91281190Y-127738333D01*
X91376428Y-127785952D01*
X91424047Y-127833571D01*
X91471666Y-127928809D01*
X91471666Y-128166904D01*
X91424047Y-128262142D01*
X91376428Y-128309761D01*
X91281190Y-128357380D01*
X90995476Y-128357380D01*
X90900238Y-128309761D01*
X90852619Y-128262142D01*
%TO.C,SW1*%
X84469761Y-134683333D02*
X84517380Y-134540476D01*
X84517380Y-134302380D01*
X84469761Y-134207142D01*
X84422142Y-134159523D01*
X84326904Y-134111904D01*
X84231666Y-134111904D01*
X84136428Y-134159523D01*
X84088809Y-134207142D01*
X84041190Y-134302380D01*
X83993571Y-134492857D01*
X83945952Y-134588095D01*
X83898333Y-134635714D01*
X83803095Y-134683333D01*
X83707857Y-134683333D01*
X83612619Y-134635714D01*
X83565000Y-134588095D01*
X83517380Y-134492857D01*
X83517380Y-134254761D01*
X83565000Y-134111904D01*
X83517380Y-133778571D02*
X84517380Y-133540476D01*
X83803095Y-133350000D01*
X84517380Y-133159523D01*
X83517380Y-132921428D01*
X84517380Y-132016666D02*
X84517380Y-132588095D01*
X84517380Y-132302380D02*
X83517380Y-132302380D01*
X83660238Y-132397619D01*
X83755476Y-132492857D01*
X83803095Y-132588095D01*
%TO.C,C1*%
X62698333Y-147042142D02*
X62650714Y-147089761D01*
X62507857Y-147137380D01*
X62412619Y-147137380D01*
X62269761Y-147089761D01*
X62174523Y-146994523D01*
X62126904Y-146899285D01*
X62079285Y-146708809D01*
X62079285Y-146565952D01*
X62126904Y-146375476D01*
X62174523Y-146280238D01*
X62269761Y-146185000D01*
X62412619Y-146137380D01*
X62507857Y-146137380D01*
X62650714Y-146185000D01*
X62698333Y-146232619D01*
X63650714Y-147137380D02*
X63079285Y-147137380D01*
X63365000Y-147137380D02*
X63365000Y-146137380D01*
X63269761Y-146280238D01*
X63174523Y-146375476D01*
X63079285Y-146423095D01*
%TO.C,C2*%
X119848333Y-152757142D02*
X119800714Y-152804761D01*
X119657857Y-152852380D01*
X119562619Y-152852380D01*
X119419761Y-152804761D01*
X119324523Y-152709523D01*
X119276904Y-152614285D01*
X119229285Y-152423809D01*
X119229285Y-152280952D01*
X119276904Y-152090476D01*
X119324523Y-151995238D01*
X119419761Y-151900000D01*
X119562619Y-151852380D01*
X119657857Y-151852380D01*
X119800714Y-151900000D01*
X119848333Y-151947619D01*
X120229285Y-151947619D02*
X120276904Y-151900000D01*
X120372142Y-151852380D01*
X120610238Y-151852380D01*
X120705476Y-151900000D01*
X120753095Y-151947619D01*
X120800714Y-152042857D01*
X120800714Y-152138095D01*
X120753095Y-152280952D01*
X120181666Y-152852380D01*
X120800714Y-152852380D01*
%TO.C,C3*%
X94448333Y-147042142D02*
X94400714Y-147089761D01*
X94257857Y-147137380D01*
X94162619Y-147137380D01*
X94019761Y-147089761D01*
X93924523Y-146994523D01*
X93876904Y-146899285D01*
X93829285Y-146708809D01*
X93829285Y-146565952D01*
X93876904Y-146375476D01*
X93924523Y-146280238D01*
X94019761Y-146185000D01*
X94162619Y-146137380D01*
X94257857Y-146137380D01*
X94400714Y-146185000D01*
X94448333Y-146232619D01*
X94781666Y-146137380D02*
X95400714Y-146137380D01*
X95067380Y-146518333D01*
X95210238Y-146518333D01*
X95305476Y-146565952D01*
X95353095Y-146613571D01*
X95400714Y-146708809D01*
X95400714Y-146946904D01*
X95353095Y-147042142D01*
X95305476Y-147089761D01*
X95210238Y-147137380D01*
X94924523Y-147137380D01*
X94829285Y-147089761D01*
X94781666Y-147042142D01*
%TO.C,J2*%
X86661666Y-120102380D02*
X86661666Y-120816666D01*
X86614047Y-120959523D01*
X86518809Y-121054761D01*
X86375952Y-121102380D01*
X86280714Y-121102380D01*
X87090238Y-120197619D02*
X87137857Y-120150000D01*
X87233095Y-120102380D01*
X87471190Y-120102380D01*
X87566428Y-120150000D01*
X87614047Y-120197619D01*
X87661666Y-120292857D01*
X87661666Y-120388095D01*
X87614047Y-120530952D01*
X87042619Y-121102380D01*
X87661666Y-121102380D01*
%TO.C,J1*%
X152701666Y-141057380D02*
X152701666Y-141771666D01*
X152654047Y-141914523D01*
X152558809Y-142009761D01*
X152415952Y-142057380D01*
X152320714Y-142057380D01*
X153701666Y-142057380D02*
X153130238Y-142057380D01*
X153415952Y-142057380D02*
X153415952Y-141057380D01*
X153320714Y-141200238D01*
X153225476Y-141295476D01*
X153130238Y-141343095D01*
%TO.C,JP1*%
X110926666Y-142752380D02*
X110926666Y-143466666D01*
X110879047Y-143609523D01*
X110783809Y-143704761D01*
X110640952Y-143752380D01*
X110545714Y-143752380D01*
X111402857Y-143752380D02*
X111402857Y-142752380D01*
X111783809Y-142752380D01*
X111879047Y-142800000D01*
X111926666Y-142847619D01*
X111974285Y-142942857D01*
X111974285Y-143085714D01*
X111926666Y-143180952D01*
X111879047Y-143228571D01*
X111783809Y-143276190D01*
X111402857Y-143276190D01*
X112926666Y-143752380D02*
X112355238Y-143752380D01*
X112640952Y-143752380D02*
X112640952Y-142752380D01*
X112545714Y-142895238D01*
X112450476Y-142990476D01*
X112355238Y-143038095D01*
%TO.C,JP2*%
X107116666Y-142752380D02*
X107116666Y-143466666D01*
X107069047Y-143609523D01*
X106973809Y-143704761D01*
X106830952Y-143752380D01*
X106735714Y-143752380D01*
X107592857Y-143752380D02*
X107592857Y-142752380D01*
X107973809Y-142752380D01*
X108069047Y-142800000D01*
X108116666Y-142847619D01*
X108164285Y-142942857D01*
X108164285Y-143085714D01*
X108116666Y-143180952D01*
X108069047Y-143228571D01*
X107973809Y-143276190D01*
X107592857Y-143276190D01*
X108545238Y-142847619D02*
X108592857Y-142800000D01*
X108688095Y-142752380D01*
X108926190Y-142752380D01*
X109021428Y-142800000D01*
X109069047Y-142847619D01*
X109116666Y-142942857D01*
X109116666Y-143038095D01*
X109069047Y-143180952D01*
X108497619Y-143752380D01*
X109116666Y-143752380D01*
%TO.C,JP3*%
X103306666Y-142752380D02*
X103306666Y-143466666D01*
X103259047Y-143609523D01*
X103163809Y-143704761D01*
X103020952Y-143752380D01*
X102925714Y-143752380D01*
X103782857Y-143752380D02*
X103782857Y-142752380D01*
X104163809Y-142752380D01*
X104259047Y-142800000D01*
X104306666Y-142847619D01*
X104354285Y-142942857D01*
X104354285Y-143085714D01*
X104306666Y-143180952D01*
X104259047Y-143228571D01*
X104163809Y-143276190D01*
X103782857Y-143276190D01*
X104687619Y-142752380D02*
X105306666Y-142752380D01*
X104973333Y-143133333D01*
X105116190Y-143133333D01*
X105211428Y-143180952D01*
X105259047Y-143228571D01*
X105306666Y-143323809D01*
X105306666Y-143561904D01*
X105259047Y-143657142D01*
X105211428Y-143704761D01*
X105116190Y-143752380D01*
X104830476Y-143752380D01*
X104735238Y-143704761D01*
X104687619Y-143657142D01*
%TO.C,JP4*%
X99496666Y-142752380D02*
X99496666Y-143466666D01*
X99449047Y-143609523D01*
X99353809Y-143704761D01*
X99210952Y-143752380D01*
X99115714Y-143752380D01*
X99972857Y-143752380D02*
X99972857Y-142752380D01*
X100353809Y-142752380D01*
X100449047Y-142800000D01*
X100496666Y-142847619D01*
X100544285Y-142942857D01*
X100544285Y-143085714D01*
X100496666Y-143180952D01*
X100449047Y-143228571D01*
X100353809Y-143276190D01*
X99972857Y-143276190D01*
X101401428Y-143085714D02*
X101401428Y-143752380D01*
X101163333Y-142704761D02*
X100925238Y-143419047D01*
X101544285Y-143419047D01*
%TO.C,RN1*%
X62174523Y-143327380D02*
X61841190Y-142851190D01*
X61603095Y-143327380D02*
X61603095Y-142327380D01*
X61984047Y-142327380D01*
X62079285Y-142375000D01*
X62126904Y-142422619D01*
X62174523Y-142517857D01*
X62174523Y-142660714D01*
X62126904Y-142755952D01*
X62079285Y-142803571D01*
X61984047Y-142851190D01*
X61603095Y-142851190D01*
X62603095Y-143327380D02*
X62603095Y-142327380D01*
X63174523Y-143327380D01*
X63174523Y-142327380D01*
X64174523Y-143327380D02*
X63603095Y-143327380D01*
X63888809Y-143327380D02*
X63888809Y-142327380D01*
X63793571Y-142470238D01*
X63698333Y-142565476D01*
X63603095Y-142613095D01*
%TO.C,R2*%
X91908333Y-134437380D02*
X91575000Y-133961190D01*
X91336904Y-134437380D02*
X91336904Y-133437380D01*
X91717857Y-133437380D01*
X91813095Y-133485000D01*
X91860714Y-133532619D01*
X91908333Y-133627857D01*
X91908333Y-133770714D01*
X91860714Y-133865952D01*
X91813095Y-133913571D01*
X91717857Y-133961190D01*
X91336904Y-133961190D01*
X92289285Y-133532619D02*
X92336904Y-133485000D01*
X92432142Y-133437380D01*
X92670238Y-133437380D01*
X92765476Y-133485000D01*
X92813095Y-133532619D01*
X92860714Y-133627857D01*
X92860714Y-133723095D01*
X92813095Y-133865952D01*
X92241666Y-134437380D01*
X92860714Y-134437380D01*
%TO.C,R3*%
X91908333Y-138247380D02*
X91575000Y-137771190D01*
X91336904Y-138247380D02*
X91336904Y-137247380D01*
X91717857Y-137247380D01*
X91813095Y-137295000D01*
X91860714Y-137342619D01*
X91908333Y-137437857D01*
X91908333Y-137580714D01*
X91860714Y-137675952D01*
X91813095Y-137723571D01*
X91717857Y-137771190D01*
X91336904Y-137771190D01*
X92241666Y-137247380D02*
X92860714Y-137247380D01*
X92527380Y-137628333D01*
X92670238Y-137628333D01*
X92765476Y-137675952D01*
X92813095Y-137723571D01*
X92860714Y-137818809D01*
X92860714Y-138056904D01*
X92813095Y-138152142D01*
X92765476Y-138199761D01*
X92670238Y-138247380D01*
X92384523Y-138247380D01*
X92289285Y-138199761D01*
X92241666Y-138152142D01*
%TO.C,R4*%
X91908333Y-142057380D02*
X91575000Y-141581190D01*
X91336904Y-142057380D02*
X91336904Y-141057380D01*
X91717857Y-141057380D01*
X91813095Y-141105000D01*
X91860714Y-141152619D01*
X91908333Y-141247857D01*
X91908333Y-141390714D01*
X91860714Y-141485952D01*
X91813095Y-141533571D01*
X91717857Y-141581190D01*
X91336904Y-141581190D01*
X92765476Y-141390714D02*
X92765476Y-142057380D01*
X92527380Y-141009761D02*
X92289285Y-141724047D01*
X92908333Y-141724047D01*
%TO.C,D1*%
X148486904Y-115602380D02*
X148486904Y-114602380D01*
X148725000Y-114602380D01*
X148867857Y-114650000D01*
X148963095Y-114745238D01*
X149010714Y-114840476D01*
X149058333Y-115030952D01*
X149058333Y-115173809D01*
X149010714Y-115364285D01*
X148963095Y-115459523D01*
X148867857Y-115554761D01*
X148725000Y-115602380D01*
X148486904Y-115602380D01*
X150010714Y-115602380D02*
X149439285Y-115602380D01*
X149725000Y-115602380D02*
X149725000Y-114602380D01*
X149629761Y-114745238D01*
X149534523Y-114840476D01*
X149439285Y-114888095D01*
%TO.C,J5*%
X149526666Y-150582380D02*
X149526666Y-151296666D01*
X149479047Y-151439523D01*
X149383809Y-151534761D01*
X149240952Y-151582380D01*
X149145714Y-151582380D01*
X150479047Y-150582380D02*
X150002857Y-150582380D01*
X149955238Y-151058571D01*
X150002857Y-151010952D01*
X150098095Y-150963333D01*
X150336190Y-150963333D01*
X150431428Y-151010952D01*
X150479047Y-151058571D01*
X150526666Y-151153809D01*
X150526666Y-151391904D01*
X150479047Y-151487142D01*
X150431428Y-151534761D01*
X150336190Y-151582380D01*
X150098095Y-151582380D01*
X150002857Y-151534761D01*
X149955238Y-151487142D01*
D13*
%TO.C,P1*%
X62000000Y-164330000D02*
X60670000Y-164330000D01*
X60670000Y-164330000D02*
X60670000Y-163000000D01*
%TO.C,U1*%
X145470000Y-134200000D02*
X122770000Y-134200000D01*
X122770000Y-134200000D02*
X122770000Y-157900000D01*
X146470000Y-157900000D02*
X146470000Y-147050000D01*
X146470000Y-145050000D02*
X146470000Y-135200000D01*
X122770000Y-157900000D02*
X146470000Y-157900000D01*
X146470000Y-135200000D02*
X145470000Y-134200000D01*
%TO.C,R1*%
X152495000Y-122785000D02*
X152495000Y-122455000D01*
X145955000Y-125195000D02*
X145955000Y-124865000D01*
X152495000Y-124865000D02*
X152495000Y-125195000D01*
X145955000Y-122455000D02*
X145955000Y-122785000D01*
X152495000Y-125195000D02*
X145955000Y-125195000D01*
X152495000Y-122455000D02*
X145955000Y-122455000D01*
%TO.C,U2*%
X65285000Y-147150000D02*
X65285000Y-157650000D01*
X65345000Y-150150000D02*
X65345000Y-151400000D01*
X90925000Y-157650000D02*
X90925000Y-147150000D01*
X65285000Y-157650000D02*
X90925000Y-157650000D01*
X65345000Y-153400000D02*
X65345000Y-154650000D01*
X90925000Y-147150000D02*
X65285000Y-147150000D01*
X90865000Y-150150000D02*
X65345000Y-150150000D01*
X65345000Y-154650000D02*
X90865000Y-154650000D01*
X90865000Y-154650000D02*
X90865000Y-150150000D01*
X65345000Y-153400000D02*
G75*
G03*
X65345000Y-151400000I0J1000000D01*
G01*
%TO.C,U3*%
X97095000Y-150150000D02*
X97095000Y-151400000D01*
X97095000Y-153400000D02*
X97095000Y-154650000D01*
X115055000Y-147150000D02*
X97035000Y-147150000D01*
X97035000Y-147150000D02*
X97035000Y-157650000D01*
X115055000Y-157650000D02*
X115055000Y-147150000D01*
X97095000Y-154650000D02*
X114995000Y-154650000D01*
X97035000Y-157650000D02*
X115055000Y-157650000D01*
X114995000Y-154650000D02*
X114995000Y-150150000D01*
X114995000Y-150150000D02*
X97095000Y-150150000D01*
X97095000Y-153400000D02*
G75*
G03*
X97095000Y-151400000I0J1000000D01*
G01*
%TO.C,J3*%
X92285000Y-125845000D02*
X136405000Y-125845000D01*
X94345000Y-127905000D02*
X92285000Y-127905000D01*
X92285000Y-129965000D02*
X92285000Y-128905000D01*
X94345000Y-129965000D02*
X94345000Y-127905000D01*
X94345000Y-129965000D02*
X136405000Y-129965000D01*
X93345000Y-129965000D02*
X92285000Y-129965000D01*
X92285000Y-127905000D02*
X92285000Y-125845000D01*
X136405000Y-129965000D02*
X136405000Y-125845000D01*
%TO.C,SW1*%
X81160000Y-131320000D02*
X81160000Y-132673333D01*
X80680000Y-131320000D02*
X80680000Y-132673333D01*
X68100000Y-131320000D02*
X68100000Y-132673333D01*
X70400000Y-131320000D02*
X70400000Y-132673333D01*
X83065000Y-138300000D02*
X65525000Y-138300000D01*
X83065000Y-128400000D02*
X83065000Y-138300000D01*
X80920000Y-131320000D02*
X80920000Y-132673333D01*
X81040000Y-131320000D02*
X81040000Y-132673333D01*
X73420000Y-131320000D02*
X73420000Y-132673333D01*
X75360000Y-131320000D02*
X75360000Y-132673333D01*
X69850000Y-135380000D02*
X71120000Y-135380000D01*
X68580000Y-132673333D02*
X67310000Y-132673333D01*
X68580000Y-135380000D02*
X68580000Y-131320000D01*
X71120000Y-131320000D02*
X69850000Y-131320000D01*
X70760000Y-131320000D02*
X70760000Y-132673333D01*
X76200000Y-132673333D02*
X74930000Y-132673333D01*
X68220000Y-131320000D02*
X68220000Y-132673333D01*
X76200000Y-135380000D02*
X76200000Y-131320000D01*
X76200000Y-131320000D02*
X74930000Y-131320000D01*
X78140000Y-131320000D02*
X78140000Y-132673333D01*
X72580000Y-131320000D02*
X72580000Y-132673333D01*
X75480000Y-131320000D02*
X75480000Y-132673333D01*
X80560000Y-131320000D02*
X80560000Y-132673333D01*
X67310000Y-135380000D02*
X68580000Y-135380000D01*
X73060000Y-131320000D02*
X73060000Y-132673333D01*
X83305000Y-128160000D02*
X83305000Y-129544000D01*
X70280000Y-131320000D02*
X70280000Y-132673333D01*
X67380000Y-131320000D02*
X67380000Y-132673333D01*
X73660000Y-135380000D02*
X73660000Y-131320000D01*
X67980000Y-131320000D02*
X67980000Y-132673333D01*
X77900000Y-131320000D02*
X77900000Y-132673333D01*
X78020000Y-131320000D02*
X78020000Y-132673333D01*
X68340000Y-131320000D02*
X68340000Y-132673333D01*
X74930000Y-131320000D02*
X74930000Y-135380000D01*
X71120000Y-132673333D02*
X69850000Y-132673333D01*
X75840000Y-131320000D02*
X75840000Y-132673333D01*
X80320000Y-131320000D02*
X80320000Y-132673333D01*
X73300000Y-131320000D02*
X73300000Y-132673333D01*
X75120000Y-131320000D02*
X75120000Y-132673333D01*
X78620000Y-131320000D02*
X78620000Y-132673333D01*
X81280000Y-135380000D02*
X81280000Y-131320000D01*
X73540000Y-131320000D02*
X73540000Y-132673333D01*
X75600000Y-131320000D02*
X75600000Y-132673333D01*
X80440000Y-131320000D02*
X80440000Y-132673333D01*
X78500000Y-131320000D02*
X78500000Y-132673333D01*
X72390000Y-131320000D02*
X72390000Y-135380000D01*
X67740000Y-131320000D02*
X67740000Y-132673333D01*
X72460000Y-131320000D02*
X72460000Y-132673333D01*
X70880000Y-131320000D02*
X70880000Y-132673333D01*
X75960000Y-131320000D02*
X75960000Y-132673333D01*
X80080000Y-131320000D02*
X80080000Y-132673333D01*
X78740000Y-131320000D02*
X77470000Y-131320000D01*
X80800000Y-131320000D02*
X80800000Y-132673333D01*
X75240000Y-131320000D02*
X75240000Y-132673333D01*
X67500000Y-131320000D02*
X67500000Y-132673333D01*
X77470000Y-131320000D02*
X77470000Y-135380000D01*
X73660000Y-131320000D02*
X72390000Y-131320000D01*
X78260000Y-131320000D02*
X78260000Y-132673333D01*
X83065000Y-128400000D02*
X65525000Y-128400000D01*
X81280000Y-131320000D02*
X80010000Y-131320000D01*
X74930000Y-135380000D02*
X76200000Y-135380000D01*
X72940000Y-131320000D02*
X72940000Y-132673333D01*
X65525000Y-128400000D02*
X65525000Y-138300000D01*
X77660000Y-131320000D02*
X77660000Y-132673333D01*
X77540000Y-131320000D02*
X77540000Y-132673333D01*
X77470000Y-135380000D02*
X78740000Y-135380000D01*
X80010000Y-131320000D02*
X80010000Y-135380000D01*
X81280000Y-132673333D02*
X80010000Y-132673333D01*
X77780000Y-131320000D02*
X77780000Y-132673333D01*
X72820000Y-131320000D02*
X72820000Y-132673333D01*
X73180000Y-131320000D02*
X73180000Y-132673333D01*
X68460000Y-131320000D02*
X68460000Y-132673333D01*
X70640000Y-131320000D02*
X70640000Y-132673333D01*
X71120000Y-135380000D02*
X71120000Y-131320000D01*
X73660000Y-132673333D02*
X72390000Y-132673333D01*
X67310000Y-131320000D02*
X67310000Y-135380000D01*
X78380000Y-131320000D02*
X78380000Y-132673333D01*
X83305000Y-128160000D02*
X81922000Y-128160000D01*
X80010000Y-135380000D02*
X81280000Y-135380000D01*
X70160000Y-131320000D02*
X70160000Y-132673333D01*
X75000000Y-131320000D02*
X75000000Y-132673333D01*
X69920000Y-131320000D02*
X69920000Y-132673333D01*
X68580000Y-131320000D02*
X67310000Y-131320000D01*
X69850000Y-131320000D02*
X69850000Y-135380000D01*
X78740000Y-132673333D02*
X77470000Y-132673333D01*
X72390000Y-135380000D02*
X73660000Y-135380000D01*
X71000000Y-131320000D02*
X71000000Y-132673333D01*
X70520000Y-131320000D02*
X70520000Y-132673333D01*
X72700000Y-131320000D02*
X72700000Y-132673333D01*
X67860000Y-131320000D02*
X67860000Y-132673333D01*
X78740000Y-135380000D02*
X78740000Y-131320000D01*
X75720000Y-131320000D02*
X75720000Y-132673333D01*
X76080000Y-131320000D02*
X76080000Y-132673333D01*
X70040000Y-131320000D02*
X70040000Y-132673333D01*
X80200000Y-131320000D02*
X80200000Y-132673333D01*
X67620000Y-131320000D02*
X67620000Y-132673333D01*
%TO.C,C1*%
X61745000Y-148260000D02*
X61810000Y-148260000D01*
X61745000Y-151500000D02*
X61810000Y-151500000D01*
X63920000Y-151500000D02*
X63985000Y-151500000D01*
X63985000Y-151500000D02*
X63985000Y-148260000D01*
X61745000Y-151500000D02*
X61745000Y-148260000D01*
X63920000Y-148260000D02*
X63985000Y-148260000D01*
%TO.C,C2*%
X121135000Y-153935000D02*
X121070000Y-153935000D01*
X118960000Y-157175000D02*
X118895000Y-157175000D01*
X121135000Y-157175000D02*
X121070000Y-157175000D01*
X118895000Y-153935000D02*
X118895000Y-157175000D01*
X121135000Y-153935000D02*
X121135000Y-157175000D01*
X118960000Y-153935000D02*
X118895000Y-153935000D01*
%TO.C,C3*%
X95735000Y-151500000D02*
X95735000Y-148260000D01*
X93495000Y-148260000D02*
X93560000Y-148260000D01*
X93495000Y-151500000D02*
X93560000Y-151500000D01*
X95670000Y-148260000D02*
X95735000Y-148260000D01*
X95670000Y-151500000D02*
X95735000Y-151500000D01*
X93495000Y-151500000D02*
X93495000Y-148260000D01*
%TO.C,J2*%
X88840000Y-120650000D02*
X88840000Y-118050000D01*
X91440000Y-120650000D02*
X88840000Y-120650000D01*
X91440000Y-123250000D02*
X139760000Y-123250000D01*
X90170000Y-123250000D02*
X88840000Y-123250000D01*
X88840000Y-123250000D02*
X88840000Y-121920000D01*
X88840000Y-118050000D02*
X139760000Y-118050000D01*
X91440000Y-123250000D02*
X91440000Y-120650000D01*
X139760000Y-123250000D02*
X139760000Y-118050000D01*
%TO.C,J1*%
X150562000Y-140395000D02*
X150562000Y-139065000D01*
X153162000Y-137735000D02*
X155762000Y-137735000D01*
X155762000Y-140395000D02*
X155762000Y-137735000D01*
X153162000Y-140395000D02*
X153162000Y-137735000D01*
X153162000Y-140395000D02*
X155762000Y-140395000D01*
X151892000Y-140395000D02*
X150562000Y-140395000D01*
%TO.C,JP1*%
X113090000Y-140970000D02*
X113090000Y-142300000D01*
X113090000Y-139700000D02*
X113090000Y-134560000D01*
X113090000Y-134560000D02*
X110430000Y-134560000D01*
X110430000Y-139700000D02*
X110430000Y-134560000D01*
X113090000Y-142300000D02*
X111760000Y-142300000D01*
X113090000Y-139700000D02*
X110430000Y-139700000D01*
%TO.C,JP2*%
X109280000Y-140970000D02*
X109280000Y-142300000D01*
X109280000Y-139700000D02*
X109280000Y-134560000D01*
X109280000Y-134560000D02*
X106620000Y-134560000D01*
X106620000Y-139700000D02*
X106620000Y-134560000D01*
X109280000Y-142300000D02*
X107950000Y-142300000D01*
X109280000Y-139700000D02*
X106620000Y-139700000D01*
%TO.C,JP3*%
X105470000Y-139700000D02*
X105470000Y-134560000D01*
X105470000Y-142300000D02*
X104140000Y-142300000D01*
X105470000Y-140970000D02*
X105470000Y-142300000D01*
X105470000Y-139700000D02*
X102810000Y-139700000D01*
X102810000Y-139700000D02*
X102810000Y-134560000D01*
X105470000Y-134560000D02*
X102810000Y-134560000D01*
%TO.C,JP4*%
X101660000Y-142300000D02*
X100330000Y-142300000D01*
X101660000Y-134560000D02*
X99000000Y-134560000D01*
X101660000Y-139700000D02*
X101660000Y-134560000D01*
X101660000Y-140970000D02*
X101660000Y-142300000D01*
X99000000Y-139700000D02*
X99000000Y-134560000D01*
X101660000Y-139700000D02*
X99000000Y-139700000D01*
%TO.C,RN1*%
X67945000Y-141475000D02*
X67945000Y-144275000D01*
X85895000Y-141475000D02*
X65235000Y-141475000D01*
X65235000Y-144275000D02*
X85895000Y-144275000D01*
X65235000Y-141475000D02*
X65235000Y-144275000D01*
X85895000Y-144275000D02*
X85895000Y-141475000D01*
%TO.C,R2*%
X88805000Y-135355000D02*
X95345000Y-135355000D01*
X88805000Y-135025000D02*
X88805000Y-135355000D01*
X88805000Y-132615000D02*
X95345000Y-132615000D01*
X88805000Y-132945000D02*
X88805000Y-132615000D01*
X95345000Y-132615000D02*
X95345000Y-132945000D01*
X95345000Y-135355000D02*
X95345000Y-135025000D01*
%TO.C,R3*%
X95345000Y-136425000D02*
X95345000Y-136755000D01*
X88805000Y-138835000D02*
X88805000Y-139165000D01*
X88805000Y-139165000D02*
X95345000Y-139165000D01*
X88805000Y-136755000D02*
X88805000Y-136425000D01*
X95345000Y-139165000D02*
X95345000Y-138835000D01*
X88805000Y-136425000D02*
X95345000Y-136425000D01*
%TO.C,R4*%
X95345000Y-142975000D02*
X95345000Y-142645000D01*
X95345000Y-140235000D02*
X95345000Y-140565000D01*
X88805000Y-142645000D02*
X88805000Y-142975000D01*
X88805000Y-140235000D02*
X95345000Y-140235000D01*
X88805000Y-140565000D02*
X88805000Y-140235000D01*
X88805000Y-142975000D02*
X95345000Y-142975000D01*
%TO.C,D1*%
X147665000Y-119190000D02*
X147665000Y-119346000D01*
X147665000Y-116874000D02*
X147665000Y-117030000D01*
X150897335Y-117031392D02*
G75*
G03*
X147665000Y-116874484I-1672335J-1078608D01*
G01*
X147665000Y-119345516D02*
G75*
G03*
X150897335Y-119188608I1560000J1235516D01*
G01*
X150266130Y-117030163D02*
G75*
G03*
X148184039Y-117030000I-1041130J-1079837D01*
G01*
X148184039Y-119190000D02*
G75*
G03*
X150266130Y-119189837I1040961J1080000D01*
G01*
%TO.C,J5*%
X153730000Y-148530000D02*
X151070000Y-148530000D01*
X153730000Y-151130000D02*
X153730000Y-148530000D01*
X153730000Y-152400000D02*
X153730000Y-153730000D01*
X153730000Y-153730000D02*
X152400000Y-153730000D01*
X153730000Y-151130000D02*
X151070000Y-151130000D01*
X151070000Y-151130000D02*
X151070000Y-148530000D01*
%TD*%
M02*
