G04 #@! TF.FileFunction,Legend,Top*
%FSLAX46Y46*%
G04 Gerber Fmt 4.6, Leading zero omitted, Abs format (unit mm)*
G04 Created by KiCad (PCBNEW 4.0.7) date Tue Sep 26 02:04:38 2017*
%MOMM*%
%LPD*%
G01*
G04 APERTURE LIST*
%ADD10C,0.100000*%
%ADD11C,0.200000*%
%ADD12C,0.275000*%
%ADD13C,0.300000*%
%ADD14C,0.120000*%
%ADD15C,0.150000*%
G04 APERTURE END LIST*
D10*
D11*
X146253571Y-120850000D02*
X146825000Y-120850000D01*
X146139286Y-121192857D02*
X146539286Y-119992857D01*
X146939286Y-121192857D01*
X147853571Y-121135714D02*
X147739285Y-121192857D01*
X147510714Y-121192857D01*
X147396428Y-121135714D01*
X147339285Y-121078571D01*
X147282142Y-120964286D01*
X147282142Y-120621429D01*
X147339285Y-120507143D01*
X147396428Y-120450000D01*
X147510714Y-120392857D01*
X147739285Y-120392857D01*
X147853571Y-120450000D01*
X148196428Y-120392857D02*
X148653571Y-120392857D01*
X148367856Y-119992857D02*
X148367856Y-121021429D01*
X148424999Y-121135714D01*
X148539285Y-121192857D01*
X148653571Y-121192857D01*
X149053570Y-121192857D02*
X149053570Y-120392857D01*
X149053570Y-119992857D02*
X148996427Y-120050000D01*
X149053570Y-120107143D01*
X149110713Y-120050000D01*
X149053570Y-119992857D01*
X149053570Y-120107143D01*
X149510714Y-120392857D02*
X149796428Y-121192857D01*
X150082142Y-120392857D01*
X150539285Y-121192857D02*
X150539285Y-120392857D01*
X150539285Y-119992857D02*
X150482142Y-120050000D01*
X150539285Y-120107143D01*
X150596428Y-120050000D01*
X150539285Y-119992857D01*
X150539285Y-120107143D01*
X150939286Y-120392857D02*
X151396429Y-120392857D01*
X151110714Y-119992857D02*
X151110714Y-121021429D01*
X151167857Y-121135714D01*
X151282143Y-121192857D01*
X151396429Y-121192857D01*
X151682143Y-120392857D02*
X151967857Y-121192857D01*
X152253571Y-120392857D02*
X151967857Y-121192857D01*
X151853571Y-121478571D01*
X151796428Y-121535714D01*
X151682143Y-121592857D01*
X114224287Y-140642857D02*
X114510001Y-140642857D01*
X114510001Y-138928571D01*
X114224287Y-138928571D01*
X116052858Y-140242857D02*
X116052858Y-139042857D01*
X116338573Y-139042857D01*
X116510001Y-139100000D01*
X116624287Y-139214286D01*
X116681430Y-139328571D01*
X116738573Y-139557143D01*
X116738573Y-139728571D01*
X116681430Y-139957143D01*
X116624287Y-140071429D01*
X116510001Y-140185714D01*
X116338573Y-140242857D01*
X116052858Y-140242857D01*
X117710001Y-140185714D02*
X117595715Y-140242857D01*
X117367144Y-140242857D01*
X117252858Y-140185714D01*
X117195715Y-140071429D01*
X117195715Y-139614286D01*
X117252858Y-139500000D01*
X117367144Y-139442857D01*
X117595715Y-139442857D01*
X117710001Y-139500000D01*
X117767144Y-139614286D01*
X117767144Y-139728571D01*
X117195715Y-139842857D01*
X118110001Y-139442857D02*
X118567144Y-139442857D01*
X118281429Y-140242857D02*
X118281429Y-139214286D01*
X118338572Y-139100000D01*
X118452858Y-139042857D01*
X118567144Y-139042857D01*
X119481429Y-140242857D02*
X119481429Y-139614286D01*
X119424286Y-139500000D01*
X119310000Y-139442857D01*
X119081429Y-139442857D01*
X118967143Y-139500000D01*
X119481429Y-140185714D02*
X119367143Y-140242857D01*
X119081429Y-140242857D01*
X118967143Y-140185714D01*
X118910000Y-140071429D01*
X118910000Y-139957143D01*
X118967143Y-139842857D01*
X119081429Y-139785714D01*
X119367143Y-139785714D01*
X119481429Y-139728571D01*
X120567143Y-139442857D02*
X120567143Y-140242857D01*
X120052857Y-139442857D02*
X120052857Y-140071429D01*
X120110000Y-140185714D01*
X120224286Y-140242857D01*
X120395714Y-140242857D01*
X120510000Y-140185714D01*
X120567143Y-140128571D01*
X121310000Y-140242857D02*
X121195714Y-140185714D01*
X121138571Y-140071429D01*
X121138571Y-139042857D01*
X121595714Y-139442857D02*
X122052857Y-139442857D01*
X121767142Y-139042857D02*
X121767142Y-140071429D01*
X121824285Y-140185714D01*
X121938571Y-140242857D01*
X122052857Y-140242857D01*
X150800001Y-143487857D02*
X151200001Y-144687857D01*
X151600001Y-143487857D01*
X152685715Y-144573571D02*
X152628572Y-144630714D01*
X152457143Y-144687857D01*
X152342857Y-144687857D01*
X152171429Y-144630714D01*
X152057143Y-144516429D01*
X152000000Y-144402143D01*
X151942857Y-144173571D01*
X151942857Y-144002143D01*
X152000000Y-143773571D01*
X152057143Y-143659286D01*
X152171429Y-143545000D01*
X152342857Y-143487857D01*
X152457143Y-143487857D01*
X152628572Y-143545000D01*
X152685715Y-143602143D01*
X153885715Y-144573571D02*
X153828572Y-144630714D01*
X153657143Y-144687857D01*
X153542857Y-144687857D01*
X153371429Y-144630714D01*
X153257143Y-144516429D01*
X153200000Y-144402143D01*
X153142857Y-144173571D01*
X153142857Y-144002143D01*
X153200000Y-143773571D01*
X153257143Y-143659286D01*
X153371429Y-143545000D01*
X153542857Y-143487857D01*
X153657143Y-143487857D01*
X153828572Y-143545000D01*
X153885715Y-143602143D01*
X155267143Y-152314286D02*
X155438572Y-152371429D01*
X155495715Y-152428571D01*
X155552858Y-152542857D01*
X155552858Y-152714286D01*
X155495715Y-152828571D01*
X155438572Y-152885714D01*
X155324286Y-152942857D01*
X154867143Y-152942857D01*
X154867143Y-151742857D01*
X155267143Y-151742857D01*
X155381429Y-151800000D01*
X155438572Y-151857143D01*
X155495715Y-151971429D01*
X155495715Y-152085714D01*
X155438572Y-152200000D01*
X155381429Y-152257143D01*
X155267143Y-152314286D01*
X154867143Y-152314286D01*
X156581429Y-152142857D02*
X156581429Y-152942857D01*
X156067143Y-152142857D02*
X156067143Y-152771429D01*
X156124286Y-152885714D01*
X156238572Y-152942857D01*
X156410000Y-152942857D01*
X156524286Y-152885714D01*
X156581429Y-152828571D01*
X157095714Y-152885714D02*
X157210000Y-152942857D01*
X157438572Y-152942857D01*
X157552857Y-152885714D01*
X157610000Y-152771429D01*
X157610000Y-152714286D01*
X157552857Y-152600000D01*
X157438572Y-152542857D01*
X157267143Y-152542857D01*
X157152857Y-152485714D01*
X157095714Y-152371429D01*
X157095714Y-152314286D01*
X157152857Y-152200000D01*
X157267143Y-152142857D01*
X157438572Y-152142857D01*
X157552857Y-152200000D01*
X155124286Y-147234286D02*
X155524286Y-147234286D01*
X155695715Y-147862857D02*
X155124286Y-147862857D01*
X155124286Y-146662857D01*
X155695715Y-146662857D01*
X156095715Y-147862857D02*
X156724286Y-147062857D01*
X156095715Y-147062857D02*
X156724286Y-147862857D01*
X157010001Y-147062857D02*
X157467144Y-147062857D01*
X157181429Y-146662857D02*
X157181429Y-147691429D01*
X157238572Y-147805714D01*
X157352858Y-147862857D01*
X157467144Y-147862857D01*
X157200715Y-136560000D02*
X157086429Y-136502857D01*
X156915000Y-136502857D01*
X156743572Y-136560000D01*
X156629286Y-136674286D01*
X156572143Y-136788571D01*
X156515000Y-137017143D01*
X156515000Y-137188571D01*
X156572143Y-137417143D01*
X156629286Y-137531429D01*
X156743572Y-137645714D01*
X156915000Y-137702857D01*
X157029286Y-137702857D01*
X157200715Y-137645714D01*
X157257858Y-137588571D01*
X157257858Y-137188571D01*
X157029286Y-137188571D01*
X157772143Y-137702857D02*
X157772143Y-136502857D01*
X158457858Y-137702857D01*
X158457858Y-136502857D01*
X159029286Y-137702857D02*
X159029286Y-136502857D01*
X159315001Y-136502857D01*
X159486429Y-136560000D01*
X159600715Y-136674286D01*
X159657858Y-136788571D01*
X159715001Y-137017143D01*
X159715001Y-137188571D01*
X159657858Y-137417143D01*
X159600715Y-137531429D01*
X159486429Y-137645714D01*
X159315001Y-137702857D01*
X159029286Y-137702857D01*
X147783572Y-136502857D02*
X147212143Y-136502857D01*
X147155000Y-137074286D01*
X147212143Y-137017143D01*
X147326429Y-136960000D01*
X147612143Y-136960000D01*
X147726429Y-137017143D01*
X147783572Y-137074286D01*
X147840715Y-137188571D01*
X147840715Y-137474286D01*
X147783572Y-137588571D01*
X147726429Y-137645714D01*
X147612143Y-137702857D01*
X147326429Y-137702857D01*
X147212143Y-137645714D01*
X147155000Y-137588571D01*
X148240715Y-136902857D02*
X148526429Y-137702857D01*
X148812143Y-136902857D01*
D12*
X66437859Y-127183333D02*
X66961668Y-127183333D01*
X66333097Y-127497619D02*
X66699764Y-126397619D01*
X67066430Y-127497619D01*
X67380716Y-126502381D02*
X67433097Y-126450000D01*
X67537859Y-126397619D01*
X67799763Y-126397619D01*
X67904525Y-126450000D01*
X67956906Y-126502381D01*
X68009287Y-126607143D01*
X68009287Y-126711905D01*
X67956906Y-126869048D01*
X67328335Y-127497619D01*
X68009287Y-127497619D01*
X69266430Y-127183333D02*
X69790239Y-127183333D01*
X69161668Y-127497619D02*
X69528335Y-126397619D01*
X69895001Y-127497619D01*
X70156906Y-126397619D02*
X70837858Y-126397619D01*
X70471192Y-126816667D01*
X70628334Y-126816667D01*
X70733096Y-126869048D01*
X70785477Y-126921429D01*
X70837858Y-127026190D01*
X70837858Y-127288095D01*
X70785477Y-127392857D01*
X70733096Y-127445238D01*
X70628334Y-127497619D01*
X70314049Y-127497619D01*
X70209287Y-127445238D01*
X70156906Y-127392857D01*
X72095001Y-127183333D02*
X72618810Y-127183333D01*
X71990239Y-127497619D02*
X72356906Y-126397619D01*
X72723572Y-127497619D01*
X73561667Y-126764286D02*
X73561667Y-127497619D01*
X73299763Y-126345238D02*
X73037858Y-127130952D01*
X73718810Y-127130952D01*
X74923572Y-127183333D02*
X75447381Y-127183333D01*
X74818810Y-127497619D02*
X75185477Y-126397619D01*
X75552143Y-127497619D01*
X76442619Y-126397619D02*
X75918810Y-126397619D01*
X75866429Y-126921429D01*
X75918810Y-126869048D01*
X76023572Y-126816667D01*
X76285476Y-126816667D01*
X76390238Y-126869048D01*
X76442619Y-126921429D01*
X76495000Y-127026190D01*
X76495000Y-127288095D01*
X76442619Y-127392857D01*
X76390238Y-127445238D01*
X76285476Y-127497619D01*
X76023572Y-127497619D01*
X75918810Y-127445238D01*
X75866429Y-127392857D01*
X77752143Y-127183333D02*
X78275952Y-127183333D01*
X77647381Y-127497619D02*
X78014048Y-126397619D01*
X78380714Y-127497619D01*
X79218809Y-126397619D02*
X79009286Y-126397619D01*
X78904524Y-126450000D01*
X78852143Y-126502381D01*
X78747381Y-126659524D01*
X78695000Y-126869048D01*
X78695000Y-127288095D01*
X78747381Y-127392857D01*
X78799762Y-127445238D01*
X78904524Y-127497619D01*
X79114047Y-127497619D01*
X79218809Y-127445238D01*
X79271190Y-127392857D01*
X79323571Y-127288095D01*
X79323571Y-127026190D01*
X79271190Y-126921429D01*
X79218809Y-126869048D01*
X79114047Y-126816667D01*
X78904524Y-126816667D01*
X78799762Y-126869048D01*
X78747381Y-126921429D01*
X78695000Y-127026190D01*
X80580714Y-127183333D02*
X81104523Y-127183333D01*
X80475952Y-127497619D02*
X80842619Y-126397619D01*
X81209285Y-127497619D01*
X81471190Y-126397619D02*
X82204523Y-126397619D01*
X81733095Y-127497619D01*
D13*
X65909287Y-160698571D02*
X65409287Y-159984286D01*
X65052144Y-160698571D02*
X65052144Y-159198571D01*
X65623572Y-159198571D01*
X65766430Y-159270000D01*
X65837858Y-159341429D01*
X65909287Y-159484286D01*
X65909287Y-159698571D01*
X65837858Y-159841429D01*
X65766430Y-159912857D01*
X65623572Y-159984286D01*
X65052144Y-159984286D01*
X67123572Y-160627143D02*
X66980715Y-160698571D01*
X66695001Y-160698571D01*
X66552144Y-160627143D01*
X66480715Y-160484286D01*
X66480715Y-159912857D01*
X66552144Y-159770000D01*
X66695001Y-159698571D01*
X66980715Y-159698571D01*
X67123572Y-159770000D01*
X67195001Y-159912857D01*
X67195001Y-160055714D01*
X66480715Y-160198571D01*
X67695001Y-159698571D02*
X68052144Y-160698571D01*
X68409286Y-159698571D01*
X70909286Y-160698571D02*
X70052143Y-160698571D01*
X70480715Y-160698571D02*
X70480715Y-159198571D01*
X70337858Y-159412857D01*
X70195000Y-159555714D01*
X70052143Y-159627143D01*
X76867144Y-120053571D02*
X76367144Y-119339286D01*
X76010001Y-120053571D02*
X76010001Y-118553571D01*
X76581429Y-118553571D01*
X76724287Y-118625000D01*
X76795715Y-118696429D01*
X76867144Y-118839286D01*
X76867144Y-119053571D01*
X76795715Y-119196429D01*
X76724287Y-119267857D01*
X76581429Y-119339286D01*
X76010001Y-119339286D01*
X78367144Y-119910714D02*
X78295715Y-119982143D01*
X78081429Y-120053571D01*
X77938572Y-120053571D01*
X77724287Y-119982143D01*
X77581429Y-119839286D01*
X77510001Y-119696429D01*
X77438572Y-119410714D01*
X77438572Y-119196429D01*
X77510001Y-118910714D01*
X77581429Y-118767857D01*
X77724287Y-118625000D01*
X77938572Y-118553571D01*
X78081429Y-118553571D01*
X78295715Y-118625000D01*
X78367144Y-118696429D01*
X78938572Y-118696429D02*
X79010001Y-118625000D01*
X79152858Y-118553571D01*
X79510001Y-118553571D01*
X79652858Y-118625000D01*
X79724287Y-118696429D01*
X79795715Y-118839286D01*
X79795715Y-118982143D01*
X79724287Y-119196429D01*
X78867144Y-120053571D01*
X79795715Y-120053571D01*
X80724286Y-118553571D02*
X80867143Y-118553571D01*
X81010000Y-118625000D01*
X81081429Y-118696429D01*
X81152858Y-118839286D01*
X81224286Y-119125000D01*
X81224286Y-119482143D01*
X81152858Y-119767857D01*
X81081429Y-119910714D01*
X81010000Y-119982143D01*
X80867143Y-120053571D01*
X80724286Y-120053571D01*
X80581429Y-119982143D01*
X80510000Y-119910714D01*
X80438572Y-119767857D01*
X80367143Y-119482143D01*
X80367143Y-119125000D01*
X80438572Y-118839286D01*
X80510000Y-118696429D01*
X80581429Y-118625000D01*
X80724286Y-118553571D01*
X82652857Y-120053571D02*
X81795714Y-120053571D01*
X82224286Y-120053571D02*
X82224286Y-118553571D01*
X82081429Y-118767857D01*
X81938571Y-118910714D01*
X81795714Y-118982143D01*
X83938571Y-119053571D02*
X83938571Y-120053571D01*
X83581428Y-118482143D02*
X83224285Y-119553571D01*
X84152857Y-119553571D01*
X73795715Y-122603571D02*
X73795715Y-121103571D01*
X74510001Y-122603571D02*
X74510001Y-121103571D01*
X74867144Y-121103571D01*
X75081429Y-121175000D01*
X75224287Y-121317857D01*
X75295715Y-121460714D01*
X75367144Y-121746429D01*
X75367144Y-121960714D01*
X75295715Y-122246429D01*
X75224287Y-122389286D01*
X75081429Y-122532143D01*
X74867144Y-122603571D01*
X74510001Y-122603571D01*
X76010001Y-121817857D02*
X76510001Y-121817857D01*
X76724287Y-122603571D02*
X76010001Y-122603571D01*
X76010001Y-121103571D01*
X76724287Y-121103571D01*
X78438572Y-122175000D02*
X79152858Y-122175000D01*
X78295715Y-122603571D02*
X78795715Y-121103571D01*
X79295715Y-122603571D01*
X80438572Y-122603571D02*
X80438572Y-121103571D01*
X80438572Y-122532143D02*
X80295715Y-122603571D01*
X80010001Y-122603571D01*
X79867143Y-122532143D01*
X79795715Y-122460714D01*
X79724286Y-122317857D01*
X79724286Y-121889286D01*
X79795715Y-121746429D01*
X79867143Y-121675000D01*
X80010001Y-121603571D01*
X80295715Y-121603571D01*
X80438572Y-121675000D01*
X81795715Y-122603571D02*
X81795715Y-121817857D01*
X81724286Y-121675000D01*
X81581429Y-121603571D01*
X81295715Y-121603571D01*
X81152858Y-121675000D01*
X81795715Y-122532143D02*
X81652858Y-122603571D01*
X81295715Y-122603571D01*
X81152858Y-122532143D01*
X81081429Y-122389286D01*
X81081429Y-122246429D01*
X81152858Y-122103571D01*
X81295715Y-122032143D01*
X81652858Y-122032143D01*
X81795715Y-121960714D01*
X82510001Y-121603571D02*
X82510001Y-123103571D01*
X82510001Y-121675000D02*
X82652858Y-121603571D01*
X82938572Y-121603571D01*
X83081429Y-121675000D01*
X83152858Y-121746429D01*
X83224287Y-121889286D01*
X83224287Y-122317857D01*
X83152858Y-122460714D01*
X83081429Y-122532143D01*
X82938572Y-122603571D01*
X82652858Y-122603571D01*
X82510001Y-122532143D01*
X83652858Y-121603571D02*
X84224287Y-121603571D01*
X83867144Y-121103571D02*
X83867144Y-122389286D01*
X83938572Y-122532143D01*
X84081430Y-122603571D01*
X84224287Y-122603571D01*
X85295715Y-122532143D02*
X85152858Y-122603571D01*
X84867144Y-122603571D01*
X84724287Y-122532143D01*
X84652858Y-122389286D01*
X84652858Y-121817857D01*
X84724287Y-121675000D01*
X84867144Y-121603571D01*
X85152858Y-121603571D01*
X85295715Y-121675000D01*
X85367144Y-121817857D01*
X85367144Y-121960714D01*
X84652858Y-122103571D01*
X86010001Y-122603571D02*
X86010001Y-121603571D01*
X86010001Y-121889286D02*
X86081429Y-121746429D01*
X86152858Y-121675000D01*
X86295715Y-121603571D01*
X86438572Y-121603571D01*
X111191430Y-159698571D02*
X111191430Y-160912857D01*
X111120001Y-161055714D01*
X111048573Y-161127143D01*
X110905716Y-161198571D01*
X110691430Y-161198571D01*
X110548573Y-161127143D01*
X111191430Y-160627143D02*
X111048573Y-160698571D01*
X110762859Y-160698571D01*
X110620001Y-160627143D01*
X110548573Y-160555714D01*
X110477144Y-160412857D01*
X110477144Y-159984286D01*
X110548573Y-159841429D01*
X110620001Y-159770000D01*
X110762859Y-159698571D01*
X111048573Y-159698571D01*
X111191430Y-159770000D01*
X111905716Y-160698571D02*
X111905716Y-159698571D01*
X111905716Y-159198571D02*
X111834287Y-159270000D01*
X111905716Y-159341429D01*
X111977144Y-159270000D01*
X111905716Y-159198571D01*
X111905716Y-159341429D01*
X112405716Y-159698571D02*
X112977145Y-159698571D01*
X112620002Y-159198571D02*
X112620002Y-160484286D01*
X112691430Y-160627143D01*
X112834288Y-160698571D01*
X112977145Y-160698571D01*
X113477145Y-160698571D02*
X113477145Y-159198571D01*
X114120002Y-160698571D02*
X114120002Y-159912857D01*
X114048573Y-159770000D01*
X113905716Y-159698571D01*
X113691431Y-159698571D01*
X113548573Y-159770000D01*
X113477145Y-159841429D01*
X115477145Y-159698571D02*
X115477145Y-160698571D01*
X114834288Y-159698571D02*
X114834288Y-160484286D01*
X114905716Y-160627143D01*
X115048574Y-160698571D01*
X115262859Y-160698571D01*
X115405716Y-160627143D01*
X115477145Y-160555714D01*
X116191431Y-160698571D02*
X116191431Y-159198571D01*
X116191431Y-159770000D02*
X116334288Y-159698571D01*
X116620002Y-159698571D01*
X116762859Y-159770000D01*
X116834288Y-159841429D01*
X116905717Y-159984286D01*
X116905717Y-160412857D01*
X116834288Y-160555714D01*
X116762859Y-160627143D01*
X116620002Y-160698571D01*
X116334288Y-160698571D01*
X116191431Y-160627143D01*
X117548574Y-160555714D02*
X117620002Y-160627143D01*
X117548574Y-160698571D01*
X117477145Y-160627143D01*
X117548574Y-160555714D01*
X117548574Y-160698571D01*
X118905717Y-160627143D02*
X118762860Y-160698571D01*
X118477146Y-160698571D01*
X118334288Y-160627143D01*
X118262860Y-160555714D01*
X118191431Y-160412857D01*
X118191431Y-159984286D01*
X118262860Y-159841429D01*
X118334288Y-159770000D01*
X118477146Y-159698571D01*
X118762860Y-159698571D01*
X118905717Y-159770000D01*
X119762860Y-160698571D02*
X119620002Y-160627143D01*
X119548574Y-160555714D01*
X119477145Y-160412857D01*
X119477145Y-159984286D01*
X119548574Y-159841429D01*
X119620002Y-159770000D01*
X119762860Y-159698571D01*
X119977145Y-159698571D01*
X120120002Y-159770000D01*
X120191431Y-159841429D01*
X120262860Y-159984286D01*
X120262860Y-160412857D01*
X120191431Y-160555714D01*
X120120002Y-160627143D01*
X119977145Y-160698571D01*
X119762860Y-160698571D01*
X120905717Y-160698571D02*
X120905717Y-159698571D01*
X120905717Y-159841429D02*
X120977145Y-159770000D01*
X121120003Y-159698571D01*
X121334288Y-159698571D01*
X121477145Y-159770000D01*
X121548574Y-159912857D01*
X121548574Y-160698571D01*
X121548574Y-159912857D02*
X121620003Y-159770000D01*
X121762860Y-159698571D01*
X121977145Y-159698571D01*
X122120003Y-159770000D01*
X122191431Y-159912857D01*
X122191431Y-160698571D01*
X123977145Y-159127143D02*
X122691431Y-161055714D01*
X125048574Y-160627143D02*
X124905717Y-160698571D01*
X124620003Y-160698571D01*
X124477146Y-160627143D01*
X124405717Y-160484286D01*
X124405717Y-159912857D01*
X124477146Y-159770000D01*
X124620003Y-159698571D01*
X124905717Y-159698571D01*
X125048574Y-159770000D01*
X125120003Y-159912857D01*
X125120003Y-160055714D01*
X124405717Y-160198571D01*
X125977146Y-160698571D02*
X125834288Y-160627143D01*
X125762860Y-160484286D01*
X125762860Y-159198571D01*
X127120002Y-160627143D02*
X126977145Y-160698571D01*
X126691431Y-160698571D01*
X126548574Y-160627143D01*
X126477145Y-160484286D01*
X126477145Y-159912857D01*
X126548574Y-159770000D01*
X126691431Y-159698571D01*
X126977145Y-159698571D01*
X127120002Y-159770000D01*
X127191431Y-159912857D01*
X127191431Y-160055714D01*
X126477145Y-160198571D01*
X128477145Y-160627143D02*
X128334288Y-160698571D01*
X128048574Y-160698571D01*
X127905716Y-160627143D01*
X127834288Y-160555714D01*
X127762859Y-160412857D01*
X127762859Y-159984286D01*
X127834288Y-159841429D01*
X127905716Y-159770000D01*
X128048574Y-159698571D01*
X128334288Y-159698571D01*
X128477145Y-159770000D01*
X128905716Y-159698571D02*
X129477145Y-159698571D01*
X129120002Y-159198571D02*
X129120002Y-160484286D01*
X129191430Y-160627143D01*
X129334288Y-160698571D01*
X129477145Y-160698571D01*
X129977145Y-160698571D02*
X129977145Y-159698571D01*
X129977145Y-159984286D02*
X130048573Y-159841429D01*
X130120002Y-159770000D01*
X130262859Y-159698571D01*
X130405716Y-159698571D01*
X130905716Y-160698571D02*
X130905716Y-159698571D01*
X130905716Y-159198571D02*
X130834287Y-159270000D01*
X130905716Y-159341429D01*
X130977144Y-159270000D01*
X130905716Y-159198571D01*
X130905716Y-159341429D01*
X131405716Y-159698571D02*
X131977145Y-159698571D01*
X131620002Y-160698571D02*
X131620002Y-159412857D01*
X131691430Y-159270000D01*
X131834288Y-159198571D01*
X131977145Y-159198571D01*
X132477145Y-160698571D02*
X132477145Y-159698571D01*
X132477145Y-159198571D02*
X132405716Y-159270000D01*
X132477145Y-159341429D01*
X132548573Y-159270000D01*
X132477145Y-159198571D01*
X132477145Y-159341429D01*
X133762859Y-160627143D02*
X133620002Y-160698571D01*
X133334288Y-160698571D01*
X133191431Y-160627143D01*
X133120002Y-160484286D01*
X133120002Y-159912857D01*
X133191431Y-159770000D01*
X133334288Y-159698571D01*
X133620002Y-159698571D01*
X133762859Y-159770000D01*
X133834288Y-159912857D01*
X133834288Y-160055714D01*
X133120002Y-160198571D01*
X135120002Y-160698571D02*
X135120002Y-159198571D01*
X135120002Y-160627143D02*
X134977145Y-160698571D01*
X134691431Y-160698571D01*
X134548573Y-160627143D01*
X134477145Y-160555714D01*
X134405716Y-160412857D01*
X134405716Y-159984286D01*
X134477145Y-159841429D01*
X134548573Y-159770000D01*
X134691431Y-159698571D01*
X134977145Y-159698571D01*
X135120002Y-159770000D01*
X136905716Y-159127143D02*
X135620002Y-161055714D01*
X137405717Y-160698571D02*
X137405717Y-159698571D01*
X137405717Y-159984286D02*
X137477145Y-159841429D01*
X137548574Y-159770000D01*
X137691431Y-159698571D01*
X137834288Y-159698571D01*
X138977145Y-160627143D02*
X138834288Y-160698571D01*
X138548574Y-160698571D01*
X138405716Y-160627143D01*
X138334288Y-160555714D01*
X138262859Y-160412857D01*
X138262859Y-159984286D01*
X138334288Y-159841429D01*
X138405716Y-159770000D01*
X138548574Y-159698571D01*
X138834288Y-159698571D01*
X138977145Y-159770000D01*
X139548573Y-159341429D02*
X139620002Y-159270000D01*
X139762859Y-159198571D01*
X140120002Y-159198571D01*
X140262859Y-159270000D01*
X140334288Y-159341429D01*
X140405716Y-159484286D01*
X140405716Y-159627143D01*
X140334288Y-159841429D01*
X139477145Y-160698571D01*
X140405716Y-160698571D01*
X141334287Y-159198571D02*
X141477144Y-159198571D01*
X141620001Y-159270000D01*
X141691430Y-159341429D01*
X141762859Y-159484286D01*
X141834287Y-159770000D01*
X141834287Y-160127143D01*
X141762859Y-160412857D01*
X141691430Y-160555714D01*
X141620001Y-160627143D01*
X141477144Y-160698571D01*
X141334287Y-160698571D01*
X141191430Y-160627143D01*
X141120001Y-160555714D01*
X141048573Y-160412857D01*
X140977144Y-160127143D01*
X140977144Y-159770000D01*
X141048573Y-159484286D01*
X141120001Y-159341429D01*
X141191430Y-159270000D01*
X141334287Y-159198571D01*
X143262858Y-160698571D02*
X142405715Y-160698571D01*
X142834287Y-160698571D02*
X142834287Y-159198571D01*
X142691430Y-159412857D01*
X142548572Y-159555714D01*
X142405715Y-159627143D01*
X144548572Y-159698571D02*
X144548572Y-160698571D01*
X144191429Y-159127143D02*
X143834286Y-160198571D01*
X144762858Y-160198571D01*
X145334286Y-160127143D02*
X146477143Y-160127143D01*
X147405715Y-159841429D02*
X147262857Y-159770000D01*
X147191429Y-159698571D01*
X147120000Y-159555714D01*
X147120000Y-159484286D01*
X147191429Y-159341429D01*
X147262857Y-159270000D01*
X147405715Y-159198571D01*
X147691429Y-159198571D01*
X147834286Y-159270000D01*
X147905715Y-159341429D01*
X147977143Y-159484286D01*
X147977143Y-159555714D01*
X147905715Y-159698571D01*
X147834286Y-159770000D01*
X147691429Y-159841429D01*
X147405715Y-159841429D01*
X147262857Y-159912857D01*
X147191429Y-159984286D01*
X147120000Y-160127143D01*
X147120000Y-160412857D01*
X147191429Y-160555714D01*
X147262857Y-160627143D01*
X147405715Y-160698571D01*
X147691429Y-160698571D01*
X147834286Y-160627143D01*
X147905715Y-160555714D01*
X147977143Y-160412857D01*
X147977143Y-160127143D01*
X147905715Y-159984286D01*
X147834286Y-159912857D01*
X147691429Y-159841429D01*
X148548571Y-159341429D02*
X148620000Y-159270000D01*
X148762857Y-159198571D01*
X149120000Y-159198571D01*
X149262857Y-159270000D01*
X149334286Y-159341429D01*
X149405714Y-159484286D01*
X149405714Y-159627143D01*
X149334286Y-159841429D01*
X148477143Y-160698571D01*
X149405714Y-160698571D01*
X150691428Y-160627143D02*
X150548571Y-160698571D01*
X150262857Y-160698571D01*
X150119999Y-160627143D01*
X150048571Y-160555714D01*
X149977142Y-160412857D01*
X149977142Y-159984286D01*
X150048571Y-159841429D01*
X150119999Y-159770000D01*
X150262857Y-159698571D01*
X150548571Y-159698571D01*
X150691428Y-159770000D01*
X152048571Y-159198571D02*
X151334285Y-159198571D01*
X151262856Y-159912857D01*
X151334285Y-159841429D01*
X151477142Y-159770000D01*
X151834285Y-159770000D01*
X151977142Y-159841429D01*
X152048571Y-159912857D01*
X152119999Y-160055714D01*
X152119999Y-160412857D01*
X152048571Y-160555714D01*
X151977142Y-160627143D01*
X151834285Y-160698571D01*
X151477142Y-160698571D01*
X151334285Y-160627143D01*
X151262856Y-160555714D01*
X153477142Y-159198571D02*
X152762856Y-159198571D01*
X152691427Y-159912857D01*
X152762856Y-159841429D01*
X152905713Y-159770000D01*
X153262856Y-159770000D01*
X153405713Y-159841429D01*
X153477142Y-159912857D01*
X153548570Y-160055714D01*
X153548570Y-160412857D01*
X153477142Y-160555714D01*
X153405713Y-160627143D01*
X153262856Y-160698571D01*
X152905713Y-160698571D01*
X152762856Y-160627143D01*
X152691427Y-160555714D01*
X154191427Y-160127143D02*
X155334284Y-160127143D01*
X156048570Y-160698571D02*
X156048570Y-159698571D01*
X156048570Y-159198571D02*
X155977141Y-159270000D01*
X156048570Y-159341429D01*
X156119998Y-159270000D01*
X156048570Y-159198571D01*
X156048570Y-159341429D01*
X157405713Y-160698571D02*
X157405713Y-159198571D01*
X157405713Y-160627143D02*
X157262856Y-160698571D01*
X156977142Y-160698571D01*
X156834284Y-160627143D01*
X156762856Y-160555714D01*
X156691427Y-160412857D01*
X156691427Y-159984286D01*
X156762856Y-159841429D01*
X156834284Y-159770000D01*
X156977142Y-159698571D01*
X157262856Y-159698571D01*
X157405713Y-159770000D01*
X158691427Y-160627143D02*
X158548570Y-160698571D01*
X158262856Y-160698571D01*
X158119999Y-160627143D01*
X158048570Y-160484286D01*
X158048570Y-159912857D01*
X158119999Y-159770000D01*
X158262856Y-159698571D01*
X158548570Y-159698571D01*
X158691427Y-159770000D01*
X158762856Y-159912857D01*
X158762856Y-160055714D01*
X158048570Y-160198571D01*
D14*
X139760000Y-123250000D02*
X139760000Y-118050000D01*
X91440000Y-123250000D02*
X139760000Y-123250000D01*
X88840000Y-118050000D02*
X139760000Y-118050000D01*
X91440000Y-123250000D02*
X91440000Y-120650000D01*
X91440000Y-120650000D02*
X88840000Y-120650000D01*
X88840000Y-120650000D02*
X88840000Y-118050000D01*
X90170000Y-123250000D02*
X88840000Y-123250000D01*
X88840000Y-123250000D02*
X88840000Y-121920000D01*
X154940000Y-135890000D02*
X149860000Y-135890000D01*
X154940000Y-140330000D02*
X149860000Y-140330000D01*
X149860000Y-133990000D02*
X154940000Y-133990000D01*
X149860000Y-133990000D02*
X149860000Y-140330000D01*
X154940000Y-133990000D02*
X154940000Y-140330000D01*
X153730000Y-145990000D02*
X151070000Y-145990000D01*
X153730000Y-151130000D02*
X153730000Y-145990000D01*
X151070000Y-151130000D02*
X151070000Y-145990000D01*
X153730000Y-151130000D02*
X151070000Y-151130000D01*
X153730000Y-152400000D02*
X153730000Y-153730000D01*
X153730000Y-153730000D02*
X152400000Y-153730000D01*
X97035000Y-153400000D02*
X97035000Y-154770000D01*
X97035000Y-154770000D02*
X115055000Y-154770000D01*
X115055000Y-154770000D02*
X115055000Y-150030000D01*
X115055000Y-150030000D02*
X97035000Y-150030000D01*
X97035000Y-150030000D02*
X97035000Y-151400000D01*
X97035000Y-157600000D02*
X115055000Y-157600000D01*
X115055000Y-157600000D02*
X115055000Y-147200000D01*
X115055000Y-147200000D02*
X97035000Y-147200000D01*
X97035000Y-147200000D02*
X97035000Y-157600000D01*
X97035000Y-151400000D02*
G75*
G02X97035000Y-153400000I0J-1000000D01*
G01*
X121075000Y-153995000D02*
X121075000Y-157115000D01*
X118955000Y-153995000D02*
X118955000Y-157115000D01*
X121075000Y-153995000D02*
X121011000Y-153995000D01*
X119019000Y-153995000D02*
X118955000Y-153995000D01*
X121075000Y-157115000D02*
X121011000Y-157115000D01*
X119019000Y-157115000D02*
X118955000Y-157115000D01*
X65285000Y-153400000D02*
X65285000Y-154770000D01*
X65285000Y-154770000D02*
X90925000Y-154770000D01*
X90925000Y-154770000D02*
X90925000Y-150030000D01*
X90925000Y-150030000D02*
X65285000Y-150030000D01*
X65285000Y-150030000D02*
X65285000Y-151400000D01*
X65285000Y-157600000D02*
X90925000Y-157600000D01*
X90925000Y-157600000D02*
X90925000Y-147200000D01*
X90925000Y-147200000D02*
X65285000Y-147200000D01*
X65285000Y-147200000D02*
X65285000Y-157600000D01*
X65285000Y-151400000D02*
G75*
G02X65285000Y-153400000I0J-1000000D01*
G01*
X62000000Y-164330000D02*
X60670000Y-164330000D01*
X60670000Y-164330000D02*
X60670000Y-163000000D01*
D15*
X146050000Y-138430000D02*
X142240000Y-134620000D01*
X142240000Y-134620000D02*
X123190000Y-134620000D01*
X123190000Y-134620000D02*
X123190000Y-157480000D01*
X123190000Y-157480000D02*
X146050000Y-157480000D01*
X146050000Y-157480000D02*
X146050000Y-138430000D01*
D14*
X152435000Y-124805000D02*
X152435000Y-125135000D01*
X152435000Y-125135000D02*
X146015000Y-125135000D01*
X146015000Y-125135000D02*
X146015000Y-124805000D01*
X152435000Y-122845000D02*
X152435000Y-122515000D01*
X152435000Y-122515000D02*
X146015000Y-122515000D01*
X146015000Y-122515000D02*
X146015000Y-122845000D01*
X136405000Y-129965000D02*
X136405000Y-125845000D01*
X94345000Y-129965000D02*
X136405000Y-129965000D01*
X92285000Y-125845000D02*
X136405000Y-125845000D01*
X94345000Y-129965000D02*
X94345000Y-127905000D01*
X94345000Y-127905000D02*
X92285000Y-127905000D01*
X92285000Y-127905000D02*
X92285000Y-125845000D01*
X93345000Y-129965000D02*
X92285000Y-129965000D01*
X92285000Y-129965000D02*
X92285000Y-128905000D01*
X83325000Y-128140000D02*
X82055000Y-128140000D01*
X83325000Y-128140000D02*
X83325000Y-130680000D01*
X83125000Y-128340000D02*
X83125000Y-138360000D01*
X83125000Y-138360000D02*
X65465000Y-138360000D01*
X65465000Y-138360000D02*
X65465000Y-128340000D01*
X65465000Y-128340000D02*
X83125000Y-128340000D01*
X81280000Y-131320000D02*
X80010000Y-131320000D01*
X80010000Y-131320000D02*
X80010000Y-135380000D01*
X80010000Y-135380000D02*
X81280000Y-135380000D01*
X81280000Y-135380000D02*
X81280000Y-131320000D01*
X81280000Y-133350000D02*
X80010000Y-133350000D01*
X78740000Y-131320000D02*
X77470000Y-131320000D01*
X77470000Y-131320000D02*
X77470000Y-135380000D01*
X77470000Y-135380000D02*
X78740000Y-135380000D01*
X78740000Y-135380000D02*
X78740000Y-131320000D01*
X78740000Y-133350000D02*
X77470000Y-133350000D01*
X76200000Y-131320000D02*
X74930000Y-131320000D01*
X74930000Y-131320000D02*
X74930000Y-135380000D01*
X74930000Y-135380000D02*
X76200000Y-135380000D01*
X76200000Y-135380000D02*
X76200000Y-131320000D01*
X76200000Y-133350000D02*
X74930000Y-133350000D01*
X73660000Y-131320000D02*
X72390000Y-131320000D01*
X72390000Y-131320000D02*
X72390000Y-135380000D01*
X72390000Y-135380000D02*
X73660000Y-135380000D01*
X73660000Y-135380000D02*
X73660000Y-131320000D01*
X73660000Y-133350000D02*
X72390000Y-133350000D01*
X71120000Y-131320000D02*
X69850000Y-131320000D01*
X69850000Y-131320000D02*
X69850000Y-135380000D01*
X69850000Y-135380000D02*
X71120000Y-135380000D01*
X71120000Y-135380000D02*
X71120000Y-131320000D01*
X71120000Y-133350000D02*
X69850000Y-133350000D01*
X68580000Y-131320000D02*
X67310000Y-131320000D01*
X67310000Y-131320000D02*
X67310000Y-135380000D01*
X67310000Y-135380000D02*
X68580000Y-135380000D01*
X68580000Y-135380000D02*
X68580000Y-131320000D01*
X68580000Y-133350000D02*
X67310000Y-133350000D01*
X61805000Y-151440000D02*
X61805000Y-148320000D01*
X63925000Y-151440000D02*
X63925000Y-148320000D01*
X61805000Y-151440000D02*
X61869000Y-151440000D01*
X63861000Y-151440000D02*
X63925000Y-151440000D01*
X61805000Y-148320000D02*
X61869000Y-148320000D01*
X63861000Y-148320000D02*
X63925000Y-148320000D01*
X93555000Y-151440000D02*
X93555000Y-148320000D01*
X95675000Y-151440000D02*
X95675000Y-148320000D01*
X93555000Y-151440000D02*
X93619000Y-151440000D01*
X95611000Y-151440000D02*
X95675000Y-151440000D01*
X93555000Y-148320000D02*
X93619000Y-148320000D01*
X95611000Y-148320000D02*
X95675000Y-148320000D01*
X147515000Y-116850000D02*
X150935000Y-116850000D01*
X147515000Y-119370000D02*
X150935000Y-119370000D01*
X147515000Y-116850000D02*
X147515000Y-117030000D01*
X147515000Y-119190000D02*
X147515000Y-119370000D01*
X150935000Y-116850000D02*
X150935000Y-117015000D01*
X150935000Y-119205000D02*
X150935000Y-119370000D01*
X147635000Y-116850000D02*
X147635000Y-117030000D01*
X147635000Y-119190000D02*
X147635000Y-119370000D01*
X147755000Y-116850000D02*
X147755000Y-117030000D01*
X147755000Y-119190000D02*
X147755000Y-119370000D01*
X113090000Y-134560000D02*
X110430000Y-134560000D01*
X113090000Y-139700000D02*
X113090000Y-134560000D01*
X110430000Y-139700000D02*
X110430000Y-134560000D01*
X113090000Y-139700000D02*
X110430000Y-139700000D01*
X113090000Y-140970000D02*
X113090000Y-142300000D01*
X113090000Y-142300000D02*
X111760000Y-142300000D01*
X109280000Y-134560000D02*
X106620000Y-134560000D01*
X109280000Y-139700000D02*
X109280000Y-134560000D01*
X106620000Y-139700000D02*
X106620000Y-134560000D01*
X109280000Y-139700000D02*
X106620000Y-139700000D01*
X109280000Y-140970000D02*
X109280000Y-142300000D01*
X109280000Y-142300000D02*
X107950000Y-142300000D01*
X105470000Y-134560000D02*
X102810000Y-134560000D01*
X105470000Y-139700000D02*
X105470000Y-134560000D01*
X102810000Y-139700000D02*
X102810000Y-134560000D01*
X105470000Y-139700000D02*
X102810000Y-139700000D01*
X105470000Y-140970000D02*
X105470000Y-142300000D01*
X105470000Y-142300000D02*
X104140000Y-142300000D01*
X101660000Y-134560000D02*
X99000000Y-134560000D01*
X101660000Y-139700000D02*
X101660000Y-134560000D01*
X99000000Y-139700000D02*
X99000000Y-134560000D01*
X101660000Y-139700000D02*
X99000000Y-139700000D01*
X101660000Y-140970000D02*
X101660000Y-142300000D01*
X101660000Y-142300000D02*
X100330000Y-142300000D01*
X65235000Y-141475000D02*
X65235000Y-144275000D01*
X65235000Y-144275000D02*
X85895000Y-144275000D01*
X85895000Y-144275000D02*
X85895000Y-141475000D01*
X85895000Y-141475000D02*
X65235000Y-141475000D01*
X67945000Y-141475000D02*
X67945000Y-144275000D01*
X88865000Y-133005000D02*
X88865000Y-132675000D01*
X88865000Y-132675000D02*
X95285000Y-132675000D01*
X95285000Y-132675000D02*
X95285000Y-133005000D01*
X88865000Y-134965000D02*
X88865000Y-135295000D01*
X88865000Y-135295000D02*
X95285000Y-135295000D01*
X95285000Y-135295000D02*
X95285000Y-134965000D01*
X88865000Y-136815000D02*
X88865000Y-136485000D01*
X88865000Y-136485000D02*
X95285000Y-136485000D01*
X95285000Y-136485000D02*
X95285000Y-136815000D01*
X88865000Y-138775000D02*
X88865000Y-139105000D01*
X88865000Y-139105000D02*
X95285000Y-139105000D01*
X95285000Y-139105000D02*
X95285000Y-138775000D01*
X88865000Y-140625000D02*
X88865000Y-140295000D01*
X88865000Y-140295000D02*
X95285000Y-140295000D01*
X95285000Y-140295000D02*
X95285000Y-140625000D01*
X88865000Y-142585000D02*
X88865000Y-142915000D01*
X88865000Y-142915000D02*
X95285000Y-142915000D01*
X95285000Y-142915000D02*
X95285000Y-142585000D01*
D15*
X87506667Y-120102381D02*
X87506667Y-120816667D01*
X87459047Y-120959524D01*
X87363809Y-121054762D01*
X87220952Y-121102381D01*
X87125714Y-121102381D01*
X87935238Y-120197619D02*
X87982857Y-120150000D01*
X88078095Y-120102381D01*
X88316191Y-120102381D01*
X88411429Y-120150000D01*
X88459048Y-120197619D01*
X88506667Y-120292857D01*
X88506667Y-120388095D01*
X88459048Y-120530952D01*
X87887619Y-121102381D01*
X88506667Y-121102381D01*
X152066667Y-131532381D02*
X152066667Y-132246667D01*
X152019047Y-132389524D01*
X151923809Y-132484762D01*
X151780952Y-132532381D01*
X151685714Y-132532381D01*
X153066667Y-132532381D02*
X152495238Y-132532381D01*
X152780952Y-132532381D02*
X152780952Y-131532381D01*
X152685714Y-131675238D01*
X152590476Y-131770476D01*
X152495238Y-131818095D01*
X152066667Y-154182381D02*
X152066667Y-154896667D01*
X152019047Y-155039524D01*
X151923809Y-155134762D01*
X151780952Y-155182381D01*
X151685714Y-155182381D01*
X153019048Y-154182381D02*
X152542857Y-154182381D01*
X152495238Y-154658571D01*
X152542857Y-154610952D01*
X152638095Y-154563333D01*
X152876191Y-154563333D01*
X152971429Y-154610952D01*
X153019048Y-154658571D01*
X153066667Y-154753810D01*
X153066667Y-154991905D01*
X153019048Y-155087143D01*
X152971429Y-155134762D01*
X152876191Y-155182381D01*
X152638095Y-155182381D01*
X152542857Y-155134762D01*
X152495238Y-155087143D01*
X94488095Y-151852381D02*
X94488095Y-152661905D01*
X94535714Y-152757143D01*
X94583333Y-152804762D01*
X94678571Y-152852381D01*
X94869048Y-152852381D01*
X94964286Y-152804762D01*
X95011905Y-152757143D01*
X95059524Y-152661905D01*
X95059524Y-151852381D01*
X95440476Y-151852381D02*
X96059524Y-151852381D01*
X95726190Y-152233333D01*
X95869048Y-152233333D01*
X95964286Y-152280952D01*
X96011905Y-152328571D01*
X96059524Y-152423810D01*
X96059524Y-152661905D01*
X96011905Y-152757143D01*
X95964286Y-152804762D01*
X95869048Y-152852381D01*
X95583333Y-152852381D01*
X95488095Y-152804762D01*
X95440476Y-152757143D01*
X119848334Y-152122143D02*
X119800715Y-152169762D01*
X119657858Y-152217381D01*
X119562620Y-152217381D01*
X119419762Y-152169762D01*
X119324524Y-152074524D01*
X119276905Y-151979286D01*
X119229286Y-151788810D01*
X119229286Y-151645952D01*
X119276905Y-151455476D01*
X119324524Y-151360238D01*
X119419762Y-151265000D01*
X119562620Y-151217381D01*
X119657858Y-151217381D01*
X119800715Y-151265000D01*
X119848334Y-151312619D01*
X120229286Y-151312619D02*
X120276905Y-151265000D01*
X120372143Y-151217381D01*
X120610239Y-151217381D01*
X120705477Y-151265000D01*
X120753096Y-151312619D01*
X120800715Y-151407857D01*
X120800715Y-151503095D01*
X120753096Y-151645952D01*
X120181667Y-152217381D01*
X120800715Y-152217381D01*
X62738095Y-153122381D02*
X62738095Y-153931905D01*
X62785714Y-154027143D01*
X62833333Y-154074762D01*
X62928571Y-154122381D01*
X63119048Y-154122381D01*
X63214286Y-154074762D01*
X63261905Y-154027143D01*
X63309524Y-153931905D01*
X63309524Y-153122381D01*
X63738095Y-153217619D02*
X63785714Y-153170000D01*
X63880952Y-153122381D01*
X64119048Y-153122381D01*
X64214286Y-153170000D01*
X64261905Y-153217619D01*
X64309524Y-153312857D01*
X64309524Y-153408095D01*
X64261905Y-153550952D01*
X63690476Y-154122381D01*
X64309524Y-154122381D01*
X61261905Y-160912381D02*
X61261905Y-159912381D01*
X61642858Y-159912381D01*
X61738096Y-159960000D01*
X61785715Y-160007619D01*
X61833334Y-160102857D01*
X61833334Y-160245714D01*
X61785715Y-160340952D01*
X61738096Y-160388571D01*
X61642858Y-160436190D01*
X61261905Y-160436190D01*
X62785715Y-160912381D02*
X62214286Y-160912381D01*
X62500000Y-160912381D02*
X62500000Y-159912381D01*
X62404762Y-160055238D01*
X62309524Y-160150476D01*
X62214286Y-160198095D01*
X120523095Y-145502381D02*
X120523095Y-146311905D01*
X120570714Y-146407143D01*
X120618333Y-146454762D01*
X120713571Y-146502381D01*
X120904048Y-146502381D01*
X120999286Y-146454762D01*
X121046905Y-146407143D01*
X121094524Y-146311905D01*
X121094524Y-145502381D01*
X122094524Y-146502381D02*
X121523095Y-146502381D01*
X121808809Y-146502381D02*
X121808809Y-145502381D01*
X121713571Y-145645238D01*
X121618333Y-145740476D01*
X121523095Y-145788095D01*
X149058334Y-126587381D02*
X148725000Y-126111190D01*
X148486905Y-126587381D02*
X148486905Y-125587381D01*
X148867858Y-125587381D01*
X148963096Y-125635000D01*
X149010715Y-125682619D01*
X149058334Y-125777857D01*
X149058334Y-125920714D01*
X149010715Y-126015952D01*
X148963096Y-126063571D01*
X148867858Y-126111190D01*
X148486905Y-126111190D01*
X150010715Y-126587381D02*
X149439286Y-126587381D01*
X149725000Y-126587381D02*
X149725000Y-125587381D01*
X149629762Y-125730238D01*
X149534524Y-125825476D01*
X149439286Y-125873095D01*
X90951667Y-127357381D02*
X90951667Y-128071667D01*
X90904047Y-128214524D01*
X90808809Y-128309762D01*
X90665952Y-128357381D01*
X90570714Y-128357381D01*
X91332619Y-127357381D02*
X91951667Y-127357381D01*
X91618333Y-127738333D01*
X91761191Y-127738333D01*
X91856429Y-127785952D01*
X91904048Y-127833571D01*
X91951667Y-127928810D01*
X91951667Y-128166905D01*
X91904048Y-128262143D01*
X91856429Y-128309762D01*
X91761191Y-128357381D01*
X91475476Y-128357381D01*
X91380238Y-128309762D01*
X91332619Y-128262143D01*
X62166667Y-133754762D02*
X62309524Y-133802381D01*
X62547620Y-133802381D01*
X62642858Y-133754762D01*
X62690477Y-133707143D01*
X62738096Y-133611905D01*
X62738096Y-133516667D01*
X62690477Y-133421429D01*
X62642858Y-133373810D01*
X62547620Y-133326190D01*
X62357143Y-133278571D01*
X62261905Y-133230952D01*
X62214286Y-133183333D01*
X62166667Y-133088095D01*
X62166667Y-132992857D01*
X62214286Y-132897619D01*
X62261905Y-132850000D01*
X62357143Y-132802381D01*
X62595239Y-132802381D01*
X62738096Y-132850000D01*
X63071429Y-132802381D02*
X63309524Y-133802381D01*
X63500001Y-133088095D01*
X63690477Y-133802381D01*
X63928572Y-132802381D01*
X64833334Y-133802381D02*
X64261905Y-133802381D01*
X64547619Y-133802381D02*
X64547619Y-132802381D01*
X64452381Y-132945238D01*
X64357143Y-133040476D01*
X64261905Y-133088095D01*
X62698334Y-146407143D02*
X62650715Y-146454762D01*
X62507858Y-146502381D01*
X62412620Y-146502381D01*
X62269762Y-146454762D01*
X62174524Y-146359524D01*
X62126905Y-146264286D01*
X62079286Y-146073810D01*
X62079286Y-145930952D01*
X62126905Y-145740476D01*
X62174524Y-145645238D01*
X62269762Y-145550000D01*
X62412620Y-145502381D01*
X62507858Y-145502381D01*
X62650715Y-145550000D01*
X62698334Y-145597619D01*
X63650715Y-146502381D02*
X63079286Y-146502381D01*
X63365000Y-146502381D02*
X63365000Y-145502381D01*
X63269762Y-145645238D01*
X63174524Y-145740476D01*
X63079286Y-145788095D01*
X94448334Y-146407143D02*
X94400715Y-146454762D01*
X94257858Y-146502381D01*
X94162620Y-146502381D01*
X94019762Y-146454762D01*
X93924524Y-146359524D01*
X93876905Y-146264286D01*
X93829286Y-146073810D01*
X93829286Y-145930952D01*
X93876905Y-145740476D01*
X93924524Y-145645238D01*
X94019762Y-145550000D01*
X94162620Y-145502381D01*
X94257858Y-145502381D01*
X94400715Y-145550000D01*
X94448334Y-145597619D01*
X94781667Y-145502381D02*
X95400715Y-145502381D01*
X95067381Y-145883333D01*
X95210239Y-145883333D01*
X95305477Y-145930952D01*
X95353096Y-145978571D01*
X95400715Y-146073810D01*
X95400715Y-146311905D01*
X95353096Y-146407143D01*
X95305477Y-146454762D01*
X95210239Y-146502381D01*
X94924524Y-146502381D01*
X94829286Y-146454762D01*
X94781667Y-146407143D01*
X148486905Y-116302381D02*
X148486905Y-115302381D01*
X148725000Y-115302381D01*
X148867858Y-115350000D01*
X148963096Y-115445238D01*
X149010715Y-115540476D01*
X149058334Y-115730952D01*
X149058334Y-115873810D01*
X149010715Y-116064286D01*
X148963096Y-116159524D01*
X148867858Y-116254762D01*
X148725000Y-116302381D01*
X148486905Y-116302381D01*
X150010715Y-116302381D02*
X149439286Y-116302381D01*
X149725000Y-116302381D02*
X149725000Y-115302381D01*
X149629762Y-115445238D01*
X149534524Y-115540476D01*
X149439286Y-115588095D01*
X110926667Y-142752381D02*
X110926667Y-143466667D01*
X110879047Y-143609524D01*
X110783809Y-143704762D01*
X110640952Y-143752381D01*
X110545714Y-143752381D01*
X111402857Y-143752381D02*
X111402857Y-142752381D01*
X111783810Y-142752381D01*
X111879048Y-142800000D01*
X111926667Y-142847619D01*
X111974286Y-142942857D01*
X111974286Y-143085714D01*
X111926667Y-143180952D01*
X111879048Y-143228571D01*
X111783810Y-143276190D01*
X111402857Y-143276190D01*
X112926667Y-143752381D02*
X112355238Y-143752381D01*
X112640952Y-143752381D02*
X112640952Y-142752381D01*
X112545714Y-142895238D01*
X112450476Y-142990476D01*
X112355238Y-143038095D01*
X107116667Y-142752381D02*
X107116667Y-143466667D01*
X107069047Y-143609524D01*
X106973809Y-143704762D01*
X106830952Y-143752381D01*
X106735714Y-143752381D01*
X107592857Y-143752381D02*
X107592857Y-142752381D01*
X107973810Y-142752381D01*
X108069048Y-142800000D01*
X108116667Y-142847619D01*
X108164286Y-142942857D01*
X108164286Y-143085714D01*
X108116667Y-143180952D01*
X108069048Y-143228571D01*
X107973810Y-143276190D01*
X107592857Y-143276190D01*
X108545238Y-142847619D02*
X108592857Y-142800000D01*
X108688095Y-142752381D01*
X108926191Y-142752381D01*
X109021429Y-142800000D01*
X109069048Y-142847619D01*
X109116667Y-142942857D01*
X109116667Y-143038095D01*
X109069048Y-143180952D01*
X108497619Y-143752381D01*
X109116667Y-143752381D01*
X103306667Y-142752381D02*
X103306667Y-143466667D01*
X103259047Y-143609524D01*
X103163809Y-143704762D01*
X103020952Y-143752381D01*
X102925714Y-143752381D01*
X103782857Y-143752381D02*
X103782857Y-142752381D01*
X104163810Y-142752381D01*
X104259048Y-142800000D01*
X104306667Y-142847619D01*
X104354286Y-142942857D01*
X104354286Y-143085714D01*
X104306667Y-143180952D01*
X104259048Y-143228571D01*
X104163810Y-143276190D01*
X103782857Y-143276190D01*
X104687619Y-142752381D02*
X105306667Y-142752381D01*
X104973333Y-143133333D01*
X105116191Y-143133333D01*
X105211429Y-143180952D01*
X105259048Y-143228571D01*
X105306667Y-143323810D01*
X105306667Y-143561905D01*
X105259048Y-143657143D01*
X105211429Y-143704762D01*
X105116191Y-143752381D01*
X104830476Y-143752381D01*
X104735238Y-143704762D01*
X104687619Y-143657143D01*
X99496667Y-142752381D02*
X99496667Y-143466667D01*
X99449047Y-143609524D01*
X99353809Y-143704762D01*
X99210952Y-143752381D01*
X99115714Y-143752381D01*
X99972857Y-143752381D02*
X99972857Y-142752381D01*
X100353810Y-142752381D01*
X100449048Y-142800000D01*
X100496667Y-142847619D01*
X100544286Y-142942857D01*
X100544286Y-143085714D01*
X100496667Y-143180952D01*
X100449048Y-143228571D01*
X100353810Y-143276190D01*
X99972857Y-143276190D01*
X101401429Y-143085714D02*
X101401429Y-143752381D01*
X101163333Y-142704762D02*
X100925238Y-143419048D01*
X101544286Y-143419048D01*
X62809524Y-143327381D02*
X62476190Y-142851190D01*
X62238095Y-143327381D02*
X62238095Y-142327381D01*
X62619048Y-142327381D01*
X62714286Y-142375000D01*
X62761905Y-142422619D01*
X62809524Y-142517857D01*
X62809524Y-142660714D01*
X62761905Y-142755952D01*
X62714286Y-142803571D01*
X62619048Y-142851190D01*
X62238095Y-142851190D01*
X63238095Y-143327381D02*
X63238095Y-142327381D01*
X63809524Y-143327381D01*
X63809524Y-142327381D01*
X64809524Y-143327381D02*
X64238095Y-143327381D01*
X64523809Y-143327381D02*
X64523809Y-142327381D01*
X64428571Y-142470238D01*
X64333333Y-142565476D01*
X64238095Y-142613095D01*
X91908334Y-131897381D02*
X91575000Y-131421190D01*
X91336905Y-131897381D02*
X91336905Y-130897381D01*
X91717858Y-130897381D01*
X91813096Y-130945000D01*
X91860715Y-130992619D01*
X91908334Y-131087857D01*
X91908334Y-131230714D01*
X91860715Y-131325952D01*
X91813096Y-131373571D01*
X91717858Y-131421190D01*
X91336905Y-131421190D01*
X92289286Y-130992619D02*
X92336905Y-130945000D01*
X92432143Y-130897381D01*
X92670239Y-130897381D01*
X92765477Y-130945000D01*
X92813096Y-130992619D01*
X92860715Y-131087857D01*
X92860715Y-131183095D01*
X92813096Y-131325952D01*
X92241667Y-131897381D01*
X92860715Y-131897381D01*
X85558334Y-138247381D02*
X85225000Y-137771190D01*
X84986905Y-138247381D02*
X84986905Y-137247381D01*
X85367858Y-137247381D01*
X85463096Y-137295000D01*
X85510715Y-137342619D01*
X85558334Y-137437857D01*
X85558334Y-137580714D01*
X85510715Y-137675952D01*
X85463096Y-137723571D01*
X85367858Y-137771190D01*
X84986905Y-137771190D01*
X85891667Y-137247381D02*
X86510715Y-137247381D01*
X86177381Y-137628333D01*
X86320239Y-137628333D01*
X86415477Y-137675952D01*
X86463096Y-137723571D01*
X86510715Y-137818810D01*
X86510715Y-138056905D01*
X86463096Y-138152143D01*
X86415477Y-138199762D01*
X86320239Y-138247381D01*
X86034524Y-138247381D01*
X85939286Y-138199762D01*
X85891667Y-138152143D01*
X91908334Y-144597381D02*
X91575000Y-144121190D01*
X91336905Y-144597381D02*
X91336905Y-143597381D01*
X91717858Y-143597381D01*
X91813096Y-143645000D01*
X91860715Y-143692619D01*
X91908334Y-143787857D01*
X91908334Y-143930714D01*
X91860715Y-144025952D01*
X91813096Y-144073571D01*
X91717858Y-144121190D01*
X91336905Y-144121190D01*
X92765477Y-143930714D02*
X92765477Y-144597381D01*
X92527381Y-143549762D02*
X92289286Y-144264048D01*
X92908334Y-144264048D01*
M02*
