G04 #@! TF.FileFunction,Legend,Top*
%FSLAX46Y46*%
G04 Gerber Fmt 4.6, Leading zero omitted, Abs format (unit mm)*
G04 Created by KiCad (PCBNEW 4.0.7) date Wed Oct 18 00:41:33 2017*
%MOMM*%
%LPD*%
G01*
G04 APERTURE LIST*
%ADD10C,0.100000*%
%ADD11C,0.200000*%
%ADD12C,0.300000*%
%ADD13C,0.120000*%
%ADD14C,0.150000*%
G04 APERTURE END LIST*
D10*
D11*
X67104523Y-139152381D02*
X67199762Y-139152381D01*
X67295000Y-139200000D01*
X67342619Y-139247619D01*
X67390238Y-139342857D01*
X67437857Y-139533333D01*
X67437857Y-139771429D01*
X67390238Y-139961905D01*
X67342619Y-140057143D01*
X67295000Y-140104762D01*
X67199762Y-140152381D01*
X67104523Y-140152381D01*
X67009285Y-140104762D01*
X66961666Y-140057143D01*
X66914047Y-139961905D01*
X66866428Y-139771429D01*
X66866428Y-139533333D01*
X66914047Y-139342857D01*
X66961666Y-139247619D01*
X67009285Y-139200000D01*
X67104523Y-139152381D01*
X68295000Y-139485714D02*
X68295000Y-140152381D01*
X68056904Y-139104762D02*
X67818809Y-139819048D01*
X68437857Y-139819048D01*
X69771190Y-139152381D02*
X69866429Y-139152381D01*
X69961667Y-139200000D01*
X70009286Y-139247619D01*
X70056905Y-139342857D01*
X70104524Y-139533333D01*
X70104524Y-139771429D01*
X70056905Y-139961905D01*
X70009286Y-140057143D01*
X69961667Y-140104762D01*
X69866429Y-140152381D01*
X69771190Y-140152381D01*
X69675952Y-140104762D01*
X69628333Y-140057143D01*
X69580714Y-139961905D01*
X69533095Y-139771429D01*
X69533095Y-139533333D01*
X69580714Y-139342857D01*
X69628333Y-139247619D01*
X69675952Y-139200000D01*
X69771190Y-139152381D01*
X70675952Y-139580952D02*
X70580714Y-139533333D01*
X70533095Y-139485714D01*
X70485476Y-139390476D01*
X70485476Y-139342857D01*
X70533095Y-139247619D01*
X70580714Y-139200000D01*
X70675952Y-139152381D01*
X70866429Y-139152381D01*
X70961667Y-139200000D01*
X71009286Y-139247619D01*
X71056905Y-139342857D01*
X71056905Y-139390476D01*
X71009286Y-139485714D01*
X70961667Y-139533333D01*
X70866429Y-139580952D01*
X70675952Y-139580952D01*
X70580714Y-139628571D01*
X70533095Y-139676190D01*
X70485476Y-139771429D01*
X70485476Y-139961905D01*
X70533095Y-140057143D01*
X70580714Y-140104762D01*
X70675952Y-140152381D01*
X70866429Y-140152381D01*
X70961667Y-140104762D01*
X71009286Y-140057143D01*
X71056905Y-139961905D01*
X71056905Y-139771429D01*
X71009286Y-139676190D01*
X70961667Y-139628571D01*
X70866429Y-139580952D01*
X72771191Y-140152381D02*
X72199762Y-140152381D01*
X72485476Y-140152381D02*
X72485476Y-139152381D01*
X72390238Y-139295238D01*
X72295000Y-139390476D01*
X72199762Y-139438095D01*
X73390238Y-139152381D02*
X73485477Y-139152381D01*
X73580715Y-139200000D01*
X73628334Y-139247619D01*
X73675953Y-139342857D01*
X73723572Y-139533333D01*
X73723572Y-139771429D01*
X73675953Y-139961905D01*
X73628334Y-140057143D01*
X73580715Y-140104762D01*
X73485477Y-140152381D01*
X73390238Y-140152381D01*
X73295000Y-140104762D01*
X73247381Y-140057143D01*
X73199762Y-139961905D01*
X73152143Y-139771429D01*
X73152143Y-139533333D01*
X73199762Y-139342857D01*
X73247381Y-139247619D01*
X73295000Y-139200000D01*
X73390238Y-139152381D01*
X74866429Y-139247619D02*
X74914048Y-139200000D01*
X75009286Y-139152381D01*
X75247382Y-139152381D01*
X75342620Y-139200000D01*
X75390239Y-139247619D01*
X75437858Y-139342857D01*
X75437858Y-139438095D01*
X75390239Y-139580952D01*
X74818810Y-140152381D01*
X75437858Y-140152381D01*
X76056905Y-139152381D02*
X76152144Y-139152381D01*
X76247382Y-139200000D01*
X76295001Y-139247619D01*
X76342620Y-139342857D01*
X76390239Y-139533333D01*
X76390239Y-139771429D01*
X76342620Y-139961905D01*
X76295001Y-140057143D01*
X76247382Y-140104762D01*
X76152144Y-140152381D01*
X76056905Y-140152381D01*
X75961667Y-140104762D01*
X75914048Y-140057143D01*
X75866429Y-139961905D01*
X75818810Y-139771429D01*
X75818810Y-139533333D01*
X75866429Y-139342857D01*
X75914048Y-139247619D01*
X75961667Y-139200000D01*
X76056905Y-139152381D01*
X78009287Y-139485714D02*
X78009287Y-140152381D01*
X77771191Y-139104762D02*
X77533096Y-139819048D01*
X78152144Y-139819048D01*
X78723572Y-139152381D02*
X78818811Y-139152381D01*
X78914049Y-139200000D01*
X78961668Y-139247619D01*
X79009287Y-139342857D01*
X79056906Y-139533333D01*
X79056906Y-139771429D01*
X79009287Y-139961905D01*
X78961668Y-140057143D01*
X78914049Y-140104762D01*
X78818811Y-140152381D01*
X78723572Y-140152381D01*
X78628334Y-140104762D01*
X78580715Y-140057143D01*
X78533096Y-139961905D01*
X78485477Y-139771429D01*
X78485477Y-139533333D01*
X78533096Y-139342857D01*
X78580715Y-139247619D01*
X78628334Y-139200000D01*
X78723572Y-139152381D01*
X80390239Y-139580952D02*
X80295001Y-139533333D01*
X80247382Y-139485714D01*
X80199763Y-139390476D01*
X80199763Y-139342857D01*
X80247382Y-139247619D01*
X80295001Y-139200000D01*
X80390239Y-139152381D01*
X80580716Y-139152381D01*
X80675954Y-139200000D01*
X80723573Y-139247619D01*
X80771192Y-139342857D01*
X80771192Y-139390476D01*
X80723573Y-139485714D01*
X80675954Y-139533333D01*
X80580716Y-139580952D01*
X80390239Y-139580952D01*
X80295001Y-139628571D01*
X80247382Y-139676190D01*
X80199763Y-139771429D01*
X80199763Y-139961905D01*
X80247382Y-140057143D01*
X80295001Y-140104762D01*
X80390239Y-140152381D01*
X80580716Y-140152381D01*
X80675954Y-140104762D01*
X80723573Y-140057143D01*
X80771192Y-139961905D01*
X80771192Y-139771429D01*
X80723573Y-139676190D01*
X80675954Y-139628571D01*
X80580716Y-139580952D01*
X81390239Y-139152381D02*
X81485478Y-139152381D01*
X81580716Y-139200000D01*
X81628335Y-139247619D01*
X81675954Y-139342857D01*
X81723573Y-139533333D01*
X81723573Y-139771429D01*
X81675954Y-139961905D01*
X81628335Y-140057143D01*
X81580716Y-140104762D01*
X81485478Y-140152381D01*
X81390239Y-140152381D01*
X81295001Y-140104762D01*
X81247382Y-140057143D01*
X81199763Y-139961905D01*
X81152144Y-139771429D01*
X81152144Y-139533333D01*
X81199763Y-139342857D01*
X81247382Y-139247619D01*
X81295001Y-139200000D01*
X81390239Y-139152381D01*
X146606429Y-154282857D02*
X146606429Y-155254286D01*
X146663572Y-155368571D01*
X146720715Y-155425714D01*
X146835001Y-155482857D01*
X147063572Y-155482857D01*
X147177858Y-155425714D01*
X147235001Y-155368571D01*
X147292144Y-155254286D01*
X147292144Y-154282857D01*
X147806429Y-155425714D02*
X147920715Y-155482857D01*
X148149287Y-155482857D01*
X148263572Y-155425714D01*
X148320715Y-155311429D01*
X148320715Y-155254286D01*
X148263572Y-155140000D01*
X148149287Y-155082857D01*
X147977858Y-155082857D01*
X147863572Y-155025714D01*
X147806429Y-154911429D01*
X147806429Y-154854286D01*
X147863572Y-154740000D01*
X147977858Y-154682857D01*
X148149287Y-154682857D01*
X148263572Y-154740000D01*
X149292144Y-155425714D02*
X149177858Y-155482857D01*
X148949287Y-155482857D01*
X148835001Y-155425714D01*
X148777858Y-155311429D01*
X148777858Y-154854286D01*
X148835001Y-154740000D01*
X148949287Y-154682857D01*
X149177858Y-154682857D01*
X149292144Y-154740000D01*
X149349287Y-154854286D01*
X149349287Y-154968571D01*
X148777858Y-155082857D01*
X150777858Y-155482857D02*
X150777858Y-154282857D01*
X150777858Y-154740000D02*
X150892144Y-154682857D01*
X151120715Y-154682857D01*
X151235001Y-154740000D01*
X151292144Y-154797143D01*
X151349287Y-154911429D01*
X151349287Y-155254286D01*
X151292144Y-155368571D01*
X151235001Y-155425714D01*
X151120715Y-155482857D01*
X150892144Y-155482857D01*
X150777858Y-155425714D01*
X152377858Y-154682857D02*
X152377858Y-155482857D01*
X151863572Y-154682857D02*
X151863572Y-155311429D01*
X151920715Y-155425714D01*
X152035001Y-155482857D01*
X152206429Y-155482857D01*
X152320715Y-155425714D01*
X152377858Y-155368571D01*
X152892143Y-155425714D02*
X153006429Y-155482857D01*
X153235001Y-155482857D01*
X153349286Y-155425714D01*
X153406429Y-155311429D01*
X153406429Y-155254286D01*
X153349286Y-155140000D01*
X153235001Y-155082857D01*
X153063572Y-155082857D01*
X152949286Y-155025714D01*
X152892143Y-154911429D01*
X152892143Y-154854286D01*
X152949286Y-154740000D01*
X153063572Y-154682857D01*
X153235001Y-154682857D01*
X153349286Y-154740000D01*
X154835001Y-154682857D02*
X154835001Y-155882857D01*
X154835001Y-154740000D02*
X154949287Y-154682857D01*
X155177858Y-154682857D01*
X155292144Y-154740000D01*
X155349287Y-154797143D01*
X155406430Y-154911429D01*
X155406430Y-155254286D01*
X155349287Y-155368571D01*
X155292144Y-155425714D01*
X155177858Y-155482857D01*
X154949287Y-155482857D01*
X154835001Y-155425714D01*
X156092144Y-155482857D02*
X155977858Y-155425714D01*
X155920715Y-155368571D01*
X155863572Y-155254286D01*
X155863572Y-154911429D01*
X155920715Y-154797143D01*
X155977858Y-154740000D01*
X156092144Y-154682857D01*
X156263572Y-154682857D01*
X156377858Y-154740000D01*
X156435001Y-154797143D01*
X156492144Y-154911429D01*
X156492144Y-155254286D01*
X156435001Y-155368571D01*
X156377858Y-155425714D01*
X156263572Y-155482857D01*
X156092144Y-155482857D01*
X156892144Y-154682857D02*
X157120715Y-155482857D01*
X157349286Y-154911429D01*
X157577858Y-155482857D01*
X157806429Y-154682857D01*
X158720715Y-155425714D02*
X158606429Y-155482857D01*
X158377858Y-155482857D01*
X158263572Y-155425714D01*
X158206429Y-155311429D01*
X158206429Y-154854286D01*
X158263572Y-154740000D01*
X158377858Y-154682857D01*
X158606429Y-154682857D01*
X158720715Y-154740000D01*
X158777858Y-154854286D01*
X158777858Y-154968571D01*
X158206429Y-155082857D01*
X159292143Y-155482857D02*
X159292143Y-154682857D01*
X159292143Y-154911429D02*
X159349286Y-154797143D01*
X159406429Y-154740000D01*
X159520715Y-154682857D01*
X159635000Y-154682857D01*
X149282572Y-143694286D02*
X149682572Y-143694286D01*
X149854001Y-144322857D02*
X149282572Y-144322857D01*
X149282572Y-143122857D01*
X149854001Y-143122857D01*
X150254001Y-144322857D02*
X150882572Y-143522857D01*
X150254001Y-143522857D02*
X150882572Y-144322857D01*
X151168287Y-143522857D02*
X151625430Y-143522857D01*
X151339715Y-143122857D02*
X151339715Y-144151429D01*
X151396858Y-144265714D01*
X151511144Y-144322857D01*
X151625430Y-144322857D01*
X152482572Y-144265714D02*
X152368286Y-144322857D01*
X152139715Y-144322857D01*
X152025429Y-144265714D01*
X151968286Y-144151429D01*
X151968286Y-143694286D01*
X152025429Y-143580000D01*
X152139715Y-143522857D01*
X152368286Y-143522857D01*
X152482572Y-143580000D01*
X152539715Y-143694286D01*
X152539715Y-143808571D01*
X151968286Y-143922857D01*
X153054000Y-144322857D02*
X153054000Y-143522857D01*
X153054000Y-143751429D02*
X153111143Y-143637143D01*
X153168286Y-143580000D01*
X153282572Y-143522857D01*
X153396857Y-143522857D01*
X153796857Y-143522857D02*
X153796857Y-144322857D01*
X153796857Y-143637143D02*
X153854000Y-143580000D01*
X153968286Y-143522857D01*
X154139714Y-143522857D01*
X154254000Y-143580000D01*
X154311143Y-143694286D01*
X154311143Y-144322857D01*
X155396857Y-144322857D02*
X155396857Y-143694286D01*
X155339714Y-143580000D01*
X155225428Y-143522857D01*
X154996857Y-143522857D01*
X154882571Y-143580000D01*
X155396857Y-144265714D02*
X155282571Y-144322857D01*
X154996857Y-144322857D01*
X154882571Y-144265714D01*
X154825428Y-144151429D01*
X154825428Y-144037143D01*
X154882571Y-143922857D01*
X154996857Y-143865714D01*
X155282571Y-143865714D01*
X155396857Y-143808571D01*
X156139714Y-144322857D02*
X156025428Y-144265714D01*
X155968285Y-144151429D01*
X155968285Y-143122857D01*
X150282572Y-146322857D02*
X150282572Y-145122857D01*
X150739715Y-145122857D01*
X150854001Y-145180000D01*
X150911144Y-145237143D01*
X150968287Y-145351429D01*
X150968287Y-145522857D01*
X150911144Y-145637143D01*
X150854001Y-145694286D01*
X150739715Y-145751429D01*
X150282572Y-145751429D01*
X151654001Y-146322857D02*
X151539715Y-146265714D01*
X151482572Y-146208571D01*
X151425429Y-146094286D01*
X151425429Y-145751429D01*
X151482572Y-145637143D01*
X151539715Y-145580000D01*
X151654001Y-145522857D01*
X151825429Y-145522857D01*
X151939715Y-145580000D01*
X151996858Y-145637143D01*
X152054001Y-145751429D01*
X152054001Y-146094286D01*
X151996858Y-146208571D01*
X151939715Y-146265714D01*
X151825429Y-146322857D01*
X151654001Y-146322857D01*
X152454001Y-145522857D02*
X152682572Y-146322857D01*
X152911143Y-145751429D01*
X153139715Y-146322857D01*
X153368286Y-145522857D01*
X154282572Y-146265714D02*
X154168286Y-146322857D01*
X153939715Y-146322857D01*
X153825429Y-146265714D01*
X153768286Y-146151429D01*
X153768286Y-145694286D01*
X153825429Y-145580000D01*
X153939715Y-145522857D01*
X154168286Y-145522857D01*
X154282572Y-145580000D01*
X154339715Y-145694286D01*
X154339715Y-145808571D01*
X153768286Y-145922857D01*
X154854000Y-146322857D02*
X154854000Y-145522857D01*
X154854000Y-145751429D02*
X154911143Y-145637143D01*
X154968286Y-145580000D01*
X155082572Y-145522857D01*
X155196857Y-145522857D01*
X152540000Y-118310000D02*
X153111429Y-118310000D01*
X152425715Y-118652857D02*
X152825715Y-117452857D01*
X153225715Y-118652857D01*
X154140000Y-118595714D02*
X154025714Y-118652857D01*
X153797143Y-118652857D01*
X153682857Y-118595714D01*
X153625714Y-118538571D01*
X153568571Y-118424286D01*
X153568571Y-118081429D01*
X153625714Y-117967143D01*
X153682857Y-117910000D01*
X153797143Y-117852857D01*
X154025714Y-117852857D01*
X154140000Y-117910000D01*
X154482857Y-117852857D02*
X154940000Y-117852857D01*
X154654285Y-117452857D02*
X154654285Y-118481429D01*
X154711428Y-118595714D01*
X154825714Y-118652857D01*
X154940000Y-118652857D01*
X155339999Y-118652857D02*
X155339999Y-117852857D01*
X155339999Y-117452857D02*
X155282856Y-117510000D01*
X155339999Y-117567143D01*
X155397142Y-117510000D01*
X155339999Y-117452857D01*
X155339999Y-117567143D01*
X155797143Y-117852857D02*
X156082857Y-118652857D01*
X156368571Y-117852857D01*
X157282857Y-118595714D02*
X157168571Y-118652857D01*
X156940000Y-118652857D01*
X156825714Y-118595714D01*
X156768571Y-118481429D01*
X156768571Y-118024286D01*
X156825714Y-117910000D01*
X156940000Y-117852857D01*
X157168571Y-117852857D01*
X157282857Y-117910000D01*
X157340000Y-118024286D01*
X157340000Y-118138571D01*
X156768571Y-118252857D01*
X114224287Y-140642857D02*
X114510001Y-140642857D01*
X114510001Y-138928571D01*
X114224287Y-138928571D01*
X116052858Y-140242857D02*
X116052858Y-139042857D01*
X116338573Y-139042857D01*
X116510001Y-139100000D01*
X116624287Y-139214286D01*
X116681430Y-139328571D01*
X116738573Y-139557143D01*
X116738573Y-139728571D01*
X116681430Y-139957143D01*
X116624287Y-140071429D01*
X116510001Y-140185714D01*
X116338573Y-140242857D01*
X116052858Y-140242857D01*
X117710001Y-140185714D02*
X117595715Y-140242857D01*
X117367144Y-140242857D01*
X117252858Y-140185714D01*
X117195715Y-140071429D01*
X117195715Y-139614286D01*
X117252858Y-139500000D01*
X117367144Y-139442857D01*
X117595715Y-139442857D01*
X117710001Y-139500000D01*
X117767144Y-139614286D01*
X117767144Y-139728571D01*
X117195715Y-139842857D01*
X118110001Y-139442857D02*
X118567144Y-139442857D01*
X118281429Y-140242857D02*
X118281429Y-139214286D01*
X118338572Y-139100000D01*
X118452858Y-139042857D01*
X118567144Y-139042857D01*
X119481429Y-140242857D02*
X119481429Y-139614286D01*
X119424286Y-139500000D01*
X119310000Y-139442857D01*
X119081429Y-139442857D01*
X118967143Y-139500000D01*
X119481429Y-140185714D02*
X119367143Y-140242857D01*
X119081429Y-140242857D01*
X118967143Y-140185714D01*
X118910000Y-140071429D01*
X118910000Y-139957143D01*
X118967143Y-139842857D01*
X119081429Y-139785714D01*
X119367143Y-139785714D01*
X119481429Y-139728571D01*
X120567143Y-139442857D02*
X120567143Y-140242857D01*
X120052857Y-139442857D02*
X120052857Y-140071429D01*
X120110000Y-140185714D01*
X120224286Y-140242857D01*
X120395714Y-140242857D01*
X120510000Y-140185714D01*
X120567143Y-140128571D01*
X121310000Y-140242857D02*
X121195714Y-140185714D01*
X121138571Y-140071429D01*
X121138571Y-139042857D01*
X121595714Y-139442857D02*
X122052857Y-139442857D01*
X121767142Y-139042857D02*
X121767142Y-140071429D01*
X121824285Y-140185714D01*
X121938571Y-140242857D01*
X122052857Y-140242857D01*
X156565715Y-138465000D02*
X156451429Y-138407857D01*
X156280000Y-138407857D01*
X156108572Y-138465000D01*
X155994286Y-138579286D01*
X155937143Y-138693571D01*
X155880000Y-138922143D01*
X155880000Y-139093571D01*
X155937143Y-139322143D01*
X155994286Y-139436429D01*
X156108572Y-139550714D01*
X156280000Y-139607857D01*
X156394286Y-139607857D01*
X156565715Y-139550714D01*
X156622858Y-139493571D01*
X156622858Y-139093571D01*
X156394286Y-139093571D01*
X157137143Y-139607857D02*
X157137143Y-138407857D01*
X157822858Y-139607857D01*
X157822858Y-138407857D01*
X158394286Y-139607857D02*
X158394286Y-138407857D01*
X158680001Y-138407857D01*
X158851429Y-138465000D01*
X158965715Y-138579286D01*
X159022858Y-138693571D01*
X159080001Y-138922143D01*
X159080001Y-139093571D01*
X159022858Y-139322143D01*
X158965715Y-139436429D01*
X158851429Y-139550714D01*
X158680001Y-139607857D01*
X158394286Y-139607857D01*
X146469286Y-139150714D02*
X147383572Y-139150714D01*
X146926429Y-139607857D02*
X146926429Y-138693571D01*
X148526429Y-138407857D02*
X147955000Y-138407857D01*
X147897857Y-138979286D01*
X147955000Y-138922143D01*
X148069286Y-138865000D01*
X148355000Y-138865000D01*
X148469286Y-138922143D01*
X148526429Y-138979286D01*
X148583572Y-139093571D01*
X148583572Y-139379286D01*
X148526429Y-139493571D01*
X148469286Y-139550714D01*
X148355000Y-139607857D01*
X148069286Y-139607857D01*
X147955000Y-139550714D01*
X147897857Y-139493571D01*
X148983572Y-138807857D02*
X149269286Y-139607857D01*
X149555000Y-138807857D01*
X67279142Y-127166667D02*
X67755333Y-127166667D01*
X67183904Y-127452381D02*
X67517237Y-126452381D01*
X67850571Y-127452381D01*
X68136285Y-126547619D02*
X68183904Y-126500000D01*
X68279142Y-126452381D01*
X68517238Y-126452381D01*
X68612476Y-126500000D01*
X68660095Y-126547619D01*
X68707714Y-126642857D01*
X68707714Y-126738095D01*
X68660095Y-126880952D01*
X68088666Y-127452381D01*
X68707714Y-127452381D01*
X69850571Y-127166667D02*
X70326762Y-127166667D01*
X69755333Y-127452381D02*
X70088666Y-126452381D01*
X70422000Y-127452381D01*
X70660095Y-126452381D02*
X71279143Y-126452381D01*
X70945809Y-126833333D01*
X71088667Y-126833333D01*
X71183905Y-126880952D01*
X71231524Y-126928571D01*
X71279143Y-127023810D01*
X71279143Y-127261905D01*
X71231524Y-127357143D01*
X71183905Y-127404762D01*
X71088667Y-127452381D01*
X70802952Y-127452381D01*
X70707714Y-127404762D01*
X70660095Y-127357143D01*
X72422000Y-127166667D02*
X72898191Y-127166667D01*
X72326762Y-127452381D02*
X72660095Y-126452381D01*
X72993429Y-127452381D01*
X73755334Y-126785714D02*
X73755334Y-127452381D01*
X73517238Y-126404762D02*
X73279143Y-127119048D01*
X73898191Y-127119048D01*
X74993429Y-127166667D02*
X75469620Y-127166667D01*
X74898191Y-127452381D02*
X75231524Y-126452381D01*
X75564858Y-127452381D01*
X76374382Y-126452381D02*
X75898191Y-126452381D01*
X75850572Y-126928571D01*
X75898191Y-126880952D01*
X75993429Y-126833333D01*
X76231525Y-126833333D01*
X76326763Y-126880952D01*
X76374382Y-126928571D01*
X76422001Y-127023810D01*
X76422001Y-127261905D01*
X76374382Y-127357143D01*
X76326763Y-127404762D01*
X76231525Y-127452381D01*
X75993429Y-127452381D01*
X75898191Y-127404762D01*
X75850572Y-127357143D01*
X77564858Y-127166667D02*
X78041049Y-127166667D01*
X77469620Y-127452381D02*
X77802953Y-126452381D01*
X78136287Y-127452381D01*
X78898192Y-126452381D02*
X78707715Y-126452381D01*
X78612477Y-126500000D01*
X78564858Y-126547619D01*
X78469620Y-126690476D01*
X78422001Y-126880952D01*
X78422001Y-127261905D01*
X78469620Y-127357143D01*
X78517239Y-127404762D01*
X78612477Y-127452381D01*
X78802954Y-127452381D01*
X78898192Y-127404762D01*
X78945811Y-127357143D01*
X78993430Y-127261905D01*
X78993430Y-127023810D01*
X78945811Y-126928571D01*
X78898192Y-126880952D01*
X78802954Y-126833333D01*
X78612477Y-126833333D01*
X78517239Y-126880952D01*
X78469620Y-126928571D01*
X78422001Y-127023810D01*
X80136287Y-127166667D02*
X80612478Y-127166667D01*
X80041049Y-127452381D02*
X80374382Y-126452381D01*
X80707716Y-127452381D01*
X80945811Y-126452381D02*
X81612478Y-126452381D01*
X81183906Y-127452381D01*
D12*
X65909287Y-160698571D02*
X65409287Y-159984286D01*
X65052144Y-160698571D02*
X65052144Y-159198571D01*
X65623572Y-159198571D01*
X65766430Y-159270000D01*
X65837858Y-159341429D01*
X65909287Y-159484286D01*
X65909287Y-159698571D01*
X65837858Y-159841429D01*
X65766430Y-159912857D01*
X65623572Y-159984286D01*
X65052144Y-159984286D01*
X67123572Y-160627143D02*
X66980715Y-160698571D01*
X66695001Y-160698571D01*
X66552144Y-160627143D01*
X66480715Y-160484286D01*
X66480715Y-159912857D01*
X66552144Y-159770000D01*
X66695001Y-159698571D01*
X66980715Y-159698571D01*
X67123572Y-159770000D01*
X67195001Y-159912857D01*
X67195001Y-160055714D01*
X66480715Y-160198571D01*
X67695001Y-159698571D02*
X68052144Y-160698571D01*
X68409286Y-159698571D01*
X70052143Y-159341429D02*
X70123572Y-159270000D01*
X70266429Y-159198571D01*
X70623572Y-159198571D01*
X70766429Y-159270000D01*
X70837858Y-159341429D01*
X70909286Y-159484286D01*
X70909286Y-159627143D01*
X70837858Y-159841429D01*
X69980715Y-160698571D01*
X70909286Y-160698571D01*
X76105144Y-120561571D02*
X75605144Y-119847286D01*
X75248001Y-120561571D02*
X75248001Y-119061571D01*
X75819429Y-119061571D01*
X75962287Y-119133000D01*
X76033715Y-119204429D01*
X76105144Y-119347286D01*
X76105144Y-119561571D01*
X76033715Y-119704429D01*
X75962287Y-119775857D01*
X75819429Y-119847286D01*
X75248001Y-119847286D01*
X77605144Y-120418714D02*
X77533715Y-120490143D01*
X77319429Y-120561571D01*
X77176572Y-120561571D01*
X76962287Y-120490143D01*
X76819429Y-120347286D01*
X76748001Y-120204429D01*
X76676572Y-119918714D01*
X76676572Y-119704429D01*
X76748001Y-119418714D01*
X76819429Y-119275857D01*
X76962287Y-119133000D01*
X77176572Y-119061571D01*
X77319429Y-119061571D01*
X77533715Y-119133000D01*
X77605144Y-119204429D01*
X78176572Y-119204429D02*
X78248001Y-119133000D01*
X78390858Y-119061571D01*
X78748001Y-119061571D01*
X78890858Y-119133000D01*
X78962287Y-119204429D01*
X79033715Y-119347286D01*
X79033715Y-119490143D01*
X78962287Y-119704429D01*
X78105144Y-120561571D01*
X79033715Y-120561571D01*
X79962286Y-119061571D02*
X80105143Y-119061571D01*
X80248000Y-119133000D01*
X80319429Y-119204429D01*
X80390858Y-119347286D01*
X80462286Y-119633000D01*
X80462286Y-119990143D01*
X80390858Y-120275857D01*
X80319429Y-120418714D01*
X80248000Y-120490143D01*
X80105143Y-120561571D01*
X79962286Y-120561571D01*
X79819429Y-120490143D01*
X79748000Y-120418714D01*
X79676572Y-120275857D01*
X79605143Y-119990143D01*
X79605143Y-119633000D01*
X79676572Y-119347286D01*
X79748000Y-119204429D01*
X79819429Y-119133000D01*
X79962286Y-119061571D01*
X81890857Y-120561571D02*
X81033714Y-120561571D01*
X81462286Y-120561571D02*
X81462286Y-119061571D01*
X81319429Y-119275857D01*
X81176571Y-119418714D01*
X81033714Y-119490143D01*
X83176571Y-119561571D02*
X83176571Y-120561571D01*
X82819428Y-118990143D02*
X82462285Y-120061571D01*
X83390857Y-120061571D01*
X72998000Y-123111571D02*
X72998000Y-121611571D01*
X73712286Y-123111571D02*
X73712286Y-121611571D01*
X74069429Y-121611571D01*
X74283714Y-121683000D01*
X74426572Y-121825857D01*
X74498000Y-121968714D01*
X74569429Y-122254429D01*
X74569429Y-122468714D01*
X74498000Y-122754429D01*
X74426572Y-122897286D01*
X74283714Y-123040143D01*
X74069429Y-123111571D01*
X73712286Y-123111571D01*
X75212286Y-122325857D02*
X75712286Y-122325857D01*
X75926572Y-123111571D02*
X75212286Y-123111571D01*
X75212286Y-121611571D01*
X75926572Y-121611571D01*
X78355143Y-123111571D02*
X78355143Y-122325857D01*
X78283714Y-122183000D01*
X78140857Y-122111571D01*
X77855143Y-122111571D01*
X77712286Y-122183000D01*
X78355143Y-123040143D02*
X78212286Y-123111571D01*
X77855143Y-123111571D01*
X77712286Y-123040143D01*
X77640857Y-122897286D01*
X77640857Y-122754429D01*
X77712286Y-122611571D01*
X77855143Y-122540143D01*
X78212286Y-122540143D01*
X78355143Y-122468714D01*
X79712286Y-123111571D02*
X79712286Y-121611571D01*
X79712286Y-123040143D02*
X79569429Y-123111571D01*
X79283715Y-123111571D01*
X79140857Y-123040143D01*
X79069429Y-122968714D01*
X78998000Y-122825857D01*
X78998000Y-122397286D01*
X79069429Y-122254429D01*
X79140857Y-122183000D01*
X79283715Y-122111571D01*
X79569429Y-122111571D01*
X79712286Y-122183000D01*
X81069429Y-123111571D02*
X81069429Y-122325857D01*
X80998000Y-122183000D01*
X80855143Y-122111571D01*
X80569429Y-122111571D01*
X80426572Y-122183000D01*
X81069429Y-123040143D02*
X80926572Y-123111571D01*
X80569429Y-123111571D01*
X80426572Y-123040143D01*
X80355143Y-122897286D01*
X80355143Y-122754429D01*
X80426572Y-122611571D01*
X80569429Y-122540143D01*
X80926572Y-122540143D01*
X81069429Y-122468714D01*
X81783715Y-122111571D02*
X81783715Y-123611571D01*
X81783715Y-122183000D02*
X81926572Y-122111571D01*
X82212286Y-122111571D01*
X82355143Y-122183000D01*
X82426572Y-122254429D01*
X82498001Y-122397286D01*
X82498001Y-122825857D01*
X82426572Y-122968714D01*
X82355143Y-123040143D01*
X82212286Y-123111571D01*
X81926572Y-123111571D01*
X81783715Y-123040143D01*
X82926572Y-122111571D02*
X83498001Y-122111571D01*
X83140858Y-121611571D02*
X83140858Y-122897286D01*
X83212286Y-123040143D01*
X83355144Y-123111571D01*
X83498001Y-123111571D01*
X84569429Y-123040143D02*
X84426572Y-123111571D01*
X84140858Y-123111571D01*
X83998001Y-123040143D01*
X83926572Y-122897286D01*
X83926572Y-122325857D01*
X83998001Y-122183000D01*
X84140858Y-122111571D01*
X84426572Y-122111571D01*
X84569429Y-122183000D01*
X84640858Y-122325857D01*
X84640858Y-122468714D01*
X83926572Y-122611571D01*
X85283715Y-123111571D02*
X85283715Y-122111571D01*
X85283715Y-122397286D02*
X85355143Y-122254429D01*
X85426572Y-122183000D01*
X85569429Y-122111571D01*
X85712286Y-122111571D01*
X111191430Y-159698571D02*
X111191430Y-160912857D01*
X111120001Y-161055714D01*
X111048573Y-161127143D01*
X110905716Y-161198571D01*
X110691430Y-161198571D01*
X110548573Y-161127143D01*
X111191430Y-160627143D02*
X111048573Y-160698571D01*
X110762859Y-160698571D01*
X110620001Y-160627143D01*
X110548573Y-160555714D01*
X110477144Y-160412857D01*
X110477144Y-159984286D01*
X110548573Y-159841429D01*
X110620001Y-159770000D01*
X110762859Y-159698571D01*
X111048573Y-159698571D01*
X111191430Y-159770000D01*
X111905716Y-160698571D02*
X111905716Y-159698571D01*
X111905716Y-159198571D02*
X111834287Y-159270000D01*
X111905716Y-159341429D01*
X111977144Y-159270000D01*
X111905716Y-159198571D01*
X111905716Y-159341429D01*
X112405716Y-159698571D02*
X112977145Y-159698571D01*
X112620002Y-159198571D02*
X112620002Y-160484286D01*
X112691430Y-160627143D01*
X112834288Y-160698571D01*
X112977145Y-160698571D01*
X113477145Y-160698571D02*
X113477145Y-159198571D01*
X114120002Y-160698571D02*
X114120002Y-159912857D01*
X114048573Y-159770000D01*
X113905716Y-159698571D01*
X113691431Y-159698571D01*
X113548573Y-159770000D01*
X113477145Y-159841429D01*
X115477145Y-159698571D02*
X115477145Y-160698571D01*
X114834288Y-159698571D02*
X114834288Y-160484286D01*
X114905716Y-160627143D01*
X115048574Y-160698571D01*
X115262859Y-160698571D01*
X115405716Y-160627143D01*
X115477145Y-160555714D01*
X116191431Y-160698571D02*
X116191431Y-159198571D01*
X116191431Y-159770000D02*
X116334288Y-159698571D01*
X116620002Y-159698571D01*
X116762859Y-159770000D01*
X116834288Y-159841429D01*
X116905717Y-159984286D01*
X116905717Y-160412857D01*
X116834288Y-160555714D01*
X116762859Y-160627143D01*
X116620002Y-160698571D01*
X116334288Y-160698571D01*
X116191431Y-160627143D01*
X117548574Y-160555714D02*
X117620002Y-160627143D01*
X117548574Y-160698571D01*
X117477145Y-160627143D01*
X117548574Y-160555714D01*
X117548574Y-160698571D01*
X118905717Y-160627143D02*
X118762860Y-160698571D01*
X118477146Y-160698571D01*
X118334288Y-160627143D01*
X118262860Y-160555714D01*
X118191431Y-160412857D01*
X118191431Y-159984286D01*
X118262860Y-159841429D01*
X118334288Y-159770000D01*
X118477146Y-159698571D01*
X118762860Y-159698571D01*
X118905717Y-159770000D01*
X119762860Y-160698571D02*
X119620002Y-160627143D01*
X119548574Y-160555714D01*
X119477145Y-160412857D01*
X119477145Y-159984286D01*
X119548574Y-159841429D01*
X119620002Y-159770000D01*
X119762860Y-159698571D01*
X119977145Y-159698571D01*
X120120002Y-159770000D01*
X120191431Y-159841429D01*
X120262860Y-159984286D01*
X120262860Y-160412857D01*
X120191431Y-160555714D01*
X120120002Y-160627143D01*
X119977145Y-160698571D01*
X119762860Y-160698571D01*
X120905717Y-160698571D02*
X120905717Y-159698571D01*
X120905717Y-159841429D02*
X120977145Y-159770000D01*
X121120003Y-159698571D01*
X121334288Y-159698571D01*
X121477145Y-159770000D01*
X121548574Y-159912857D01*
X121548574Y-160698571D01*
X121548574Y-159912857D02*
X121620003Y-159770000D01*
X121762860Y-159698571D01*
X121977145Y-159698571D01*
X122120003Y-159770000D01*
X122191431Y-159912857D01*
X122191431Y-160698571D01*
X123977145Y-159127143D02*
X122691431Y-161055714D01*
X125048574Y-160627143D02*
X124905717Y-160698571D01*
X124620003Y-160698571D01*
X124477146Y-160627143D01*
X124405717Y-160484286D01*
X124405717Y-159912857D01*
X124477146Y-159770000D01*
X124620003Y-159698571D01*
X124905717Y-159698571D01*
X125048574Y-159770000D01*
X125120003Y-159912857D01*
X125120003Y-160055714D01*
X124405717Y-160198571D01*
X125977146Y-160698571D02*
X125834288Y-160627143D01*
X125762860Y-160484286D01*
X125762860Y-159198571D01*
X127120002Y-160627143D02*
X126977145Y-160698571D01*
X126691431Y-160698571D01*
X126548574Y-160627143D01*
X126477145Y-160484286D01*
X126477145Y-159912857D01*
X126548574Y-159770000D01*
X126691431Y-159698571D01*
X126977145Y-159698571D01*
X127120002Y-159770000D01*
X127191431Y-159912857D01*
X127191431Y-160055714D01*
X126477145Y-160198571D01*
X128477145Y-160627143D02*
X128334288Y-160698571D01*
X128048574Y-160698571D01*
X127905716Y-160627143D01*
X127834288Y-160555714D01*
X127762859Y-160412857D01*
X127762859Y-159984286D01*
X127834288Y-159841429D01*
X127905716Y-159770000D01*
X128048574Y-159698571D01*
X128334288Y-159698571D01*
X128477145Y-159770000D01*
X128905716Y-159698571D02*
X129477145Y-159698571D01*
X129120002Y-159198571D02*
X129120002Y-160484286D01*
X129191430Y-160627143D01*
X129334288Y-160698571D01*
X129477145Y-160698571D01*
X129977145Y-160698571D02*
X129977145Y-159698571D01*
X129977145Y-159984286D02*
X130048573Y-159841429D01*
X130120002Y-159770000D01*
X130262859Y-159698571D01*
X130405716Y-159698571D01*
X130905716Y-160698571D02*
X130905716Y-159698571D01*
X130905716Y-159198571D02*
X130834287Y-159270000D01*
X130905716Y-159341429D01*
X130977144Y-159270000D01*
X130905716Y-159198571D01*
X130905716Y-159341429D01*
X131405716Y-159698571D02*
X131977145Y-159698571D01*
X131620002Y-160698571D02*
X131620002Y-159412857D01*
X131691430Y-159270000D01*
X131834288Y-159198571D01*
X131977145Y-159198571D01*
X132477145Y-160698571D02*
X132477145Y-159698571D01*
X132477145Y-159198571D02*
X132405716Y-159270000D01*
X132477145Y-159341429D01*
X132548573Y-159270000D01*
X132477145Y-159198571D01*
X132477145Y-159341429D01*
X133762859Y-160627143D02*
X133620002Y-160698571D01*
X133334288Y-160698571D01*
X133191431Y-160627143D01*
X133120002Y-160484286D01*
X133120002Y-159912857D01*
X133191431Y-159770000D01*
X133334288Y-159698571D01*
X133620002Y-159698571D01*
X133762859Y-159770000D01*
X133834288Y-159912857D01*
X133834288Y-160055714D01*
X133120002Y-160198571D01*
X135120002Y-160698571D02*
X135120002Y-159198571D01*
X135120002Y-160627143D02*
X134977145Y-160698571D01*
X134691431Y-160698571D01*
X134548573Y-160627143D01*
X134477145Y-160555714D01*
X134405716Y-160412857D01*
X134405716Y-159984286D01*
X134477145Y-159841429D01*
X134548573Y-159770000D01*
X134691431Y-159698571D01*
X134977145Y-159698571D01*
X135120002Y-159770000D01*
X136905716Y-159127143D02*
X135620002Y-161055714D01*
X137405717Y-160698571D02*
X137405717Y-159698571D01*
X137405717Y-159984286D02*
X137477145Y-159841429D01*
X137548574Y-159770000D01*
X137691431Y-159698571D01*
X137834288Y-159698571D01*
X138977145Y-160627143D02*
X138834288Y-160698571D01*
X138548574Y-160698571D01*
X138405716Y-160627143D01*
X138334288Y-160555714D01*
X138262859Y-160412857D01*
X138262859Y-159984286D01*
X138334288Y-159841429D01*
X138405716Y-159770000D01*
X138548574Y-159698571D01*
X138834288Y-159698571D01*
X138977145Y-159770000D01*
X139548573Y-159341429D02*
X139620002Y-159270000D01*
X139762859Y-159198571D01*
X140120002Y-159198571D01*
X140262859Y-159270000D01*
X140334288Y-159341429D01*
X140405716Y-159484286D01*
X140405716Y-159627143D01*
X140334288Y-159841429D01*
X139477145Y-160698571D01*
X140405716Y-160698571D01*
X141334287Y-159198571D02*
X141477144Y-159198571D01*
X141620001Y-159270000D01*
X141691430Y-159341429D01*
X141762859Y-159484286D01*
X141834287Y-159770000D01*
X141834287Y-160127143D01*
X141762859Y-160412857D01*
X141691430Y-160555714D01*
X141620001Y-160627143D01*
X141477144Y-160698571D01*
X141334287Y-160698571D01*
X141191430Y-160627143D01*
X141120001Y-160555714D01*
X141048573Y-160412857D01*
X140977144Y-160127143D01*
X140977144Y-159770000D01*
X141048573Y-159484286D01*
X141120001Y-159341429D01*
X141191430Y-159270000D01*
X141334287Y-159198571D01*
X143262858Y-160698571D02*
X142405715Y-160698571D01*
X142834287Y-160698571D02*
X142834287Y-159198571D01*
X142691430Y-159412857D01*
X142548572Y-159555714D01*
X142405715Y-159627143D01*
X144548572Y-159698571D02*
X144548572Y-160698571D01*
X144191429Y-159127143D02*
X143834286Y-160198571D01*
X144762858Y-160198571D01*
X145334286Y-160127143D02*
X146477143Y-160127143D01*
X147405715Y-159841429D02*
X147262857Y-159770000D01*
X147191429Y-159698571D01*
X147120000Y-159555714D01*
X147120000Y-159484286D01*
X147191429Y-159341429D01*
X147262857Y-159270000D01*
X147405715Y-159198571D01*
X147691429Y-159198571D01*
X147834286Y-159270000D01*
X147905715Y-159341429D01*
X147977143Y-159484286D01*
X147977143Y-159555714D01*
X147905715Y-159698571D01*
X147834286Y-159770000D01*
X147691429Y-159841429D01*
X147405715Y-159841429D01*
X147262857Y-159912857D01*
X147191429Y-159984286D01*
X147120000Y-160127143D01*
X147120000Y-160412857D01*
X147191429Y-160555714D01*
X147262857Y-160627143D01*
X147405715Y-160698571D01*
X147691429Y-160698571D01*
X147834286Y-160627143D01*
X147905715Y-160555714D01*
X147977143Y-160412857D01*
X147977143Y-160127143D01*
X147905715Y-159984286D01*
X147834286Y-159912857D01*
X147691429Y-159841429D01*
X148548571Y-159341429D02*
X148620000Y-159270000D01*
X148762857Y-159198571D01*
X149120000Y-159198571D01*
X149262857Y-159270000D01*
X149334286Y-159341429D01*
X149405714Y-159484286D01*
X149405714Y-159627143D01*
X149334286Y-159841429D01*
X148477143Y-160698571D01*
X149405714Y-160698571D01*
X150691428Y-160627143D02*
X150548571Y-160698571D01*
X150262857Y-160698571D01*
X150119999Y-160627143D01*
X150048571Y-160555714D01*
X149977142Y-160412857D01*
X149977142Y-159984286D01*
X150048571Y-159841429D01*
X150119999Y-159770000D01*
X150262857Y-159698571D01*
X150548571Y-159698571D01*
X150691428Y-159770000D01*
X152048571Y-159198571D02*
X151334285Y-159198571D01*
X151262856Y-159912857D01*
X151334285Y-159841429D01*
X151477142Y-159770000D01*
X151834285Y-159770000D01*
X151977142Y-159841429D01*
X152048571Y-159912857D01*
X152119999Y-160055714D01*
X152119999Y-160412857D01*
X152048571Y-160555714D01*
X151977142Y-160627143D01*
X151834285Y-160698571D01*
X151477142Y-160698571D01*
X151334285Y-160627143D01*
X151262856Y-160555714D01*
X153477142Y-159198571D02*
X152762856Y-159198571D01*
X152691427Y-159912857D01*
X152762856Y-159841429D01*
X152905713Y-159770000D01*
X153262856Y-159770000D01*
X153405713Y-159841429D01*
X153477142Y-159912857D01*
X153548570Y-160055714D01*
X153548570Y-160412857D01*
X153477142Y-160555714D01*
X153405713Y-160627143D01*
X153262856Y-160698571D01*
X152905713Y-160698571D01*
X152762856Y-160627143D01*
X152691427Y-160555714D01*
X154191427Y-160127143D02*
X155334284Y-160127143D01*
X156048570Y-160698571D02*
X156048570Y-159698571D01*
X156048570Y-159198571D02*
X155977141Y-159270000D01*
X156048570Y-159341429D01*
X156119998Y-159270000D01*
X156048570Y-159198571D01*
X156048570Y-159341429D01*
X157405713Y-160698571D02*
X157405713Y-159198571D01*
X157405713Y-160627143D02*
X157262856Y-160698571D01*
X156977142Y-160698571D01*
X156834284Y-160627143D01*
X156762856Y-160555714D01*
X156691427Y-160412857D01*
X156691427Y-159984286D01*
X156762856Y-159841429D01*
X156834284Y-159770000D01*
X156977142Y-159698571D01*
X157262856Y-159698571D01*
X157405713Y-159770000D01*
X158691427Y-160627143D02*
X158548570Y-160698571D01*
X158262856Y-160698571D01*
X158119999Y-160627143D01*
X158048570Y-160484286D01*
X158048570Y-159912857D01*
X158119999Y-159770000D01*
X158262856Y-159698571D01*
X158548570Y-159698571D01*
X158691427Y-159770000D01*
X158762856Y-159912857D01*
X158762856Y-160055714D01*
X158048570Y-160198571D01*
D13*
X154940000Y-137795000D02*
X149860000Y-137795000D01*
X154940000Y-142235000D02*
X149860000Y-142235000D01*
X149860000Y-135895000D02*
X154940000Y-135895000D01*
X149860000Y-135895000D02*
X149860000Y-142235000D01*
X154940000Y-135895000D02*
X154940000Y-142235000D01*
X97035000Y-153400000D02*
X97035000Y-154770000D01*
X97035000Y-154770000D02*
X115055000Y-154770000D01*
X115055000Y-154770000D02*
X115055000Y-150030000D01*
X115055000Y-150030000D02*
X97035000Y-150030000D01*
X97035000Y-150030000D02*
X97035000Y-151400000D01*
X97035000Y-157600000D02*
X115055000Y-157600000D01*
X115055000Y-157600000D02*
X115055000Y-147200000D01*
X115055000Y-147200000D02*
X97035000Y-147200000D01*
X97035000Y-147200000D02*
X97035000Y-157600000D01*
X97035000Y-151400000D02*
G75*
G02X97035000Y-153400000I0J-1000000D01*
G01*
X121075000Y-153995000D02*
X121075000Y-157115000D01*
X118955000Y-153995000D02*
X118955000Y-157115000D01*
X121075000Y-153995000D02*
X121011000Y-153995000D01*
X119019000Y-153995000D02*
X118955000Y-153995000D01*
X121075000Y-157115000D02*
X121011000Y-157115000D01*
X119019000Y-157115000D02*
X118955000Y-157115000D01*
X65285000Y-153400000D02*
X65285000Y-154770000D01*
X65285000Y-154770000D02*
X90925000Y-154770000D01*
X90925000Y-154770000D02*
X90925000Y-150030000D01*
X90925000Y-150030000D02*
X65285000Y-150030000D01*
X65285000Y-150030000D02*
X65285000Y-151400000D01*
X65285000Y-157600000D02*
X90925000Y-157600000D01*
X90925000Y-157600000D02*
X90925000Y-147200000D01*
X90925000Y-147200000D02*
X65285000Y-147200000D01*
X65285000Y-147200000D02*
X65285000Y-157600000D01*
X65285000Y-151400000D02*
G75*
G02X65285000Y-153400000I0J-1000000D01*
G01*
X62000000Y-164330000D02*
X60670000Y-164330000D01*
X60670000Y-164330000D02*
X60670000Y-163000000D01*
D14*
X146050000Y-138430000D02*
X142240000Y-134620000D01*
X142240000Y-134620000D02*
X123190000Y-134620000D01*
X123190000Y-134620000D02*
X123190000Y-157480000D01*
X123190000Y-157480000D02*
X146050000Y-157480000D01*
X146050000Y-157480000D02*
X146050000Y-138430000D01*
D13*
X152435000Y-124805000D02*
X152435000Y-125135000D01*
X152435000Y-125135000D02*
X146015000Y-125135000D01*
X146015000Y-125135000D02*
X146015000Y-124805000D01*
X152435000Y-122845000D02*
X152435000Y-122515000D01*
X152435000Y-122515000D02*
X146015000Y-122515000D01*
X146015000Y-122515000D02*
X146015000Y-122845000D01*
X136405000Y-129965000D02*
X136405000Y-125845000D01*
X94345000Y-129965000D02*
X136405000Y-129965000D01*
X92285000Y-125845000D02*
X136405000Y-125845000D01*
X94345000Y-129965000D02*
X94345000Y-127905000D01*
X94345000Y-127905000D02*
X92285000Y-127905000D01*
X92285000Y-127905000D02*
X92285000Y-125845000D01*
X93345000Y-129965000D02*
X92285000Y-129965000D01*
X92285000Y-129965000D02*
X92285000Y-128905000D01*
X83325000Y-128140000D02*
X82055000Y-128140000D01*
X83325000Y-128140000D02*
X83325000Y-130680000D01*
X83125000Y-128340000D02*
X83125000Y-138360000D01*
X83125000Y-138360000D02*
X65465000Y-138360000D01*
X65465000Y-138360000D02*
X65465000Y-128340000D01*
X65465000Y-128340000D02*
X83125000Y-128340000D01*
X81280000Y-131320000D02*
X80010000Y-131320000D01*
X80010000Y-131320000D02*
X80010000Y-135380000D01*
X80010000Y-135380000D02*
X81280000Y-135380000D01*
X81280000Y-135380000D02*
X81280000Y-131320000D01*
X81280000Y-133350000D02*
X80010000Y-133350000D01*
X78740000Y-131320000D02*
X77470000Y-131320000D01*
X77470000Y-131320000D02*
X77470000Y-135380000D01*
X77470000Y-135380000D02*
X78740000Y-135380000D01*
X78740000Y-135380000D02*
X78740000Y-131320000D01*
X78740000Y-133350000D02*
X77470000Y-133350000D01*
X76200000Y-131320000D02*
X74930000Y-131320000D01*
X74930000Y-131320000D02*
X74930000Y-135380000D01*
X74930000Y-135380000D02*
X76200000Y-135380000D01*
X76200000Y-135380000D02*
X76200000Y-131320000D01*
X76200000Y-133350000D02*
X74930000Y-133350000D01*
X73660000Y-131320000D02*
X72390000Y-131320000D01*
X72390000Y-131320000D02*
X72390000Y-135380000D01*
X72390000Y-135380000D02*
X73660000Y-135380000D01*
X73660000Y-135380000D02*
X73660000Y-131320000D01*
X73660000Y-133350000D02*
X72390000Y-133350000D01*
X71120000Y-131320000D02*
X69850000Y-131320000D01*
X69850000Y-131320000D02*
X69850000Y-135380000D01*
X69850000Y-135380000D02*
X71120000Y-135380000D01*
X71120000Y-135380000D02*
X71120000Y-131320000D01*
X71120000Y-133350000D02*
X69850000Y-133350000D01*
X68580000Y-131320000D02*
X67310000Y-131320000D01*
X67310000Y-131320000D02*
X67310000Y-135380000D01*
X67310000Y-135380000D02*
X68580000Y-135380000D01*
X68580000Y-135380000D02*
X68580000Y-131320000D01*
X68580000Y-133350000D02*
X67310000Y-133350000D01*
X61805000Y-151440000D02*
X61805000Y-148320000D01*
X63925000Y-151440000D02*
X63925000Y-148320000D01*
X61805000Y-151440000D02*
X61869000Y-151440000D01*
X63861000Y-151440000D02*
X63925000Y-151440000D01*
X61805000Y-148320000D02*
X61869000Y-148320000D01*
X63861000Y-148320000D02*
X63925000Y-148320000D01*
X93555000Y-151440000D02*
X93555000Y-148320000D01*
X95675000Y-151440000D02*
X95675000Y-148320000D01*
X93555000Y-151440000D02*
X93619000Y-151440000D01*
X95611000Y-151440000D02*
X95675000Y-151440000D01*
X93555000Y-148320000D02*
X93619000Y-148320000D01*
X95611000Y-148320000D02*
X95675000Y-148320000D01*
X113090000Y-134560000D02*
X110430000Y-134560000D01*
X113090000Y-139700000D02*
X113090000Y-134560000D01*
X110430000Y-139700000D02*
X110430000Y-134560000D01*
X113090000Y-139700000D02*
X110430000Y-139700000D01*
X113090000Y-140970000D02*
X113090000Y-142300000D01*
X113090000Y-142300000D02*
X111760000Y-142300000D01*
X109280000Y-134560000D02*
X106620000Y-134560000D01*
X109280000Y-139700000D02*
X109280000Y-134560000D01*
X106620000Y-139700000D02*
X106620000Y-134560000D01*
X109280000Y-139700000D02*
X106620000Y-139700000D01*
X109280000Y-140970000D02*
X109280000Y-142300000D01*
X109280000Y-142300000D02*
X107950000Y-142300000D01*
X105470000Y-134560000D02*
X102810000Y-134560000D01*
X105470000Y-139700000D02*
X105470000Y-134560000D01*
X102810000Y-139700000D02*
X102810000Y-134560000D01*
X105470000Y-139700000D02*
X102810000Y-139700000D01*
X105470000Y-140970000D02*
X105470000Y-142300000D01*
X105470000Y-142300000D02*
X104140000Y-142300000D01*
X101660000Y-134560000D02*
X99000000Y-134560000D01*
X101660000Y-139700000D02*
X101660000Y-134560000D01*
X99000000Y-139700000D02*
X99000000Y-134560000D01*
X101660000Y-139700000D02*
X99000000Y-139700000D01*
X101660000Y-140970000D02*
X101660000Y-142300000D01*
X101660000Y-142300000D02*
X100330000Y-142300000D01*
X65235000Y-141475000D02*
X65235000Y-144275000D01*
X65235000Y-144275000D02*
X85895000Y-144275000D01*
X85895000Y-144275000D02*
X85895000Y-141475000D01*
X85895000Y-141475000D02*
X65235000Y-141475000D01*
X67945000Y-141475000D02*
X67945000Y-144275000D01*
X88865000Y-133005000D02*
X88865000Y-132675000D01*
X88865000Y-132675000D02*
X95285000Y-132675000D01*
X95285000Y-132675000D02*
X95285000Y-133005000D01*
X88865000Y-134965000D02*
X88865000Y-135295000D01*
X88865000Y-135295000D02*
X95285000Y-135295000D01*
X95285000Y-135295000D02*
X95285000Y-134965000D01*
X88865000Y-136815000D02*
X88865000Y-136485000D01*
X88865000Y-136485000D02*
X95285000Y-136485000D01*
X95285000Y-136485000D02*
X95285000Y-136815000D01*
X88865000Y-138775000D02*
X88865000Y-139105000D01*
X88865000Y-139105000D02*
X95285000Y-139105000D01*
X95285000Y-139105000D02*
X95285000Y-138775000D01*
X88865000Y-140625000D02*
X88865000Y-140295000D01*
X88865000Y-140295000D02*
X95285000Y-140295000D01*
X95285000Y-140295000D02*
X95285000Y-140625000D01*
X88865000Y-142585000D02*
X88865000Y-142915000D01*
X88865000Y-142915000D02*
X95285000Y-142915000D01*
X95285000Y-142915000D02*
X95285000Y-142585000D01*
X139760000Y-123250000D02*
X139760000Y-118050000D01*
X91440000Y-123250000D02*
X139760000Y-123250000D01*
X88840000Y-118050000D02*
X139760000Y-118050000D01*
X91440000Y-123250000D02*
X91440000Y-120650000D01*
X91440000Y-120650000D02*
X88840000Y-120650000D01*
X88840000Y-120650000D02*
X88840000Y-118050000D01*
X90170000Y-123250000D02*
X88840000Y-123250000D01*
X88840000Y-123250000D02*
X88840000Y-121920000D01*
X150897335Y-117031392D02*
G75*
G03X147665000Y-116874484I-1672335J-1078608D01*
G01*
X150897335Y-119188608D02*
G75*
G02X147665000Y-119345516I-1672335J1078608D01*
G01*
X150266130Y-117030163D02*
G75*
G03X148184039Y-117030000I-1041130J-1079837D01*
G01*
X150266130Y-119189837D02*
G75*
G02X148184039Y-119190000I-1041130J1079837D01*
G01*
X147665000Y-116874000D02*
X147665000Y-117030000D01*
X147665000Y-119190000D02*
X147665000Y-119346000D01*
X153730000Y-148530000D02*
X151070000Y-148530000D01*
X153730000Y-151130000D02*
X153730000Y-148530000D01*
X151070000Y-151130000D02*
X151070000Y-148530000D01*
X153730000Y-151130000D02*
X151070000Y-151130000D01*
X153730000Y-152400000D02*
X153730000Y-153730000D01*
X153730000Y-153730000D02*
X152400000Y-153730000D01*
D14*
X152066667Y-133437381D02*
X152066667Y-134151667D01*
X152019047Y-134294524D01*
X151923809Y-134389762D01*
X151780952Y-134437381D01*
X151685714Y-134437381D01*
X153066667Y-134437381D02*
X152495238Y-134437381D01*
X152780952Y-134437381D02*
X152780952Y-133437381D01*
X152685714Y-133580238D01*
X152590476Y-133675476D01*
X152495238Y-133723095D01*
X94488095Y-153122381D02*
X94488095Y-153931905D01*
X94535714Y-154027143D01*
X94583333Y-154074762D01*
X94678571Y-154122381D01*
X94869048Y-154122381D01*
X94964286Y-154074762D01*
X95011905Y-154027143D01*
X95059524Y-153931905D01*
X95059524Y-153122381D01*
X95440476Y-153122381D02*
X96059524Y-153122381D01*
X95726190Y-153503333D01*
X95869048Y-153503333D01*
X95964286Y-153550952D01*
X96011905Y-153598571D01*
X96059524Y-153693810D01*
X96059524Y-153931905D01*
X96011905Y-154027143D01*
X95964286Y-154074762D01*
X95869048Y-154122381D01*
X95583333Y-154122381D01*
X95488095Y-154074762D01*
X95440476Y-154027143D01*
X119848334Y-152122143D02*
X119800715Y-152169762D01*
X119657858Y-152217381D01*
X119562620Y-152217381D01*
X119419762Y-152169762D01*
X119324524Y-152074524D01*
X119276905Y-151979286D01*
X119229286Y-151788810D01*
X119229286Y-151645952D01*
X119276905Y-151455476D01*
X119324524Y-151360238D01*
X119419762Y-151265000D01*
X119562620Y-151217381D01*
X119657858Y-151217381D01*
X119800715Y-151265000D01*
X119848334Y-151312619D01*
X120229286Y-151312619D02*
X120276905Y-151265000D01*
X120372143Y-151217381D01*
X120610239Y-151217381D01*
X120705477Y-151265000D01*
X120753096Y-151312619D01*
X120800715Y-151407857D01*
X120800715Y-151503095D01*
X120753096Y-151645952D01*
X120181667Y-152217381D01*
X120800715Y-152217381D01*
X62738095Y-153122381D02*
X62738095Y-153931905D01*
X62785714Y-154027143D01*
X62833333Y-154074762D01*
X62928571Y-154122381D01*
X63119048Y-154122381D01*
X63214286Y-154074762D01*
X63261905Y-154027143D01*
X63309524Y-153931905D01*
X63309524Y-153122381D01*
X63738095Y-153217619D02*
X63785714Y-153170000D01*
X63880952Y-153122381D01*
X64119048Y-153122381D01*
X64214286Y-153170000D01*
X64261905Y-153217619D01*
X64309524Y-153312857D01*
X64309524Y-153408095D01*
X64261905Y-153550952D01*
X63690476Y-154122381D01*
X64309524Y-154122381D01*
X61261905Y-160912381D02*
X61261905Y-159912381D01*
X61642858Y-159912381D01*
X61738096Y-159960000D01*
X61785715Y-160007619D01*
X61833334Y-160102857D01*
X61833334Y-160245714D01*
X61785715Y-160340952D01*
X61738096Y-160388571D01*
X61642858Y-160436190D01*
X61261905Y-160436190D01*
X62785715Y-160912381D02*
X62214286Y-160912381D01*
X62500000Y-160912381D02*
X62500000Y-159912381D01*
X62404762Y-160055238D01*
X62309524Y-160150476D01*
X62214286Y-160198095D01*
X120523095Y-145502381D02*
X120523095Y-146311905D01*
X120570714Y-146407143D01*
X120618333Y-146454762D01*
X120713571Y-146502381D01*
X120904048Y-146502381D01*
X120999286Y-146454762D01*
X121046905Y-146407143D01*
X121094524Y-146311905D01*
X121094524Y-145502381D01*
X122094524Y-146502381D02*
X121523095Y-146502381D01*
X121808809Y-146502381D02*
X121808809Y-145502381D01*
X121713571Y-145645238D01*
X121618333Y-145740476D01*
X121523095Y-145788095D01*
X149058334Y-126817381D02*
X148725000Y-126341190D01*
X148486905Y-126817381D02*
X148486905Y-125817381D01*
X148867858Y-125817381D01*
X148963096Y-125865000D01*
X149010715Y-125912619D01*
X149058334Y-126007857D01*
X149058334Y-126150714D01*
X149010715Y-126245952D01*
X148963096Y-126293571D01*
X148867858Y-126341190D01*
X148486905Y-126341190D01*
X150010715Y-126817381D02*
X149439286Y-126817381D01*
X149725000Y-126817381D02*
X149725000Y-125817381D01*
X149629762Y-125960238D01*
X149534524Y-126055476D01*
X149439286Y-126103095D01*
X90951667Y-127357381D02*
X90951667Y-128071667D01*
X90904047Y-128214524D01*
X90808809Y-128309762D01*
X90665952Y-128357381D01*
X90570714Y-128357381D01*
X91332619Y-127357381D02*
X91951667Y-127357381D01*
X91618333Y-127738333D01*
X91761191Y-127738333D01*
X91856429Y-127785952D01*
X91904048Y-127833571D01*
X91951667Y-127928810D01*
X91951667Y-128166905D01*
X91904048Y-128262143D01*
X91856429Y-128309762D01*
X91761191Y-128357381D01*
X91475476Y-128357381D01*
X91380238Y-128309762D01*
X91332619Y-128262143D01*
X62166667Y-133754762D02*
X62309524Y-133802381D01*
X62547620Y-133802381D01*
X62642858Y-133754762D01*
X62690477Y-133707143D01*
X62738096Y-133611905D01*
X62738096Y-133516667D01*
X62690477Y-133421429D01*
X62642858Y-133373810D01*
X62547620Y-133326190D01*
X62357143Y-133278571D01*
X62261905Y-133230952D01*
X62214286Y-133183333D01*
X62166667Y-133088095D01*
X62166667Y-132992857D01*
X62214286Y-132897619D01*
X62261905Y-132850000D01*
X62357143Y-132802381D01*
X62595239Y-132802381D01*
X62738096Y-132850000D01*
X63071429Y-132802381D02*
X63309524Y-133802381D01*
X63500001Y-133088095D01*
X63690477Y-133802381D01*
X63928572Y-132802381D01*
X64833334Y-133802381D02*
X64261905Y-133802381D01*
X64547619Y-133802381D02*
X64547619Y-132802381D01*
X64452381Y-132945238D01*
X64357143Y-133040476D01*
X64261905Y-133088095D01*
X62698334Y-146407143D02*
X62650715Y-146454762D01*
X62507858Y-146502381D01*
X62412620Y-146502381D01*
X62269762Y-146454762D01*
X62174524Y-146359524D01*
X62126905Y-146264286D01*
X62079286Y-146073810D01*
X62079286Y-145930952D01*
X62126905Y-145740476D01*
X62174524Y-145645238D01*
X62269762Y-145550000D01*
X62412620Y-145502381D01*
X62507858Y-145502381D01*
X62650715Y-145550000D01*
X62698334Y-145597619D01*
X63650715Y-146502381D02*
X63079286Y-146502381D01*
X63365000Y-146502381D02*
X63365000Y-145502381D01*
X63269762Y-145645238D01*
X63174524Y-145740476D01*
X63079286Y-145788095D01*
X94448334Y-146407143D02*
X94400715Y-146454762D01*
X94257858Y-146502381D01*
X94162620Y-146502381D01*
X94019762Y-146454762D01*
X93924524Y-146359524D01*
X93876905Y-146264286D01*
X93829286Y-146073810D01*
X93829286Y-145930952D01*
X93876905Y-145740476D01*
X93924524Y-145645238D01*
X94019762Y-145550000D01*
X94162620Y-145502381D01*
X94257858Y-145502381D01*
X94400715Y-145550000D01*
X94448334Y-145597619D01*
X94781667Y-145502381D02*
X95400715Y-145502381D01*
X95067381Y-145883333D01*
X95210239Y-145883333D01*
X95305477Y-145930952D01*
X95353096Y-145978571D01*
X95400715Y-146073810D01*
X95400715Y-146311905D01*
X95353096Y-146407143D01*
X95305477Y-146454762D01*
X95210239Y-146502381D01*
X94924524Y-146502381D01*
X94829286Y-146454762D01*
X94781667Y-146407143D01*
X110926667Y-142752381D02*
X110926667Y-143466667D01*
X110879047Y-143609524D01*
X110783809Y-143704762D01*
X110640952Y-143752381D01*
X110545714Y-143752381D01*
X111402857Y-143752381D02*
X111402857Y-142752381D01*
X111783810Y-142752381D01*
X111879048Y-142800000D01*
X111926667Y-142847619D01*
X111974286Y-142942857D01*
X111974286Y-143085714D01*
X111926667Y-143180952D01*
X111879048Y-143228571D01*
X111783810Y-143276190D01*
X111402857Y-143276190D01*
X112926667Y-143752381D02*
X112355238Y-143752381D01*
X112640952Y-143752381D02*
X112640952Y-142752381D01*
X112545714Y-142895238D01*
X112450476Y-142990476D01*
X112355238Y-143038095D01*
X107116667Y-142752381D02*
X107116667Y-143466667D01*
X107069047Y-143609524D01*
X106973809Y-143704762D01*
X106830952Y-143752381D01*
X106735714Y-143752381D01*
X107592857Y-143752381D02*
X107592857Y-142752381D01*
X107973810Y-142752381D01*
X108069048Y-142800000D01*
X108116667Y-142847619D01*
X108164286Y-142942857D01*
X108164286Y-143085714D01*
X108116667Y-143180952D01*
X108069048Y-143228571D01*
X107973810Y-143276190D01*
X107592857Y-143276190D01*
X108545238Y-142847619D02*
X108592857Y-142800000D01*
X108688095Y-142752381D01*
X108926191Y-142752381D01*
X109021429Y-142800000D01*
X109069048Y-142847619D01*
X109116667Y-142942857D01*
X109116667Y-143038095D01*
X109069048Y-143180952D01*
X108497619Y-143752381D01*
X109116667Y-143752381D01*
X103306667Y-142752381D02*
X103306667Y-143466667D01*
X103259047Y-143609524D01*
X103163809Y-143704762D01*
X103020952Y-143752381D01*
X102925714Y-143752381D01*
X103782857Y-143752381D02*
X103782857Y-142752381D01*
X104163810Y-142752381D01*
X104259048Y-142800000D01*
X104306667Y-142847619D01*
X104354286Y-142942857D01*
X104354286Y-143085714D01*
X104306667Y-143180952D01*
X104259048Y-143228571D01*
X104163810Y-143276190D01*
X103782857Y-143276190D01*
X104687619Y-142752381D02*
X105306667Y-142752381D01*
X104973333Y-143133333D01*
X105116191Y-143133333D01*
X105211429Y-143180952D01*
X105259048Y-143228571D01*
X105306667Y-143323810D01*
X105306667Y-143561905D01*
X105259048Y-143657143D01*
X105211429Y-143704762D01*
X105116191Y-143752381D01*
X104830476Y-143752381D01*
X104735238Y-143704762D01*
X104687619Y-143657143D01*
X99496667Y-142752381D02*
X99496667Y-143466667D01*
X99449047Y-143609524D01*
X99353809Y-143704762D01*
X99210952Y-143752381D01*
X99115714Y-143752381D01*
X99972857Y-143752381D02*
X99972857Y-142752381D01*
X100353810Y-142752381D01*
X100449048Y-142800000D01*
X100496667Y-142847619D01*
X100544286Y-142942857D01*
X100544286Y-143085714D01*
X100496667Y-143180952D01*
X100449048Y-143228571D01*
X100353810Y-143276190D01*
X99972857Y-143276190D01*
X101401429Y-143085714D02*
X101401429Y-143752381D01*
X101163333Y-142704762D02*
X100925238Y-143419048D01*
X101544286Y-143419048D01*
X62809524Y-143327381D02*
X62476190Y-142851190D01*
X62238095Y-143327381D02*
X62238095Y-142327381D01*
X62619048Y-142327381D01*
X62714286Y-142375000D01*
X62761905Y-142422619D01*
X62809524Y-142517857D01*
X62809524Y-142660714D01*
X62761905Y-142755952D01*
X62714286Y-142803571D01*
X62619048Y-142851190D01*
X62238095Y-142851190D01*
X63238095Y-143327381D02*
X63238095Y-142327381D01*
X63809524Y-143327381D01*
X63809524Y-142327381D01*
X64809524Y-143327381D02*
X64238095Y-143327381D01*
X64523809Y-143327381D02*
X64523809Y-142327381D01*
X64428571Y-142470238D01*
X64333333Y-142565476D01*
X64238095Y-142613095D01*
X91908334Y-131897381D02*
X91575000Y-131421190D01*
X91336905Y-131897381D02*
X91336905Y-130897381D01*
X91717858Y-130897381D01*
X91813096Y-130945000D01*
X91860715Y-130992619D01*
X91908334Y-131087857D01*
X91908334Y-131230714D01*
X91860715Y-131325952D01*
X91813096Y-131373571D01*
X91717858Y-131421190D01*
X91336905Y-131421190D01*
X92289286Y-130992619D02*
X92336905Y-130945000D01*
X92432143Y-130897381D01*
X92670239Y-130897381D01*
X92765477Y-130945000D01*
X92813096Y-130992619D01*
X92860715Y-131087857D01*
X92860715Y-131183095D01*
X92813096Y-131325952D01*
X92241667Y-131897381D01*
X92860715Y-131897381D01*
X85558334Y-138247381D02*
X85225000Y-137771190D01*
X84986905Y-138247381D02*
X84986905Y-137247381D01*
X85367858Y-137247381D01*
X85463096Y-137295000D01*
X85510715Y-137342619D01*
X85558334Y-137437857D01*
X85558334Y-137580714D01*
X85510715Y-137675952D01*
X85463096Y-137723571D01*
X85367858Y-137771190D01*
X84986905Y-137771190D01*
X85891667Y-137247381D02*
X86510715Y-137247381D01*
X86177381Y-137628333D01*
X86320239Y-137628333D01*
X86415477Y-137675952D01*
X86463096Y-137723571D01*
X86510715Y-137818810D01*
X86510715Y-138056905D01*
X86463096Y-138152143D01*
X86415477Y-138199762D01*
X86320239Y-138247381D01*
X86034524Y-138247381D01*
X85939286Y-138199762D01*
X85891667Y-138152143D01*
X91908334Y-144597381D02*
X91575000Y-144121190D01*
X91336905Y-144597381D02*
X91336905Y-143597381D01*
X91717858Y-143597381D01*
X91813096Y-143645000D01*
X91860715Y-143692619D01*
X91908334Y-143787857D01*
X91908334Y-143930714D01*
X91860715Y-144025952D01*
X91813096Y-144073571D01*
X91717858Y-144121190D01*
X91336905Y-144121190D01*
X92765477Y-143930714D02*
X92765477Y-144597381D01*
X92527381Y-143549762D02*
X92289286Y-144264048D01*
X92908334Y-144264048D01*
X87296667Y-120102381D02*
X87296667Y-120816667D01*
X87249047Y-120959524D01*
X87153809Y-121054762D01*
X87010952Y-121102381D01*
X86915714Y-121102381D01*
X87725238Y-120197619D02*
X87772857Y-120150000D01*
X87868095Y-120102381D01*
X88106191Y-120102381D01*
X88201429Y-120150000D01*
X88249048Y-120197619D01*
X88296667Y-120292857D01*
X88296667Y-120388095D01*
X88249048Y-120530952D01*
X87677619Y-121102381D01*
X88296667Y-121102381D01*
X144676905Y-118562381D02*
X144676905Y-117562381D01*
X144915000Y-117562381D01*
X145057858Y-117610000D01*
X145153096Y-117705238D01*
X145200715Y-117800476D01*
X145248334Y-117990952D01*
X145248334Y-118133810D01*
X145200715Y-118324286D01*
X145153096Y-118419524D01*
X145057858Y-118514762D01*
X144915000Y-118562381D01*
X144676905Y-118562381D01*
X146200715Y-118562381D02*
X145629286Y-118562381D01*
X145915000Y-118562381D02*
X145915000Y-117562381D01*
X145819762Y-117705238D01*
X145724524Y-117800476D01*
X145629286Y-117848095D01*
X149272667Y-151852381D02*
X149272667Y-152566667D01*
X149225047Y-152709524D01*
X149129809Y-152804762D01*
X148986952Y-152852381D01*
X148891714Y-152852381D01*
X150225048Y-151852381D02*
X149748857Y-151852381D01*
X149701238Y-152328571D01*
X149748857Y-152280952D01*
X149844095Y-152233333D01*
X150082191Y-152233333D01*
X150177429Y-152280952D01*
X150225048Y-152328571D01*
X150272667Y-152423810D01*
X150272667Y-152661905D01*
X150225048Y-152757143D01*
X150177429Y-152804762D01*
X150082191Y-152852381D01*
X149844095Y-152852381D01*
X149748857Y-152804762D01*
X149701238Y-152757143D01*
M02*
