G04 #@! TF.FileFunction,Soldermask,Bot*
%FSLAX46Y46*%
G04 Gerber Fmt 4.6, Leading zero omitted, Abs format (unit mm)*
G04 Created by KiCad (PCBNEW 4.0.7) date Wed Oct 18 00:41:33 2017*
%MOMM*%
%LPD*%
G01*
G04 APERTURE LIST*
%ADD10C,0.100000*%
%ADD11O,1.910000X3.410000*%
%ADD12R,2.000000X2.800000*%
%ADD13O,2.000000X2.800000*%
%ADD14C,2.000000*%
%ADD15R,2.400000X2.400000*%
%ADD16O,2.400000X2.400000*%
%ADD17R,1.797000X1.797000*%
%ADD18C,1.797000*%
%ADD19O,2.000000X2.000000*%
%ADD20R,1.750000X1.750000*%
%ADD21O,1.750000X1.750000*%
%ADD22R,2.000000X2.000000*%
%ADD23R,2.100000X2.100000*%
%ADD24O,2.100000X2.100000*%
%ADD25R,2.200000X2.200000*%
%ADD26C,2.200000*%
G04 APERTURE END LIST*
D10*
D11*
X151130000Y-139065000D03*
X153670000Y-139065000D03*
D12*
X98425000Y-156210000D03*
D13*
X113665000Y-148590000D03*
X100965000Y-156210000D03*
X111125000Y-148590000D03*
X103505000Y-156210000D03*
X108585000Y-148590000D03*
X106045000Y-156210000D03*
X106045000Y-148590000D03*
X108585000Y-156210000D03*
X103505000Y-148590000D03*
X111125000Y-156210000D03*
X100965000Y-148590000D03*
X113665000Y-156210000D03*
X98425000Y-148590000D03*
D14*
X120015000Y-154305000D03*
X120015000Y-156805000D03*
D12*
X66675000Y-156210000D03*
D13*
X89535000Y-148590000D03*
X69215000Y-156210000D03*
X86995000Y-148590000D03*
X71755000Y-156210000D03*
X84455000Y-148590000D03*
X74295000Y-156210000D03*
X81915000Y-148590000D03*
X76835000Y-156210000D03*
X79375000Y-148590000D03*
X79375000Y-156210000D03*
X76835000Y-148590000D03*
X81915000Y-156210000D03*
X74295000Y-148590000D03*
X84455000Y-156210000D03*
X71755000Y-148590000D03*
X86995000Y-156210000D03*
X69215000Y-148590000D03*
X89535000Y-156210000D03*
X66675000Y-148590000D03*
D15*
X62000000Y-163000000D03*
D16*
X64540000Y-163000000D03*
X67080000Y-163000000D03*
X69620000Y-163000000D03*
X72160000Y-163000000D03*
X74700000Y-163000000D03*
X77240000Y-163000000D03*
X79780000Y-163000000D03*
X82320000Y-163000000D03*
X84860000Y-163000000D03*
X87400000Y-163000000D03*
X89940000Y-163000000D03*
X92480000Y-163000000D03*
X95020000Y-163000000D03*
X97560000Y-163000000D03*
X100100000Y-163000000D03*
X102640000Y-163000000D03*
X105180000Y-163000000D03*
X107720000Y-163000000D03*
X110260000Y-163000000D03*
X112800000Y-163000000D03*
X115340000Y-163000000D03*
X117880000Y-163000000D03*
X120420000Y-163000000D03*
X122960000Y-163000000D03*
X125500000Y-163000000D03*
X128040000Y-163000000D03*
X130580000Y-163000000D03*
X133120000Y-163000000D03*
X135660000Y-163000000D03*
X138200000Y-163000000D03*
X140740000Y-163000000D03*
X143280000Y-163000000D03*
X145820000Y-163000000D03*
X148360000Y-163000000D03*
X150900000Y-163000000D03*
X153440000Y-163000000D03*
X155980000Y-163000000D03*
X158520000Y-163000000D03*
D17*
X140970000Y-147320000D03*
D18*
X143510000Y-144780000D03*
X140970000Y-144780000D03*
X143510000Y-142240000D03*
X140970000Y-142240000D03*
X143510000Y-139700000D03*
X140970000Y-137160000D03*
X140970000Y-139700000D03*
X138430000Y-137160000D03*
X138430000Y-139700000D03*
X135890000Y-137160000D03*
X135890000Y-139700000D03*
X133350000Y-137160000D03*
X133350000Y-139700000D03*
X130810000Y-137160000D03*
X130810000Y-139700000D03*
X128270000Y-137160000D03*
X125730000Y-139700000D03*
X128270000Y-139700000D03*
X125730000Y-142240000D03*
X128270000Y-142240000D03*
X125730000Y-144780000D03*
X128270000Y-144780000D03*
X125730000Y-147320000D03*
X128270000Y-147320000D03*
X125730000Y-149860000D03*
X128270000Y-149860000D03*
X125730000Y-152400000D03*
X128270000Y-154940000D03*
X128270000Y-152400000D03*
X130810000Y-154940000D03*
X130810000Y-152400000D03*
X133350000Y-154940000D03*
X133350000Y-152400000D03*
X135890000Y-154940000D03*
X135890000Y-152400000D03*
X138430000Y-154940000D03*
X138430000Y-152400000D03*
X140970000Y-154940000D03*
X143510000Y-152400000D03*
X140970000Y-152400000D03*
X143510000Y-149860000D03*
X140970000Y-149860000D03*
X143510000Y-147320000D03*
D14*
X153035000Y-123825000D03*
D19*
X145415000Y-123825000D03*
D20*
X93345000Y-128905000D03*
D21*
X93345000Y-126905000D03*
X95345000Y-128905000D03*
X95345000Y-126905000D03*
X97345000Y-128905000D03*
X97345000Y-126905000D03*
X99345000Y-128905000D03*
X99345000Y-126905000D03*
X101345000Y-128905000D03*
X101345000Y-126905000D03*
X103345000Y-128905000D03*
X103345000Y-126905000D03*
X105345000Y-128905000D03*
X105345000Y-126905000D03*
X107345000Y-128905000D03*
X107345000Y-126905000D03*
X109345000Y-128905000D03*
X109345000Y-126905000D03*
X111345000Y-128905000D03*
X111345000Y-126905000D03*
X113345000Y-128905000D03*
X113345000Y-126905000D03*
X115345000Y-128905000D03*
X115345000Y-126905000D03*
X117345000Y-128905000D03*
X117345000Y-126905000D03*
X119345000Y-128905000D03*
X119345000Y-126905000D03*
X121345000Y-128905000D03*
X121345000Y-126905000D03*
X123345000Y-128905000D03*
X123345000Y-126905000D03*
X125345000Y-128905000D03*
X125345000Y-126905000D03*
X127345000Y-128905000D03*
X127345000Y-126905000D03*
X129345000Y-128905000D03*
X129345000Y-126905000D03*
X131345000Y-128905000D03*
X131345000Y-126905000D03*
X133345000Y-128905000D03*
X133345000Y-126905000D03*
X135345000Y-128905000D03*
X135345000Y-126905000D03*
D22*
X80645000Y-129540000D03*
D19*
X67945000Y-137160000D03*
X78105000Y-129540000D03*
X70485000Y-137160000D03*
X75565000Y-129540000D03*
X73025000Y-137160000D03*
X73025000Y-129540000D03*
X75565000Y-137160000D03*
X70485000Y-129540000D03*
X78105000Y-137160000D03*
X67945000Y-129540000D03*
X80645000Y-137160000D03*
D14*
X62865000Y-151130000D03*
X62865000Y-148630000D03*
X94615000Y-151130000D03*
X94615000Y-148630000D03*
D23*
X111760000Y-140970000D03*
D24*
X111760000Y-138430000D03*
X111760000Y-135890000D03*
D23*
X107950000Y-140970000D03*
D24*
X107950000Y-138430000D03*
X107950000Y-135890000D03*
D23*
X104140000Y-140970000D03*
D24*
X104140000Y-138430000D03*
X104140000Y-135890000D03*
D23*
X100330000Y-140970000D03*
D24*
X100330000Y-138430000D03*
X100330000Y-135890000D03*
D22*
X66675000Y-142875000D03*
D19*
X69215000Y-142875000D03*
X71755000Y-142875000D03*
X74295000Y-142875000D03*
X76835000Y-142875000D03*
X79375000Y-142875000D03*
X81915000Y-142875000D03*
X84455000Y-142875000D03*
D14*
X88265000Y-133985000D03*
D19*
X95885000Y-133985000D03*
D14*
X88265000Y-137795000D03*
D19*
X95885000Y-137795000D03*
D14*
X88265000Y-141605000D03*
D19*
X95885000Y-141605000D03*
D23*
X90170000Y-121920000D03*
D24*
X90170000Y-119380000D03*
X92710000Y-121920000D03*
X92710000Y-119380000D03*
X95250000Y-121920000D03*
X95250000Y-119380000D03*
X97790000Y-121920000D03*
X97790000Y-119380000D03*
X100330000Y-121920000D03*
X100330000Y-119380000D03*
X102870000Y-121920000D03*
X102870000Y-119380000D03*
X105410000Y-121920000D03*
X105410000Y-119380000D03*
X107950000Y-121920000D03*
X107950000Y-119380000D03*
X110490000Y-121920000D03*
X110490000Y-119380000D03*
X113030000Y-121920000D03*
X113030000Y-119380000D03*
X115570000Y-121920000D03*
X115570000Y-119380000D03*
X118110000Y-121920000D03*
X118110000Y-119380000D03*
X120650000Y-121920000D03*
X120650000Y-119380000D03*
X123190000Y-121920000D03*
X123190000Y-119380000D03*
X125730000Y-121920000D03*
X125730000Y-119380000D03*
X128270000Y-121920000D03*
X128270000Y-119380000D03*
X130810000Y-121920000D03*
X130810000Y-119380000D03*
X133350000Y-121920000D03*
X133350000Y-119380000D03*
X135890000Y-121920000D03*
X135890000Y-119380000D03*
X138430000Y-121920000D03*
X138430000Y-119380000D03*
D25*
X147955000Y-118110000D03*
D26*
X150495000Y-118110000D03*
D23*
X152400000Y-152400000D03*
D24*
X152400000Y-149860000D03*
M02*
