M48
;DRILL file {KiCad 4.0.7} date Wed Oct 18 00:41:38 2017
;FORMAT={-:-/ absolute / metric / decimal}
FMAT,2
METRIC,TZ
T1C0.300
T2C0.800
T3C0.813
T4C0.900
T5C1.000
%
G90
G05
M71
T1
X84.232Y-160.258
X90.022Y-161.255
X96.26Y-136.532
X103.181Y-160.812
X104.97Y-159.057
X105.31Y-161.368
X106.674Y-133.435
X112.42Y-153.265
X112.645Y-146.935
X113.292Y-135.302
X114.272Y-129.852
X115.021Y-130.555
X115.576Y-143.999
X123.798Y-139.573
X123.838Y-130.937
X124.703Y-160.412
X126.498Y-137.127
X127.312Y-134.413
X129.92Y-131.499
X132.706Y-149.368
X137.546Y-159.936
X138.464Y-158.065
T2
X62.865Y-148.63
X62.865Y-151.13
X66.675Y-142.875
X66.675Y-148.59
X66.675Y-156.21
X67.945Y-129.54
X67.945Y-137.16
X69.215Y-142.875
X69.215Y-148.59
X69.215Y-156.21
X70.485Y-129.54
X70.485Y-137.16
X71.755Y-142.875
X71.755Y-148.59
X71.755Y-156.21
X73.025Y-129.54
X73.025Y-137.16
X74.295Y-142.875
X74.295Y-148.59
X74.295Y-156.21
X75.565Y-129.54
X75.565Y-137.16
X76.835Y-142.875
X76.835Y-148.59
X76.835Y-156.21
X78.105Y-129.54
X78.105Y-137.16
X79.375Y-142.875
X79.375Y-148.59
X79.375Y-156.21
X80.645Y-129.54
X80.645Y-137.16
X81.915Y-142.875
X81.915Y-148.59
X81.915Y-156.21
X84.455Y-142.875
X84.455Y-148.59
X84.455Y-156.21
X86.995Y-148.59
X86.995Y-156.21
X88.265Y-133.985
X88.265Y-137.795
X88.265Y-141.605
X89.535Y-148.59
X89.535Y-156.21
X93.345Y-126.905
X93.345Y-128.905
X94.615Y-148.63
X94.615Y-151.13
X95.345Y-126.905
X95.345Y-128.905
X95.885Y-133.985
X95.885Y-137.795
X95.885Y-141.605
X97.345Y-126.905
X97.345Y-128.905
X98.425Y-148.59
X98.425Y-156.21
X99.345Y-126.905
X99.345Y-128.905
X100.965Y-148.59
X100.965Y-156.21
X101.345Y-126.905
X101.345Y-128.905
X103.345Y-126.905
X103.345Y-128.905
X103.505Y-148.59
X103.505Y-156.21
X105.345Y-126.905
X105.345Y-128.905
X106.045Y-148.59
X106.045Y-156.21
X107.345Y-126.905
X107.345Y-128.905
X108.585Y-148.59
X108.585Y-156.21
X109.345Y-126.905
X109.345Y-128.905
X111.125Y-148.59
X111.125Y-156.21
X111.345Y-126.905
X111.345Y-128.905
X113.345Y-126.905
X113.345Y-128.905
X113.665Y-148.59
X113.665Y-156.21
X115.345Y-126.905
X115.345Y-128.905
X117.345Y-126.905
X117.345Y-128.905
X119.345Y-126.905
X119.345Y-128.905
X120.015Y-154.305
X120.015Y-156.805
X121.345Y-126.905
X121.345Y-128.905
X123.345Y-126.905
X123.345Y-128.905
X125.345Y-126.905
X125.345Y-128.905
X127.345Y-126.905
X127.345Y-128.905
X129.345Y-126.905
X129.345Y-128.905
X131.345Y-126.905
X131.345Y-128.905
X133.345Y-126.905
X133.345Y-128.905
X135.345Y-126.905
X135.345Y-128.905
X145.415Y-123.825
X153.035Y-123.825
T3
X125.73Y-139.7
X125.73Y-142.24
X125.73Y-144.78
X125.73Y-147.32
X125.73Y-149.86
X125.73Y-152.4
X128.27Y-137.16
X128.27Y-139.7
X128.27Y-142.24
X128.27Y-144.78
X128.27Y-147.32
X128.27Y-149.86
X128.27Y-152.4
X128.27Y-154.94
X130.81Y-137.16
X130.81Y-139.7
X130.81Y-152.4
X130.81Y-154.94
X133.35Y-137.16
X133.35Y-139.7
X133.35Y-152.4
X133.35Y-154.94
X135.89Y-137.16
X135.89Y-139.7
X135.89Y-152.4
X135.89Y-154.94
X138.43Y-137.16
X138.43Y-139.7
X138.43Y-152.4
X138.43Y-154.94
X140.97Y-137.16
X140.97Y-139.7
X140.97Y-142.24
X140.97Y-144.78
X140.97Y-147.32
X140.97Y-149.86
X140.97Y-152.4
X140.97Y-154.94
X143.51Y-139.7
X143.51Y-142.24
X143.51Y-144.78
X143.51Y-147.32
X143.51Y-149.86
X143.51Y-152.4
T4
X147.955Y-118.11
X150.495Y-118.11
T5
X62.Y-163.
X64.54Y-163.
X67.08Y-163.
X69.62Y-163.
X72.16Y-163.
X74.7Y-163.
X77.24Y-163.
X79.78Y-163.
X82.32Y-163.
X84.86Y-163.
X87.4Y-163.
X89.94Y-163.
X90.17Y-119.38
X90.17Y-121.92
X92.48Y-163.
X92.71Y-119.38
X92.71Y-121.92
X95.02Y-163.
X95.25Y-119.38
X95.25Y-121.92
X97.56Y-163.
X97.79Y-119.38
X97.79Y-121.92
X100.1Y-163.
X100.33Y-119.38
X100.33Y-121.92
X100.33Y-135.89
X100.33Y-138.43
X100.33Y-140.97
X102.64Y-163.
X102.87Y-119.38
X102.87Y-121.92
X104.14Y-135.89
X104.14Y-138.43
X104.14Y-140.97
X105.18Y-163.
X105.41Y-119.38
X105.41Y-121.92
X107.72Y-163.
X107.95Y-119.38
X107.95Y-121.92
X107.95Y-135.89
X107.95Y-138.43
X107.95Y-140.97
X110.26Y-163.
X110.49Y-119.38
X110.49Y-121.92
X111.76Y-135.89
X111.76Y-138.43
X111.76Y-140.97
X112.8Y-163.
X113.03Y-119.38
X113.03Y-121.92
X115.34Y-163.
X115.57Y-119.38
X115.57Y-121.92
X117.88Y-163.
X118.11Y-119.38
X118.11Y-121.92
X120.42Y-163.
X120.65Y-119.38
X120.65Y-121.92
X122.96Y-163.
X123.19Y-119.38
X123.19Y-121.92
X125.5Y-163.
X125.73Y-119.38
X125.73Y-121.92
X128.04Y-163.
X128.27Y-119.38
X128.27Y-121.92
X130.58Y-163.
X130.81Y-119.38
X130.81Y-121.92
X133.12Y-163.
X133.35Y-119.38
X133.35Y-121.92
X135.66Y-163.
X135.89Y-119.38
X135.89Y-121.92
X138.2Y-163.
X138.43Y-119.38
X138.43Y-121.92
X140.74Y-163.
X143.28Y-163.
X145.82Y-163.
X148.36Y-163.
X150.9Y-163.
X151.13Y-139.065
X152.4Y-149.86
X152.4Y-152.4
X153.44Y-163.
X153.67Y-139.065
X155.98Y-163.
X158.52Y-163.
T0
M30
