M48
; DRILL file {KiCad (6.0.6)} date Mon 25 Jul 2022 23:07:25 BST
; FORMAT={-:-/ absolute / inch / decimal}
; #@! TF.CreationDate,2022-07-25T23:07:25+01:00
; #@! TF.GenerationSoftware,Kicad,Pcbnew,(6.0.6)
; #@! TF.FileFunction,Plated,1,2,PTH
FMAT,2
INCH
; #@! TA.AperFunction,Plated,PTH,ViaDrill
T1C0.0118
; #@! TA.AperFunction,Plated,PTH,ComponentDrill
T2C0.0315
; #@! TA.AperFunction,Plated,PTH,ComponentDrill
T3C0.0354
; #@! TA.AperFunction,Plated,PTH,ComponentDrill
T4C0.0394
%
G90
G05
T1
X3.3162Y-6.3094
X3.5442Y-6.3486
X3.7898Y-5.3753
X4.0622Y-6.3312
X4.1327Y-6.2621
X4.1461Y-6.3531
X4.1998Y-5.2533
X4.426Y-6.0341
X4.4349Y-5.7849
X4.4603Y-5.3268
X4.4989Y-5.1123
X4.5284Y-5.14
X4.874Y-5.495
X4.8755Y-5.155
X4.9096Y-6.3154
X4.9802Y-5.3987
X5.0123Y-5.2918
X5.1149Y-5.1771
X5.2246Y-5.8806
X5.4152Y-6.2967
X5.4514Y-6.223
T2
X2.475Y-5.8516
X2.475Y-5.95
X2.625Y-5.625
X2.625Y-5.85
X2.625Y-6.15
X2.675Y-5.1
X2.675Y-5.4
X2.725Y-5.625
X2.725Y-5.85
X2.725Y-6.15
X2.775Y-5.1
X2.775Y-5.4
X2.825Y-5.625
X2.825Y-5.85
X2.825Y-6.15
X2.875Y-5.1
X2.875Y-5.4
X2.925Y-5.625
X2.925Y-5.85
X2.925Y-6.15
X2.975Y-5.1
X2.975Y-5.4
X3.025Y-5.625
X3.025Y-5.85
X3.025Y-6.15
X3.075Y-5.1
X3.075Y-5.4
X3.125Y-5.625
X3.125Y-5.85
X3.125Y-6.15
X3.175Y-5.1
X3.175Y-5.4
X3.225Y-5.625
X3.225Y-5.85
X3.225Y-6.15
X3.325Y-5.625
X3.325Y-5.85
X3.325Y-6.15
X3.425Y-5.85
X3.425Y-6.15
X3.475Y-5.275
X3.475Y-5.425
X3.475Y-5.575
X3.525Y-5.85
X3.525Y-6.15
X3.675Y-4.9963
X3.675Y-5.075
X3.725Y-5.8516
X3.725Y-5.95
X3.7537Y-4.9963
X3.7537Y-5.075
X3.775Y-5.275
X3.775Y-5.425
X3.775Y-5.575
X3.8325Y-4.9963
X3.8325Y-5.075
X3.875Y-5.85
X3.875Y-6.15
X3.9112Y-4.9963
X3.9112Y-5.075
X3.975Y-5.85
X3.975Y-6.15
X3.99Y-4.9963
X3.99Y-5.075
X4.0687Y-4.9963
X4.0687Y-5.075
X4.075Y-5.85
X4.075Y-6.15
X4.1474Y-4.9963
X4.1474Y-5.075
X4.175Y-5.85
X4.175Y-6.15
X4.2262Y-4.9963
X4.2262Y-5.075
X4.275Y-5.85
X4.275Y-6.15
X4.3049Y-4.9963
X4.3049Y-5.075
X4.375Y-5.85
X4.375Y-6.15
X4.3837Y-4.9963
X4.3837Y-5.075
X4.4624Y-4.9963
X4.4624Y-5.075
X4.475Y-5.85
X4.475Y-6.15
X4.5411Y-4.9963
X4.5411Y-5.075
X4.6199Y-4.9963
X4.6199Y-5.075
X4.6986Y-4.9963
X4.6986Y-5.075
X4.725Y-6.075
X4.725Y-6.1734
X4.7774Y-4.9963
X4.7774Y-5.075
X4.8561Y-4.9963
X4.8561Y-5.075
X4.9348Y-4.9963
X4.9348Y-5.075
X4.95Y-5.5
X4.95Y-5.6
X4.95Y-5.7
X4.95Y-5.8
X4.95Y-5.9
X4.95Y-6.0
X5.0136Y-4.9963
X5.0136Y-5.075
X5.05Y-5.4
X5.05Y-5.5
X5.05Y-5.6
X5.05Y-5.7
X5.05Y-5.8
X5.05Y-5.9
X5.05Y-6.0
X5.05Y-6.1
X5.0923Y-4.9963
X5.0923Y-5.075
X5.15Y-5.4
X5.15Y-5.5
X5.15Y-6.0
X5.15Y-6.1
X5.1711Y-4.9963
X5.1711Y-5.075
X5.2498Y-4.9963
X5.2498Y-5.075
X5.25Y-5.4
X5.25Y-5.5
X5.25Y-6.0
X5.25Y-6.1
X5.3285Y-4.9963
X5.3285Y-5.075
X5.35Y-5.4
X5.35Y-5.5
X5.35Y-6.0
X5.35Y-6.1
X5.45Y-5.4
X5.45Y-5.5
X5.45Y-6.0
X5.45Y-6.1
X5.55Y-5.4
X5.55Y-5.5
X5.55Y-5.6
X5.55Y-5.7
X5.55Y-5.8
X5.55Y-5.9
X5.55Y-6.0
X5.55Y-6.1
X5.65Y-5.5
X5.65Y-5.6
X5.65Y-5.7
X5.65Y-5.8
X5.65Y-5.9
X5.65Y-6.0
X5.725Y-4.875
X6.025Y-4.875
T3
X5.825Y-4.65
X5.925Y-4.65
T4
X2.4409Y-6.4173
X2.5409Y-6.4173
X2.6409Y-6.4173
X2.7409Y-6.4173
X2.8409Y-6.4173
X2.9409Y-6.4173
X3.0409Y-6.4173
X3.1409Y-6.4173
X3.2409Y-6.4173
X3.3409Y-6.4173
X3.4409Y-6.4173
X3.5409Y-6.4173
X3.55Y-4.7
X3.55Y-4.8
X3.6409Y-6.4173
X3.65Y-4.7
X3.65Y-4.8
X3.7409Y-6.4173
X3.75Y-4.7
X3.75Y-4.8
X3.8409Y-6.4173
X3.85Y-4.7
X3.85Y-4.8
X3.9409Y-6.4173
X3.95Y-4.7
X3.95Y-4.8
X3.95Y-5.35
X3.95Y-5.45
X3.95Y-5.55
X4.0409Y-6.4173
X4.05Y-4.7
X4.05Y-4.8
X4.1Y-5.35
X4.1Y-5.45
X4.1Y-5.55
X4.1409Y-6.4173
X4.15Y-4.7
X4.15Y-4.8
X4.2409Y-6.4173
X4.25Y-4.7
X4.25Y-4.8
X4.25Y-5.35
X4.25Y-5.45
X4.25Y-5.55
X4.3409Y-6.4173
X4.35Y-4.7
X4.35Y-4.8
X4.4Y-5.35
X4.4Y-5.45
X4.4Y-5.55
X4.4409Y-6.4173
X4.45Y-4.7
X4.45Y-4.8
X4.5409Y-6.4173
X4.55Y-4.7
X4.55Y-4.8
X4.6409Y-6.4173
X4.65Y-4.7
X4.65Y-4.8
X4.7409Y-6.4173
X4.75Y-4.7
X4.75Y-4.8
X4.8409Y-6.4173
X4.85Y-4.7
X4.85Y-4.8
X4.9409Y-6.4173
X4.95Y-4.7
X4.95Y-4.8
X5.0409Y-6.4173
X5.05Y-4.7
X5.05Y-4.8
X5.1409Y-6.4173
X5.15Y-4.7
X5.15Y-4.8
X5.2409Y-6.4173
X5.25Y-4.7
X5.25Y-4.8
X5.3409Y-6.4173
X5.35Y-4.7
X5.35Y-4.8
X5.4409Y-6.4173
X5.45Y-4.7
X5.45Y-4.8
X5.5409Y-6.4173
X5.6409Y-6.4173
X5.7409Y-6.4173
X5.8409Y-6.4173
X5.9409Y-6.4173
X5.98Y-5.475
X6.0Y-5.9
X6.0Y-6.0
X6.0409Y-6.4173
X6.08Y-5.475
X6.1409Y-6.4173
X6.2409Y-6.4173
T0
M30
