%TF.GenerationSoftware,KiCad,Pcbnew,(6.0.6)*%
%TF.CreationDate,2022-07-25T23:07:27+01:00*%
%TF.ProjectId,rc2014-82c55-ide,72633230-3134-42d3-9832-6335352d6964,3-pre*%
%TF.SameCoordinates,Original*%
%TF.FileFunction,Copper,L1,Top*%
%TF.FilePolarity,Positive*%
%FSLAX46Y46*%
G04 Gerber Fmt 4.6, Leading zero omitted, Abs format (unit mm)*
G04 Created by KiCad (PCBNEW (6.0.6)) date 2022-07-25 23:07:27*
%MOMM*%
%LPD*%
G01*
G04 APERTURE LIST*
%TA.AperFunction,ComponentPad*%
%ADD10R,2.000000X2.000000*%
%TD*%
%TA.AperFunction,ComponentPad*%
%ADD11O,2.000000X2.000000*%
%TD*%
%TA.AperFunction,ComponentPad*%
%ADD12R,1.422400X1.422400*%
%TD*%
%TA.AperFunction,ComponentPad*%
%ADD13C,1.422400*%
%TD*%
%TA.AperFunction,ComponentPad*%
%ADD14C,1.600000*%
%TD*%
%TA.AperFunction,ComponentPad*%
%ADD15O,1.600000X1.600000*%
%TD*%
%TA.AperFunction,ComponentPad*%
%ADD16R,1.600000X2.400000*%
%TD*%
%TA.AperFunction,ComponentPad*%
%ADD17O,1.600000X2.400000*%
%TD*%
%TA.AperFunction,ComponentPad*%
%ADD18R,1.350000X1.350000*%
%TD*%
%TA.AperFunction,ComponentPad*%
%ADD19O,1.350000X1.350000*%
%TD*%
%TA.AperFunction,ComponentPad*%
%ADD20R,1.600000X1.600000*%
%TD*%
%TA.AperFunction,ComponentPad*%
%ADD21R,1.700000X1.700000*%
%TD*%
%TA.AperFunction,ComponentPad*%
%ADD22O,1.700000X1.700000*%
%TD*%
%TA.AperFunction,ComponentPad*%
%ADD23R,1.800000X1.800000*%
%TD*%
%TA.AperFunction,ComponentPad*%
%ADD24C,1.800000*%
%TD*%
%TA.AperFunction,ViaPad*%
%ADD25C,0.600000*%
%TD*%
%TA.AperFunction,Conductor*%
%ADD26C,1.270000*%
%TD*%
%TA.AperFunction,Conductor*%
%ADD27C,0.635000*%
%TD*%
%TA.AperFunction,Conductor*%
%ADD28C,0.254000*%
%TD*%
G04 APERTURE END LIST*
D10*
%TO.P,P1,1,Pin_1*%
%TO.N,unconnected-(P1-Pad1)*%
X62000000Y-163000000D03*
D11*
%TO.P,P1,2,Pin_2*%
%TO.N,unconnected-(P1-Pad2)*%
X64540000Y-163000000D03*
%TO.P,P1,3,Pin_3*%
%TO.N,unconnected-(P1-Pad3)*%
X67080000Y-163000000D03*
%TO.P,P1,4,Pin_4*%
%TO.N,unconnected-(P1-Pad4)*%
X69620000Y-163000000D03*
%TO.P,P1,5,Pin_5*%
%TO.N,unconnected-(P1-Pad5)*%
X72160000Y-163000000D03*
%TO.P,P1,6,Pin_6*%
%TO.N,unconnected-(P1-Pad6)*%
X74700000Y-163000000D03*
%TO.P,P1,7,Pin_7*%
%TO.N,unconnected-(P1-Pad7)*%
X77240000Y-163000000D03*
%TO.P,P1,8,Pin_8*%
%TO.N,unconnected-(P1-Pad8)*%
X79780000Y-163000000D03*
%TO.P,P1,9,Pin_9*%
%TO.N,/A7*%
X82320000Y-163000000D03*
%TO.P,P1,10,Pin_10*%
%TO.N,/A6*%
X84860000Y-163000000D03*
%TO.P,P1,11,Pin_11*%
%TO.N,/A5*%
X87400000Y-163000000D03*
%TO.P,P1,12,Pin_12*%
%TO.N,/A4*%
X89940000Y-163000000D03*
%TO.P,P1,13,Pin_13*%
%TO.N,/A3*%
X92480000Y-163000000D03*
%TO.P,P1,14,Pin_14*%
%TO.N,/A2*%
X95020000Y-163000000D03*
%TO.P,P1,15,Pin_15*%
%TO.N,/A1*%
X97560000Y-163000000D03*
%TO.P,P1,16,Pin_16*%
%TO.N,/A0*%
X100100000Y-163000000D03*
%TO.P,P1,17,Pin_17*%
%TO.N,GND*%
X102640000Y-163000000D03*
%TO.P,P1,18,Pin_18*%
%TO.N,VCC*%
X105180000Y-163000000D03*
%TO.P,P1,19,Pin_19*%
%TO.N,/~{M1}*%
X107720000Y-163000000D03*
%TO.P,P1,20,Pin_20*%
%TO.N,/~{RESET}*%
X110260000Y-163000000D03*
%TO.P,P1,21,Pin_21*%
%TO.N,unconnected-(P1-Pad21)*%
X112800000Y-163000000D03*
%TO.P,P1,22,Pin_22*%
%TO.N,unconnected-(P1-Pad22)*%
X115340000Y-163000000D03*
%TO.P,P1,23,Pin_23*%
%TO.N,unconnected-(P1-Pad23)*%
X117880000Y-163000000D03*
%TO.P,P1,24,Pin_24*%
%TO.N,/~{WR}*%
X120420000Y-163000000D03*
%TO.P,P1,25,Pin_25*%
%TO.N,/~{RD}*%
X122960000Y-163000000D03*
%TO.P,P1,26,Pin_26*%
%TO.N,/~{IORQ}*%
X125500000Y-163000000D03*
%TO.P,P1,27,Pin_27*%
%TO.N,/D0*%
X128040000Y-163000000D03*
%TO.P,P1,28,Pin_28*%
%TO.N,/D1*%
X130580000Y-163000000D03*
%TO.P,P1,29,Pin_29*%
%TO.N,/D2*%
X133120000Y-163000000D03*
%TO.P,P1,30,Pin_30*%
%TO.N,/D3*%
X135660000Y-163000000D03*
%TO.P,P1,31,Pin_31*%
%TO.N,/D4*%
X138200000Y-163000000D03*
%TO.P,P1,32,Pin_32*%
%TO.N,/D5*%
X140740000Y-163000000D03*
%TO.P,P1,33,Pin_33*%
%TO.N,/D6*%
X143280000Y-163000000D03*
%TO.P,P1,34,Pin_34*%
%TO.N,/D7*%
X145820000Y-163000000D03*
%TO.P,P1,35,Pin_35*%
%TO.N,unconnected-(P1-Pad35)*%
X148360000Y-163000000D03*
%TO.P,P1,36,Pin_36*%
%TO.N,unconnected-(P1-Pad36)*%
X150900000Y-163000000D03*
%TO.P,P1,37,Pin_37*%
%TO.N,unconnected-(P1-Pad37)*%
X153440000Y-163000000D03*
%TO.P,P1,38,Pin_38*%
%TO.N,unconnected-(P1-Pad38)*%
X155980000Y-163000000D03*
%TO.P,P1,39,Pin_39*%
%TO.N,unconnected-(P1-Pad39)*%
X158520000Y-163000000D03*
%TD*%
D12*
%TO.P,U1,1,NC*%
%TO.N,unconnected-(U1-Pad1)*%
X140970000Y-147320000D03*
D13*
%TO.P,U1,2,PA3*%
%TO.N,/PA3*%
X143510000Y-144780000D03*
%TO.P,U1,3,PA2*%
%TO.N,/PA2*%
X140970000Y-144780000D03*
%TO.P,U1,4,PA1*%
%TO.N,/PA1*%
X143510000Y-142240000D03*
%TO.P,U1,5,PA0*%
%TO.N,/PA0*%
X140970000Y-142240000D03*
%TO.P,U1,6,~{RD}*%
%TO.N,/~{RD}*%
X143510000Y-139700000D03*
%TO.P,U1,7,~{CS}*%
%TO.N,/~{PIO_CS}*%
X140970000Y-137160000D03*
%TO.P,U1,8,GND*%
%TO.N,GND*%
X140970000Y-139700000D03*
%TO.P,U1,9,A1*%
%TO.N,/A1*%
X138430000Y-137160000D03*
%TO.P,U1,10,A0*%
%TO.N,/A0*%
X138430000Y-139700000D03*
%TO.P,U1,11,PC7*%
%TO.N,/PC7*%
X135890000Y-137160000D03*
%TO.P,U1,12,NC*%
%TO.N,unconnected-(U1-Pad12)*%
X135890000Y-139700000D03*
%TO.P,U1,13,PC6*%
%TO.N,/PC6*%
X133350000Y-137160000D03*
%TO.P,U1,14,PC5*%
%TO.N,/PC5*%
X133350000Y-139700000D03*
%TO.P,U1,15,PC4*%
%TO.N,/PC4*%
X130810000Y-137160000D03*
%TO.P,U1,16,PC0*%
%TO.N,/PC0*%
X130810000Y-139700000D03*
%TO.P,U1,17,PC1*%
%TO.N,/PC1*%
X128270000Y-137160000D03*
%TO.P,U1,18,PC2*%
%TO.N,/DA2*%
X125730000Y-139700000D03*
%TO.P,U1,19,PC3*%
%TO.N,/PC3*%
X128270000Y-139700000D03*
%TO.P,U1,20,PB0*%
%TO.N,/PB0*%
X125730000Y-142240000D03*
%TO.P,U1,21,PB1*%
%TO.N,/PB1*%
X128270000Y-142240000D03*
%TO.P,U1,22,PB2*%
%TO.N,/PB2*%
X125730000Y-144780000D03*
%TO.P,U1,23,NC*%
%TO.N,unconnected-(U1-Pad23)*%
X128270000Y-144780000D03*
%TO.P,U1,24,PB3*%
%TO.N,/PB3*%
X125730000Y-147320000D03*
%TO.P,U1,25,PB4*%
%TO.N,/PB4*%
X128270000Y-147320000D03*
%TO.P,U1,26,PB5*%
%TO.N,/PB5*%
X125730000Y-149860000D03*
%TO.P,U1,27,PB6*%
%TO.N,/PB6*%
X128270000Y-149860000D03*
%TO.P,U1,28,PB7*%
%TO.N,/PB7*%
X125730000Y-152400000D03*
%TO.P,U1,29,VCC*%
%TO.N,VCC*%
X128270000Y-154940000D03*
%TO.P,U1,30,D7*%
%TO.N,/D7*%
X128270000Y-152400000D03*
%TO.P,U1,31,D6*%
%TO.N,/D6*%
X130810000Y-154940000D03*
%TO.P,U1,32,D5*%
%TO.N,/D5*%
X130810000Y-152400000D03*
%TO.P,U1,33,D4*%
%TO.N,/D4*%
X133350000Y-154940000D03*
%TO.P,U1,34,NC*%
%TO.N,unconnected-(U1-Pad34)*%
X133350000Y-152400000D03*
%TO.P,U1,35,D3*%
%TO.N,/D3*%
X135890000Y-154940000D03*
%TO.P,U1,36,D2*%
%TO.N,/D2*%
X135890000Y-152400000D03*
%TO.P,U1,37,D1*%
%TO.N,/D1*%
X138430000Y-154940000D03*
%TO.P,U1,38,D0*%
%TO.N,/D0*%
X138430000Y-152400000D03*
%TO.P,U1,39,RESET*%
%TO.N,/RESET*%
X140970000Y-154940000D03*
%TO.P,U1,40,~{WR}*%
%TO.N,/~{WR}*%
X143510000Y-152400000D03*
%TO.P,U1,41,PA7*%
%TO.N,/PA7*%
X140970000Y-152400000D03*
%TO.P,U1,42,PA6*%
%TO.N,/PA6*%
X143510000Y-149860000D03*
%TO.P,U1,43,PA5*%
%TO.N,/PA5*%
X140970000Y-149860000D03*
%TO.P,U1,44,PA4*%
%TO.N,/PA4*%
X143510000Y-147320000D03*
%TD*%
D14*
%TO.P,R1,1*%
%TO.N,Net-(D1-Pad1)*%
X153035000Y-123825000D03*
D15*
%TO.P,R1,2*%
%TO.N,/~{ACT}*%
X145415000Y-123825000D03*
%TD*%
D16*
%TO.P,U2,1,G*%
%TO.N,/~{IORQ}*%
X66675000Y-156210000D03*
D17*
%TO.P,U2,2,P0*%
%TO.N,/A7*%
X69215000Y-156210000D03*
%TO.P,U2,3,R0*%
%TO.N,Net-(RN1-Pad8)*%
X71755000Y-156210000D03*
%TO.P,U2,4,P1*%
%TO.N,/A6*%
X74295000Y-156210000D03*
%TO.P,U2,5,R1*%
%TO.N,Net-(RN1-Pad7)*%
X76835000Y-156210000D03*
%TO.P,U2,6,P2*%
%TO.N,/A5*%
X79375000Y-156210000D03*
%TO.P,U2,7,R2*%
%TO.N,Net-(RN1-Pad6)*%
X81915000Y-156210000D03*
%TO.P,U2,8,P3*%
%TO.N,/A4*%
X84455000Y-156210000D03*
%TO.P,U2,9,R3*%
%TO.N,Net-(RN1-Pad5)*%
X86995000Y-156210000D03*
%TO.P,U2,10,GND*%
%TO.N,GND*%
X89535000Y-156210000D03*
%TO.P,U2,11,P4*%
%TO.N,/A3*%
X89535000Y-148590000D03*
%TO.P,U2,12,R4*%
%TO.N,Net-(RN1-Pad4)*%
X86995000Y-148590000D03*
%TO.P,U2,13,P5*%
%TO.N,/A2*%
X84455000Y-148590000D03*
%TO.P,U2,14,R5*%
%TO.N,Net-(RN1-Pad3)*%
X81915000Y-148590000D03*
%TO.P,U2,15,P6*%
%TO.N,/~{M1}*%
X79375000Y-148590000D03*
%TO.P,U2,16,R6*%
%TO.N,VCC*%
X76835000Y-148590000D03*
%TO.P,U2,17,P7*%
%TO.N,Net-(RN1-Pad2)*%
X74295000Y-148590000D03*
%TO.P,U2,18,R7*%
X71755000Y-148590000D03*
%TO.P,U2,19,P=R*%
%TO.N,/~{PIO_CS}*%
X69215000Y-148590000D03*
%TO.P,U2,20,VCC*%
%TO.N,VCC*%
X66675000Y-148590000D03*
%TD*%
D16*
%TO.P,U3,1*%
%TO.N,/PC3*%
X98425000Y-156210000D03*
D17*
%TO.P,U3,2*%
%TO.N,/~{DCS0}*%
X100965000Y-156210000D03*
%TO.P,U3,3*%
%TO.N,/~{RESET}*%
X103505000Y-156210000D03*
%TO.P,U3,4*%
%TO.N,/RESET*%
X106045000Y-156210000D03*
%TO.P,U3,5*%
%TO.N,/PC5*%
X108585000Y-156210000D03*
%TO.P,U3,6*%
%TO.N,/~{DIOW}*%
X111125000Y-156210000D03*
%TO.P,U3,7,GND*%
%TO.N,GND*%
X113665000Y-156210000D03*
%TO.P,U3,8*%
%TO.N,/~{DCS1}*%
X113665000Y-148590000D03*
%TO.P,U3,9*%
%TO.N,/DCS1*%
X111125000Y-148590000D03*
%TO.P,U3,10*%
%TO.N,/~{DIOR}*%
X108585000Y-148590000D03*
%TO.P,U3,11*%
%TO.N,/DIOR*%
X106045000Y-148590000D03*
%TO.P,U3,12*%
%TO.N,/~{DRESET}*%
X103505000Y-148590000D03*
%TO.P,U3,13*%
%TO.N,/PC7*%
X100965000Y-148590000D03*
%TO.P,U3,14,VCC*%
%TO.N,VCC*%
X98425000Y-148590000D03*
%TD*%
D18*
%TO.P,J3,1,Pin_1*%
%TO.N,/~{DRESET}*%
X93345000Y-128905000D03*
D19*
%TO.P,J3,2,Pin_2*%
%TO.N,GND*%
X93345000Y-126905000D03*
%TO.P,J3,3,Pin_3*%
%TO.N,/PA7*%
X95345000Y-128905000D03*
%TO.P,J3,4,Pin_4*%
%TO.N,/PB0*%
X95345000Y-126905000D03*
%TO.P,J3,5,Pin_5*%
%TO.N,/PA6*%
X97345000Y-128905000D03*
%TO.P,J3,6,Pin_6*%
%TO.N,/PB1*%
X97345000Y-126905000D03*
%TO.P,J3,7,Pin_7*%
%TO.N,/PA5*%
X99345000Y-128905000D03*
%TO.P,J3,8,Pin_8*%
%TO.N,/PB2*%
X99345000Y-126905000D03*
%TO.P,J3,9,Pin_9*%
%TO.N,/PA4*%
X101345000Y-128905000D03*
%TO.P,J3,10,Pin_10*%
%TO.N,/PB3*%
X101345000Y-126905000D03*
%TO.P,J3,11,Pin_11*%
%TO.N,/PA3*%
X103345000Y-128905000D03*
%TO.P,J3,12,Pin_12*%
%TO.N,/PB4*%
X103345000Y-126905000D03*
%TO.P,J3,13,Pin_13*%
%TO.N,/PA2*%
X105345000Y-128905000D03*
%TO.P,J3,14,Pin_14*%
%TO.N,/PB5*%
X105345000Y-126905000D03*
%TO.P,J3,15,Pin_15*%
%TO.N,/PA1*%
X107345000Y-128905000D03*
%TO.P,J3,16,Pin_16*%
%TO.N,/PB6*%
X107345000Y-126905000D03*
%TO.P,J3,17,Pin_17*%
%TO.N,/PA0*%
X109345000Y-128905000D03*
%TO.P,J3,18,Pin_18*%
%TO.N,/PB7*%
X109345000Y-126905000D03*
%TO.P,J3,19,Pin_19*%
%TO.N,GND*%
X111345000Y-128905000D03*
%TO.P,J3,20,Pin_20*%
%TO.N,unconnected-(J3-Pad20)*%
X111345000Y-126905000D03*
%TO.P,J3,21,Pin_21*%
%TO.N,/DMARQ*%
X113345000Y-128905000D03*
%TO.P,J3,22,Pin_22*%
%TO.N,GND*%
X113345000Y-126905000D03*
%TO.P,J3,23,Pin_23*%
%TO.N,/~{DIOW}*%
X115345000Y-128905000D03*
%TO.P,J3,24,Pin_24*%
%TO.N,GND*%
X115345000Y-126905000D03*
%TO.P,J3,25,Pin_25*%
%TO.N,/~{DIOR}*%
X117345000Y-128905000D03*
%TO.P,J3,26,Pin_26*%
%TO.N,GND*%
X117345000Y-126905000D03*
%TO.P,J3,27,Pin_27*%
%TO.N,unconnected-(J3-Pad27)*%
X119345000Y-128905000D03*
%TO.P,J3,28,Pin_28*%
%TO.N,GND*%
X119345000Y-126905000D03*
%TO.P,J3,29,Pin_29*%
%TO.N,/DMACK*%
X121345000Y-128905000D03*
%TO.P,J3,30,Pin_30*%
%TO.N,GND*%
X121345000Y-126905000D03*
%TO.P,J3,31,Pin_31*%
%TO.N,unconnected-(J3-Pad31)*%
X123345000Y-128905000D03*
%TO.P,J3,32,Pin_32*%
%TO.N,unconnected-(J3-Pad32)*%
X123345000Y-126905000D03*
%TO.P,J3,33,Pin_33*%
%TO.N,/DA1*%
X125345000Y-128905000D03*
%TO.P,J3,34,Pin_34*%
%TO.N,unconnected-(J3-Pad34)*%
X125345000Y-126905000D03*
%TO.P,J3,35,Pin_35*%
%TO.N,/DA0*%
X127345000Y-128905000D03*
%TO.P,J3,36,Pin_36*%
%TO.N,/DA2*%
X127345000Y-126905000D03*
%TO.P,J3,37,Pin_37*%
%TO.N,/~{DCS0}*%
X129345000Y-128905000D03*
%TO.P,J3,38,Pin_38*%
%TO.N,/~{DCS1}*%
X129345000Y-126905000D03*
%TO.P,J3,39,Pin_39*%
%TO.N,/~{ACT}*%
X131345000Y-128905000D03*
%TO.P,J3,40,Pin_40*%
%TO.N,GND*%
X131345000Y-126905000D03*
%TO.P,J3,41,Pin_41*%
%TO.N,/IDE_VCC*%
X133345000Y-128905000D03*
%TO.P,J3,42,Pin_42*%
X133345000Y-126905000D03*
%TO.P,J3,43,Pin_43*%
%TO.N,GND*%
X135345000Y-128905000D03*
%TO.P,J3,44,Pin_44*%
X135345000Y-126905000D03*
%TD*%
D20*
%TO.P,SW1,1*%
%TO.N,VCC*%
X80645000Y-129540000D03*
D15*
%TO.P,SW1,2*%
X78105000Y-129540000D03*
%TO.P,SW1,3*%
X75565000Y-129540000D03*
%TO.P,SW1,4*%
X73025000Y-129540000D03*
%TO.P,SW1,5*%
X70485000Y-129540000D03*
%TO.P,SW1,6*%
X67945000Y-129540000D03*
%TO.P,SW1,7*%
%TO.N,Net-(RN1-Pad3)*%
X67945000Y-137160000D03*
%TO.P,SW1,8*%
%TO.N,Net-(RN1-Pad4)*%
X70485000Y-137160000D03*
%TO.P,SW1,9*%
%TO.N,Net-(RN1-Pad5)*%
X73025000Y-137160000D03*
%TO.P,SW1,10*%
%TO.N,Net-(RN1-Pad6)*%
X75565000Y-137160000D03*
%TO.P,SW1,11*%
%TO.N,Net-(RN1-Pad7)*%
X78105000Y-137160000D03*
%TO.P,SW1,12*%
%TO.N,Net-(RN1-Pad8)*%
X80645000Y-137160000D03*
%TD*%
D14*
%TO.P,C1,1*%
%TO.N,VCC*%
X62865000Y-151130000D03*
%TO.P,C1,2*%
%TO.N,GND*%
X62865000Y-148630000D03*
%TD*%
%TO.P,C2,1*%
%TO.N,VCC*%
X120015000Y-154305000D03*
%TO.P,C2,2*%
%TO.N,GND*%
X120015000Y-156805000D03*
%TD*%
%TO.P,C3,1*%
%TO.N,VCC*%
X94615000Y-151130000D03*
%TO.P,C3,2*%
%TO.N,GND*%
X94615000Y-148630000D03*
%TD*%
D21*
%TO.P,J2,1,Pin_1*%
%TO.N,/~{DRESET}*%
X90170000Y-121920000D03*
D22*
%TO.P,J2,2,Pin_2*%
%TO.N,GND*%
X90170000Y-119380000D03*
%TO.P,J2,3,Pin_3*%
%TO.N,/PA7*%
X92710000Y-121920000D03*
%TO.P,J2,4,Pin_4*%
%TO.N,/PB0*%
X92710000Y-119380000D03*
%TO.P,J2,5,Pin_5*%
%TO.N,/PA6*%
X95250000Y-121920000D03*
%TO.P,J2,6,Pin_6*%
%TO.N,/PB1*%
X95250000Y-119380000D03*
%TO.P,J2,7,Pin_7*%
%TO.N,/PA5*%
X97790000Y-121920000D03*
%TO.P,J2,8,Pin_8*%
%TO.N,/PB2*%
X97790000Y-119380000D03*
%TO.P,J2,9,Pin_9*%
%TO.N,/PA4*%
X100330000Y-121920000D03*
%TO.P,J2,10,Pin_10*%
%TO.N,/PB3*%
X100330000Y-119380000D03*
%TO.P,J2,11,Pin_11*%
%TO.N,/PA3*%
X102870000Y-121920000D03*
%TO.P,J2,12,Pin_12*%
%TO.N,/PB4*%
X102870000Y-119380000D03*
%TO.P,J2,13,Pin_13*%
%TO.N,/PA2*%
X105410000Y-121920000D03*
%TO.P,J2,14,Pin_14*%
%TO.N,/PB5*%
X105410000Y-119380000D03*
%TO.P,J2,15,Pin_15*%
%TO.N,/PA1*%
X107950000Y-121920000D03*
%TO.P,J2,16,Pin_16*%
%TO.N,/PB6*%
X107950000Y-119380000D03*
%TO.P,J2,17,Pin_17*%
%TO.N,/PA0*%
X110490000Y-121920000D03*
%TO.P,J2,18,Pin_18*%
%TO.N,/PB7*%
X110490000Y-119380000D03*
%TO.P,J2,19,Pin_19*%
%TO.N,GND*%
X113030000Y-121920000D03*
%TO.P,J2,20,Pin_20*%
%TO.N,unconnected-(J2-Pad20)*%
X113030000Y-119380000D03*
%TO.P,J2,21,Pin_21*%
%TO.N,/DMARQ*%
X115570000Y-121920000D03*
%TO.P,J2,22,Pin_22*%
%TO.N,GND*%
X115570000Y-119380000D03*
%TO.P,J2,23,Pin_23*%
%TO.N,/~{DIOW}*%
X118110000Y-121920000D03*
%TO.P,J2,24,Pin_24*%
%TO.N,GND*%
X118110000Y-119380000D03*
%TO.P,J2,25,Pin_25*%
%TO.N,/~{DIOR}*%
X120650000Y-121920000D03*
%TO.P,J2,26,Pin_26*%
%TO.N,GND*%
X120650000Y-119380000D03*
%TO.P,J2,27,Pin_27*%
%TO.N,unconnected-(J2-Pad27)*%
X123190000Y-121920000D03*
%TO.P,J2,28,Pin_28*%
%TO.N,GND*%
X123190000Y-119380000D03*
%TO.P,J2,29,Pin_29*%
%TO.N,/DMACK*%
X125730000Y-121920000D03*
%TO.P,J2,30,Pin_30*%
%TO.N,GND*%
X125730000Y-119380000D03*
%TO.P,J2,31,Pin_31*%
%TO.N,unconnected-(J2-Pad31)*%
X128270000Y-121920000D03*
%TO.P,J2,32,Pin_32*%
%TO.N,unconnected-(J2-Pad32)*%
X128270000Y-119380000D03*
%TO.P,J2,33,Pin_33*%
%TO.N,/DA1*%
X130810000Y-121920000D03*
%TO.P,J2,34,Pin_34*%
%TO.N,unconnected-(J2-Pad34)*%
X130810000Y-119380000D03*
%TO.P,J2,35,Pin_35*%
%TO.N,/DA0*%
X133350000Y-121920000D03*
%TO.P,J2,36,Pin_36*%
%TO.N,/DA2*%
X133350000Y-119380000D03*
%TO.P,J2,37,Pin_37*%
%TO.N,/~{DCS0}*%
X135890000Y-121920000D03*
%TO.P,J2,38,Pin_38*%
%TO.N,/~{DCS1}*%
X135890000Y-119380000D03*
%TO.P,J2,39,Pin_39*%
%TO.N,/~{ACT}*%
X138430000Y-121920000D03*
%TO.P,J2,40,Pin_40*%
%TO.N,GND*%
X138430000Y-119380000D03*
%TD*%
D21*
%TO.P,J1,1,Pin_1*%
%TO.N,/IDE_VCC*%
X151892000Y-139065000D03*
D22*
%TO.P,J1,2,Pin_2*%
%TO.N,GND*%
X154432000Y-139065000D03*
%TD*%
D21*
%TO.P,JP1,1,A*%
%TO.N,/PC0*%
X111760000Y-140970000D03*
D22*
%TO.P,JP1,2,C*%
%TO.N,/DA0*%
X111760000Y-138430000D03*
%TO.P,JP1,3,B*%
%TO.N,/PC4*%
X111760000Y-135890000D03*
%TD*%
D21*
%TO.P,JP2,1,A*%
%TO.N,/PC4*%
X107950000Y-140970000D03*
D22*
%TO.P,JP2,2,C*%
%TO.N,/DCS1*%
X107950000Y-138430000D03*
%TO.P,JP2,3,B*%
%TO.N,/PC0*%
X107950000Y-135890000D03*
%TD*%
D21*
%TO.P,JP3,1,A*%
%TO.N,/PC1*%
X104140000Y-140970000D03*
D22*
%TO.P,JP3,2,C*%
%TO.N,/DA1*%
X104140000Y-138430000D03*
%TO.P,JP3,3,B*%
%TO.N,/PC6*%
X104140000Y-135890000D03*
%TD*%
D21*
%TO.P,JP4,1,A*%
%TO.N,/PC6*%
X100330000Y-140970000D03*
D22*
%TO.P,JP4,2,C*%
%TO.N,/DIOR*%
X100330000Y-138430000D03*
%TO.P,JP4,3,B*%
%TO.N,/PC1*%
X100330000Y-135890000D03*
%TD*%
D20*
%TO.P,RN1,1,common*%
%TO.N,GND*%
X66675000Y-142875000D03*
D15*
%TO.P,RN1,2,R1*%
%TO.N,Net-(RN1-Pad2)*%
X69215000Y-142875000D03*
%TO.P,RN1,3,R2*%
%TO.N,Net-(RN1-Pad3)*%
X71755000Y-142875000D03*
%TO.P,RN1,4,R3*%
%TO.N,Net-(RN1-Pad4)*%
X74295000Y-142875000D03*
%TO.P,RN1,5,R4*%
%TO.N,Net-(RN1-Pad5)*%
X76835000Y-142875000D03*
%TO.P,RN1,6,R5*%
%TO.N,Net-(RN1-Pad6)*%
X79375000Y-142875000D03*
%TO.P,RN1,7,R6*%
%TO.N,Net-(RN1-Pad7)*%
X81915000Y-142875000D03*
%TO.P,RN1,8,R7*%
%TO.N,Net-(RN1-Pad8)*%
X84455000Y-142875000D03*
%TD*%
D14*
%TO.P,R2,1*%
%TO.N,GND*%
X88265000Y-133985000D03*
D15*
%TO.P,R2,2*%
%TO.N,/PA7*%
X95885000Y-133985000D03*
%TD*%
D14*
%TO.P,R3,1*%
%TO.N,GND*%
X88265000Y-137795000D03*
D15*
%TO.P,R3,2*%
%TO.N,/DMARQ*%
X95885000Y-137795000D03*
%TD*%
D14*
%TO.P,R4,1*%
%TO.N,VCC*%
X88265000Y-141605000D03*
D15*
%TO.P,R4,2*%
%TO.N,/DMACK*%
X95885000Y-141605000D03*
%TD*%
D23*
%TO.P,D1,1,K*%
%TO.N,Net-(D1-Pad1)*%
X147955000Y-118110000D03*
D24*
%TO.P,D1,2,A*%
%TO.N,VCC*%
X150495000Y-118110000D03*
%TD*%
D21*
%TO.P,J5,1,Pin_1*%
%TO.N,VCC*%
X152400000Y-152400000D03*
D22*
%TO.P,J5,2,Pin_2*%
%TO.N,/IDE_VCC*%
X152400000Y-149860000D03*
%TD*%
D25*
%TO.N,/D3*%
X138464300Y-158065000D03*
%TO.N,/D6*%
X137545800Y-159936400D03*
%TO.N,/A1*%
X103181100Y-160812000D03*
%TO.N,/A2*%
X90021700Y-161255300D03*
%TO.N,/A0*%
X105310195Y-161367895D03*
%TO.N,/PB4*%
X127311700Y-134412900D03*
%TO.N,/~{DIOW}*%
X112420200Y-153265097D03*
X112645457Y-146935457D03*
%TO.N,/PC7*%
X123798500Y-139572600D03*
%TO.N,/PB6*%
X96260500Y-136532400D03*
%TO.N,/PB7*%
X129919600Y-131499100D03*
%TO.N,/DA0*%
X126497900Y-137126700D03*
%TO.N,/DA1*%
X115021300Y-130555100D03*
%TO.N,/PC6*%
X113291900Y-135301800D03*
%TO.N,/PC1*%
X106674500Y-133435000D03*
%TO.N,/DMACK*%
X114271900Y-129851600D03*
%TO.N,/~{DCS1}*%
X123837800Y-130937400D03*
%TO.N,/~{RESET}*%
X104969600Y-159057100D03*
%TO.N,/~{WR}*%
X124703255Y-160411745D03*
%TO.N,/~{PIO_CS}*%
X132705500Y-149367600D03*
%TO.N,/~{M1}*%
X84231800Y-160257700D03*
%TD*%
D26*
%TO.N,VCC*%
X113752058Y-153505001D02*
X112929961Y-154327098D01*
X102677999Y-153242999D02*
X98425000Y-148990000D01*
X95885000Y-151130000D02*
X98425000Y-148590000D01*
X80645000Y-126519238D02*
X90716239Y-116447999D01*
X120015000Y-154305000D02*
X127635000Y-154305000D01*
X90716239Y-116447999D02*
X150105791Y-116447999D01*
X67945000Y-129540000D02*
X65112999Y-132372001D01*
X150105791Y-116447999D02*
X150495000Y-116837208D01*
X150495000Y-118110000D02*
X156845000Y-124460000D01*
X156845000Y-150075000D02*
X154520000Y-152400000D01*
X154520000Y-152400000D02*
X152400000Y-152400000D01*
X111910439Y-154327098D02*
X110826340Y-153242999D01*
X120015000Y-154305000D02*
X119215001Y-153505001D01*
X112929961Y-154327098D02*
X111910439Y-154327098D01*
X110826340Y-153242999D02*
X102677999Y-153242999D01*
X73025000Y-129540000D02*
X70485000Y-129540000D01*
X127635000Y-154305000D02*
X128270000Y-154940000D01*
X150495000Y-116837208D02*
X150495000Y-118110000D01*
X78105000Y-129540000D02*
X75565000Y-129540000D01*
X80645000Y-129540000D02*
X80645000Y-126519238D01*
X75565000Y-129540000D02*
X73025000Y-129540000D01*
X65112999Y-132372001D02*
X65112999Y-144557999D01*
X94615000Y-151130000D02*
X95885000Y-151130000D01*
X156845000Y-124460000D02*
X156845000Y-150075000D01*
X119215001Y-153505001D02*
X113752058Y-153505001D01*
X70485000Y-129540000D02*
X67945000Y-129540000D01*
X65112999Y-144557999D02*
X66675000Y-146120000D01*
X66675000Y-148590000D02*
X65405000Y-148590000D01*
X80645000Y-129540000D02*
X78105000Y-129540000D01*
X66675000Y-146120000D02*
X66675000Y-148590000D01*
X65405000Y-148590000D02*
X62865000Y-151130000D01*
D27*
%TO.N,GND*%
X90170000Y-119380000D02*
X91481900Y-118068100D01*
X135345000Y-128905000D02*
X142290800Y-135850800D01*
X142290800Y-138379200D02*
X140970000Y-139700000D01*
X123190000Y-119380000D02*
X125730000Y-119380000D01*
X113665000Y-156210000D02*
X119420000Y-156210000D01*
X88265000Y-131985000D02*
X93345000Y-126905000D01*
X88265000Y-133985000D02*
X88265000Y-131985000D01*
X85450600Y-140609400D02*
X93471200Y-148630000D01*
X91481900Y-118068100D02*
X114258100Y-118068100D01*
X117345000Y-126905000D02*
X119345000Y-126905000D01*
X115345000Y-126905000D02*
X117345000Y-126905000D01*
X115570000Y-119380000D02*
X118110000Y-119380000D01*
X68940600Y-140609400D02*
X66675000Y-142875000D01*
X88265000Y-137795000D02*
X85450600Y-140609400D01*
X142290800Y-135850800D02*
X142290800Y-138379200D01*
X127065000Y-118045000D02*
X137095000Y-118045000D01*
X120650000Y-119380000D02*
X123190000Y-119380000D01*
X85450600Y-140609400D02*
X68940600Y-140609400D01*
X113345000Y-126905000D02*
X115345000Y-126905000D01*
X119420000Y-156210000D02*
X120015000Y-156805000D01*
X88875100Y-122955000D02*
X92825100Y-126905000D01*
X121345000Y-126905000D02*
X119345000Y-126905000D01*
X90170000Y-119380000D02*
X88875100Y-120674900D01*
X113345000Y-122235000D02*
X113030000Y-121920000D01*
X92825100Y-126905000D02*
X93345000Y-126905000D01*
X114258100Y-118068100D02*
X115570000Y-119380000D01*
X88875100Y-120674900D02*
X88875100Y-122955000D01*
X93471200Y-148630000D02*
X94615000Y-148630000D01*
X125730000Y-119380000D02*
X127065000Y-118045000D01*
X113345000Y-126905000D02*
X113345000Y-122235000D01*
X137095000Y-118045000D02*
X138430000Y-119380000D01*
D28*
%TO.N,/D3*%
X138464300Y-157971500D02*
X138464300Y-158065000D01*
X135890000Y-155397200D02*
X138464300Y-157971500D01*
%TO.N,/D4*%
X133350000Y-154940000D02*
X138200000Y-159790000D01*
X138200000Y-159790000D02*
X138200000Y-163000000D01*
%TO.N,/D5*%
X130810000Y-152857200D02*
X131928089Y-153975289D01*
X134925289Y-155150981D02*
X134925289Y-155339597D01*
X140740000Y-161154308D02*
X140740000Y-163000000D01*
X133749597Y-153975289D02*
X134925289Y-155150981D01*
X134925289Y-155339597D02*
X140740000Y-161154308D01*
X131928089Y-153975289D02*
X133749597Y-153975289D01*
%TO.N,/D6*%
X135806400Y-159936400D02*
X137545800Y-159936400D01*
X130810000Y-154940000D02*
X135806400Y-159936400D01*
%TO.N,/D7*%
X145820000Y-158425692D02*
X140759019Y-153364711D01*
X129615222Y-151054778D02*
X128270000Y-152400000D01*
X140005289Y-151862376D02*
X139197691Y-151054778D01*
X140570403Y-153364711D02*
X140005289Y-152799597D01*
X139197691Y-151054778D02*
X129615222Y-151054778D01*
X140759019Y-153364711D02*
X140570403Y-153364711D01*
X140005289Y-152799597D02*
X140005289Y-151862376D01*
X145820000Y-163000000D02*
X145820000Y-158425692D01*
%TO.N,/A1*%
X97560000Y-163000000D02*
X99748000Y-160812000D01*
X99748000Y-160812000D02*
X103181100Y-160812000D01*
%TO.N,/~{DRESET}*%
X93345000Y-128905000D02*
X93345000Y-136776700D01*
X103505000Y-146936700D02*
X103505000Y-148590000D01*
X93345000Y-136776700D02*
X103505000Y-146936700D01*
%TO.N,/A2*%
X95020000Y-163000000D02*
X93275300Y-161255300D01*
X93275300Y-161255300D02*
X90021700Y-161255300D01*
%TO.N,/A0*%
X101732105Y-161367895D02*
X105310195Y-161367895D01*
X100100000Y-163000000D02*
X101732105Y-161367895D01*
%TO.N,/PA7*%
X92710000Y-124689800D02*
X92710000Y-121920000D01*
X109609800Y-144751800D02*
X106045000Y-141187000D01*
X94415600Y-126395400D02*
X92710000Y-124689800D01*
X106045000Y-141187000D02*
X106045000Y-138752800D01*
X137387249Y-148706200D02*
X117937690Y-148706200D01*
X140970000Y-152288951D02*
X137387249Y-148706200D01*
X106045000Y-138752800D02*
X104317300Y-137025100D01*
X113983290Y-144751800D02*
X109609800Y-144751800D01*
X117937690Y-148706200D02*
X113983290Y-144751800D01*
X95345000Y-128905000D02*
X94415600Y-127975600D01*
X94415600Y-127975600D02*
X94415600Y-126395400D01*
X104317300Y-137025100D02*
X98925100Y-137025100D01*
X98925100Y-137025100D02*
X95885000Y-133985000D01*
%TO.N,/PB0*%
X94145300Y-120815300D02*
X92710000Y-119380000D01*
X94145300Y-125166100D02*
X94145300Y-120815300D01*
X95345000Y-126365800D02*
X94145300Y-125166100D01*
%TO.N,/PA6*%
X108875400Y-139834900D02*
X109265300Y-140224800D01*
X101896300Y-133456300D02*
X103317600Y-133456300D01*
X114588648Y-144370500D02*
X118542948Y-148324800D01*
X103317600Y-133456300D02*
X106426400Y-136565100D01*
X106426400Y-138516400D02*
X107744900Y-139834900D01*
X109265300Y-142193600D02*
X111442200Y-144370500D01*
X140072500Y-150827400D02*
X142542600Y-150827400D01*
X107744900Y-139834900D02*
X108875400Y-139834900D01*
X109265300Y-140224800D02*
X109265300Y-142193600D01*
X97345000Y-128905000D02*
X101896300Y-133456300D01*
X111442200Y-144370500D02*
X114588648Y-144370500D01*
X137569900Y-148324800D02*
X140072500Y-150827400D01*
X142542600Y-150827400D02*
X143510000Y-149860000D01*
X118542948Y-148324800D02*
X137569900Y-148324800D01*
X106426400Y-136565100D02*
X106426400Y-138516400D01*
%TO.N,/PB1*%
X96520000Y-126080000D02*
X96520000Y-120650000D01*
X96520000Y-120650000D02*
X95250000Y-119380000D01*
X97345000Y-126905000D02*
X96520000Y-126080000D01*
%TO.N,/PA5*%
X109837100Y-136194800D02*
X109837100Y-138180500D01*
X109837100Y-138180500D02*
X110172300Y-138515700D01*
X115619100Y-142693300D02*
X119280600Y-146354800D01*
X99939900Y-128905000D02*
X105736200Y-134701300D01*
X110172300Y-142022300D02*
X110843300Y-142693300D01*
X105736200Y-134701300D02*
X108343600Y-134701300D01*
X108343600Y-134701300D02*
X109837100Y-136194800D01*
X99345000Y-128905000D02*
X99939900Y-128905000D01*
X119280600Y-146354800D02*
X137464800Y-146354800D01*
X110843300Y-142693300D02*
X115619100Y-142693300D01*
X110172300Y-138515700D02*
X110172300Y-142022300D01*
X137464800Y-146354800D02*
X140970000Y-149860000D01*
%TO.N,/PA4*%
X142087600Y-145897600D02*
X143510000Y-147320000D01*
X122627100Y-145897600D02*
X142087600Y-145897600D01*
X110599700Y-141910300D02*
X110763800Y-142074400D01*
X108182500Y-134000500D02*
X110218400Y-136036400D01*
X110218400Y-136036400D02*
X110218400Y-137753200D01*
X118803900Y-142074400D02*
X122627100Y-145897600D01*
X101345000Y-128905000D02*
X106440500Y-134000500D01*
X110763800Y-142074400D02*
X118803900Y-142074400D01*
X106440500Y-134000500D02*
X108182500Y-134000500D01*
X110218400Y-137753200D02*
X110599700Y-138134500D01*
X110599700Y-138134500D02*
X110599700Y-141910300D01*
%TO.N,/PB3*%
X118076978Y-147320000D02*
X125730000Y-147320000D01*
X107655900Y-137255300D02*
X108372800Y-137255300D01*
X101165600Y-130765000D02*
X107655900Y-137255300D01*
X98412500Y-129342600D02*
X99834900Y-130765000D01*
X109702400Y-142091500D02*
X111066800Y-143455900D01*
X101345000Y-126905000D02*
X100274400Y-127975600D01*
X109702400Y-138584900D02*
X109702400Y-142091500D01*
X100274400Y-127975600D02*
X98929900Y-127975600D01*
X98929900Y-127975600D02*
X98412500Y-128493000D01*
X114212878Y-143455900D02*
X118076978Y-147320000D01*
X108372800Y-137255300D02*
X109702400Y-138584900D01*
X111066800Y-143455900D02*
X114212878Y-143455900D01*
X98412500Y-128493000D02*
X98412500Y-129342600D01*
X99834900Y-130765000D02*
X101165600Y-130765000D01*
%TO.N,/PA3*%
X137438911Y-140073219D02*
X140875692Y-143510000D01*
X110130300Y-133050300D02*
X133994823Y-133050300D01*
X103345000Y-128905000D02*
X104274400Y-127975600D01*
X142240000Y-143510000D02*
X143510000Y-144780000D01*
X133994823Y-133050300D02*
X137438911Y-136494388D01*
X106345000Y-128560500D02*
X106345000Y-129265000D01*
X104274400Y-127975600D02*
X105760100Y-127975600D01*
X106345000Y-129265000D02*
X110130300Y-133050300D01*
X140875692Y-143510000D02*
X142240000Y-143510000D01*
X137438911Y-136494388D02*
X137438911Y-140073219D01*
X105760100Y-127975600D02*
X106345000Y-128560500D01*
%TO.N,/PB4*%
X110220400Y-134412900D02*
X105955500Y-130148000D01*
X102403600Y-127846400D02*
X103345000Y-126905000D01*
X103223900Y-130148000D02*
X102403600Y-129327700D01*
X127311700Y-134412900D02*
X110220400Y-134412900D01*
X105955500Y-130148000D02*
X103223900Y-130148000D01*
X102403600Y-129327700D02*
X102403600Y-127846400D01*
%TO.N,/~{DIOW}*%
X112420200Y-147160714D02*
X112645457Y-146935457D01*
X112420200Y-153265097D02*
X112420200Y-147160714D01*
%TO.N,Net-(RN1-Pad2)*%
X71755000Y-148590000D02*
X74295000Y-148590000D01*
%TO.N,/PC7*%
X134485100Y-138564900D02*
X124806200Y-138564900D01*
X135890000Y-137160000D02*
X134485100Y-138564900D01*
X124806200Y-138564900D02*
X123798500Y-139572600D01*
%TO.N,Net-(D1-Pad1)*%
X152516000Y-123825000D02*
X153035000Y-123825000D01*
X147955000Y-119264000D02*
X152516000Y-123825000D01*
X147955000Y-118110000D02*
X147955000Y-119264000D01*
%TO.N,/PA2*%
X133853500Y-133650300D02*
X137058400Y-136855200D01*
X137058400Y-136855200D02*
X137058400Y-140868400D01*
X105345000Y-128905000D02*
X110090300Y-133650300D01*
X110090300Y-133650300D02*
X133853500Y-133650300D01*
X137058400Y-140868400D02*
X140970000Y-144780000D01*
%TO.N,/PB5*%
X102235000Y-140815400D02*
X102235000Y-141130300D01*
X102235000Y-141130300D02*
X106597134Y-145492434D01*
X104252200Y-120537800D02*
X105410000Y-119380000D01*
X97677800Y-127905000D02*
X97024200Y-127905000D01*
X96010500Y-135676800D02*
X96284800Y-135676800D01*
X101285300Y-139865700D02*
X102235000Y-140815400D01*
X98900200Y-125968400D02*
X98321700Y-126546900D01*
X104252200Y-125968400D02*
X98900200Y-125968400D01*
X97024200Y-127905000D02*
X96274400Y-128654800D01*
X105345000Y-126905000D02*
X104408400Y-125968400D01*
X106597134Y-145492434D02*
X114185094Y-145492434D01*
X104252200Y-125968400D02*
X104252200Y-120537800D01*
X98321700Y-127261100D02*
X97677800Y-127905000D01*
X104408400Y-125968400D02*
X104252200Y-125968400D01*
X98321700Y-126546900D02*
X98321700Y-127261100D01*
X114185094Y-145492434D02*
X118552660Y-149860000D01*
X97160100Y-136857300D02*
X100168500Y-139865700D01*
X94798000Y-134464300D02*
X96010500Y-135676800D01*
X118552660Y-149860000D02*
X125730000Y-149860000D01*
X100168500Y-139865700D02*
X101285300Y-139865700D01*
X96284800Y-135676800D02*
X97160100Y-136552100D01*
X97160100Y-136552100D02*
X97160100Y-136857300D01*
X96274400Y-128654800D02*
X96274400Y-129321900D01*
X96274400Y-129321900D02*
X94798000Y-130798300D01*
X94798000Y-130798300D02*
X94798000Y-134464300D01*
%TO.N,/PA1*%
X140845500Y-140970000D02*
X142240000Y-140970000D01*
X142240000Y-140970000D02*
X143510000Y-142240000D01*
X108345000Y-122315000D02*
X107950000Y-121920000D01*
X107345000Y-128905000D02*
X108345000Y-127905000D01*
X108345000Y-127905000D02*
X108345000Y-122315000D01*
X136019368Y-132080000D02*
X139928120Y-135988752D01*
X109732500Y-127905000D02*
X110345000Y-128517500D01*
X139928120Y-140052620D02*
X140845500Y-140970000D01*
X139928120Y-135988752D02*
X139928120Y-140052620D01*
X113154400Y-132080000D02*
X136019368Y-132080000D01*
X110345000Y-128517500D02*
X110345000Y-129270600D01*
X108345000Y-127905000D02*
X109732500Y-127905000D01*
X110345000Y-129270600D02*
X113154400Y-132080000D01*
%TO.N,/PB6*%
X114027275Y-145873445D02*
X119005730Y-150851900D01*
X99182000Y-139453900D02*
X99182000Y-141889900D01*
X119005730Y-150851900D02*
X127278100Y-150851900D01*
X99182000Y-141889900D02*
X103165545Y-145873445D01*
X106835800Y-126395800D02*
X106835800Y-120494200D01*
X106835800Y-120494200D02*
X107950000Y-119380000D01*
X127278100Y-150851900D02*
X128270000Y-149860000D01*
X103165545Y-145873445D02*
X114027275Y-145873445D01*
X107345000Y-126905000D02*
X106835800Y-126395800D01*
X96260500Y-136532400D02*
X99182000Y-139453900D01*
%TO.N,/PA0*%
X135564500Y-132668900D02*
X139547600Y-136652000D01*
X139547600Y-140817600D02*
X140970000Y-142240000D01*
X109345000Y-128905000D02*
X113108900Y-132668900D01*
X139547600Y-136652000D02*
X139547600Y-140817600D01*
X113108900Y-132668900D02*
X135564500Y-132668900D01*
%TO.N,/PB7*%
X114609300Y-131499100D02*
X129919600Y-131499100D01*
X110409700Y-127969700D02*
X111754200Y-127969700D01*
X109345000Y-126905000D02*
X110409700Y-127969700D01*
X111754200Y-127969700D02*
X112292800Y-128508300D01*
X112292800Y-128508300D02*
X112292800Y-129182600D01*
X112292800Y-129182600D02*
X114609300Y-131499100D01*
%TO.N,/DA0*%
X111760000Y-138430000D02*
X113063300Y-137126700D01*
X113063300Y-137126700D02*
X126497900Y-137126700D01*
%TO.N,/DA1*%
X130810000Y-121920000D02*
X126345000Y-126385000D01*
X123283400Y-130555100D02*
X115021300Y-130555100D01*
X124933500Y-128905000D02*
X123283400Y-130555100D01*
X126345000Y-127905000D02*
X125345000Y-128905000D01*
X126345000Y-126385000D02*
X126345000Y-127905000D01*
%TO.N,/~{DCS0}*%
X129345000Y-128905000D02*
X130345000Y-127905000D01*
X130345000Y-127905000D02*
X130345000Y-126579800D01*
X130345000Y-126579800D02*
X135004800Y-121920000D01*
X135004800Y-121920000D02*
X135890000Y-121920000D01*
%TO.N,/RESET*%
X139964212Y-154940000D02*
X139624778Y-154600566D01*
X129845289Y-152000403D02*
X129845289Y-154729019D01*
X129845289Y-154729019D02*
X126700608Y-157873700D01*
X139624778Y-152019978D02*
X139040089Y-151435289D01*
X126700608Y-157873700D02*
X107708700Y-157873700D01*
X130410403Y-151435289D02*
X129845289Y-152000403D01*
X139624778Y-154600566D02*
X139624778Y-152019978D01*
X107708700Y-157873700D02*
X106045000Y-156210000D01*
X140970000Y-154940000D02*
X139964212Y-154940000D01*
X139040089Y-151435289D02*
X130410403Y-151435289D01*
%TO.N,/PC4*%
X111760000Y-135890000D02*
X129540000Y-135890000D01*
X129540000Y-135890000D02*
X130810000Y-137160000D01*
%TO.N,/PC6*%
X131491800Y-135301800D02*
X113291900Y-135301800D01*
X133350000Y-137160000D02*
X131491800Y-135301800D01*
%TO.N,Net-(RN1-Pad4)*%
X76952500Y-145532500D02*
X83937500Y-145532500D01*
X83937500Y-145532500D02*
X86995000Y-148590000D01*
X74295000Y-142875000D02*
X76952500Y-145532500D01*
%TO.N,Net-(RN1-Pad8)*%
X71350500Y-141781300D02*
X70485000Y-142646800D01*
X84455000Y-142875000D02*
X83361300Y-141781300D01*
X68131900Y-147545900D02*
X68131900Y-152586900D01*
X70485000Y-145192800D02*
X68131900Y-147545900D01*
X68131900Y-152586900D02*
X71755000Y-156210000D01*
X83361300Y-141781300D02*
X71350500Y-141781300D01*
X70485000Y-142646800D02*
X70485000Y-145192800D01*
D26*
%TO.N,/IDE_VCC*%
X151892000Y-139065000D02*
X151892000Y-149352000D01*
X151892000Y-149352000D02*
X152400000Y-149860000D01*
D28*
%TO.N,/PC0*%
X130810000Y-139700000D02*
X129540000Y-140970000D01*
X129540000Y-140970000D02*
X111760000Y-140970000D01*
%TO.N,/PC1*%
X110655600Y-136377800D02*
X110655600Y-135902800D01*
X128270000Y-137160000D02*
X127682300Y-136572300D01*
X127682300Y-136572300D02*
X112858900Y-136572300D01*
X112858900Y-136572300D02*
X112388100Y-137043100D01*
X110655600Y-135902800D02*
X108187800Y-133435000D01*
X112388100Y-137043100D02*
X111320900Y-137043100D01*
X108187800Y-133435000D02*
X106674500Y-133435000D01*
X111320900Y-137043100D02*
X110655600Y-136377800D01*
%TO.N,Net-(RN1-Pad3)*%
X80102700Y-146777700D02*
X81915000Y-148590000D01*
X75657700Y-146777700D02*
X80102700Y-146777700D01*
X71755000Y-142875000D02*
X75657700Y-146777700D01*
%TO.N,/DMACK*%
X121345000Y-128905000D02*
X120398400Y-129851600D01*
X125730000Y-121920000D02*
X122345000Y-125305000D01*
X122345000Y-127905000D02*
X121345000Y-128905000D01*
X120398400Y-129851600D02*
X114271900Y-129851600D01*
X122345000Y-125305000D02*
X122345000Y-127905000D01*
%TO.N,/~{DCS1}*%
X128345000Y-129231500D02*
X126639100Y-130937400D01*
X126639100Y-130937400D02*
X123837800Y-130937400D01*
X129345000Y-126905000D02*
X128345000Y-127905000D01*
X128345000Y-127905000D02*
X128345000Y-129231500D01*
%TO.N,/~{RESET}*%
X110260000Y-163000000D02*
X106317100Y-159057100D01*
X106317100Y-159057100D02*
X104969600Y-159057100D01*
%TO.N,/~{WR}*%
X123008255Y-160411745D02*
X124703255Y-160411745D01*
X120420000Y-163000000D02*
X123008255Y-160411745D01*
%TO.N,/~{IORQ}*%
X68561000Y-158496000D02*
X123571000Y-158496000D01*
X123571000Y-158496000D02*
X125500000Y-160425000D01*
X125500000Y-160425000D02*
X125500000Y-163000000D01*
X66675000Y-156610000D02*
X68561000Y-158496000D01*
%TO.N,/~{PIO_CS}*%
X70866000Y-150622000D02*
X92964000Y-150622000D01*
X110070990Y-147753415D02*
X111569955Y-146254450D01*
X119050289Y-151435289D02*
X128669597Y-151435289D01*
X109021585Y-150044010D02*
X110070990Y-148994605D01*
X92964000Y-150622000D02*
X93542000Y-150044000D01*
X95080405Y-150044000D02*
X97988415Y-147135990D01*
X130737286Y-149367600D02*
X132705500Y-149367600D01*
X111569955Y-146254450D02*
X113869450Y-146254450D01*
X102019010Y-148994605D02*
X103068415Y-150044010D01*
X113869450Y-146254450D02*
X119050289Y-151435289D01*
X103068415Y-150044010D02*
X109021585Y-150044010D01*
X110070990Y-148994605D02*
X110070990Y-147753415D01*
X97988415Y-147135990D02*
X101401585Y-147135990D01*
X70269000Y-150044000D02*
X70288000Y-150044000D01*
X128669597Y-151435289D02*
X130737286Y-149367600D01*
X102019010Y-147753415D02*
X102019010Y-148994605D01*
X70288000Y-150044000D02*
X70866000Y-150622000D01*
X101401585Y-147135990D02*
X102019010Y-147753415D01*
X93542000Y-150044000D02*
X95080405Y-150044000D01*
X69215000Y-148990000D02*
X70269000Y-150044000D01*
%TO.N,/~{M1}*%
X104983900Y-160257700D02*
X84231800Y-160257700D01*
X107720000Y-162993800D02*
X104983900Y-160257700D01*
%TO.N,/~{ACT}*%
X132345000Y-127905000D02*
X132345000Y-126517000D01*
X145415000Y-123825000D02*
X140335000Y-123825000D01*
X136074700Y-124275300D02*
X138430000Y-121920000D01*
X140335000Y-123825000D02*
X138430000Y-121920000D01*
X132345000Y-126517000D02*
X134586700Y-124275300D01*
X131345000Y-128905000D02*
X132345000Y-127905000D01*
X134586700Y-124275300D02*
X136074700Y-124275300D01*
%TD*%
M02*
